<?xml version="1.0" encoding="UTF-8"?>
<svg xmlns="http://www.w3.org/2000/svg" xmlns:xlink="http://www.w3.org/1999/xlink" version="1.2" >
<font id="Conduit ITC Medium">
<font-face  font-family="Conduit ITC" units-per-em="1000" ascent="630.127" descent="-233.887" font-style="normal" font-weight="500" font-stretch="normal" cap-height="750" x-height="500" underline-position="-82" underline-thickness="60" />
<missing-glyph  horiz-adv-x="179" d="" />
<glyph glyph-name="NULL" d="" />
<glyph glyph-name="CR" unicode="&#xd;" horiz-adv-x="250" d="" />
<glyph glyph-name="space" unicode="&#x20;" horiz-adv-x="179" d="" />
<glyph glyph-name="exclam" unicode="&#x21;" horiz-adv-x="270" d="M195 362 L195 620 C195 627 191 630 185 630 L115 630 C108 630 105 627 105 620 L105 362 L127 189 C128 183 131 180 137 180 L164 180 C170 180 173 183 174 189 L195 362 Z M205 45 C205 76 181 100 150 100 C119 100 95 77 95 45 C95 13 118 -10 150 -10 C182 -10 205 14 205 45 L205 45 Z " />
<glyph glyph-name="quotedbl" unicode="&#x22;" horiz-adv-x="310" d="M269 619 L269 621 C269 627 265 630 259 630 L191 630 C185 630 181 627 181 621 L181 619 L202 459 C203 453 206 450 212 450 L239 450 C245 450 248 453 249 459 L269 619 Z M129 619 L129 621 C129 627 125 630 119 630 L51 630 C45 630 41 627 41 621 L41 619 L62 459 C63 453 66 450 72 450 L99 450 C104 450 108 453 109 459 L129 619 Z " />
<glyph glyph-name="numbersign" unicode="&#x23;" horiz-adv-x="561" d="M524 440 C524 442 525 443 525 444 C525 448 522 450 517 450 L456 450 C449 450 445 453 445 459 C445 460 446 462 446 463 L489 617 C489 618 490 620 490 621 C490 627 486 630 479 630 L446 630 C440 630 437 628 436 623 L388 458 C386 453 383 450 378 450 L266 450 C259 450 255 453 255 459 C255 460 256 462 256 463 L299 617 C299 618 300 620 300 621 C300 627 296 630 289 630 L256 630 C250 630 248 628 246 623 L199 458 C197 453 194 450 189 450 L112 450 C105 450 101 447 99 440 L83 380 C83 378 82 377 82 376 C82 372 85 370 90 370 L160 370 C167 370 171 367 171 361 C171 360 170 359 170 358 L144 268 C142 263 139 260 134 260 L66 260 C59 260 55 256 53 250 L37 190 C37 188 36 187 36 186 C36 182 39 180 44 180 L106 180 C113 180 117 177 117 171 C117 170 116 169 116 168 L72 13 C72 11 71 10 71 9 C71 3 75 0 82 0 L115 0 C120 0 124 2 125 7 L172 174 C173 179 176 180 182 180 L295 180 C302 180 306 177 306 171 C306 170 305 169 305 168 L262 13 C262 11 261 10 261 9 C261 3 265 0 272 0 L305 0 C310 0 314 2 315 7 L363 174 C364 179 367 180 373 180 L449 180 C456 180 460 183 462 190 L478 250 C478 252 479 253 479 254 C479 258 476 260 471 260 L401 260 C394 260 390 263 390 269 C390 270 391 272 391 273 L417 364 C418 369 421 370 427 370 L495 370 C502 370 506 373 508 380 L524 440 Z M359 358 L334 268 C332 263 329 260 324 260 L211 260 C204 260 200 263 200 269 C200 270 201 272 201 273 L227 364 C228 369 231 370 237 370 L349 370 C356 370 360 367 360 361 C360 360 359 359 359 358 L359 358 Z " />
<glyph glyph-name="dollar" unicode="&#x24;" horiz-adv-x="510" d="M281 371 L281 547 C281 554 284 557 290 557 C303 557 320 549 332 533 C349 511 357 497 363 497 C365 497 367 498 369 499 L432 531 C436 533 437 535 437 539 C437 567 394 617 309 635 C288 639 281 637 281 649 L281 680 C281 687 278 690 271 690 L246 690 C239 690 236 687 236 680 L236 648 C236 632 201 640 163 621 C105 591 75 539 75 470 C75 400 110 344 174 311 C209 293 233 287 236 274 L236 80 C236 71 233 70 222 70 C187 70 171 95 146 127 C143 131 141 133 137 133 C136 133 134 133 132 132 L69 100 C65 98 63 96 63 93 C63 77 81 49 120 19 C143 2 180 -9 229 -10 C235 -11 236 -14 236 -20 L236 -50 C236 -57 239 -60 246 -60 L271 -60 C278 -60 281 -57 281 -50 L281 -19 C281 0 315 -13 356 8 C420 41 451 90 451 160 C451 237 417 292 346 333 C308 355 281 358 281 371 L281 371 Z M236 403 C236 396 234 392 229 392 C210 392 165 429 165 470 C165 516 199 554 229 554 C233 554 236 550 236 544 L236 403 Z M281 82 L281 241 C281 248 283 252 288 252 C309 252 361 210 361 160 C361 112 324 72 290 72 C283 72 281 75 281 82 L281 82 Z " />
<glyph glyph-name="percent" unicode="&#x25;" horiz-adv-x="510" d="M233 445 L233 545 C233 595 198 630 143 630 C88 630 53 596 53 545 L53 445 C53 394 88 360 143 360 C198 360 233 395 233 445 L233 445 Z M407 616 C408 618 409 620 409 622 C409 627 405 630 398 630 L374 630 C370 630 367 628 365 624 L104 14 C103 11 102 9 102 7 C102 3 106 0 113 0 L137 0 C142 1 145 4 146 6 L407 616 Z M458 85 L458 185 C458 235 423 270 368 270 C313 270 278 236 278 185 L278 85 C278 34 313 0 368 0 C423 0 458 35 458 85 L458 85 Z M178 445 C178 425 163 410 143 410 C122 410 108 425 108 445 L108 545 C108 565 123 580 143 580 C163 580 178 565 178 545 L178 445 Z M403 85 C403 65 388 50 368 50 C347 50 333 65 333 85 L333 185 C333 205 347 220 368 220 C388 220 403 205 403 185 L403 85 Z " />
<glyph glyph-name="ampersand" unicode="&#x26;" horiz-adv-x="620" d="M600 1 L600 71 C600 77 597 79 592 81 C559 95 517 108 477 153 L474 160 L474 180 C474 229 515 270 564 270 L590 270 C597 270 600 273 600 280 L600 350 C600 357 597 360 590 360 L572 360 C512 360 465 339 442 308 C412 267 404 240 397 240 C389 240 377 258 352 280 C338 293 329 299 329 305 C329 318 360 322 383 350 C407 380 420 413 420 440 L420 460 C420 570 350 640 240 640 C129 640 60 571 60 458 C60 403 82 378 107 349 C119 335 128 328 128 321 C128 314 107 304 91 279 C70 247 60 217 60 193 L60 168 C60 59 129 -10 240 -10 L270 -10 C321 -10 360 2 386 25 C411 47 421 63 426 63 C430 63 440 54 459 41 C497 15 531 -9 589 -9 C597 -9 600 -6 600 1 L600 1 Z M330 450 C330 405 299 371 239 356 C180 394 150 430 150 470 C150 520 190 560 240 560 C290 560 330 519 330 470 L330 450 Z M359 130 C335 90 305 70 270 70 L240 70 C190 70 150 110 150 160 L150 190 C150 224 166 250 198 272 L208 271 C265 241 313 198 358 139 L359 130 Z " />
<glyph glyph-name="quotesingle" unicode="&#x27;" horiz-adv-x="170" d="M129 619 L129 621 C129 627 125 630 119 630 L51 630 C45 630 41 627 41 621 L41 619 L62 459 C63 453 66 450 72 450 L99 450 C104 450 108 453 109 459 L129 619 Z " />
<glyph glyph-name="parenleft" unicode="&#x28;" horiz-adv-x="360" d="M270 -169 L270 -109 C270 -102 267 -101 262 -99 C213 -77 180 -66 180 -10 L180 560 C180 615 213 628 262 649 C267 651 270 652 270 659 L270 719 C270 728 264 729 250 729 C167 729 90 659 90 550 L90 0 C90 -109 167 -179 250 -179 C264 -179 270 -178 270 -169 L270 -169 Z " />
<glyph glyph-name="parenright" unicode="&#x29;" horiz-adv-x="360" d="M270 0 L270 550 C270 659 193 729 109 729 C96 729 90 728 90 719 L90 659 C90 652 93 651 98 649 C147 628 180 615 180 560 L180 -10 C180 -30 173 -48 158 -67 C149 -78 127 -86 98 -99 C93 -101 90 -102 90 -109 L90 -169 C90 -178 95 -179 109 -179 C193 -179 270 -108 270 0 L270 0 Z " />
<glyph glyph-name="asterisk" unicode="&#x2a;" horiz-adv-x="388" d="M358 457 C359 459 360 461 360 463 C360 467 358 469 353 471 L259 511 C254 513 251 517 251 520 C251 523 254 527 259 529 L353 570 C358 572 360 575 360 578 C360 580 359 582 358 584 L332 628 C330 632 327 634 324 634 C322 634 320 633 317 631 L235 572 C232 570 230 569 227 569 C223 569 219 573 219 579 L219 581 L230 680 L230 682 C230 688 226 691 220 691 L168 691 C162 691 158 688 158 682 L158 680 L169 581 L169 579 C169 573 165 569 161 569 C158 569 156 570 153 572 L74 631 C71 633 69 634 67 634 C64 634 61 632 59 628 L33 584 C32 582 31 580 31 578 C31 575 33 572 38 570 L130 529 C135 527 137 524 137 520 C137 517 135 513 130 511 L38 472 C33 470 31 468 31 464 C31 462 32 460 33 458 L59 413 C61 409 64 407 67 407 C69 407 71 408 74 410 L154 467 C157 469 160 470 162 470 C166 470 170 466 170 460 L170 458 L158 358 L158 356 C158 350 162 347 168 347 L220 347 C226 347 230 350 230 356 L230 358 L218 458 L218 460 C218 466 222 470 226 470 C228 470 231 469 234 467 L317 410 C319 408 322 408 324 408 C327 408 330 409 332 413 L358 457 Z " />
<glyph glyph-name="plus" unicode="&#x2b;" horiz-adv-x="510" d="M465 220 L465 260 C465 267 462 270 455 270 L295 270 C288 270 285 273 285 280 L285 440 C285 447 282 450 275 450 L235 450 C228 450 225 447 225 440 L225 280 C225 273 222 270 215 270 L55 270 C48 270 45 267 45 260 L45 220 C45 213 48 210 55 210 L215 210 C221 210 225 206 225 200 L225 40 C225 33 228 30 235 30 L275 30 C282 30 285 33 285 40 L285 200 C285 207 288 210 295 210 L455 210 C462 210 465 213 465 220 L465 220 Z " />
<glyph glyph-name="comma" unicode="&#x2c;" horiz-adv-x="220" d="M165 36 L165 98 C165 105 161 108 155 108 L65 108 C58 108 55 105 55 98 L55 26 C55 19 58 16 65 16 L78 16 C86 16 88 11 88 0 C88 -59 45 -77 45 -91 C45 -92 46 -93 46 -94 L60 -123 C62 -128 64 -130 67 -130 C76 -130 100 -117 127 -86 C153 -57 165 -16 165 36 L165 36 Z " />
<glyph glyph-name="hyphen" unicode="&#x2d;" horiz-adv-x="270" d="M225 190 L225 260 C225 267 222 270 215 270 L55 270 C48 270 45 267 45 260 L45 190 C45 183 48 180 55 180 L215 180 C222 180 225 183 225 190 L225 190 Z " />
<glyph glyph-name="period" unicode="&#x2e;" horiz-adv-x="220" d="M165 45 C165 76 141 100 110 100 C79 100 55 76 55 45 C55 13 78 -10 110 -10 C142 -10 165 14 165 45 L165 45 Z " />
<glyph glyph-name="slash" unicode="&#x2f;" horiz-adv-x="325" d="M66 9 L319 609 C320 612 321 615 321 617 C321 625 315 630 305 630 L272 630 C267 630 261 627 259 621 L6 21 C5 18 4 15 4 13 C4 5 10 0 20 0 L53 0 C59 0 64 3 66 9 L66 9 Z " />
<glyph glyph-name="zero" unicode="0" horiz-adv-x="510" d="M450 160 L450 470 C450 572 379 640 270 640 L240 640 C131 640 60 572 60 470 L60 160 C60 58 131 -10 240 -10 L270 -10 C379 -10 450 58 450 160 L450 160 Z M360 160 C360 110 320 70 270 70 L240 70 C190 70 150 110 150 160 L150 470 C150 520 190 560 240 560 L270 560 C320 560 360 520 360 470 L360 160 Z " />
<glyph glyph-name="one" unicode="1" horiz-adv-x="510" d="M438 10 L438 70 C438 77 434 80 428 80 L328 80 C321 80 318 83 318 90 L318 620 C318 627 314 630 308 630 L273 630 L266 627 L105 466 C102 463 101 461 101 459 C101 457 102 455 105 452 L149 409 C152 406 154 405 156 405 C158 405 160 406 163 409 L211 458 C214 461 216 462 219 462 C224 462 228 458 228 451 L228 90 C228 83 225 80 218 80 L118 80 C111 80 108 77 108 70 L108 10 C108 3 111 0 118 0 L428 0 C435 0 438 3 438 10 L438 10 Z " />
<glyph glyph-name="two" unicode="2" horiz-adv-x="510" d="M263 640 L225 640 C178 640 139 628 117 611 C78 582 59 555 59 538 C59 535 61 533 65 531 L128 499 C130 498 132 498 133 498 C137 498 139 500 142 504 C165 534 179 560 225 560 L263 560 C312 560 353 521 353 470 C353 409 300 382 224 335 C124 272 75 215 75 116 L75 10 C75 3 78 0 85 0 L425 0 C432 0 435 3 435 10 L435 70 C435 77 431 80 425 80 L175 80 C168 80 165 83 165 90 L165 116 C165 167 193 204 252 241 C295 268 336 290 371 319 C417 357 443 412 443 470 C443 571 372 640 263 640 L263 640 Z " />
<glyph glyph-name="three" unicode="3" horiz-adv-x="510" d="M435 168 L435 198 C435 222 425 250 404 281 C387 306 367 317 367 324 C367 331 387 341 404 364 C425 393 435 421 435 445 L435 460 C435 570 365 640 255 640 L225 640 C178 640 139 628 117 611 C78 582 59 555 59 538 C59 535 61 533 65 531 L128 499 C130 498 132 498 133 498 C137 498 139 500 142 504 C165 534 179 560 225 560 L255 560 C304 560 345 520 345 470 L345 455 C345 405 304 365 255 365 L175 365 C168 365 165 362 165 355 L165 295 C165 288 168 285 175 285 L255 285 C304 285 345 245 345 195 L345 160 C345 110 304 70 255 70 L225 70 C179 70 165 96 142 127 C139 131 138 134 134 134 C133 134 130 133 128 132 L65 100 C61 98 59 96 59 93 C59 77 77 49 116 19 C138 2 177 -10 225 -10 L255 -10 C366 -10 435 59 435 168 L435 168 Z " />
<glyph glyph-name="four" unicode="4" horiz-adv-x="510" d="M480 155 L480 215 C480 221 477 225 470 225 L400 225 C393 225 390 228 390 235 L390 620 C390 627 386 630 380 630 L305 630 L297 626 L32 225 L31 155 L31 153 C31 147 34 145 40 145 L290 145 C296 145 300 141 300 135 L300 10 C300 3 303 0 310 0 L380 0 C387 0 390 3 390 10 L390 135 C390 142 393 145 400 145 L470 145 C477 145 480 148 480 155 L480 155 Z M300 235 C300 228 297 225 290 225 L139 225 C132 225 128 228 128 233 C128 235 129 238 131 241 L282 468 C284 472 288 473 291 473 C296 473 300 469 300 462 L300 235 Z " />
<glyph glyph-name="five" unicode="5" horiz-adv-x="510" d="M451 168 L451 187 C451 296 382 365 271 365 L201 365 C194 365 191 368 191 375 L191 540 C191 547 194 550 201 550 L431 550 C438 550 441 553 441 560 L441 620 C441 627 437 630 431 630 L111 630 C104 630 101 627 101 620 L101 295 C101 288 104 285 111 285 L271 285 C320 285 361 245 361 195 L361 160 C361 110 320 70 271 70 L241 70 C195 70 181 96 158 127 C155 131 153 134 149 134 C148 134 146 133 144 132 L81 100 C77 98 75 96 75 93 C75 77 93 49 132 19 C154 2 193 -10 241 -10 L271 -10 C382 -10 451 59 451 168 L451 168 Z " />
<glyph glyph-name="six" unicode="6" horiz-adv-x="510" d="M450 160 L450 200 C450 299 377 370 280 370 L250 370 C198 370 167 337 158 337 C153 337 150 341 150 348 L150 470 C150 520 190 560 240 560 L270 560 C318 560 331 535 354 504 C357 500 358 497 362 497 C364 497 366 498 368 499 L431 531 C435 533 437 535 437 538 C437 575 369 640 270 640 L240 640 C131 640 60 572 60 470 L60 160 C60 58 131 -10 240 -10 L270 -10 C379 -10 450 58 450 160 L450 160 Z M360 160 C360 114 329 82 270 70 L240 70 C190 70 150 110 150 160 L150 200 C150 250 190 290 240 290 L270 290 C320 290 360 250 360 200 L360 160 Z " />
<glyph glyph-name="seven" unicode="7" horiz-adv-x="510" d="M445 514 L445 620 C445 627 441 630 435 630 L95 630 C88 630 85 627 85 620 L85 560 C85 553 88 550 95 550 L345 550 C352 550 355 547 355 540 L355 514 C355 442 306 410 234 360 C150 302 105 255 105 160 L105 10 C105 3 108 0 115 0 L185 0 C192 0 195 3 195 10 L195 160 C195 216 234 244 296 287 C390 352 445 404 445 514 L445 514 Z " />
<glyph glyph-name="eight" unicode="8" horiz-adv-x="510" d="M450 168 L450 193 C450 217 440 245 419 276 C402 302 382 313 382 319 C382 327 403 336 419 359 C440 388 450 416 450 440 L450 460 C450 570 380 640 270 640 L240 640 C130 640 60 570 60 460 L60 440 C60 416 70 388 91 359 C107 336 128 327 128 319 C128 312 107 302 90 276 C69 245 60 216 60 193 L60 168 C60 59 129 -10 240 -10 L270 -10 C381 -10 450 59 450 168 L450 168 Z M360 450 C360 400 320 360 270 360 L240 360 C190 360 150 400 150 450 L150 470 C150 520 190 560 240 560 L270 560 C320 560 360 520 360 470 L360 450 Z M360 160 C360 110 320 70 270 70 L240 70 C190 70 150 110 150 160 L150 190 C150 239 190 280 240 280 L270 280 C320 280 360 239 360 190 L360 160 Z " />
<glyph glyph-name="nine" unicode="9" horiz-adv-x="510" d="M450 160 L450 470 C450 572 379 640 270 640 L240 640 C131 640 60 572 60 470 L60 395 C60 296 132 225 230 225 L260 225 C310 225 339 258 353 258 C357 258 360 254 360 247 L360 160 C360 110 320 70 270 70 L240 70 C191 70 180 96 157 127 C154 131 153 134 149 134 C148 134 145 133 143 132 L80 100 C76 98 74 95 74 93 C74 77 92 49 131 19 C153 2 192 -10 240 -10 L270 -10 C379 -10 450 58 450 160 L450 160 Z M360 395 C360 346 320 305 270 305 L240 305 C190 305 150 346 150 395 L150 470 C150 520 190 560 240 560 L270 560 C320 560 360 520 360 470 L360 395 Z " />
<glyph glyph-name="colon" unicode="&#x3a;" horiz-adv-x="220" d="M165 315 C165 346 141 370 110 370 C79 370 55 347 55 315 C55 284 79 260 110 260 C141 260 165 284 165 315 L165 315 Z M165 45 C165 76 141 100 110 100 C79 100 55 76 55 45 C55 13 78 -10 110 -10 C142 -10 165 14 165 45 L165 45 Z " />
<glyph glyph-name="semicolon" unicode="&#x3b;" horiz-adv-x="220" d="M165 315 C165 346 141 370 110 370 C79 370 55 347 55 315 C55 284 79 260 110 260 C141 260 165 284 165 315 L165 315 Z M165 36 L165 98 C165 105 161 108 155 108 L65 108 C58 108 55 105 55 98 L55 26 C55 19 58 16 65 16 L78 16 C86 16 88 11 88 0 C88 -59 45 -77 45 -91 C45 -92 46 -93 46 -94 L60 -123 C62 -128 64 -130 67 -130 C76 -130 100 -117 127 -86 C153 -57 165 -16 165 36 L165 36 Z " />
<glyph glyph-name="less" unicode="&#x3c;" horiz-adv-x="510" d="M416 63 C417 65 418 67 418 69 C418 72 416 75 412 77 L142 233 C138 236 135 239 135 242 C135 245 138 248 142 251 L411 407 C415 409 417 413 417 416 C417 418 416 419 415 421 L395 455 C393 459 390 461 387 461 C385 461 383 460 381 459 L71 279 L66 270 L66 213 L71 204 L381 25 C383 24 385 23 387 23 C390 23 393 25 395 29 L416 63 Z " />
<glyph glyph-name="equal" unicode="&#x3d;" horiz-adv-x="510" d="M465 310 L465 350 C465 357 462 360 455 360 L55 360 C48 360 45 357 45 350 L45 310 C45 303 48 300 55 300 L455 300 C462 300 465 303 465 310 L465 310 Z M465 130 L465 170 C465 177 461 180 455 180 L55 180 C48 180 45 177 45 170 L45 130 C45 123 48 120 55 120 L455 120 C462 120 465 123 465 130 L465 130 Z " />
<glyph glyph-name="greater" unicode="&#x3e;" horiz-adv-x="510" d="M444 213 L444 270 L439 279 L130 459 C128 460 126 461 124 461 C121 461 118 459 116 455 L95 421 C94 419 93 417 93 415 C93 412 95 409 99 407 L368 251 C372 248 375 245 375 242 C375 239 372 236 368 233 L99 77 C95 75 93 72 93 69 C93 67 94 65 95 63 L116 29 C118 25 121 23 124 23 C126 23 128 24 130 25 L439 204 L444 213 Z " />
<glyph glyph-name="question" unicode="&#x3f;" horiz-adv-x="510" d="M266 640 L228 640 C129 640 62 575 62 538 C62 535 64 533 68 531 L131 499 C133 498 135 498 136 498 C140 498 142 500 145 504 C168 534 182 560 228 560 L266 560 C315 560 356 521 356 470 C356 411 313 394 247 360 C189 331 163 293 163 236 C163 195 164 180 177 180 L246 180 C253 180 256 183 256 191 C256 196 253 206 253 222 C253 276 295 290 355 320 C419 352 446 397 446 470 C446 571 375 640 266 640 L266 640 Z M280 45 C280 76 256 100 225 100 C194 100 170 77 170 45 C170 13 193 -10 225 -10 C257 -10 280 14 280 45 L280 45 Z " />
<glyph glyph-name="at" unicode="&#x40;" horiz-adv-x="720" d="M534 155 C592 155 630 193 630 247 L630 456 C630 560 557 630 447 630 L273 630 C163 630 90 560 90 456 L90 174 C90 70 162 0 273 0 L524 0 C536 0 543 7 543 19 L543 44 C543 56 536 63 524 63 L273 63 C200 63 153 107 153 174 L153 456 C153 522 200 567 273 567 L447 567 C520 567 567 522 567 456 L567 252 C567 234 551 218 534 218 L522 218 C502 218 487 233 487 252 L488 459 C488 472 481 479 469 479 L446 479 C434 479 426 471 426 459 L426 456 C401 471 377 479 353 479 C284 479 231 429 231 358 L231 277 C231 205 284 155 353 155 C383 155 412 167 442 190 C464 166 489 155 521 155 L534 155 Z M426 350 L426 285 C426 249 396 218 359 218 C322 218 294 247 294 285 L294 350 C294 385 323 416 359 416 C397 416 426 386 426 350 L426 350 Z " />
<glyph glyph-name="A" unicode="A" horiz-adv-x="450" d="M448 13 L262 623 C260 628 257 630 252 630 L198 630 C192 630 189 628 188 623 L2 13 C2 11 1 10 1 9 C1 3 5 0 12 0 L87 0 C92 0 96 2 97 7 L134 139 C135 144 138 145 144 145 L306 145 C312 145 315 144 316 139 L353 7 C354 2 358 0 363 0 L438 0 C445 0 449 3 449 9 C449 10 448 11 448 13 L448 13 Z M287 238 C287 237 288 235 288 234 C288 228 284 225 277 225 L172 225 C165 225 161 228 161 234 C161 235 162 236 162 238 L211 425 L223 470 L227 470 C232 451 236 436 239 426 L287 238 Z " />
<glyph glyph-name="B" unicode="B" horiz-adv-x="520" d="M465 178 L465 193 C465 217 455 245 434 276 C417 302 397 313 397 319 C397 326 417 335 434 359 C455 388 465 416 465 440 L465 450 C465 560 395 630 285 630 L85 630 C78 630 75 627 75 620 L75 10 C75 3 78 0 85 0 L285 0 C396 0 465 68 465 178 L465 178 Z M375 450 C375 400 335 360 285 360 L175 360 C168 360 165 363 165 370 L165 540 C165 547 168 550 175 550 L285 550 C335 550 375 510 375 460 L375 450 Z M375 170 C375 121 335 80 285 80 L175 80 C168 80 165 83 165 90 L165 270 C165 277 168 280 175 280 L285 280 C335 280 375 239 375 190 L375 170 Z " />
<glyph glyph-name="C" unicode="C" horiz-adv-x="465" d="M431 100 L368 132 C366 133 364 134 362 134 C355 134 346 117 324 91 C315 80 294 70 270 70 L240 70 C190 70 150 110 150 160 L150 470 C150 520 190 560 240 560 L270 560 C313 560 330 535 353 504 C356 500 357 498 361 498 C362 498 364 498 366 499 L430 531 C434 533 436 536 436 539 C436 578 368 640 270 640 L240 640 C131 640 60 572 60 470 L60 160 C60 58 131 -10 240 -10 L270 -10 C323 -10 365 4 395 32 C425 60 437 86 437 93 C437 96 435 98 431 100 L431 100 Z " />
<glyph glyph-name="D" unicode="D" horiz-adv-x="525" d="M465 180 L465 450 C465 560 395 630 285 630 L85 630 C78 630 75 627 75 620 L75 10 C75 3 78 0 85 0 L285 0 C396 0 465 69 465 180 L465 180 Z M375 170 C375 121 335 80 285 80 L175 80 C168 80 165 83 165 90 L165 540 C165 547 168 550 175 550 L285 550 C335 550 375 510 375 460 L375 170 Z " />
<glyph glyph-name="E" unicode="E" horiz-adv-x="480" d="M435 10 L435 70 C435 77 431 80 425 80 L175 80 C168 80 165 83 165 90 L165 270 C165 277 168 280 175 280 L380 280 C387 280 390 283 390 290 L390 350 C390 357 387 360 380 360 L175 360 C168 360 165 363 165 370 L165 540 C165 547 168 550 175 550 L425 550 C432 550 435 553 435 560 L435 620 C435 627 431 630 425 630 L85 630 C78 630 75 627 75 620 L75 10 C75 3 78 0 85 0 L425 0 C432 0 435 3 435 10 L435 10 Z " />
<glyph glyph-name="F" unicode="F" horiz-adv-x="455" d="M435 560 L435 620 C435 627 431 630 425 630 L85 630 C78 630 75 627 75 620 L75 10 C75 3 78 0 85 0 L155 0 C162 0 165 3 165 10 L165 270 C165 277 168 280 175 280 L380 280 C387 280 390 283 390 290 L390 350 C390 357 387 360 380 360 L175 360 C168 360 165 363 165 370 L165 540 C165 547 168 550 175 550 L425 550 C432 550 435 553 435 560 L435 560 Z " />
<glyph glyph-name="G" unicode="G" horiz-adv-x="510" d="M288 640 L240 640 C131 640 60 572 60 470 L60 160 C60 58 131 -10 240 -10 L270 -10 C379 -10 450 58 450 160 L450 305 C450 312 447 315 440 315 L250 315 C243 315 240 312 240 305 L240 245 C240 238 243 235 250 235 L350 235 C356 235 360 231 360 225 L360 160 C360 110 320 70 270 70 L240 70 C190 70 150 110 150 160 L150 470 C150 520 190 560 240 560 L288 560 C331 560 348 535 371 504 C374 500 375 498 379 498 C380 498 382 498 384 499 L448 531 C452 533 454 536 454 539 C454 578 386 640 288 640 L288 640 Z " />
<glyph glyph-name="H" unicode="H" horiz-adv-x="555" d="M480 10 L480 620 C480 627 477 630 470 630 L400 630 C393 630 390 627 390 620 L390 370 C390 363 387 360 380 360 L175 360 C168 360 165 363 165 370 L165 620 C165 627 161 630 155 630 L85 630 C78 630 75 627 75 620 L75 10 C75 3 78 0 85 0 L155 0 C162 0 165 3 165 10 L165 270 C165 277 168 280 175 280 L380 280 C386 280 390 277 390 270 L390 10 C390 3 393 0 400 0 L470 0 C477 0 480 3 480 10 L480 10 Z " />
<glyph glyph-name="I" unicode="I" horiz-adv-x="240" d="M165 10 L165 620 C165 627 161 630 155 630 L85 630 C78 630 75 627 75 620 L75 10 C75 3 78 0 85 0 L155 0 C162 0 165 3 165 10 L165 10 Z " />
<glyph glyph-name="J" unicode="J" horiz-adv-x="420" d="M360 170 L360 620 C360 627 356 630 350 630 L280 630 C273 630 270 627 270 620 L270 160 C270 111 230 70 180 70 C134 70 120 95 96 127 C93 131 91 133 88 133 C86 133 85 133 83 132 L20 101 C16 99 13 97 13 94 C13 78 37 46 85 19 C119 0 154 -10 185 -10 C233 -10 275 9 307 43 C341 79 360 124 360 170 L360 170 Z " />
<glyph glyph-name="K" unicode="K" horiz-adv-x="525" d="M518 15 L299 367 C298 369 298 370 298 372 C298 374 298 376 300 378 L492 614 C494 617 495 620 495 622 C495 627 491 630 484 630 L401 630 L393 626 L183 351 C180 347 177 345 174 345 C169 345 165 350 165 357 L165 620 C165 627 161 630 155 630 L85 630 C78 630 75 627 75 620 L75 10 C75 3 78 0 85 0 L155 0 C162 0 165 3 165 10 L165 210 C191 245 214 274 233 296 L413 5 L421 0 L510 0 C516 0 520 3 520 8 C520 10 520 12 518 15 L518 15 Z " />
<glyph glyph-name="L" unicode="L" horiz-adv-x="455" d="M435 10 L435 70 C435 77 431 80 425 80 L175 80 C168 80 165 83 165 90 L165 620 C165 627 161 630 155 630 L85 630 C78 630 75 627 75 620 L75 10 C75 3 78 0 85 0 L425 0 C432 0 435 3 435 10 L435 10 Z " />
<glyph glyph-name="M" unicode="M" horiz-adv-x="646" d="M571 10 L571 620 C571 627 568 630 561 630 L490 631 L481 625 L324 227 L321 227 L163 624 C162 628 158 630 154 630 L85 630 C78 630 75 627 75 620 L75 10 C75 3 78 0 85 0 L155 0 C162 0 165 3 165 10 L156 455 L297 96 C298 94 301 91 306 90 L340 90 C345 91 348 94 349 96 L492 454 L481 10 C481 3 484 0 491 0 L561 0 C568 0 571 3 571 10 L571 10 Z " />
<glyph glyph-name="N" unicode="N" horiz-adv-x="555" d="M480 10 L480 620 C480 627 477 630 470 630 L400 630 C393 630 390 627 390 620 L395 177 L158 625 L149 630 L85 630 C78 630 75 627 75 620 L75 10 C75 3 78 0 85 0 L155 0 C162 0 165 3 165 10 L159 454 L397 5 L406 0 L470 0 C477 0 480 3 480 10 L480 10 Z " />
<glyph glyph-name="O" unicode="O" horiz-adv-x="510" d="M450 160 L450 470 C450 572 379 640 270 640 L240 640 C131 640 60 572 60 470 L60 160 C60 58 131 -10 240 -10 L270 -10 C379 -10 450 58 450 160 L450 160 Z M360 160 C360 110 320 70 270 70 L240 70 C190 70 150 110 150 160 L150 470 C150 520 190 560 240 560 L270 560 C320 560 360 520 360 470 L360 160 Z " />
<glyph glyph-name="P" unicode="P" horiz-adv-x="485" d="M285 630 L85 630 C78 630 75 627 75 620 L75 10 C75 3 78 0 85 0 L155 0 C162 0 165 3 165 10 L165 270 C165 277 168 280 175 280 L285 280 C393 280 465 350 465 450 C465 560 395 630 285 630 L285 630 Z M375 450 C375 400 335 360 285 360 L175 360 C168 360 165 363 165 370 L165 540 C165 547 168 550 175 550 L285 550 C335 550 375 510 375 460 L375 450 Z " />
<glyph glyph-name="Q" unicode="Q" horiz-adv-x="510" d="M450 160 L450 470 C450 572 379 640 270 640 L240 640 C131 640 60 572 60 470 L60 160 C60 93 88 41 144 11 C180 -9 215 -2 215 -18 L215 -80 C215 -87 218 -90 225 -90 L285 -90 C292 -90 295 -87 295 -80 L295 -18 C295 -1 327 -10 364 11 C421 43 450 94 450 160 L450 160 Z M360 160 C360 116 328 78 302 78 C298 78 295 82 295 88 L295 129 C295 136 292 139 285 139 L225 139 C218 139 215 136 215 129 L215 88 C215 82 212 78 208 78 C182 78 150 116 150 160 L150 470 C150 520 190 560 240 560 L270 560 C320 560 360 520 360 470 L360 160 Z " />
<glyph glyph-name="R" unicode="R" horiz-adv-x="510" d="M470 13 L373 293 C372 294 372 295 372 296 C372 306 390 309 408 326 C446 362 465 405 465 440 L465 450 C465 560 395 630 285 630 L85 630 C78 630 75 627 75 620 L75 10 C75 3 78 0 85 0 L155 0 C162 0 165 3 165 10 L165 270 C165 277 168 280 175 280 L274 280 L282 274 L375 7 L384 0 L461 0 C467 0 471 3 471 8 C471 10 471 11 470 13 L470 13 Z M375 450 C375 400 335 360 285 360 L175 360 C168 360 165 363 165 370 L165 540 C165 547 168 550 175 550 L285 550 C335 550 375 510 375 460 L375 450 Z " />
<glyph glyph-name="S" unicode="S" horiz-adv-x="440" d="M220 560 L236 560 C279 560 296 535 319 504 C322 500 323 498 327 498 C328 498 330 498 332 499 L396 531 C400 533 402 536 402 539 C402 577 334 640 236 640 L220 640 C111 640 40 572 40 470 C40 368 98 328 205 278 C283 242 326 217 326 160 C326 110 285 70 236 70 L194 70 C148 70 134 96 111 127 C108 131 106 134 102 134 C101 134 99 133 97 132 L34 100 C30 98 28 96 28 93 C28 77 46 49 85 19 C107 2 146 -10 194 -10 L236 -10 C345 -10 416 59 416 160 C416 258 366 310 260 359 C179 397 130 416 130 470 C130 521 171 560 220 560 L220 560 Z " />
<glyph glyph-name="T" unicode="T" horiz-adv-x="400" d="M380 560 L380 620 C380 627 377 630 370 630 L30 630 C23 630 20 627 20 620 L20 560 C20 553 23 550 30 550 L145 550 C152 550 155 547 155 540 L155 10 C155 3 158 0 165 0 L235 0 C242 0 245 3 245 10 L245 540 C245 547 248 550 255 550 L370 550 C377 550 380 553 380 560 L380 560 Z " />
<glyph glyph-name="U" unicode="U" horiz-adv-x="510" d="M450 160 L450 620 C450 627 446 630 440 630 L370 630 C363 630 360 627 360 620 L360 160 C360 110 320 70 270 70 L240 70 C190 70 150 110 150 160 L150 620 C150 627 146 630 140 630 L70 630 C63 630 60 627 60 620 L60 160 C60 58 131 -10 240 -10 L270 -10 C379 -10 450 58 450 160 L450 160 Z " />
<glyph glyph-name="V" unicode="V" horiz-adv-x="450" d="M448 617 C448 618 449 620 449 621 C449 627 445 630 438 630 L363 630 C357 630 354 628 353 623 L227 165 L97 623 C96 628 93 630 87 630 L12 630 C5 630 1 627 1 621 C1 620 2 619 2 617 L188 7 C190 2 193 0 198 0 L252 0 C257 0 260 2 262 7 L448 617 Z " />
<glyph glyph-name="W" unicode="W" horiz-adv-x="667" d="M656 618 C656 619 657 621 657 622 C657 627 653 630 646 630 L573 630 C568 630 564 627 563 622 L478 161 L359 625 C358 630 355 632 349 632 L318 632 C312 632 309 630 308 625 L191 161 L104 622 C103 627 99 630 94 630 L21 630 C14 630 10 627 10 622 C10 621 11 619 11 618 L140 8 C141 3 144 0 150 0 L207 0 C212 0 216 2 217 7 L335 450 L450 7 C451 2 455 0 460 0 L517 0 C522 0 526 3 527 8 L656 618 Z " />
<glyph glyph-name="X" unicode="X" horiz-adv-x="459" d="M444 14 L295 311 L295 320 L444 616 C445 618 446 620 446 622 C446 627 442 630 435 630 L349 630 C345 630 342 628 340 624 L241 410 C239 405 235 403 232 403 C229 403 225 405 223 410 L119 624 L110 630 L25 630 C18 630 14 627 14 622 C14 620 15 618 16 615 L167 320 L167 311 L16 15 C15 12 14 10 14 8 C14 3 18 0 25 0 L111 0 L120 6 L223 217 C225 222 229 225 232 225 C235 225 239 222 241 217 L339 6 C340 4 343 1 348 0 L435 0 C442 0 446 3 446 8 C446 10 445 12 444 14 L444 14 Z " />
<glyph glyph-name="Y" unicode="Y" horiz-adv-x="450" d="M444 615 C445 618 446 620 446 622 C446 627 442 630 435 630 L353 630 L344 624 L234 396 C232 391 228 389 225 389 C222 389 218 391 216 396 L106 624 L97 630 L15 630 C8 630 4 627 4 622 C4 620 5 618 6 615 L180 289 L180 10 C180 3 183 0 190 0 L260 0 C267 0 270 3 270 10 L270 289 L444 615 Z " />
<glyph glyph-name="Z" unicode="Z" horiz-adv-x="440" d="M400 10 L400 70 C400 77 396 80 390 80 L168 80 C161 80 157 83 157 88 C157 90 158 92 159 94 L394 616 C395 618 396 620 396 622 C396 627 392 630 385 630 L50 630 C43 630 40 627 40 620 L40 560 C40 553 43 550 50 550 L250 550 C257 550 261 547 261 542 C261 540 260 538 259 536 L25 14 C24 12 23 10 23 8 C23 3 27 0 34 0 L390 0 C397 0 400 3 400 10 L400 10 Z " />
<glyph glyph-name="bracketleft" unicode="&#x5b;" horiz-adv-x="360" d="M270 -170 L270 -110 C270 -104 266 -100 260 -100 L190 -100 C183 -100 180 -97 180 -90 L180 640 C180 647 183 650 190 650 L260 650 C267 650 270 653 270 660 L270 720 C270 727 266 730 260 730 L100 730 C93 730 90 727 90 720 L90 -170 C90 -177 93 -180 100 -180 L260 -180 C267 -180 270 -177 270 -170 L270 -170 Z " />
<glyph glyph-name="backslash" unicode="&#x5c;" horiz-adv-x="325" d="M305 0 C315 0 321 5 321 13 C321 15 320 18 319 21 L66 621 C64 626 58 630 53 630 L20 630 C10 630 4 625 4 617 C4 615 5 612 6 609 L259 9 C261 3 266 0 272 0 L305 0 Z " />
<glyph glyph-name="bracketright" unicode="&#x5d;" horiz-adv-x="360" d="M270 -170 L270 720 C270 727 266 730 260 730 L100 730 C93 730 90 727 90 720 L90 660 C90 653 93 650 100 650 L170 650 C177 650 180 647 180 640 L180 -90 C180 -97 177 -100 170 -100 L100 -100 C93 -100 90 -103 90 -110 L90 -170 C90 -177 93 -180 100 -180 L260 -180 C267 -180 270 -177 270 -170 L270 -170 Z " />
<glyph glyph-name="asciicircum" unicode="&#x5e;" horiz-adv-x="751" d="M703 585 C703 616 679 640 648 640 C617 640 593 616 593 585 C593 553 617 530 648 530 C679 530 703 554 703 585 L703 585 Z M693 10 L693 440 C693 447 690 450 683 450 L613 450 C606 450 603 447 603 440 L603 10 C603 3 606 0 613 0 L683 0 C690 0 693 3 693 10 L693 10 Z M523 335 L523 395 C523 402 520 405 513 405 L443 405 C436 405 433 408 433 415 L433 470 C433 525 466 538 515 559 C520 561 523 562 523 569 L523 629 C523 638 518 640 505 640 C448 640 410 592 395 592 C391 592 380 603 359 616 C333 632 303 640 268 640 C158 640 80 562 80 460 L80 415 C80 408 77 405 70 405 L45 405 C38 405 35 402 35 395 L35 335 C35 328 38 325 45 325 L70 325 C77 325 80 322 80 315 L80 10 C80 3 83 0 90 0 L160 0 C167 0 170 3 170 10 L170 315 C170 322 173 325 180 325 L333 325 C340 325 343 322 343 315 L343 10 C343 3 346 0 353 0 L423 0 C430 0 433 3 433 10 L433 315 C433 322 436 325 443 325 L513 325 C520 325 523 328 523 335 L523 335 Z M348 508 C344 493 343 477 343 460 L343 415 C343 408 340 405 333 405 L180 405 C173 405 170 408 170 415 L170 470 C170 519 210 560 260 560 C291 560 318 545 346 516 L348 508 Z " />
<glyph glyph-name="underscore" unicode="&#x5f;" horiz-adv-x="220" d="M225 -215 L225 -190 C225 -184 221 -180 215 -180 L5 -180 C-2 -180 -5 -183 -5 -190 L-5 -215 C-5 -222 -2 -225 5 -225 L215 -225 C222 -225 225 -222 225 -215 L225 -215 Z " />
<glyph glyph-name="grave" unicode="&#x60;" horiz-adv-x="500" d="M296 519 L214 644 L206 649 L118 649 C111 649 107 646 107 641 C107 638 108 635 111 632 L238 507 L245 504 L288 504 C295 504 298 507 298 511 C298 514 298 516 296 519 L296 519 Z " />
<glyph glyph-name="a" unicode="a" horiz-adv-x="475" d="M410 10 L410 161 L409 293 C408 393 338 460 229 460 C178 460 138 447 110 422 C78 394 65 369 65 361 C65 357 67 355 71 353 L132 321 C134 320 136 319 138 319 C144 319 153 335 175 359 C187 372 207 381 229 381 C281 381 317 344 319 293 L320 265 C320 258 317 255 310 255 L195 255 C116 255 62 203 62 131 L62 125 C62 53 116 0 195 0 L234 0 C280 0 308 34 323 34 C327 34 330 30 330 23 L330 10 C330 3 333 0 340 0 L400 0 C407 0 410 3 410 10 L410 10 Z M320 171 L319 152 C302 105 272 80 234 80 L195 80 C170 80 151 99 151 125 L151 141 C151 166 170 185 195 185 L310 185 C316 185 320 181 320 175 L320 171 Z " />
<glyph glyph-name="b" unicode="b" horiz-adv-x="475" d="M425 170 L425 280 C425 378 352 450 259 450 C201 450 172 416 163 416 C158 416 155 421 155 428 L155 620 C155 627 152 630 145 630 L75 630 C68 630 65 627 65 620 L65 10 C65 3 68 0 75 0 L135 0 C142 0 145 3 145 10 L145 22 C145 29 148 33 152 33 C165 33 192 0 251 0 C352 0 425 69 425 170 L425 170 Z M335 170 C335 121 296 80 245 80 C195 80 155 121 155 170 L155 280 C155 329 195 370 245 370 C296 370 335 329 335 280 L335 170 Z " />
<glyph glyph-name="c" unicode="c" horiz-adv-x="428" d="M391 100 L328 132 C326 133 324 134 322 134 C316 134 307 118 285 92 C274 79 254 70 230 70 C179 70 140 111 140 160 L140 290 C140 339 179 380 230 380 C271 380 289 357 313 324 C316 320 317 318 321 318 C322 318 324 318 326 319 L390 351 C394 353 396 355 396 359 C396 380 368 419 315 443 C290 454 262 460 230 460 C121 460 50 392 50 290 L50 160 C50 58 121 -10 230 -10 C283 -10 325 4 355 32 C385 60 397 86 397 93 C397 96 395 98 391 100 L391 100 Z " />
<glyph glyph-name="d" unicode="d" horiz-adv-x="475" d="M410 10 L410 620 C410 627 406 630 400 630 L330 630 C323 630 320 627 320 620 L320 428 C320 421 317 417 313 417 C299 417 270 450 220 450 C121 450 50 378 50 280 L50 170 C50 69 122 0 223 0 C281 0 310 33 323 33 C327 33 330 29 330 22 L330 10 C330 3 333 0 340 0 L400 0 C407 0 410 3 410 10 L410 10 Z M320 170 C320 121 280 80 230 80 C179 80 140 121 140 170 L140 280 C140 329 179 370 230 370 C280 370 320 329 320 280 L320 170 Z " />
<glyph glyph-name="e" unicode="e" horiz-adv-x="460" d="M410 220 L410 290 C410 381 330 460 230 460 C130 460 50 381 50 290 L50 160 C50 58 121 -10 230 -10 C283 -10 325 4 355 32 C385 60 397 86 397 93 C397 96 395 98 391 100 L328 132 C326 133 324 134 322 134 C316 134 307 118 285 92 C274 79 254 70 230 70 C179 70 140 111 140 160 L140 200 C140 207 143 210 150 210 L400 210 C407 210 410 213 410 220 L410 220 Z M310 280 L150 280 C141 280 140 284 140 295 C140 339 182 380 230 380 C277 380 320 340 320 297 C320 285 319 280 310 280 L310 280 Z " />
<glyph glyph-name="f" unicode="f" horiz-adv-x="285" d="M314 623 C315 625 315 626 315 627 C315 638 297 640 260 640 C208 640 164 622 132 587 C98 551 80 506 80 460 L80 415 C80 408 77 405 70 405 L45 405 C38 405 35 402 35 395 L35 335 C35 328 38 325 45 325 L70 325 C77 325 80 322 80 315 L80 10 C80 3 83 0 90 0 L160 0 C167 0 170 3 170 10 L170 315 C170 322 173 325 180 325 L250 325 C257 325 260 328 260 335 L260 395 C260 402 256 405 250 405 L180 405 C173 405 170 408 170 415 L170 470 C170 519 209 560 260 560 C264 560 272 559 284 558 C289 558 292 560 294 565 L314 623 Z " />
<glyph glyph-name="g" unicode="g" horiz-adv-x="460" d="M455 -100 L455 -90 C455 -19 400 35 320 35 L202 35 C184 43 175 53 175 69 C175 82 184 93 201 103 C214 102 224 101 230 101 C335 101 410 175 410 271 L410 440 C410 447 407 450 400 450 L340 450 C333 450 330 447 330 440 L330 428 C330 421 327 417 323 417 C309 417 280 450 230 450 C125 450 50 376 50 280 L50 271 C50 234 61 201 76 182 C100 152 115 138 115 134 C115 127 96 110 96 69 C96 41 110 23 110 14 C110 7 95 -2 73 -25 C60 -39 50 -64 50 -90 L50 -100 C50 -172 105 -225 185 -225 L320 -225 C400 -225 455 -171 455 -100 L455 -100 Z M320 271 C320 222 280 181 230 181 C179 181 140 222 140 271 L140 280 C140 329 179 370 230 370 C280 370 320 329 320 280 L320 271 Z M365 -100 C365 -124 344 -145 320 -145 L185 -145 C160 -145 140 -124 140 -100 L140 -90 C140 -66 161 -45 185 -45 L320 -45 C344 -45 365 -66 365 -90 L365 -100 Z " />
<glyph glyph-name="h" unicode="h" horiz-adv-x="485" d="M425 10 L425 280 C425 378 353 450 260 450 C202 450 172 416 163 416 C158 416 155 421 155 428 L155 620 C155 627 152 630 145 630 L75 630 C68 630 65 627 65 620 L65 10 C65 3 68 0 75 0 L145 0 C152 0 155 3 155 10 L155 280 C155 329 195 370 245 370 C296 370 335 329 335 280 L335 10 C335 3 338 0 345 0 L415 0 C422 0 425 3 425 10 L425 10 Z " />
<glyph glyph-name="i" unicode="i" horiz-adv-x="220" d="M165 585 C165 616 141 640 110 640 C79 640 55 616 55 585 C55 553 79 530 110 530 C141 530 165 554 165 585 L165 585 Z M155 10 L155 440 C155 447 152 450 145 450 L75 450 C68 450 65 447 65 440 L65 10 C65 3 68 0 75 0 L145 0 C152 0 155 3 155 10 L155 10 Z " />
<glyph glyph-name="j" unicode="j" horiz-adv-x="220" d="M165 585 C165 616 141 640 110 640 C79 640 55 616 55 585 C55 553 79 530 110 530 C141 530 165 554 165 585 L165 585 Z M155 -56 L155 440 C155 447 152 450 145 450 L75 450 C68 450 65 447 65 440 L65 -66 C65 -121 32 -134 -17 -155 C-22 -157 -25 -158 -25 -165 L-25 -225 C-25 -233 -22 -235 -14 -235 C35 -235 76 -216 108 -177 C139 -140 155 -96 155 -56 L155 -56 Z " />
<glyph glyph-name="k" unicode="k" horiz-adv-x="449" d="M442 15 L272 289 C271 291 270 292 270 294 C270 296 272 298 274 301 L404 433 C407 436 408 439 408 442 C408 447 404 450 397 450 L312 450 L305 447 L172 301 C170 298 167 297 164 297 C159 297 155 301 155 308 L155 620 C155 627 152 630 145 630 L75 630 C68 630 65 627 65 620 L65 10 C65 3 68 0 75 0 L145 0 C152 0 155 3 155 10 L155 176 L193 215 C195 218 198 219 201 219 C204 219 207 217 209 213 L336 5 L345 0 L433 0 C440 0 444 4 444 8 C444 10 443 13 442 15 L442 15 Z " />
<glyph glyph-name="l" unicode="l" horiz-adv-x="220" d="M155 10 L155 620 C155 627 152 630 145 630 L75 630 C68 630 65 627 65 620 L65 10 C65 3 68 0 75 0 L145 0 C152 0 155 3 155 10 L155 10 Z " />
<glyph glyph-name="m" unicode="m" horiz-adv-x="720" d="M655 10 L655 280 C655 379 584 450 485 450 C450 450 422 443 399 428 C376 413 366 400 361 400 C357 400 346 412 324 427 C301 443 276 450 245 450 C197 450 166 416 152 416 C148 416 145 420 145 427 L145 440 C145 447 142 450 135 450 L75 450 C68 450 65 447 65 440 L65 10 C65 3 68 0 75 0 L145 0 C152 0 155 3 155 10 L155 280 C155 328 195 370 235 370 C276 370 315 329 315 280 L315 10 C315 3 318 0 325 0 L395 0 C402 0 405 3 405 10 L405 280 C405 327 445 370 485 370 C526 370 565 329 565 280 L565 10 C565 3 568 0 575 0 L645 0 C652 0 655 3 655 10 L655 10 Z " />
<glyph glyph-name="n" unicode="n" horiz-adv-x="490" d="M425 10 L425 280 C425 381 353 450 252 450 C193 450 165 417 152 417 C148 417 145 421 145 428 L145 440 C145 447 142 450 135 450 L75 450 C68 450 65 447 65 440 L65 10 C65 3 68 0 75 0 L145 0 C152 0 155 3 155 10 L155 280 C155 329 195 370 245 370 C296 370 335 329 335 280 L335 10 C335 3 338 0 345 0 L415 0 C422 0 425 3 425 10 L425 10 Z " />
<glyph glyph-name="o" unicode="o" horiz-adv-x="460" d="M410 160 L410 290 C410 391 339 460 230 460 C121 460 50 392 50 290 L50 160 C50 58 121 -10 230 -10 C339 -10 410 58 410 160 L410 160 Z M320 160 C320 111 280 70 230 70 C179 70 140 111 140 160 L140 290 C140 339 180 380 230 380 C280 380 320 339 320 290 L320 160 Z " />
<glyph glyph-name="p" unicode="p" horiz-adv-x="475" d="M425 170 L425 280 C425 381 353 450 252 450 C193 450 165 417 152 417 C148 417 145 421 145 428 L145 440 C145 447 142 450 135 450 L75 450 C68 450 65 447 65 440 L65 -215 C65 -222 68 -225 75 -225 L145 -225 C152 -225 155 -222 155 -215 L155 22 C155 29 158 33 163 33 C172 33 202 0 260 0 C353 0 425 72 425 170 L425 170 Z M335 170 C335 121 296 80 245 80 C195 80 155 121 155 170 L155 280 C155 329 195 370 245 370 C296 370 335 329 335 280 L335 170 Z " />
<glyph glyph-name="q" unicode="q" horiz-adv-x="475" d="M410 -215 L410 440 C410 447 407 450 400 450 L340 450 C333 450 330 447 330 440 L330 428 C330 421 327 417 323 417 C310 417 282 450 223 450 C123 450 50 381 50 280 L50 170 C50 72 121 0 220 0 C270 0 299 33 313 33 C317 33 320 29 320 22 L320 -215 C320 -222 323 -225 330 -225 L400 -225 C407 -225 410 -222 410 -215 L410 -215 Z M320 170 C320 121 280 80 230 80 C179 80 140 121 140 170 L140 280 C140 329 179 370 230 370 C280 370 320 329 320 280 L320 170 Z " />
<glyph glyph-name="r" unicode="r" horiz-adv-x="306" d="M300 362 L300 437 C300 449 286 450 248 450 C194 450 164 396 154 396 C149 396 145 400 145 408 L145 440 C145 447 142 450 135 450 L75 450 C68 450 65 447 65 440 L65 10 C65 3 68 0 75 0 L145 0 C152 0 155 3 155 10 L155 270 C155 325 189 359 245 359 C270 359 285 352 294 352 C298 352 300 356 300 362 L300 362 Z " />
<glyph glyph-name="s" unicode="s" horiz-adv-x="440" d="M203 383 L233 383 C276 383 294 359 319 327 C322 324 323 321 326 321 C327 321 330 322 332 323 L390 352 C394 354 396 356 396 359 C396 399 332 460 233 460 L203 460 C107 460 42 400 42 313 C42 238 87 209 182 190 C265 173 309 168 309 125 C309 93 279 67 233 67 L203 67 C159 67 141 92 117 123 C114 126 112 129 109 129 C108 129 106 128 104 127 L46 98 C42 96 40 93 40 91 C40 51 104 -10 203 -10 L233 -10 C334 -10 398 51 398 141 C398 219 346 245 239 266 C166 281 130 291 130 332 C130 364 156 383 203 383 L203 383 Z " />
<glyph glyph-name="t" unicode="t" horiz-adv-x="315" d="M265 1 L265 61 C265 67 262 69 257 71 C227 84 206 91 197 102 C182 121 175 139 175 160 L175 360 C175 367 178 370 185 370 L255 370 C262 370 265 373 265 380 L265 440 C265 447 262 450 255 450 L185 450 C178 450 175 453 175 460 L175 530 C175 537 172 540 165 540 L134 540 L127 537 L12 415 L10 380 C10 373 13 370 20 370 L75 370 C82 370 85 367 85 360 L85 160 C85 60 164 -9 246 -9 C260 -9 265 -8 265 1 L265 1 Z " />
<glyph glyph-name="u" unicode="u" horiz-adv-x="480" d="M415 10 L415 440 C415 447 412 450 405 450 L335 450 C328 450 325 447 325 440 L325 170 C325 121 286 80 235 80 C184 80 145 121 145 170 L145 440 C145 447 142 450 135 450 L65 450 C58 450 55 447 55 440 L55 170 C55 69 128 0 228 0 C286 0 315 33 328 33 C332 33 335 29 335 22 L335 10 C335 3 338 0 345 0 L405 0 C412 0 415 3 415 10 L415 10 Z " />
<glyph glyph-name="v" unicode="v" horiz-adv-x="430" d="M426 436 C427 438 427 440 427 442 C427 447 424 450 417 450 L342 450 C337 448 334 446 333 444 L214 117 L97 444 C94 447 91 449 88 450 L13 450 C6 450 3 447 3 442 C3 440 3 438 4 436 L174 6 C176 2 178 0 183 0 L247 0 C250 1 253 3 256 6 L426 436 Z " />
<glyph glyph-name="w" unicode="w" horiz-adv-x="607" d="M304 351 L390 7 C393 2 397 0 400 0 L456 0 C461 0 464 2 466 7 L595 437 C595 439 596 440 596 441 C596 447 592 450 585 450 L512 450 C506 450 502 447 501 443 L427 122 L347 443 C346 448 343 450 337 450 L270 450 C267 450 264 448 260 443 L180 122 L105 443 C101 448 98 450 95 450 L22 450 C15 450 11 447 11 441 C11 440 12 439 12 437 L139 7 C140 2 143 0 149 0 L207 0 C213 0 216 2 217 7 L304 351 Z " />
<glyph glyph-name="x" unicode="x" horiz-adv-x="408" d="M399 15 L265 221 L265 231 L399 435 C401 437 401 440 401 442 C401 447 397 450 391 450 L308 450 L300 445 L210 302 C207 298 205 296 202 296 C200 296 198 298 195 302 L106 445 L98 450 L17 450 C11 450 6 446 6 442 C6 440 7 438 9 435 L142 232 C143 231 144 229 144 227 C144 225 143 223 142 220 L9 15 C7 12 6 10 6 8 C6 4 10 0 17 0 L97 0 L106 5 L194 147 C197 151 200 154 203 154 C206 154 209 151 212 147 L300 5 L309 0 L391 0 C397 0 401 3 401 8 C401 10 400 13 399 15 L399 15 Z " />
<glyph glyph-name="y" unicode="y" horiz-adv-x="480" d="M415 -55 L415 440 C415 447 412 450 405 450 L335 450 C328 450 325 447 325 440 L325 170 C325 121 286 80 235 80 C184 80 145 121 145 170 L145 440 C145 447 142 450 135 450 L65 450 C58 450 55 447 55 440 L55 170 C55 68 126 0 235 0 C282 0 304 29 317 29 C321 29 325 25 325 18 L325 -65 C325 -114 286 -155 235 -155 C189 -155 175 -130 151 -99 C148 -95 146 -92 142 -92 C141 -92 139 -93 137 -94 L74 -126 C70 -128 68 -130 68 -133 C68 -150 87 -177 126 -206 C149 -223 188 -235 235 -235 C347 -235 415 -166 415 -55 L415 -55 Z " />
<glyph glyph-name="z" unicode="z" horiz-adv-x="430" d="M394 10 L394 70 C394 77 390 80 384 80 L190 80 C182 80 179 83 179 88 C179 90 179 93 181 95 L385 434 C386 436 387 439 387 441 C387 446 383 449 376 449 L45 449 C38 449 35 446 35 439 L35 379 C35 372 38 369 45 369 L220 369 C227 369 231 366 231 361 C231 359 230 356 229 354 L26 15 C25 13 24 10 24 8 C24 3 28 0 35 0 L384 0 C391 0 394 3 394 10 L394 10 Z " />
<glyph glyph-name="braceleft" unicode="&#x7b;" horiz-adv-x="360" d="M270 -169 L270 -109 C270 -102 267 -101 262 -99 C213 -77 180 -66 180 -10 L180 148 C180 172 170 200 149 231 C132 257 112 267 112 274 C112 281 133 291 149 314 C170 343 180 371 180 395 L180 560 C180 615 213 628 262 649 C267 651 270 652 270 659 L270 719 C270 728 264 729 250 729 C167 729 90 659 90 550 L90 405 C90 350 58 337 8 316 C3 314 0 313 0 306 L0 244 C0 237 3 236 8 234 C58 213 90 200 90 145 L90 0 C90 -109 167 -179 250 -179 C264 -179 270 -178 270 -169 L270 -169 Z " />
<glyph glyph-name="bar" unicode="&#x7c;" horiz-adv-x="761" d="M696 10 L696 620 C696 627 693 630 686 630 L523 630 C450 630 413 587 401 587 C398 587 386 598 362 614 C337 631 305 640 269 640 C158 640 80 562 80 460 L80 415 C80 408 77 405 70 405 L45 405 C38 405 35 402 35 395 L35 335 C35 328 38 325 45 325 L70 325 C77 325 80 322 80 315 L80 10 C80 3 83 0 90 0 L160 0 C167 0 170 3 170 10 L170 315 C170 322 173 325 180 325 L333 325 C340 325 343 322 343 315 L343 10 C343 3 346 0 353 0 L423 0 C430 0 433 3 433 10 L433 315 C433 322 436 325 443 325 L513 325 C520 325 523 328 523 335 L523 395 C523 402 520 405 513 405 L443 405 C436 405 433 408 433 415 L433 460 C433 510 474 550 523 550 L596 550 C603 550 606 547 606 540 L606 10 C606 3 609 0 616 0 L686 0 C693 0 696 3 696 10 L696 10 Z M349 503 C344 486 343 468 343 450 L343 415 C343 408 340 405 333 405 L180 405 C173 405 170 408 170 415 L170 470 C170 519 210 560 260 560 C294 560 322 544 349 511 L349 503 Z " />
<glyph glyph-name="braceright" unicode="&#x7d;" horiz-adv-x="360" d="M360 244 L360 306 C360 313 357 314 352 316 C303 337 270 350 270 405 L270 550 C270 659 193 729 109 729 C96 729 90 728 90 719 L90 659 C90 652 93 651 98 649 C147 628 180 615 180 560 L180 395 C180 371 190 343 211 314 C227 292 248 282 248 274 C248 266 228 256 211 231 C190 200 180 171 180 148 L180 -10 C180 -30 173 -48 158 -67 C149 -78 127 -86 98 -99 C93 -101 90 -102 90 -109 L90 -169 C90 -178 95 -179 109 -179 C193 -179 270 -108 270 0 L270 145 C270 200 303 213 352 234 C357 236 360 237 360 244 L360 244 Z " />
<glyph glyph-name="asciitilde" unicode="&#x7e;" horiz-adv-x="548" d="M577 623 C578 625 578 626 578 627 C578 638 561 640 523 640 C469 640 445 621 421 607 C408 599 400 592 395 592 C391 592 380 603 359 616 C333 632 303 640 268 640 C158 640 80 562 80 460 L80 415 C80 408 77 405 70 405 L45 405 C38 405 35 402 35 395 L35 335 C35 328 38 325 45 325 L70 325 C77 325 80 322 80 315 L80 10 C80 3 83 0 90 0 L160 0 C167 0 170 3 170 10 L170 315 C170 322 173 325 180 325 L333 325 C340 325 343 322 343 315 L343 10 C343 3 346 0 353 0 L423 0 C430 0 433 3 433 10 L433 315 C433 322 436 325 443 325 L513 325 C520 325 523 328 523 335 L523 395 C523 402 520 405 513 405 L443 405 C436 405 433 408 433 415 L433 470 C433 519 473 560 523 560 C527 560 535 559 547 558 C553 558 555 560 557 565 L577 623 Z M348 508 C344 493 343 477 343 460 L343 415 C343 408 340 405 333 405 L180 405 C173 405 170 408 170 415 L170 470 C170 519 210 560 260 560 C291 560 318 545 346 516 L348 508 Z " />
<glyph glyph-name="exclamdown" unicode="&#xa1;" horiz-adv-x="270" d="M175 405 C175 436 151 460 120 460 C89 460 65 437 65 405 C65 374 89 350 120 350 C151 350 175 374 175 405 L175 405 Z M165 -170 L165 91 L143 261 C142 266 138 270 133 270 L106 270 C100 270 97 267 96 261 L75 91 L75 -170 C75 -177 78 -180 85 -180 L155 -180 C162 -180 165 -177 165 -170 L165 -170 Z " />
<glyph glyph-name="cent" unicode="&#xa2;" horiz-adv-x="510" d="M425 190 L362 222 C360 223 359 223 357 223 C349 223 344 211 329 191 C319 177 304 168 293 168 C289 168 286 171 286 178 L286 452 C286 458 289 462 293 462 C316 462 328 441 348 414 C351 410 354 408 357 408 C358 408 360 408 362 409 L425 441 C429 443 431 445 431 449 C431 463 415 489 380 515 C368 524 335 544 294 548 C288 550 286 551 286 558 L286 620 C286 627 283 630 276 630 L251 630 C244 630 241 627 241 620 L241 558 C241 542 206 549 169 529 C113 498 84 448 84 380 L84 250 C84 182 113 131 169 100 C206 80 241 88 241 72 L241 10 C241 3 244 0 251 0 L276 0 C283 0 286 3 286 10 L286 72 C286 86 312 86 361 105 C401 120 431 162 431 182 C431 185 429 188 425 190 L425 190 Z M241 177 C241 171 238 167 234 167 C207 167 174 206 174 250 L174 380 C174 424 207 463 234 463 C238 463 241 459 241 453 L241 177 Z " />
<glyph glyph-name="sterling" unicode="&#xa3;" horiz-adv-x="510" d="M135 460 L135 370 C135 363 132 360 125 360 L100 360 C93 360 90 357 90 350 L90 290 C90 283 93 280 100 280 L125 280 C131 280 135 277 135 270 L135 170 C135 126 108 95 56 80 L10 80 C3 80 0 77 0 70 L0 10 C0 3 3 0 10 0 L440 0 C447 0 450 3 450 10 L450 70 C450 77 446 80 440 80 L214 80 C207 80 203 83 203 87 C203 100 225 124 225 160 L225 270 C225 277 228 280 235 280 L305 280 C312 280 315 283 315 290 L315 350 C315 357 312 360 305 360 L235 360 C228 360 225 363 225 370 L225 470 C225 519 264 560 315 560 C357 560 374 536 398 504 C401 500 403 498 406 498 C407 498 409 498 411 499 L475 531 C479 533 481 536 481 539 C481 562 453 599 400 623 C375 634 349 640 321 640 C212 640 135 561 135 460 L135 460 Z " />
<glyph glyph-name="currency" unicode="&#xa4;" horiz-adv-x="606" d="M179 595 L79 695 L39 656 L140 555 C113 519 99 478 99 432 C99 379 118 337 140 309 L39 209 L79 169 L179 269 C216 241 257 227 304 227 C353 227 393 243 428 269 L528 169 L568 209 L468 309 C496 346 508 387 508 432 C508 478 495 519 468 555 L568 656 L528 695 L428 595 C391 623 350 637 303 637 C257 637 216 623 179 595 L179 595 Z M452 433 C452 351 386 284 304 284 C222 284 156 351 156 433 C156 514 222 581 304 581 C386 581 452 514 452 433 L452 433 Z " />
<glyph glyph-name="yen" unicode="&#xa5;" horiz-adv-x="510" d="M474 615 C475 618 476 620 476 622 C476 627 472 630 465 630 L383 630 C381 630 377 628 374 624 L264 396 C262 391 258 389 255 389 C252 389 248 391 246 396 L136 624 L127 630 L45 630 C38 630 34 627 34 623 C34 621 34 618 36 615 L180 345 C181 342 182 340 182 338 C182 333 178 330 171 330 L50 330 C43 330 40 327 40 320 L40 270 C40 263 43 260 50 260 L200 260 C206 260 210 256 210 250 L210 170 C210 163 207 160 200 160 L50 160 C43 160 40 157 40 150 L40 100 C40 93 43 90 50 90 L200 90 C206 90 210 86 210 80 L210 10 C210 3 213 0 220 0 L290 0 C297 0 300 3 300 10 L300 80 C300 87 303 90 310 90 L460 90 C467 90 470 93 470 100 L470 150 C470 156 466 160 460 160 L310 160 C303 160 300 163 300 170 L300 250 C300 257 303 260 310 260 L460 260 C467 260 470 263 470 270 L470 320 C470 327 466 330 460 330 L339 330 C332 330 328 333 328 338 C328 340 329 342 330 345 L474 615 Z " />
<glyph glyph-name="brokenbar" unicode="&#xa6;" horiz-adv-x="500" d="M287 699 L214 699 L214 329 L287 329 L287 699 Z M287 199 L214 199 L214 -171 L287 -171 L287 199 Z " />
<glyph glyph-name="section" unicode="&#xa7;" horiz-adv-x="510" d="M422 52 L421 62 C442 92 451 123 451 160 C451 252 406 306 308 353 C223 394 165 411 165 470 C165 521 206 560 255 560 L271 560 C314 560 331 535 354 504 C357 500 358 498 362 498 C363 498 365 498 367 499 L431 531 C435 533 437 536 437 539 C437 578 369 640 271 640 L255 640 C146 640 75 572 75 470 C75 399 107 369 107 362 C107 355 75 323 75 255 C75 165 121 120 218 73 C304 31 361 11 361 -55 C361 -105 320 -145 271 -145 L229 -145 C183 -145 170 -118 146 -89 C143 -85 140 -83 137 -83 C135 -83 134 -83 132 -84 L69 -116 C65 -118 63 -120 63 -123 C63 -140 82 -167 121 -196 C144 -213 182 -225 229 -225 L271 -225 C380 -225 451 -156 451 -55 C451 -16 442 19 422 52 L422 52 Z M361 160 C361 136 352 119 347 119 C343 119 288 135 209 187 C180 206 165 227 165 255 C165 286 175 304 181 304 C185 304 208 294 250 274 C279 260 297 251 305 246 C342 221 361 198 361 160 L361 160 Z " />
<glyph glyph-name="dieresis" unicode="&#xa8;" horiz-adv-x="500" d="M379 572 C379 599 357 622 329 622 C301 622 279 600 279 572 C279 544 301 522 329 522 C357 522 379 545 379 572 L379 572 Z M223 572 C223 599 201 622 173 622 C145 622 123 600 123 572 C123 544 145 522 173 522 C201 522 223 545 223 572 L223 572 Z " />
<glyph glyph-name="copyright" unicode="&#xa9;" horiz-adv-x="720" d="M630 170 L630 460 C630 562 559 630 450 630 L270 630 C161 630 90 562 90 460 L90 170 C90 68 161 0 270 0 L450 0 C559 0 630 68 630 170 L630 170 Z M585 170 C585 96 532 45 450 45 L270 45 C188 45 135 95 135 170 L135 460 C135 535 188 585 270 585 L450 585 C532 585 585 534 585 460 L585 170 Z M467 224 L437 240 C435 241 433 242 431 242 C421 242 404 198 359 198 C318 198 285 232 285 272 L285 371 C285 412 316 444 359 444 C403 444 422 402 431 402 C433 402 435 403 437 404 L466 419 C469 421 471 424 471 426 C471 448 428 489 359 489 C281 489 232 442 232 371 L232 272 C232 200 282 152 359 152 C428 152 472 190 472 215 C472 219 471 222 467 224 L467 224 Z " />
<glyph glyph-name="ordfeminine" unicode="&#xaa;" horiz-adv-x="332" d="M292 320 L292 426 L291 518 C290 591 239 640 160 640 C87 640 41 593 41 564 C41 561 43 558 48 556 L90 534 C93 532 95 532 97 532 C101 532 104 534 106 538 C121 563 139 575 160 575 C192 575 216 551 218 518 L219 498 L217 496 L136 496 C77 496 38 458 38 405 L38 400 C38 347 79 307 136 307 L164 307 C181 307 201 315 222 331 L226 329 L226 320 C226 311 229 308 238 308 L280 308 C288 308 292 311 292 320 L292 320 Z M219 433 L218 420 C208 390 189 374 164 374 L136 374 C122 374 111 385 111 400 L111 412 C111 426 122 437 136 437 L217 437 L219 435 L219 433 Z " />
<glyph glyph-name="guillemotleft" unicode="&#xab;" horiz-adv-x="554" d="M488 109 L488 166 L484 174 L349 271 C345 274 344 276 344 279 C344 282 345 284 349 287 L484 384 L488 392 L488 449 C488 456 484 460 480 460 C478 460 475 459 472 457 L274 316 L270 308 L270 249 L274 241 L472 101 C475 99 478 98 480 98 C485 98 488 102 488 109 L488 109 Z M272 109 L272 166 L268 174 L133 271 C129 274 128 276 128 279 C128 282 129 284 133 287 L268 384 L272 392 L272 449 C272 456 268 460 264 460 C261 460 259 459 256 457 L59 316 L55 308 L55 249 L59 241 L256 101 C259 99 262 98 264 98 C269 98 272 102 272 109 L272 109 Z " />
<glyph glyph-name="logicalnot" unicode="&#xac;" horiz-adv-x="833" d="M709 420 L124 420 L124 352 L642 352 L642 175 L709 175 L709 420 Z " />
<glyph glyph-name="registered" unicode="&#xae;" horiz-adv-x="440" d="M402 440 L402 460 C402 562 331 630 222 630 L218 630 C109 630 38 562 38 460 L38 440 C38 338 109 270 218 270 L222 270 C331 270 402 338 402 440 L402 440 Z M372 440 C372 356 313 300 222 300 L218 300 C127 300 68 356 68 440 L68 460 C68 544 127 600 218 600 L222 600 C313 600 372 544 372 460 L372 440 Z M294 481 L294 485 C294 523 269 548 231 548 L168 548 C161 548 158 545 158 538 L158 370 C158 363 161 360 168 360 L179 360 C186 360 189 363 189 370 L189 415 C189 422 192 425 199 425 L224 425 C229 423 232 421 233 419 L256 366 C257 364 260 361 265 360 L281 360 C288 360 292 363 292 368 C292 370 291 372 290 374 L265 424 C264 425 264 426 264 427 C264 439 294 453 294 481 L294 481 Z M262 485 C262 467 249 453 231 453 L199 453 C192 453 189 456 189 463 L189 510 C189 517 192 520 199 520 L231 520 C249 520 262 506 262 488 L262 485 Z " />
<glyph glyph-name="macron" unicode="&#xaf;" horiz-adv-x="500" d="M365 550 L365 610 C365 617 362 620 355 620 L145 620 C138 620 135 617 135 610 L135 550 C135 543 138 540 145 540 L355 540 C362 540 365 543 365 550 L365 550 Z " />
<glyph glyph-name="degree" unicode="&#xb0;" horiz-adv-x="220" d="M200 526 L200 554 C200 605 165 640 110 640 C55 640 20 606 20 554 L20 526 C20 475 55 440 110 440 C165 440 200 475 200 526 L200 526 Z M148 554 L148 526 C148 506 131 488 110 488 C89 488 72 505 72 526 L72 554 C72 575 89 592 110 592 C131 592 148 574 148 554 L148 554 Z " />
<glyph glyph-name="plusminus" unicode="&#xb1;" horiz-adv-x="833" d="M451 582 L382 582 L382 416 L124 416 L124 348 L382 348 L382 182 L451 182 L451 348 L709 348 L709 416 L451 416 L451 582 Z M709 83 L124 83 L124 14 L709 14 L709 83 Z " />
<glyph glyph-name="twosuperior" unicode="&#xb2;" horiz-adv-x="337" d="M174 636 L149 636 C117 636 92 629 77 619 C51 601 39 585 39 575 C39 573 40 572 43 571 L84 551 L88 551 C90 551 92 552 94 554 C109 572 118 588 149 588 L174 588 C206 588 233 565 233 534 C233 497 198 481 148 453 C82 415 50 381 50 322 L50 258 C50 254 51 252 56 252 L281 252 C285 252 287 254 287 258 L287 294 C287 298 284 300 281 300 L116 300 C111 300 109 302 109 306 L109 322 C109 352 127 374 166 397 C195 413 222 426 245 443 C275 466 292 499 292 534 C292 595 246 636 174 636 L174 636 Z " />
<glyph glyph-name="threesuperior" unicode="&#xb3;" horiz-adv-x="337" d="M287 353 L287 371 C287 385 281 402 267 421 C255 436 242 442 242 446 C242 451 255 457 267 470 C281 488 287 505 287 519 L287 528 C287 594 241 636 168 636 L149 636 C117 636 92 629 77 619 C51 601 39 585 39 575 C39 573 40 572 43 571 L84 551 L88 551 C90 551 92 552 94 554 C109 572 118 588 149 588 L168 588 C201 588 228 564 228 534 L228 525 C228 495 201 471 168 471 L116 471 C111 471 109 469 109 465 L109 429 C109 425 111 423 116 423 L168 423 C201 423 228 399 228 369 L228 348 C228 318 201 294 168 294 L149 294 C118 294 109 310 94 328 C92 331 91 332 88 332 C88 332 86 332 84 331 L43 312 C40 311 39 310 39 308 C39 298 51 281 77 263 C91 253 117 246 149 246 L168 246 C242 246 287 287 287 353 L287 353 Z " />
<glyph glyph-name="acute" unicode="&#xb4;" horiz-adv-x="500" d="M387 632 C390 635 391 637 391 640 C391 645 387 649 380 649 L292 649 L284 644 L202 519 C200 516 200 514 200 512 C200 508 204 504 210 504 L253 504 L260 507 L387 632 Z " />
<glyph glyph-name="mu" unicode="&#xb5;" horiz-adv-x="562" d="M188 523 L100 523 L-55 -209 L33 -209 L87 50 C121 10 159 -7 212 -7 C271 -7 315 14 344 57 C356 12 375 -6 417 -6 C434 -6 451 -5 470 -1 L485 69 C479 68 474 68 469 68 C444 68 434 77 434 101 C434 115 439 137 445 166 L521 523 L434 523 L378 261 C349 126 306 64 216 64 C154 64 118 100 118 165 C118 187 120 208 125 230 L188 523 Z " />
<glyph glyph-name="paragraph" unicode="&#xb6;" horiz-adv-x="615" d="M540 -215 L540 620 C540 627 537 630 530 630 L240 630 C130 630 60 560 60 450 L60 260 C60 160 132 90 240 90 L260 90 C266 90 270 86 270 80 L270 -215 C270 -222 273 -225 280 -225 L350 -225 C357 -225 360 -222 360 -215 L360 540 C360 547 363 550 370 550 L440 550 C447 550 450 547 450 540 L450 -215 C450 -222 453 -225 460 -225 L530 -225 C537 -225 540 -222 540 -215 L540 -215 Z " />
<glyph glyph-name="periodcentered" unicode="&#xb7;" horiz-adv-x="220" d="M165 316 C165 347 141 371 110 371 C79 371 55 347 55 316 C55 284 79 261 110 261 C141 261 165 285 165 316 L165 316 Z " />
<glyph glyph-name="cedilla" unicode="&#xb8;" horiz-adv-x="500" d="M312 -136 L312 -128 C312 -90 291 -76 271 -56 C268 -53 267 -52 267 -49 C267 -48 267 -46 268 -44 L292 7 L222 7 L183 -80 C182 -82 181 -84 181 -86 C181 -91 185 -94 192 -94 L211 -94 C229 -94 244 -109 244 -128 L244 -136 C244 -155 230 -169 211 -169 L163 -169 C156 -169 153 -172 153 -179 L153 -219 C153 -226 156 -229 163 -229 L211 -229 C271 -229 312 -189 312 -136 L312 -136 Z " />
<glyph glyph-name="onesuperior" unicode="&#xb9;" horiz-adv-x="337" d="M289 258 L289 294 C289 298 286 300 282 300 L216 300 C212 300 210 302 210 306 L210 624 C210 628 207 630 203 630 L180 630 L176 628 L69 532 C67 530 67 529 67 527 C67 526 67 525 69 523 L98 497 C100 496 102 495 103 495 C104 495 106 496 108 497 L139 527 C141 529 143 529 145 529 C148 529 150 527 150 523 L150 306 C150 302 149 300 144 300 L78 300 C73 300 71 298 71 294 L71 258 C71 254 73 252 78 252 L282 252 C287 252 289 254 289 258 L289 258 Z " />
<glyph glyph-name="ordmasculine" unicode="&#xba;" horiz-adv-x="322" d="M292 425 L292 516 C292 590 240 640 161 640 C82 640 30 590 30 516 L30 425 C30 351 81 301 161 301 C240 301 292 351 292 425 L292 425 Z M219 425 C219 394 193 367 161 367 C129 367 103 394 103 425 L103 516 C103 547 129 574 161 574 C193 574 219 547 219 516 L219 425 Z " />
<glyph glyph-name="guillemotright" unicode="&#xbb;" horiz-adv-x="554" d="M499 249 L499 308 L495 316 L298 457 C295 459 293 460 290 460 C286 460 282 456 282 449 L282 392 L286 384 L421 287 C424 285 426 282 426 279 C426 277 424 273 421 271 L286 174 L282 166 L282 109 C282 102 285 98 290 98 C292 98 295 99 298 101 L495 241 L499 249 Z M284 249 L284 308 L280 316 L82 457 C79 459 76 460 74 460 C70 460 66 456 66 449 L66 392 L70 384 L205 287 C208 285 210 282 210 279 C210 277 208 273 205 271 L70 174 L66 166 L66 109 C66 102 69 98 73 98 C76 98 79 99 82 101 L280 241 L284 249 Z " />
<glyph glyph-name="onequarter" unicode="&#xbc;" horiz-adv-x="954" d="M276 283 L276 316 C276 320 273 322 270 322 L207 322 C202 322 200 323 200 327 L200 624 C200 628 198 630 194 630 L172 630 L168 628 L66 538 C64 536 64 535 64 534 C64 533 64 532 66 530 L94 506 C96 504 97 504 98 504 C100 504 101 504 103 506 L133 533 C135 535 136 536 138 536 C141 536 144 533 144 530 L144 327 C144 323 142 322 137 322 L74 322 C70 322 68 320 68 316 L68 283 C68 279 70 277 74 277 L270 277 C274 277 276 279 276 283 L276 283 Z M383 12 L627 603 C628 606 629 610 629 613 C629 623 622 630 610 630 L588 630 C580 630 573 626 570 618 L326 27 C325 24 324 20 324 17 C324 7 331 0 343 0 L365 0 C373 0 380 5 383 12 L383 12 Z M934 87 L934 120 C934 124 933 126 928 126 L884 126 C880 126 878 128 878 132 L878 347 C878 351 875 353 871 353 L824 353 L819 351 L652 126 L652 86 C652 82 653 81 657 81 L815 81 C818 81 821 79 821 76 L821 6 C821 2 823 0 827 0 L871 0 C876 0 878 2 878 6 L878 76 C878 80 880 81 884 81 L928 81 C933 81 934 83 934 87 L934 87 Z M821 132 C821 128 819 126 815 126 L720 126 C715 126 713 128 713 130 C713 132 713 133 715 135 L810 262 C811 264 813 265 815 265 C818 265 821 263 821 259 L821 132 Z " />
<glyph glyph-name="onehalf" unicode="&#xbd;" horiz-adv-x="954" d="M276 283 L276 316 C276 320 273 322 270 322 L207 322 C202 322 200 323 200 327 L200 624 C200 628 198 630 194 630 L172 630 L168 628 L66 538 C64 536 64 535 64 534 C64 533 64 532 66 530 L94 506 C96 504 97 504 98 504 C100 504 101 504 103 506 L133 533 C135 535 136 536 138 536 C141 536 144 533 144 530 L144 327 C144 323 142 322 137 322 L74 322 C70 322 68 320 68 316 L68 283 C68 279 70 277 74 277 L270 277 C274 277 276 279 276 283 L276 283 Z M383 12 L627 603 C628 606 629 610 629 613 C629 623 622 630 610 630 L588 630 C580 630 573 626 570 618 L326 27 C325 24 324 20 324 17 C324 7 331 0 343 0 L365 0 C373 0 380 5 383 12 L383 12 Z M798 358 L774 358 C744 358 720 352 706 342 C681 326 669 311 669 301 C669 300 670 298 673 297 L713 279 L716 279 C718 279 720 280 721 282 C736 299 745 314 774 314 L798 314 C829 314 854 292 854 263 C854 229 821 214 773 188 C710 152 679 120 679 65 L679 6 C679 2 681 0 686 0 L900 0 C904 0 906 2 906 6 L906 39 C906 43 904 45 900 45 L742 45 C738 45 736 46 736 50 L736 65 C736 94 754 114 791 135 C818 150 844 162 866 179 C895 200 911 231 911 263 C911 320 866 358 798 358 L798 358 Z " />
<glyph glyph-name="threequarters" unicode="&#xbe;" horiz-adv-x="954" d="M274 371 L274 388 C274 401 268 417 255 434 C244 448 231 455 231 458 C231 462 244 468 255 481 C268 497 274 513 274 526 L274 535 C274 596 230 635 161 635 L142 635 C112 635 88 629 74 619 C49 603 37 588 37 578 C37 577 38 575 41 574 L81 556 L84 556 C86 556 88 557 89 559 C104 576 113 591 142 591 L161 591 C192 591 217 568 217 540 L217 532 C217 504 192 481 161 481 L110 481 C106 481 104 480 104 476 L104 442 C104 438 106 437 110 437 L161 437 C192 437 217 414 217 386 L217 367 C217 339 192 316 161 316 L142 316 C113 316 104 331 89 348 C88 350 87 352 84 352 C84 352 82 351 81 351 L41 333 C38 332 37 331 37 329 C37 320 49 304 73 288 C87 278 112 271 142 271 L161 271 C231 271 274 310 274 371 L274 371 Z M383 12 L627 603 C628 606 629 610 629 613 C629 623 622 630 610 630 L588 630 C580 630 573 626 570 618 L326 27 C325 24 324 20 324 17 C324 7 331 0 343 0 L365 0 C373 0 380 5 383 12 L383 12 Z M934 87 L934 120 C934 124 933 126 928 126 L884 126 C880 126 878 128 878 132 L878 347 C878 351 875 353 871 353 L824 353 L819 351 L652 126 L652 86 C652 82 653 81 657 81 L815 81 C818 81 821 79 821 76 L821 6 C821 2 823 0 827 0 L871 0 C876 0 878 2 878 6 L878 76 C878 80 880 81 884 81 L928 81 C933 81 934 83 934 87 L934 87 Z M821 132 C821 128 819 126 815 126 L720 126 C715 126 713 128 713 130 C713 132 713 133 715 135 L810 262 C811 264 813 265 815 265 C818 265 821 263 821 259 L821 132 Z " />
<glyph glyph-name="questiondown" unicode="&#xbf;" horiz-adv-x="510" d="M340 405 C340 436 316 460 285 460 C254 460 230 437 230 405 C230 374 254 350 285 350 C316 350 340 374 340 405 L340 405 Z M442 -81 L378 -49 C376 -48 374 -47 373 -47 C366 -47 361 -63 343 -84 C330 -100 306 -110 282 -110 L244 -110 C195 -110 154 -71 154 -20 C154 39 197 57 264 91 C321 120 347 157 347 214 C347 255 345 270 333 270 L264 270 C256 270 254 267 254 259 C254 254 257 244 257 228 C257 167 204 158 143 124 C88 93 64 48 64 -20 C64 -122 135 -190 244 -190 L282 -190 C380 -190 448 -127 448 -89 C448 -86 446 -83 442 -81 L442 -81 Z " />
<glyph glyph-name="Agrave" unicode="&#xc0;" horiz-adv-x="450" d="M448 13 L262 623 C260 628 257 630 252 630 L198 630 C192 630 189 628 188 623 L2 13 C2 11 1 10 1 9 C1 3 5 0 12 0 L87 0 C92 0 96 2 97 7 L134 139 C135 144 138 145 144 145 L306 145 C312 145 315 144 316 139 L353 7 C354 2 358 0 363 0 L438 0 C445 0 449 3 449 9 C449 10 448 11 448 13 L448 13 Z M287 238 C287 237 288 235 288 234 C288 228 284 225 277 225 L172 225 C165 225 161 228 161 234 C161 235 162 236 162 238 L211 425 L223 470 L227 470 C232 451 236 436 239 426 L287 238 Z M272 699 L190 824 L182 829 L94 829 C87 829 83 826 83 821 C83 818 84 815 87 812 L214 687 L221 684 L264 684 C271 684 274 687 274 691 C274 694 274 696 272 699 L272 699 Z " />
<glyph glyph-name="Aacute" unicode="&#xc1;" horiz-adv-x="450" d="M448 13 L262 623 C260 628 257 630 252 630 L198 630 C192 630 189 628 188 623 L2 13 C2 11 1 10 1 9 C1 3 5 0 12 0 L87 0 C92 0 96 2 97 7 L134 139 C135 144 138 145 144 145 L306 145 C312 145 315 144 316 139 L353 7 C354 2 358 0 363 0 L438 0 C445 0 449 3 449 9 C449 10 448 11 448 13 L448 13 Z M287 238 C287 237 288 235 288 234 C288 228 284 225 277 225 L172 225 C165 225 161 228 161 234 C161 235 162 236 162 238 L211 425 L223 470 L227 470 C232 451 236 436 239 426 L287 238 Z M363 812 C366 815 367 817 367 820 C367 825 363 829 356 829 L268 829 L260 824 L178 699 C176 696 176 694 176 692 C176 688 180 684 186 684 L229 684 L236 687 L363 812 Z " />
<glyph glyph-name="Acircumflex" unicode="&#xc2;" horiz-adv-x="450" d="M448 13 L262 623 C260 628 257 630 252 630 L198 630 C192 630 189 628 188 623 L2 13 C2 11 1 10 1 9 C1 3 5 0 12 0 L87 0 C92 0 96 2 97 7 L134 139 C135 144 138 145 144 145 L306 145 C312 145 315 144 316 139 L353 7 C354 2 358 0 363 0 L438 0 C445 0 449 3 449 9 C449 10 448 11 448 13 L448 13 Z M287 238 C287 237 288 235 288 234 C288 228 284 225 277 225 L172 225 C165 225 161 228 161 234 C161 235 162 236 162 238 L211 425 L223 470 L227 470 C232 451 236 436 239 426 L287 238 Z M342 701 L253 826 L245 830 L209 830 L201 826 L112 701 C110 698 108 696 108 693 C108 688 113 685 120 685 L168 685 L176 690 L219 758 C222 762 225 764 227 764 C229 764 232 762 234 758 L278 690 L286 685 L334 685 C341 685 345 689 345 693 C345 695 344 698 342 701 L342 701 Z " />
<glyph glyph-name="Atilde" unicode="&#xc3;" horiz-adv-x="450" d="M448 13 L262 623 C260 628 257 630 252 630 L198 630 C192 630 189 628 188 623 L2 13 C2 11 1 10 1 9 C1 3 5 0 12 0 L87 0 C92 0 96 2 97 7 L134 139 C135 144 138 145 144 145 L306 145 C312 145 315 144 316 139 L353 7 C354 2 358 0 363 0 L438 0 C445 0 449 3 449 9 C449 10 448 11 448 13 L448 13 Z M287 238 C287 237 288 235 288 234 C288 228 284 225 277 225 L172 225 C165 225 161 228 161 234 C161 235 162 236 162 238 L211 425 L223 470 L227 470 C232 451 236 436 239 426 L287 238 Z M373 766 C374 768 374 769 374 771 C374 774 373 776 370 779 L350 795 C348 797 346 797 344 797 C335 797 322 764 285 764 C272 764 260 768 250 776 L231 791 C211 807 190 815 168 815 C123 815 80 759 80 743 C80 741 82 738 85 736 L107 720 C109 718 111 718 113 718 C122 718 135 750 168 750 C177 750 190 746 204 737 L224 724 C245 707 265 698 287 698 C318 698 348 721 373 766 L373 766 Z " />
<glyph glyph-name="Adieresis" unicode="&#xc4;" horiz-adv-x="450" d="M448 13 L262 623 C260 628 257 630 252 630 L198 630 C192 630 189 628 188 623 L2 13 C2 11 1 10 1 9 C1 3 5 0 12 0 L87 0 C92 0 96 2 97 7 L134 139 C135 144 138 145 144 145 L306 145 C312 145 315 144 316 139 L353 7 C354 2 358 0 363 0 L438 0 C445 0 449 3 449 9 C449 10 448 11 448 13 L448 13 Z M287 238 C287 237 288 235 288 234 C288 228 284 225 277 225 L172 225 C165 225 161 228 161 234 C161 235 162 236 162 238 L211 425 L223 470 L227 470 C232 451 236 436 239 426 L287 238 Z M355 752 C355 779 333 802 305 802 C277 802 255 780 255 752 C255 724 277 702 305 702 C333 702 355 725 355 752 L355 752 Z M199 752 C199 779 177 802 149 802 C121 802 99 780 99 752 C99 724 121 702 149 702 C177 702 199 725 199 752 L199 752 Z " />
<glyph glyph-name="Aring" unicode="&#xc5;" horiz-adv-x="450" d="M448 13 L262 623 C260 628 257 630 252 630 L198 630 C192 630 189 628 188 623 L2 13 C2 11 1 10 1 9 C1 3 5 0 12 0 L87 0 C92 0 96 2 97 7 L134 139 C135 144 138 145 144 145 L306 145 C312 145 315 144 316 139 L353 7 C354 2 358 0 363 0 L438 0 C445 0 449 3 449 9 C449 10 448 11 448 13 L448 13 Z M287 238 C287 237 288 235 288 234 C288 228 284 225 277 225 L172 225 C165 225 161 228 161 234 C161 235 162 236 162 238 L211 425 L223 470 L227 470 C232 451 236 436 239 426 L287 238 Z M317 761 L317 789 C317 841 282 875 227 875 C172 875 137 841 137 789 L137 761 C137 709 172 675 227 675 C282 675 317 709 317 761 L317 761 Z M265 789 L265 761 C265 741 248 723 227 723 C206 723 189 741 189 761 L189 789 C189 809 206 827 227 827 C248 827 265 809 265 789 L265 789 Z " />
<glyph glyph-name="AE" unicode="&#xc6;" horiz-adv-x="698" d="M653 10 L653 70 C653 77 650 80 643 80 L393 80 C386 80 383 83 383 90 L383 270 C383 277 386 280 393 280 L598 280 C605 280 608 283 608 290 L608 350 C608 357 605 360 598 360 L393 360 C386 360 383 363 383 370 L383 540 C383 547 386 550 393 550 L643 550 C650 550 653 553 653 560 L653 620 C653 627 650 630 643 630 L312 630 L303 625 L-57 15 C-59 12 -59 10 -59 8 C-59 3 -55 0 -48 0 L25 0 L34 5 L110 141 L120 145 L283 145 C289 145 293 141 293 135 L293 10 C293 3 296 0 303 0 L643 0 C650 0 653 3 653 10 L653 10 Z M296 462 C293 411 293 361 293 312 L293 235 C293 228 290 225 283 225 L177 225 C170 225 166 228 166 233 C166 235 166 237 168 240 L274 427 C280 437 286 449 292 463 L296 462 Z " />
<glyph glyph-name="Ccedilla" unicode="&#xc7;" horiz-adv-x="465" d="M330 -136 L330 -128 C330 -89 309 -76 289 -56 C286 -53 285 -52 285 -49 C285 -48 285 -46 286 -44 L303 -8 C390 12 437 60 437 93 C437 95 435 98 431 100 L368 132 C366 133 364 134 362 134 C355 134 346 117 324 91 C315 80 294 70 270 70 L240 70 C190 70 150 110 150 160 L150 470 C150 520 190 560 240 560 L270 560 C313 560 330 535 353 504 C356 500 357 498 361 498 C362 498 364 498 366 499 L430 531 C434 533 436 536 436 539 C436 578 368 640 270 640 L240 640 C131 640 60 572 60 470 L60 160 C60 61 123 -4 233 -10 L201 -80 C200 -82 199 -84 199 -86 C199 -91 203 -94 210 -94 L229 -94 C248 -94 262 -109 262 -128 L262 -136 C262 -155 248 -169 229 -169 L181 -169 C174 -169 171 -172 171 -179 L171 -219 C171 -226 174 -229 181 -229 L229 -229 C289 -229 330 -189 330 -136 L330 -136 Z " />
<glyph glyph-name="Egrave" unicode="&#xc8;" horiz-adv-x="480" d="M435 10 L435 70 C435 77 431 80 425 80 L175 80 C168 80 165 83 165 90 L165 270 C165 277 168 280 175 280 L380 280 C387 280 390 283 390 290 L390 350 C390 357 387 360 380 360 L175 360 C168 360 165 363 165 370 L165 540 C165 547 168 550 175 550 L425 550 C432 550 435 553 435 560 L435 620 C435 627 431 630 425 630 L85 630 C78 630 75 627 75 620 L75 10 C75 3 78 0 85 0 L425 0 C432 0 435 3 435 10 L435 10 Z M301 699 L219 824 L211 829 L123 829 C116 829 112 826 112 821 C112 818 113 815 116 812 L243 687 L250 684 L293 684 C300 684 303 687 303 691 C303 694 303 696 301 699 L301 699 Z " />
<glyph glyph-name="Eacute" unicode="&#xc9;" horiz-adv-x="480" d="M435 10 L435 70 C435 77 431 80 425 80 L175 80 C168 80 165 83 165 90 L165 270 C165 277 168 280 175 280 L380 280 C387 280 390 283 390 290 L390 350 C390 357 387 360 380 360 L175 360 C168 360 165 363 165 370 L165 540 C165 547 168 550 175 550 L425 550 C432 550 435 553 435 560 L435 620 C435 627 431 630 425 630 L85 630 C78 630 75 627 75 620 L75 10 C75 3 78 0 85 0 L425 0 C432 0 435 3 435 10 L435 10 Z M392 812 C395 815 396 817 396 820 C396 825 392 829 385 829 L297 829 L289 824 L207 699 C205 696 205 694 205 692 C205 688 209 684 215 684 L258 684 L265 687 L392 812 Z " />
<glyph glyph-name="Ecircumflex" unicode="&#xca;" horiz-adv-x="480" d="M435 10 L435 70 C435 77 431 80 425 80 L175 80 C168 80 165 83 165 90 L165 270 C165 277 168 280 175 280 L380 280 C387 280 390 283 390 290 L390 350 C390 357 387 360 380 360 L175 360 C168 360 165 363 165 370 L165 540 C165 547 168 550 175 550 L425 550 C432 550 435 553 435 560 L435 620 C435 627 431 630 425 630 L85 630 C78 630 75 627 75 620 L75 10 C75 3 78 0 85 0 L425 0 C432 0 435 3 435 10 L435 10 Z M371 701 L282 826 L274 830 L238 830 L230 826 L141 701 C139 698 137 696 137 693 C137 688 142 685 149 685 L197 685 L205 690 L248 758 C251 762 254 764 256 764 C258 764 261 762 263 758 L307 690 L315 685 L363 685 C370 685 374 689 374 693 C374 695 373 698 371 701 L371 701 Z " />
<glyph glyph-name="Edieresis" unicode="&#xcb;" horiz-adv-x="480" d="M435 10 L435 70 C435 77 431 80 425 80 L175 80 C168 80 165 83 165 90 L165 270 C165 277 168 280 175 280 L380 280 C387 280 390 283 390 290 L390 350 C390 357 387 360 380 360 L175 360 C168 360 165 363 165 370 L165 540 C165 547 168 550 175 550 L425 550 C432 550 435 553 435 560 L435 620 C435 627 431 630 425 630 L85 630 C78 630 75 627 75 620 L75 10 C75 3 78 0 85 0 L425 0 C432 0 435 3 435 10 L435 10 Z M384 752 C384 779 362 802 334 802 C306 802 284 780 284 752 C284 724 306 702 334 702 C362 702 384 725 384 752 L384 752 Z M228 752 C228 779 206 802 178 802 C150 802 128 780 128 752 C128 724 150 702 178 702 C206 702 228 725 228 752 L228 752 Z " />
<glyph glyph-name="Igrave" unicode="&#xcc;" horiz-adv-x="240" d="M165 10 L165 620 C165 627 161 630 155 630 L85 630 C78 630 75 627 75 620 L75 10 C75 3 78 0 85 0 L155 0 C162 0 165 3 165 10 L165 10 Z M167 699 L85 824 L77 829 L-11 829 C-18 829 -22 826 -22 821 C-22 818 -21 815 -18 812 L109 687 L116 684 L159 684 C166 684 169 687 169 691 C169 694 169 696 167 699 L167 699 Z " />
<glyph glyph-name="Iacute" unicode="&#xcd;" horiz-adv-x="240" d="M165 10 L165 620 C165 627 161 630 155 630 L85 630 C78 630 75 627 75 620 L75 10 C75 3 78 0 85 0 L155 0 C162 0 165 3 165 10 L165 10 Z M258 812 C261 815 262 817 262 820 C262 825 258 829 251 829 L163 829 L155 824 L73 699 C71 696 71 694 71 692 C71 688 75 684 81 684 L124 684 L131 687 L258 812 Z " />
<glyph glyph-name="Icircumflex" unicode="&#xce;" horiz-adv-x="240" d="M165 10 L165 620 C165 627 161 630 155 630 L85 630 C78 630 75 627 75 620 L75 10 C75 3 78 0 85 0 L155 0 C162 0 165 3 165 10 L165 10 Z M237 701 L148 826 L140 830 L104 830 L96 826 L7 701 C5 698 3 696 3 693 C3 688 8 685 15 685 L63 685 L71 690 L114 758 C117 762 120 764 122 764 C124 764 127 762 129 758 L173 690 L181 685 L229 685 C236 685 240 689 240 693 C240 695 239 698 237 701 L237 701 Z " />
<glyph glyph-name="Idieresis" unicode="&#xcf;" horiz-adv-x="240" d="M165 10 L165 620 C165 627 161 630 155 630 L85 630 C78 630 75 627 75 620 L75 10 C75 3 78 0 85 0 L155 0 C162 0 165 3 165 10 L165 10 Z M250 752 C250 779 228 802 200 802 C172 802 150 780 150 752 C150 724 172 702 200 702 C228 702 250 725 250 752 L250 752 Z M94 752 C94 779 72 802 44 802 C16 802 -6 780 -6 752 C-6 724 16 702 44 702 C72 702 94 725 94 752 L94 752 Z " />
<glyph glyph-name="Eth" unicode="&#xd0;" horiz-adv-x="525" d="M465 180 L465 450 C465 560 395 630 285 630 L85 630 C78 630 75 627 75 620 L75 370 C75 363 72 360 65 360 L33 360 C26 360 23 357 23 350 L23 280 C23 273 26 270 33 270 L65 270 C72 270 75 267 75 260 L75 10 C75 3 78 0 85 0 L285 0 C396 0 465 69 465 180 L465 180 Z M375 170 C375 121 335 80 285 80 L175 80 C168 80 165 83 165 90 L165 260 C165 267 168 270 175 270 L260 270 C267 270 270 273 270 280 L270 350 C270 357 267 360 260 360 L175 360 C168 360 165 363 165 370 L165 540 C165 547 168 550 175 550 L285 550 C335 550 375 510 375 460 L375 170 Z " />
<glyph glyph-name="Ntilde" unicode="&#xd1;" horiz-adv-x="555" d="M480 10 L480 620 C480 627 477 630 470 630 L400 630 C393 630 390 627 390 620 L395 177 L158 625 L149 630 L85 630 C78 630 75 627 75 620 L75 10 C75 3 78 0 85 0 L155 0 C162 0 165 3 165 10 L159 454 L397 5 L406 0 L470 0 C477 0 480 3 480 10 L480 10 Z M425 766 C426 768 426 769 426 771 C426 774 425 776 422 779 L402 795 C400 797 398 797 396 797 C387 797 374 764 337 764 C324 764 312 768 302 776 L283 791 C263 807 242 815 220 815 C175 815 132 759 132 743 C132 741 134 738 137 736 L159 720 C161 718 163 718 165 718 C174 718 187 750 220 750 C229 750 242 746 256 737 L276 724 C297 707 317 698 339 698 C370 698 400 721 425 766 L425 766 Z " />
<glyph glyph-name="Ograve" unicode="&#xd2;" horiz-adv-x="510" d="M450 160 L450 470 C450 572 379 640 270 640 L240 640 C131 640 60 572 60 470 L60 160 C60 58 131 -10 240 -10 L270 -10 C379 -10 450 58 450 160 L450 160 Z M360 160 C360 110 320 70 270 70 L240 70 C190 70 150 110 150 160 L150 470 C150 520 190 560 240 560 L270 560 C320 560 360 520 360 470 L360 160 Z M302 699 L220 824 L212 829 L124 829 C117 829 113 826 113 821 C113 818 114 815 117 812 L244 687 L251 684 L294 684 C301 684 304 687 304 691 C304 694 304 696 302 699 L302 699 Z " />
<glyph glyph-name="Oacute" unicode="&#xd3;" horiz-adv-x="510" d="M450 160 L450 470 C450 572 379 640 270 640 L240 640 C131 640 60 572 60 470 L60 160 C60 58 131 -10 240 -10 L270 -10 C379 -10 450 58 450 160 L450 160 Z M360 160 C360 110 320 70 270 70 L240 70 C190 70 150 110 150 160 L150 470 C150 520 190 560 240 560 L270 560 C320 560 360 520 360 470 L360 160 Z M393 812 C396 815 397 817 397 820 C397 825 393 829 386 829 L298 829 L290 824 L208 699 C206 696 206 694 206 692 C206 688 210 684 216 684 L259 684 L266 687 L393 812 Z " />
<glyph glyph-name="Ocircumflex" unicode="&#xd4;" horiz-adv-x="510" d="M450 160 L450 470 C450 572 379 640 270 640 L240 640 C131 640 60 572 60 470 L60 160 C60 58 131 -10 240 -10 L270 -10 C379 -10 450 58 450 160 L450 160 Z M360 160 C360 110 320 70 270 70 L240 70 C190 70 150 110 150 160 L150 470 C150 520 190 560 240 560 L270 560 C320 560 360 520 360 470 L360 160 Z M372 701 L283 826 L275 830 L239 830 L231 826 L142 701 C140 698 138 696 138 693 C138 688 143 685 150 685 L198 685 L206 690 L249 758 C252 762 255 764 257 764 C259 764 262 762 264 758 L308 690 L316 685 L364 685 C371 685 375 689 375 693 C375 695 374 698 372 701 L372 701 Z " />
<glyph glyph-name="Otilde" unicode="&#xd5;" horiz-adv-x="510" d="M450 160 L450 470 C450 572 379 640 270 640 L240 640 C131 640 60 572 60 470 L60 160 C60 58 131 -10 240 -10 L270 -10 C379 -10 450 58 450 160 L450 160 Z M360 160 C360 110 320 70 270 70 L240 70 C190 70 150 110 150 160 L150 470 C150 520 190 560 240 560 L270 560 C320 560 360 520 360 470 L360 160 Z M403 766 C404 768 404 769 404 771 C404 774 403 776 400 779 L380 795 C378 797 376 797 374 797 C365 797 352 764 315 764 C302 764 290 768 280 776 L261 791 C241 807 220 815 198 815 C153 815 110 759 110 743 C110 741 112 738 115 736 L137 720 C139 718 141 718 143 718 C152 718 165 750 198 750 C207 750 220 746 234 737 L254 724 C275 707 295 698 317 698 C348 698 378 721 403 766 L403 766 Z " />
<glyph glyph-name="Odieresis" unicode="&#xd6;" horiz-adv-x="510" d="M450 160 L450 470 C450 572 379 640 270 640 L240 640 C131 640 60 572 60 470 L60 160 C60 58 131 -10 240 -10 L270 -10 C379 -10 450 58 450 160 L450 160 Z M360 160 C360 110 320 70 270 70 L240 70 C190 70 150 110 150 160 L150 470 C150 520 190 560 240 560 L270 560 C320 560 360 520 360 470 L360 160 Z M385 752 C385 779 363 802 335 802 C307 802 285 780 285 752 C285 724 307 702 335 702 C363 702 385 725 385 752 L385 752 Z M229 752 C229 779 207 802 179 802 C151 802 129 780 129 752 C129 724 151 702 179 702 C207 702 229 725 229 752 L229 752 Z " />
<glyph glyph-name="multiply" unicode="&#xd7;" horiz-adv-x="833" d="M420 346 L191 575 L143 527 L372 298 L143 69 L191 22 L420 250 L649 22 L697 69 L468 298 L697 527 L649 575 L420 346 Z " />
<glyph glyph-name="Oslash" unicode="&#xd8;" horiz-adv-x="510" d="M450 160 L450 470 C450 572 379 640 270 640 L240 640 C131 640 60 572 60 470 L60 160 C60 58 131 -10 240 -10 L270 -10 C379 -10 450 58 450 160 L450 160 Z M326 530 L164 155 C162 151 159 149 156 149 C152 149 150 152 150 158 L150 470 C150 520 190 560 240 560 L270 560 C303 560 327 543 327 534 C327 533 327 531 326 530 L326 530 Z M360 160 C360 110 320 70 270 70 L240 70 C209 70 187 82 187 92 C187 93 187 95 188 97 L356 491 C359 482 360 474 360 468 L360 160 Z " />
<glyph glyph-name="Ugrave" unicode="&#xd9;" horiz-adv-x="510" d="M450 160 L450 620 C450 627 446 630 440 630 L370 630 C363 630 360 627 360 620 L360 160 C360 110 320 70 270 70 L240 70 C190 70 150 110 150 160 L150 620 C150 627 146 630 140 630 L70 630 C63 630 60 627 60 620 L60 160 C60 58 131 -10 240 -10 L270 -10 C379 -10 450 58 450 160 L450 160 Z M302 699 L220 824 L212 829 L124 829 C117 829 113 826 113 821 C113 818 114 815 117 812 L244 687 L251 684 L294 684 C301 684 304 687 304 691 C304 694 304 696 302 699 L302 699 Z " />
<glyph glyph-name="Uacute" unicode="&#xda;" horiz-adv-x="510" d="M450 160 L450 620 C450 627 446 630 440 630 L370 630 C363 630 360 627 360 620 L360 160 C360 110 320 70 270 70 L240 70 C190 70 150 110 150 160 L150 620 C150 627 146 630 140 630 L70 630 C63 630 60 627 60 620 L60 160 C60 58 131 -10 240 -10 L270 -10 C379 -10 450 58 450 160 L450 160 Z M393 812 C396 815 397 817 397 820 C397 825 393 829 386 829 L298 829 L290 824 L208 699 C206 696 206 694 206 692 C206 688 210 684 216 684 L259 684 L266 687 L393 812 Z " />
<glyph glyph-name="Ucircumflex" unicode="&#xdb;" horiz-adv-x="510" d="M450 160 L450 620 C450 627 446 630 440 630 L370 630 C363 630 360 627 360 620 L360 160 C360 110 320 70 270 70 L240 70 C190 70 150 110 150 160 L150 620 C150 627 146 630 140 630 L70 630 C63 630 60 627 60 620 L60 160 C60 58 131 -10 240 -10 L270 -10 C379 -10 450 58 450 160 L450 160 Z M372 701 L283 826 L275 830 L239 830 L231 826 L142 701 C140 698 138 696 138 693 C138 688 143 685 150 685 L198 685 L206 690 L249 758 C252 762 255 764 257 764 C259 764 262 762 264 758 L308 690 L316 685 L364 685 C371 685 375 689 375 693 C375 695 374 698 372 701 L372 701 Z " />
<glyph glyph-name="Udieresis" unicode="&#xdc;" horiz-adv-x="510" d="M450 160 L450 620 C450 627 446 630 440 630 L370 630 C363 630 360 627 360 620 L360 160 C360 110 320 70 270 70 L240 70 C190 70 150 110 150 160 L150 620 C150 627 146 630 140 630 L70 630 C63 630 60 627 60 620 L60 160 C60 58 131 -10 240 -10 L270 -10 C379 -10 450 58 450 160 L450 160 Z M385 752 C385 779 363 802 335 802 C307 802 285 780 285 752 C285 724 307 702 335 702 C363 702 385 725 385 752 L385 752 Z M229 752 C229 779 207 802 179 802 C151 802 129 780 129 752 C129 724 151 702 179 702 C207 702 229 725 229 752 L229 752 Z " />
<glyph glyph-name="Yacute" unicode="&#xdd;" horiz-adv-x="450" d="M444 615 C445 618 446 620 446 622 C446 627 442 630 435 630 L353 630 L344 624 L234 396 C232 391 228 389 225 389 C222 389 218 391 216 396 L106 624 L97 630 L15 630 C8 630 4 627 4 622 C4 620 5 618 6 615 L180 289 L180 10 C180 3 183 0 190 0 L260 0 C267 0 270 3 270 10 L270 289 L444 615 Z M363 812 C366 815 367 817 367 820 C367 825 363 829 356 829 L268 829 L260 824 L178 699 C176 696 176 694 176 692 C176 688 180 684 186 684 L229 684 L236 687 L363 812 Z " />
<glyph glyph-name="Thorn" unicode="&#xde;" horiz-adv-x="485" d="M285 540 L175 540 C168 540 165 543 165 550 L165 620 C165 627 161 630 155 630 L85 630 C78 630 75 627 75 620 L75 10 C75 3 78 0 85 0 L155 0 C162 0 165 3 165 10 L165 180 C165 187 168 190 175 190 L285 190 C393 190 465 260 465 360 C465 470 395 540 285 540 L285 540 Z M375 360 C375 310 335 270 285 270 L175 270 C168 270 165 273 165 280 L165 450 C165 457 168 460 175 460 L285 460 C335 460 375 420 375 370 L375 360 Z " />
<glyph glyph-name="germandbls" unicode="&#xdf;" horiz-adv-x="482" d="M440 168 L440 193 C440 217 430 245 409 276 C392 302 372 313 372 319 C372 326 392 335 409 359 C430 388 440 416 440 440 L440 460 C440 569 369 640 266 640 C158 640 80 562 80 460 L80 415 C80 408 77 405 70 405 L45 405 C38 405 35 402 35 395 L35 335 C35 328 38 325 45 325 L70 325 C77 325 80 322 80 315 L80 10 C80 3 83 0 90 0 L160 0 C167 0 170 3 170 10 L170 470 C170 521 207 560 260 560 C311 560 350 519 350 470 L350 450 C350 394 317 382 268 361 C263 359 260 358 260 351 L260 289 C260 282 263 281 268 279 C317 258 350 246 350 190 L350 160 C350 104 317 92 268 71 C263 69 260 68 260 61 L260 1 C260 -8 265 -9 278 -9 C364 -9 440 60 440 168 L440 168 Z " />
<glyph glyph-name="agrave" unicode="&#xe0;" horiz-adv-x="475" d="M410 10 L410 161 L409 293 C408 393 338 460 229 460 C178 460 138 447 110 422 C78 394 65 369 65 361 C65 357 67 355 71 353 L132 321 C134 320 136 319 138 319 C144 319 153 335 175 359 C187 372 207 381 229 381 C281 381 317 344 319 293 L320 265 C320 258 317 255 310 255 L195 255 C116 255 62 203 62 131 L62 125 C62 53 116 0 195 0 L234 0 C280 0 308 34 323 34 C327 34 330 30 330 23 L330 10 C330 3 333 0 340 0 L400 0 C407 0 410 3 410 10 L410 10 Z M320 171 L319 152 C302 105 272 80 234 80 L195 80 C170 80 151 99 151 125 L151 141 C151 166 170 185 195 185 L310 185 C316 185 320 181 320 175 L320 171 Z M283 519 L201 644 L193 649 L105 649 C98 649 94 646 94 641 C94 638 95 635 98 632 L225 507 L232 504 L275 504 C282 504 285 507 285 511 C285 514 285 516 283 519 L283 519 Z " />
<glyph glyph-name="aacute" unicode="&#xe1;" horiz-adv-x="475" d="M410 10 L410 161 L409 293 C408 393 338 460 229 460 C178 460 138 447 110 422 C78 394 65 369 65 361 C65 357 67 355 71 353 L132 321 C134 320 136 319 138 319 C144 319 153 335 175 359 C187 372 207 381 229 381 C281 381 317 344 319 293 L320 265 C320 258 317 255 310 255 L195 255 C116 255 62 203 62 131 L62 125 C62 53 116 0 195 0 L234 0 C280 0 308 34 323 34 C327 34 330 30 330 23 L330 10 C330 3 333 0 340 0 L400 0 C407 0 410 3 410 10 L410 10 Z M320 171 L319 152 C302 105 272 80 234 80 L195 80 C170 80 151 99 151 125 L151 141 C151 166 170 185 195 185 L310 185 C316 185 320 181 320 175 L320 171 Z M374 632 C377 635 378 637 378 640 C378 645 374 649 367 649 L279 649 L271 644 L189 519 C187 516 187 514 187 512 C187 508 191 504 197 504 L240 504 L247 507 L374 632 Z " />
<glyph glyph-name="acircumflex" unicode="&#xe2;" horiz-adv-x="475" d="M410 10 L410 161 L409 293 C408 393 338 460 229 460 C178 460 138 447 110 422 C78 394 65 369 65 361 C65 357 67 355 71 353 L132 321 C134 320 136 319 138 319 C144 319 153 335 175 359 C187 372 207 381 229 381 C281 381 317 344 319 293 L320 265 C320 258 317 255 310 255 L195 255 C116 255 62 203 62 131 L62 125 C62 53 116 0 195 0 L234 0 C280 0 308 34 323 34 C327 34 330 30 330 23 L330 10 C330 3 333 0 340 0 L400 0 C407 0 410 3 410 10 L410 10 Z M320 171 L319 152 C302 105 272 80 234 80 L195 80 C170 80 151 99 151 125 L151 141 C151 166 170 185 195 185 L310 185 C316 185 320 181 320 175 L320 171 Z M353 521 L264 646 L256 650 L220 650 L212 646 L123 521 C121 518 119 516 119 513 C119 508 124 505 131 505 L179 505 L187 510 L230 578 C233 582 236 584 238 584 C240 584 243 582 245 578 L289 510 L297 505 L345 505 C352 505 356 509 356 513 C356 515 355 518 353 521 L353 521 Z " />
<glyph glyph-name="atilde" unicode="&#xe3;" horiz-adv-x="475" d="M410 10 L410 161 L409 293 C408 393 338 460 229 460 C178 460 138 447 110 422 C78 394 65 369 65 361 C65 357 67 355 71 353 L132 321 C134 320 136 319 138 319 C144 319 153 335 175 359 C187 372 207 381 229 381 C281 381 317 344 319 293 L320 265 C320 258 317 255 310 255 L195 255 C116 255 62 203 62 131 L62 125 C62 53 116 0 195 0 L234 0 C280 0 308 34 323 34 C327 34 330 30 330 23 L330 10 C330 3 333 0 340 0 L400 0 C407 0 410 3 410 10 L410 10 Z M320 171 L319 152 C302 105 272 80 234 80 L195 80 C170 80 151 99 151 125 L151 141 C151 166 170 185 195 185 L310 185 C316 185 320 181 320 175 L320 171 Z M384 586 C385 588 385 589 385 591 C385 594 384 596 381 599 L361 615 C359 617 357 617 355 617 C346 617 333 584 296 584 C283 584 271 588 261 596 L242 611 C222 627 201 635 179 635 C134 635 91 579 91 563 C91 561 93 558 96 556 L118 540 C120 538 122 538 124 538 C133 538 146 570 179 570 C188 570 201 566 215 557 L235 544 C256 527 276 518 298 518 C329 518 359 541 384 586 L384 586 Z " />
<glyph glyph-name="adieresis" unicode="&#xe4;" horiz-adv-x="475" d="M410 10 L410 161 L409 293 C408 393 338 460 229 460 C178 460 138 447 110 422 C78 394 65 369 65 361 C65 357 67 355 71 353 L132 321 C134 320 136 319 138 319 C144 319 153 335 175 359 C187 372 207 381 229 381 C281 381 317 344 319 293 L320 265 C320 258 317 255 310 255 L195 255 C116 255 62 203 62 131 L62 125 C62 53 116 0 195 0 L234 0 C280 0 308 34 323 34 C327 34 330 30 330 23 L330 10 C330 3 333 0 340 0 L400 0 C407 0 410 3 410 10 L410 10 Z M320 171 L319 152 C302 105 272 80 234 80 L195 80 C170 80 151 99 151 125 L151 141 C151 166 170 185 195 185 L310 185 C316 185 320 181 320 175 L320 171 Z M366 572 C366 599 344 622 316 622 C288 622 266 600 266 572 C266 544 288 522 316 522 C344 522 366 545 366 572 L366 572 Z M210 572 C210 599 188 622 160 622 C132 622 110 600 110 572 C110 544 132 522 160 522 C188 522 210 545 210 572 L210 572 Z " />
<glyph glyph-name="aring" unicode="&#xe5;" horiz-adv-x="475" d="M410 10 L410 161 L409 293 C408 393 338 460 229 460 C178 460 138 447 110 422 C78 394 65 369 65 361 C65 357 67 355 71 353 L132 321 C134 320 136 319 138 319 C144 319 153 335 175 359 C187 372 207 381 229 381 C281 381 317 344 319 293 L320 265 C320 258 317 255 310 255 L195 255 C116 255 62 203 62 131 L62 125 C62 53 116 0 195 0 L234 0 C280 0 308 34 323 34 C327 34 330 30 330 23 L330 10 C330 3 333 0 340 0 L400 0 C407 0 410 3 410 10 L410 10 Z M320 171 L319 152 C302 105 272 80 234 80 L195 80 C170 80 151 99 151 125 L151 141 C151 166 170 185 195 185 L310 185 C316 185 320 181 320 175 L320 171 Z M337 591 L337 619 C337 670 302 705 247 705 C192 705 157 670 157 619 L157 591 C157 540 192 505 247 505 C302 505 337 540 337 591 L337 591 Z M285 619 L285 591 C285 571 268 553 247 553 C226 553 209 571 209 591 L209 619 C209 640 226 657 247 657 C268 657 285 639 285 619 L285 619 Z " />
<glyph glyph-name="ae" unicode="&#xe6;" horiz-adv-x="730" d="M680 220 L680 290 C680 381 600 458 500 458 C464 458 432 451 406 434 C383 419 372 407 368 407 C364 407 353 419 331 433 C304 450 270 458 230 458 C131 458 64 393 64 356 C64 353 66 351 70 349 L133 317 C135 316 137 316 138 316 C145 316 152 331 171 353 C184 369 205 378 230 378 C280 378 320 337 320 288 L320 260 C320 253 317 250 310 250 L185 250 C102 250 50 204 50 135 L50 115 C50 44 105 -10 185 -10 L235 -10 C262 -10 300 4 321 23 C339 38 346 52 352 52 C356 52 368 37 393 19 C419 0 455 -10 500 -10 C548 -10 587 2 609 19 C649 49 667 77 667 93 C667 96 665 98 661 100 L598 132 C596 133 594 134 592 134 C586 134 576 118 555 92 C544 79 524 70 500 70 C449 70 410 111 410 160 L410 200 C410 207 413 210 420 210 L670 210 C677 210 680 213 680 220 L680 220 Z M580 280 L420 280 C411 280 410 284 410 295 C410 339 452 378 500 378 C548 378 590 339 590 295 C590 284 589 280 580 280 L580 280 Z M320 160 L318 140 C295 93 267 70 235 70 L185 70 C160 70 140 90 140 115 L140 135 C140 159 161 180 185 180 L310 180 C316 180 320 177 320 170 L320 160 Z " />
<glyph glyph-name="ccedilla" unicode="&#xe7;" horiz-adv-x="428" d="M303 -136 L303 -128 C303 -90 282 -76 262 -56 C259 -53 258 -52 258 -49 C258 -48 258 -46 259 -44 L277 -6 C356 19 397 64 397 93 C397 95 395 98 391 100 L328 132 C326 133 324 134 322 134 C316 134 307 118 285 92 C274 79 254 70 230 70 C179 70 140 111 140 160 L140 290 C140 339 179 380 230 380 C271 380 289 357 313 324 C316 320 317 318 321 318 C322 318 324 318 326 319 L390 351 C394 353 396 355 396 359 C396 380 368 419 315 443 C290 454 262 460 230 460 C121 460 50 392 50 290 L50 160 C50 66 106 4 206 -9 L174 -80 C173 -82 172 -84 172 -86 C172 -91 176 -94 183 -94 L202 -94 C220 -94 235 -109 235 -128 L235 -136 C235 -155 221 -169 202 -169 L154 -169 C147 -169 144 -172 144 -179 L144 -219 C144 -226 147 -229 154 -229 L202 -229 C262 -229 303 -189 303 -136 L303 -136 Z " />
<glyph glyph-name="egrave" unicode="&#xe8;" horiz-adv-x="460" d="M410 220 L410 290 C410 381 330 460 230 460 C130 460 50 381 50 290 L50 160 C50 58 121 -10 230 -10 C283 -10 325 4 355 32 C385 60 397 86 397 93 C397 96 395 98 391 100 L328 132 C326 133 324 134 322 134 C316 134 307 118 285 92 C274 79 254 70 230 70 C179 70 140 111 140 160 L140 200 C140 207 143 210 150 210 L400 210 C407 210 410 213 410 220 L410 220 Z M310 280 L150 280 C141 280 140 284 140 295 C140 339 182 380 230 380 C277 380 320 340 320 297 C320 285 319 280 310 280 L310 280 Z M275 519 L193 644 L185 649 L97 649 C90 649 86 646 86 641 C86 638 87 635 90 632 L217 507 L224 504 L267 504 C274 504 277 507 277 511 C277 514 277 516 275 519 L275 519 Z " />
<glyph glyph-name="eacute" unicode="&#xe9;" horiz-adv-x="460" d="M410 220 L410 290 C410 381 330 460 230 460 C130 460 50 381 50 290 L50 160 C50 58 121 -10 230 -10 C283 -10 325 4 355 32 C385 60 397 86 397 93 C397 96 395 98 391 100 L328 132 C326 133 324 134 322 134 C316 134 307 118 285 92 C274 79 254 70 230 70 C179 70 140 111 140 160 L140 200 C140 207 143 210 150 210 L400 210 C407 210 410 213 410 220 L410 220 Z M310 280 L150 280 C141 280 140 284 140 295 C140 339 182 380 230 380 C277 380 320 340 320 297 C320 285 319 280 310 280 L310 280 Z M366 632 C369 635 370 637 370 640 C370 645 366 649 359 649 L271 649 L263 644 L181 519 C179 516 179 514 179 512 C179 508 183 504 189 504 L232 504 L239 507 L366 632 Z " />
<glyph glyph-name="ecircumflex" unicode="&#xea;" horiz-adv-x="460" d="M410 220 L410 290 C410 381 330 460 230 460 C130 460 50 381 50 290 L50 160 C50 58 121 -10 230 -10 C283 -10 325 4 355 32 C385 60 397 86 397 93 C397 96 395 98 391 100 L328 132 C326 133 324 134 322 134 C316 134 307 118 285 92 C274 79 254 70 230 70 C179 70 140 111 140 160 L140 200 C140 207 143 210 150 210 L400 210 C407 210 410 213 410 220 L410 220 Z M310 280 L150 280 C141 280 140 284 140 295 C140 339 182 380 230 380 C277 380 320 340 320 297 C320 285 319 280 310 280 L310 280 Z M345 521 L256 646 L248 650 L212 650 L204 646 L115 521 C113 518 111 516 111 513 C111 508 116 505 123 505 L171 505 L179 510 L222 578 C225 582 228 584 230 584 C232 584 235 582 237 578 L281 510 L289 505 L337 505 C344 505 348 509 348 513 C348 515 347 518 345 521 L345 521 Z " />
<glyph glyph-name="edieresis" unicode="&#xeb;" horiz-adv-x="460" d="M410 220 L410 290 C410 381 330 460 230 460 C130 460 50 381 50 290 L50 160 C50 58 121 -10 230 -10 C283 -10 325 4 355 32 C385 60 397 86 397 93 C397 96 395 98 391 100 L328 132 C326 133 324 134 322 134 C316 134 307 118 285 92 C274 79 254 70 230 70 C179 70 140 111 140 160 L140 200 C140 207 143 210 150 210 L400 210 C407 210 410 213 410 220 L410 220 Z M310 280 L150 280 C141 280 140 284 140 295 C140 339 182 380 230 380 C277 380 320 340 320 297 C320 285 319 280 310 280 L310 280 Z M358 572 C358 599 336 622 308 622 C280 622 258 600 258 572 C258 544 280 522 308 522 C336 522 358 545 358 572 L358 572 Z M202 572 C202 599 180 622 152 622 C124 622 102 600 102 572 C102 544 124 522 152 522 C180 522 202 545 202 572 L202 572 Z " />
<glyph glyph-name="igrave" unicode="&#xec;" horiz-adv-x="220" d="M155 10 L155 440 C155 447 152 450 145 450 L75 450 C68 450 65 447 65 440 L65 10 C65 3 68 0 75 0 L145 0 C152 0 155 3 155 10 L155 10 Z M155 519 L73 644 L65 649 L-23 649 C-30 649 -34 646 -34 641 C-34 638 -33 635 -30 632 L97 507 L104 504 L147 504 C154 504 157 507 157 511 C157 514 157 516 155 519 L155 519 Z " />
<glyph glyph-name="iacute" unicode="&#xed;" horiz-adv-x="220" d="M155 10 L155 440 C155 447 152 450 145 450 L75 450 C68 450 65 447 65 440 L65 10 C65 3 68 0 75 0 L145 0 C152 0 155 3 155 10 L155 10 Z M246 632 C249 635 250 637 250 640 C250 645 246 649 239 649 L151 649 L143 644 L61 519 C59 516 59 514 59 512 C59 508 63 504 69 504 L112 504 L119 507 L246 632 Z " />
<glyph glyph-name="icircumflex" unicode="&#xee;" horiz-adv-x="220" d="M155 10 L155 440 C155 447 152 450 145 450 L75 450 C68 450 65 447 65 440 L65 10 C65 3 68 0 75 0 L145 0 C152 0 155 3 155 10 L155 10 Z M225 521 L136 646 L128 650 L92 650 L84 646 L-5 521 C-7 518 -9 516 -9 513 C-9 508 -4 505 3 505 L51 505 L59 510 L102 578 C105 582 108 584 110 584 C112 584 115 582 117 578 L161 510 L169 505 L217 505 C224 505 228 509 228 513 C228 515 227 518 225 521 L225 521 Z " />
<glyph glyph-name="idieresis" unicode="&#xef;" horiz-adv-x="220" d="M155 10 L155 440 C155 447 152 450 145 450 L75 450 C68 450 65 447 65 440 L65 10 C65 3 68 0 75 0 L145 0 C152 0 155 3 155 10 L155 10 Z M238 572 C238 599 216 622 188 622 C160 622 138 600 138 572 C138 544 160 522 188 522 C216 522 238 545 238 572 L238 572 Z M82 572 C82 599 60 622 32 622 C4 622 -18 600 -18 572 C-18 544 4 522 32 522 C60 522 82 545 82 572 L82 572 Z " />
<glyph glyph-name="eth" unicode="&#xf0;" horiz-adv-x="510" d="M504 590 L482 622 C480 625 478 627 475 627 C473 627 471 626 468 624 L408 582 C405 580 403 579 400 579 C396 579 383 594 355 614 C330 632 297 640 255 640 C156 640 89 575 89 538 C89 535 91 533 95 531 L158 499 C160 498 163 497 164 497 C170 497 177 513 195 535 C207 550 229 560 255 560 C280 560 299 553 317 535 C320 532 322 529 322 526 C322 524 320 521 317 519 L238 463 C235 461 234 458 234 455 C234 453 234 451 236 449 L258 416 C260 413 263 411 265 411 C267 411 269 412 272 414 L329 455 C332 457 335 458 337 458 C342 458 345 454 345 447 L345 348 C345 341 342 337 338 337 C325 337 296 370 241 370 C147 370 75 298 75 200 L75 160 C75 58 146 -10 255 -10 C364 -10 435 58 435 160 L435 470 C435 497 430 513 430 518 C430 522 431 525 434 528 L502 576 C505 578 506 581 506 583 C506 586 506 588 504 590 L504 590 Z M345 160 C345 111 305 70 255 70 C204 70 165 111 165 160 L165 200 C165 249 204 290 255 290 C305 290 345 249 345 200 L345 160 Z " />
<glyph glyph-name="ntilde" unicode="&#xf1;" horiz-adv-x="490" d="M425 10 L425 280 C425 381 353 450 252 450 C193 450 165 417 152 417 C148 417 145 421 145 428 L145 440 C145 447 142 450 135 450 L75 450 C68 450 65 447 65 440 L65 10 C65 3 68 0 75 0 L145 0 C152 0 155 3 155 10 L155 280 C155 329 195 370 245 370 C296 370 335 329 335 280 L335 10 C335 3 338 0 345 0 L415 0 C422 0 425 3 425 10 L425 10 Z M391 586 C392 588 392 589 392 591 C392 594 391 596 388 599 L368 615 C366 617 364 617 362 617 C353 617 340 584 303 584 C290 584 278 588 268 596 L249 611 C229 627 208 635 186 635 C141 635 98 579 98 563 C98 561 100 558 103 556 L125 540 C127 538 129 538 131 538 C140 538 153 570 186 570 C195 570 208 566 222 557 L242 544 C263 527 283 518 305 518 C336 518 366 541 391 586 L391 586 Z " />
<glyph glyph-name="ograve" unicode="&#xf2;" horiz-adv-x="460" d="M410 160 L410 290 C410 391 339 460 230 460 C121 460 50 392 50 290 L50 160 C50 58 121 -10 230 -10 C339 -10 410 58 410 160 L410 160 Z M320 160 C320 111 280 70 230 70 C179 70 140 111 140 160 L140 290 C140 339 180 380 230 380 C280 380 320 339 320 290 L320 160 Z M275 519 L193 644 L185 649 L97 649 C90 649 86 646 86 641 C86 638 87 635 90 632 L217 507 L224 504 L267 504 C274 504 277 507 277 511 C277 514 277 516 275 519 L275 519 Z " />
<glyph glyph-name="oacute" unicode="&#xf3;" horiz-adv-x="460" d="M410 160 L410 290 C410 391 339 460 230 460 C121 460 50 392 50 290 L50 160 C50 58 121 -10 230 -10 C339 -10 410 58 410 160 L410 160 Z M320 160 C320 111 280 70 230 70 C179 70 140 111 140 160 L140 290 C140 339 180 380 230 380 C280 380 320 339 320 290 L320 160 Z M366 632 C369 635 370 637 370 640 C370 645 366 649 359 649 L271 649 L263 644 L181 519 C179 516 179 514 179 512 C179 508 183 504 189 504 L232 504 L239 507 L366 632 Z " />
<glyph glyph-name="ocircumflex" unicode="&#xf4;" horiz-adv-x="460" d="M410 160 L410 290 C410 391 339 460 230 460 C121 460 50 392 50 290 L50 160 C50 58 121 -10 230 -10 C339 -10 410 58 410 160 L410 160 Z M320 160 C320 111 280 70 230 70 C179 70 140 111 140 160 L140 290 C140 339 180 380 230 380 C280 380 320 339 320 290 L320 160 Z M345 521 L256 646 L248 650 L212 650 L204 646 L115 521 C113 518 111 516 111 513 C111 508 116 505 123 505 L171 505 L179 510 L222 578 C225 582 228 584 230 584 C232 584 235 582 237 578 L281 510 L289 505 L337 505 C344 505 348 509 348 513 C348 515 347 518 345 521 L345 521 Z " />
<glyph glyph-name="otilde" unicode="&#xf5;" horiz-adv-x="460" d="M410 160 L410 290 C410 391 339 460 230 460 C121 460 50 392 50 290 L50 160 C50 58 121 -10 230 -10 C339 -10 410 58 410 160 L410 160 Z M320 160 C320 111 280 70 230 70 C179 70 140 111 140 160 L140 290 C140 339 180 380 230 380 C280 380 320 339 320 290 L320 160 Z M376 586 C377 588 377 589 377 591 C377 594 376 596 373 599 L353 615 C351 617 349 617 347 617 C338 617 325 584 288 584 C275 584 263 588 253 596 L234 611 C214 627 193 635 171 635 C126 635 83 579 83 563 C83 561 85 558 88 556 L110 540 C112 538 114 538 116 538 C125 538 138 570 171 570 C180 570 193 566 207 557 L227 544 C248 527 268 518 290 518 C321 518 351 541 376 586 L376 586 Z " />
<glyph glyph-name="odieresis" unicode="&#xf6;" horiz-adv-x="460" d="M410 160 L410 290 C410 391 339 460 230 460 C121 460 50 392 50 290 L50 160 C50 58 121 -10 230 -10 C339 -10 410 58 410 160 L410 160 Z M320 160 C320 111 280 70 230 70 C179 70 140 111 140 160 L140 290 C140 339 180 380 230 380 C280 380 320 339 320 290 L320 160 Z M358 572 C358 599 336 622 308 622 C280 622 258 600 258 572 C258 544 280 522 308 522 C336 522 358 545 358 572 L358 572 Z M202 572 C202 599 180 622 152 622 C124 622 102 600 102 572 C102 544 124 522 152 522 C180 522 202 545 202 572 L202 572 Z " />
<glyph glyph-name="divide" unicode="&#xf7;" horiz-adv-x="833" d="M417 540 C384 540 356 512 356 478 C356 444 383 417 417 417 C451 417 478 445 478 478 C478 512 450 540 417 540 L417 540 Z M709 332 L124 332 L124 264 L709 264 L709 332 Z M417 179 C384 179 356 152 356 118 C356 84 382 57 417 57 C451 57 478 85 478 118 C478 152 450 179 417 179 L417 179 Z " />
<glyph glyph-name="oslash" unicode="&#xf8;" horiz-adv-x="460" d="M410 160 L410 290 C410 391 338 460 230 460 C121 460 50 392 50 290 L50 160 C50 58 121 -10 230 -10 C339 -10 410 59 410 160 L410 160 Z M320 160 C320 112 280 70 230 70 C220 70 210 71 198 76 C193 78 192 81 192 85 L192 89 L293 330 C295 335 299 337 302 337 C310 337 320 319 320 290 L320 160 Z M263 362 L163 131 C161 126 157 123 154 123 C146 123 140 136 140 160 L140 290 C140 338 179 380 230 380 C239 380 248 378 257 375 L260 373 L262 371 C263 370 264 369 264 367 C264 366 264 364 263 362 L263 362 Z " />
<glyph glyph-name="ugrave" unicode="&#xf9;" horiz-adv-x="480" d="M415 10 L415 440 C415 447 412 450 405 450 L335 450 C328 450 325 447 325 440 L325 170 C325 121 286 80 235 80 C184 80 145 121 145 170 L145 440 C145 447 142 450 135 450 L65 450 C58 450 55 447 55 440 L55 170 C55 69 128 0 228 0 C286 0 315 33 328 33 C332 33 335 29 335 22 L335 10 C335 3 338 0 345 0 L405 0 C412 0 415 3 415 10 L415 10 Z M285 519 L203 644 L195 649 L107 649 C100 649 96 646 96 641 C96 638 97 635 100 632 L227 507 L234 504 L277 504 C284 504 287 507 287 511 C287 514 287 516 285 519 L285 519 Z " />
<glyph glyph-name="uacute" unicode="&#xfa;" horiz-adv-x="480" d="M415 10 L415 440 C415 447 412 450 405 450 L335 450 C328 450 325 447 325 440 L325 170 C325 121 286 80 235 80 C184 80 145 121 145 170 L145 440 C145 447 142 450 135 450 L65 450 C58 450 55 447 55 440 L55 170 C55 69 128 0 228 0 C286 0 315 33 328 33 C332 33 335 29 335 22 L335 10 C335 3 338 0 345 0 L405 0 C412 0 415 3 415 10 L415 10 Z M376 632 C379 635 380 637 380 640 C380 645 376 649 369 649 L281 649 L273 644 L191 519 C189 516 189 514 189 512 C189 508 193 504 199 504 L242 504 L249 507 L376 632 Z " />
<glyph glyph-name="ucircumflex" unicode="&#xfb;" horiz-adv-x="480" d="M415 10 L415 440 C415 447 412 450 405 450 L335 450 C328 450 325 447 325 440 L325 170 C325 121 286 80 235 80 C184 80 145 121 145 170 L145 440 C145 447 142 450 135 450 L65 450 C58 450 55 447 55 440 L55 170 C55 69 128 0 228 0 C286 0 315 33 328 33 C332 33 335 29 335 22 L335 10 C335 3 338 0 345 0 L405 0 C412 0 415 3 415 10 L415 10 Z M355 521 L266 646 L258 650 L222 650 L214 646 L125 521 C123 518 121 516 121 513 C121 508 126 505 133 505 L181 505 L189 510 L232 578 C235 582 238 584 240 584 C242 584 245 582 247 578 L291 510 L299 505 L347 505 C354 505 358 509 358 513 C358 515 357 518 355 521 L355 521 Z " />
<glyph glyph-name="udieresis" unicode="&#xfc;" horiz-adv-x="480" d="M415 10 L415 440 C415 447 412 450 405 450 L335 450 C328 450 325 447 325 440 L325 170 C325 121 286 80 235 80 C184 80 145 121 145 170 L145 440 C145 447 142 450 135 450 L65 450 C58 450 55 447 55 440 L55 170 C55 69 128 0 228 0 C286 0 315 33 328 33 C332 33 335 29 335 22 L335 10 C335 3 338 0 345 0 L405 0 C412 0 415 3 415 10 L415 10 Z M368 572 C368 599 346 622 318 622 C290 622 268 600 268 572 C268 544 290 522 318 522 C346 522 368 545 368 572 L368 572 Z M212 572 C212 599 190 622 162 622 C134 622 112 600 112 572 C112 544 134 522 162 522 C190 522 212 545 212 572 L212 572 Z " />
<glyph glyph-name="yacute" unicode="&#xfd;" horiz-adv-x="480" d="M415 -55 L415 440 C415 447 412 450 405 450 L335 450 C328 450 325 447 325 440 L325 170 C325 121 286 80 235 80 C184 80 145 121 145 170 L145 440 C145 447 142 450 135 450 L65 450 C58 450 55 447 55 440 L55 170 C55 68 126 0 235 0 C282 0 304 29 317 29 C321 29 325 25 325 18 L325 -65 C325 -114 286 -155 235 -155 C189 -155 175 -130 151 -99 C148 -95 146 -92 142 -92 C141 -92 139 -93 137 -94 L74 -126 C70 -128 68 -130 68 -133 C68 -150 87 -177 126 -206 C149 -223 188 -235 235 -235 C347 -235 415 -166 415 -55 L415 -55 Z M376 632 C379 635 380 637 380 640 C380 645 376 649 369 649 L281 649 L273 644 L191 519 C189 516 189 514 189 512 C189 508 193 504 199 504 L242 504 L249 507 L376 632 Z " />
<glyph glyph-name="thorn" unicode="&#xfe;" horiz-adv-x="475" d="M425 170 L425 280 C425 381 353 450 260 450 C203 450 172 417 163 417 C158 417 155 421 155 428 L155 620 C155 627 151 630 145 630 L75 630 C68 630 65 627 65 620 L65 -215 C65 -222 68 -225 75 -225 L145 -225 C152 -225 155 -222 155 -215 L155 22 C155 29 158 33 163 33 C172 33 202 0 260 0 C353 0 425 72 425 170 L425 170 Z M335 170 C335 121 296 80 245 80 C195 80 155 121 155 170 L155 280 C155 329 195 370 245 370 C296 370 335 329 335 280 L335 170 Z " />
<glyph glyph-name="ydieresis" unicode="&#xff;" horiz-adv-x="480" d="M415 -55 L415 440 C415 447 412 450 405 450 L335 450 C328 450 325 447 325 440 L325 170 C325 121 286 80 235 80 C184 80 145 121 145 170 L145 440 C145 447 142 450 135 450 L65 450 C58 450 55 447 55 440 L55 170 C55 68 126 0 235 0 C282 0 304 29 317 29 C321 29 325 25 325 18 L325 -65 C325 -114 286 -155 235 -155 C189 -155 175 -130 151 -99 C148 -95 146 -92 142 -92 C141 -92 139 -93 137 -94 L74 -126 C70 -128 68 -130 68 -133 C68 -150 87 -177 126 -206 C149 -223 188 -235 235 -235 C347 -235 415 -166 415 -55 L415 -55 Z M368 572 C368 599 346 622 318 622 C290 622 268 600 268 572 C268 544 290 522 318 522 C346 522 368 545 368 572 L368 572 Z M212 572 C212 599 190 622 162 622 C134 622 112 600 112 572 C112 544 134 522 162 522 C190 522 212 545 212 572 L212 572 Z " />
<glyph glyph-name="dotlessi" unicode="&#x131;" horiz-adv-x="220" d="M155 10 L155 440 C155 447 152 450 145 450 L75 450 C68 450 65 447 65 440 L65 10 C65 3 68 0 75 0 L145 0 C152 0 155 3 155 10 L155 10 Z " />
<glyph glyph-name="Lslash" unicode="&#x141;" horiz-adv-x="455" d="M435 10 L435 70 C435 77 431 80 425 80 L175 80 C168 80 165 83 165 90 L165 329 L168 336 L241 409 C243 411 245 414 245 416 C245 418 243 420 241 423 L214 451 C212 453 209 455 207 455 C205 455 203 454 200 451 L182 434 C179 431 175 430 173 430 C168 430 165 434 165 441 L165 620 C165 627 161 630 155 630 L85 630 C78 630 75 627 75 620 L75 331 L72 324 L-1 252 C-4 249 -5 247 -5 245 C-5 243 -4 240 -1 238 L29 210 C32 208 34 206 36 206 C38 206 41 208 43 210 L58 226 C61 229 64 230 67 230 C72 230 75 226 75 219 L75 10 C75 3 78 0 85 0 L425 0 C432 0 435 3 435 10 L435 10 Z " />
<glyph glyph-name="lslash" unicode="&#x142;" horiz-adv-x="220" d="M231 409 C233 411 235 414 235 416 C235 418 233 420 231 423 L204 451 C202 453 199 455 197 455 C195 455 193 454 190 451 L172 434 C169 431 165 430 163 430 C158 430 155 434 155 441 L155 620 C155 627 152 630 145 630 L75 630 C68 630 65 627 65 620 L65 331 L62 324 L-11 252 C-13 250 -15 247 -15 245 C-15 243 -13 240 -11 238 L19 210 C22 208 24 206 26 206 C28 206 31 208 33 210 L48 226 C51 229 53 230 56 230 C61 230 65 226 65 219 L65 10 C65 3 68 0 75 0 L145 0 C152 0 155 3 155 10 L155 329 L158 336 L231 409 Z " />
<glyph glyph-name="OE" unicode="&#x152;" horiz-adv-x="765" d="M720 10 L720 70 C720 77 717 80 710 80 L448 80 C442 80 438 83 438 86 C438 97 450 120 450 160 L450 270 C450 277 453 280 460 280 L665 280 C672 280 675 283 675 290 L675 350 C675 357 672 360 665 360 L460 360 C453 360 450 363 450 370 L450 470 C450 509 438 533 438 544 C438 548 442 550 448 550 L710 550 C717 550 720 553 720 560 L720 620 C720 627 717 630 710 630 L333 630 C313 637 292 640 270 640 L240 640 C131 640 60 572 60 470 L60 160 C60 58 131 -10 240 -10 L270 -10 C293 -10 315 -6 337 0 L710 0 C717 0 720 3 720 10 L720 10 Z M360 160 C360 110 320 70 270 70 L240 70 C190 70 150 110 150 160 L150 470 C150 520 190 560 240 560 L270 560 C320 560 360 520 360 470 L360 160 Z " />
<glyph glyph-name="oe" unicode="&#x153;" horiz-adv-x="730" d="M680 220 L680 290 C680 381 600 460 500 460 C464 460 431 450 403 433 C382 420 372 409 368 409 C364 409 350 421 322 439 C298 454 268 460 230 460 C121 460 50 392 50 290 L50 160 C50 58 121 -10 230 -10 C267 -10 292 -4 304 3 C340 25 360 38 364 38 C369 38 389 25 426 3 C437 -3 462 -10 500 -10 C548 -10 587 2 609 19 C649 49 667 77 667 93 C667 96 665 98 661 100 L598 132 C596 133 594 134 592 134 C586 134 576 118 555 92 C544 79 524 70 500 70 C463 70 432 94 409 141 C410 152 410 158 410 160 L410 200 C410 207 413 210 420 210 L670 210 C677 210 680 213 680 220 L680 220 Z M580 280 L420 280 C413 280 410 283 410 291 C410 295 410 301 409 310 C430 357 460 380 500 380 C548 380 590 339 590 295 C590 284 589 280 580 280 L580 280 Z M320 160 C320 111 280 70 230 70 C179 70 140 111 140 160 L140 290 C140 339 180 380 230 380 C280 380 320 339 320 290 L320 160 Z " />
<glyph glyph-name="Scaron" unicode="&#x160;" horiz-adv-x="440" d="M220 560 L236 560 C279 560 296 535 319 504 C322 500 323 498 327 498 C328 498 330 498 332 499 L396 531 C400 533 402 536 402 539 C402 577 334 640 236 640 L220 640 C111 640 40 572 40 470 C40 368 98 328 205 278 C283 242 326 217 326 160 C326 110 285 70 236 70 L194 70 C148 70 134 96 111 127 C108 131 106 134 102 134 C101 134 99 133 97 132 L34 100 C30 98 28 96 28 93 C28 77 46 49 85 19 C107 2 146 -10 194 -10 L236 -10 C345 -10 416 59 416 160 C416 258 366 310 260 359 C179 397 130 416 130 470 C130 521 171 560 220 560 L220 560 Z M344 813 C346 816 347 819 347 821 C347 825 343 829 336 829 L288 829 L280 824 L236 756 C234 752 231 750 229 750 C227 750 224 752 221 756 L178 824 L170 829 L122 829 C115 829 111 826 111 821 C111 819 112 816 114 813 L203 688 L211 684 L247 684 L255 688 L344 813 Z " />
<glyph glyph-name="scaron" unicode="&#x161;" horiz-adv-x="440" d="M203 383 L233 383 C276 383 294 359 319 327 C322 324 323 321 326 321 C327 321 330 322 332 323 L390 352 C394 354 396 356 396 359 C396 399 332 460 233 460 L203 460 C107 460 42 400 42 313 C42 238 87 209 182 190 C265 173 309 168 309 125 C309 93 279 67 233 67 L203 67 C159 67 141 92 117 123 C114 126 112 129 109 129 C108 129 106 128 104 127 L46 98 C42 96 40 93 40 91 C40 51 104 -10 203 -10 L233 -10 C334 -10 398 51 398 141 C398 219 346 245 239 266 C166 281 130 291 130 332 C130 364 156 383 203 383 L203 383 Z M335 633 C337 636 338 639 338 641 C338 645 334 649 327 649 L279 649 L271 644 L227 576 C225 572 222 570 220 570 C218 570 215 572 212 576 L169 644 L161 649 L113 649 C106 649 102 646 102 641 C102 639 103 636 105 633 L194 508 L202 504 L238 504 L246 508 L335 633 Z " />
<glyph glyph-name="Ydieresis" unicode="&#x178;" horiz-adv-x="450" d="M444 615 C445 618 446 620 446 622 C446 627 442 630 435 630 L353 630 L344 624 L234 396 C232 391 228 389 225 389 C222 389 218 391 216 396 L106 624 L97 630 L15 630 C8 630 4 627 4 622 C4 620 5 618 6 615 L180 289 L180 10 C180 3 183 0 190 0 L260 0 C267 0 270 3 270 10 L270 289 L444 615 Z M355 752 C355 779 333 802 305 802 C277 802 255 780 255 752 C255 724 277 702 305 702 C333 702 355 725 355 752 L355 752 Z M199 752 C199 779 177 802 149 802 C121 802 99 780 99 752 C99 724 121 702 149 702 C177 702 199 725 199 752 L199 752 Z " />
<glyph glyph-name="Zcaron" unicode="&#x17d;" horiz-adv-x="440" d="M400 10 L400 70 C400 77 396 80 390 80 L168 80 C161 80 157 83 157 88 C157 90 158 92 159 94 L394 616 C395 618 396 620 396 622 C396 627 392 630 385 630 L50 630 C43 630 40 627 40 620 L40 560 C40 553 43 550 50 550 L250 550 C257 550 261 547 261 542 C261 540 260 538 259 536 L25 14 C24 12 23 10 23 8 C23 3 27 0 34 0 L390 0 C397 0 400 3 400 10 L400 10 Z M337 813 C339 816 340 819 340 821 C340 825 336 829 329 829 L281 829 L273 824 L229 756 C227 752 224 750 222 750 C220 750 217 752 214 756 L171 824 L163 829 L115 829 C108 829 104 826 104 821 C104 819 105 816 107 813 L196 688 L204 684 L240 684 L248 688 L337 813 Z " />
<glyph glyph-name="zcaron" unicode="&#x17e;" horiz-adv-x="430" d="M394 10 L394 70 C394 77 390 80 384 80 L190 80 C182 80 179 83 179 88 C179 90 179 93 181 95 L385 434 C386 436 387 439 387 441 C387 446 383 449 376 449 L45 449 C38 449 35 446 35 439 L35 379 C35 372 38 369 45 369 L220 369 C227 369 231 366 231 361 C231 359 230 356 229 354 L26 15 C25 13 24 10 24 8 C24 3 28 0 35 0 L384 0 C391 0 394 3 394 10 L394 10 Z M330 633 C332 636 333 639 333 641 C333 645 329 649 322 649 L274 649 L266 644 L222 576 C220 572 217 570 215 570 C213 570 210 572 207 576 L164 644 L156 649 L108 649 C101 649 97 646 97 641 C97 639 98 636 100 633 L189 508 L197 504 L233 504 L241 508 L330 633 Z " />
<glyph glyph-name="florin" unicode="&#x192;" horiz-adv-x="510" d="M426 623 C427 625 427 626 427 627 C427 638 409 640 372 640 C320 640 276 622 244 587 C210 551 192 506 192 460 L192 370 C192 363 189 360 182 360 L157 360 C150 360 147 357 147 350 L147 290 C147 283 150 280 157 280 L182 280 C188 280 192 277 192 270 L192 -65 C192 -114 152 -155 102 -155 C91 -155 83 -153 79 -153 C74 -153 71 -155 69 -160 L49 -218 C48 -220 48 -221 48 -222 C48 -233 65 -235 102 -235 C153 -235 197 -216 229 -182 C263 -146 282 -101 282 -55 L282 270 C282 277 285 280 292 280 L362 280 C369 280 372 283 372 290 L372 350 C372 357 369 360 362 360 L292 360 C285 360 282 363 282 370 L282 470 C282 519 321 560 372 560 C376 560 384 559 396 558 C401 558 404 560 406 565 L426 623 Z " />
<glyph glyph-name="circumflex" unicode="&#x2c6;" horiz-adv-x="500" d="M366 521 L277 646 L269 650 L233 650 L225 646 L136 521 C134 518 132 516 132 513 C132 508 137 505 144 505 L192 505 L200 510 L243 578 C246 582 249 584 251 584 C253 584 256 582 258 578 L302 510 L310 505 L358 505 C365 505 369 509 369 513 C369 515 368 518 366 521 L366 521 Z " />
<glyph glyph-name="caron" unicode="&#x2c7;" horiz-adv-x="500" d="M366 633 C368 636 369 639 369 641 C369 645 365 649 358 649 L310 649 L302 644 L258 576 C256 572 253 570 251 570 C249 570 246 572 243 576 L200 644 L192 649 L144 649 C137 649 133 646 133 641 C133 639 134 636 136 633 L225 508 L233 504 L269 504 L277 508 L366 633 Z " />
<glyph glyph-name="breve" unicode="&#x2d8;" horiz-adv-x="500" d="M363 590 L363 640 C363 647 360 650 353 650 L328 650 C321 650 318 647 318 640 L318 610 C318 586 297 565 273 565 L228 565 C204 565 183 586 183 610 L183 640 C183 647 180 650 173 650 L148 650 C141 650 138 647 138 640 L138 590 C138 539 173 505 228 505 L273 505 C328 505 363 540 363 590 L363 590 Z " />
<glyph glyph-name="dotaccent" unicode="&#x2d9;" horiz-adv-x="500" d="M312 560 L312 590 C312 622 289 645 252 645 C215 645 192 623 192 590 L192 560 C192 527 215 505 252 505 C289 505 312 528 312 560 L312 560 Z " />
<glyph glyph-name="ring" unicode="&#x2da;" horiz-adv-x="500" d="M341 591 L341 619 C341 670 306 705 251 705 C197 705 161 670 161 619 L161 591 C161 540 197 505 251 505 C306 505 341 540 341 591 L341 591 Z M289 619 L289 591 C289 571 272 553 251 553 C230 553 213 571 213 591 L213 619 C213 640 230 657 251 657 C272 657 289 639 289 619 L289 619 Z " />
<glyph glyph-name="ogonek" unicode="&#x2db;" horiz-adv-x="500" d="M351 -214 L351 -174 C351 -168 348 -166 343 -164 C309 -147 284 -141 284 -97 L284 7 L216 7 L216 -90 C216 -165 280 -224 340 -224 C347 -224 351 -221 351 -214 L351 -214 Z " />
<glyph glyph-name="tilde" unicode="&#x2dc;" horiz-adv-x="500" d="M397 586 C398 588 398 589 398 591 C398 594 397 596 394 599 L374 615 C372 617 370 617 368 617 C359 617 346 584 309 584 C296 584 284 588 274 596 L255 611 C235 627 214 635 192 635 C147 635 104 579 104 563 C104 561 106 558 109 556 L131 540 C133 538 135 538 137 538 C146 538 159 570 192 570 C201 570 214 566 228 557 L248 544 C269 527 289 518 311 518 C342 518 372 541 397 586 L397 586 Z " />
<glyph glyph-name="hungarumlaut" unicode="&#x2dd;" horiz-adv-x="500" d="M392 635 C393 638 394 640 394 642 C394 647 390 650 383 650 L333 650 C330 650 327 648 324 643 L282 518 C281 516 281 514 281 512 C281 507 284 505 291 505 L312 505 L321 510 L392 635 Z M281 635 C282 638 283 640 283 642 C283 647 279 650 272 650 L222 650 L213 643 L171 518 C170 516 170 514 170 512 C170 507 173 505 180 505 L201 505 L210 510 L281 635 Z " />
<glyph glyph-name="endash" unicode="&#x2013;" horiz-adv-x="510" d="M490 220 L490 260 C490 267 487 270 480 270 L30 270 C23 270 20 267 20 260 L20 220 C20 213 23 210 30 210 L480 210 C487 210 490 213 490 220 L490 220 Z " />
<glyph glyph-name="emdash" unicode="&#x2014;" horiz-adv-x="780" d="M760 220 L760 260 C760 267 757 270 750 270 L30 270 C23 270 20 267 20 260 L20 220 C20 213 23 210 30 210 L750 210 C757 210 760 213 760 220 L760 220 Z " />
<glyph glyph-name="quoteleft" unicode="&#x2018;" horiz-adv-x="177" d="M145 638 L132 665 C130 669 127 671 124 671 C89 671 40 613 40 514 L40 456 C40 449 43 446 50 446 L125 446 C132 446 135 449 135 456 L135 523 C135 530 131 533 125 533 L114 533 C106 533 104 537 104 548 C104 573 113 597 123 608 C136 621 146 626 146 633 C146 635 146 636 145 638 L145 638 Z " />
<glyph glyph-name="quoteright" unicode="&#x2019;" horiz-adv-x="177" d="M137 562 L137 620 C137 627 133 630 127 630 L52 630 C45 630 42 627 42 620 L42 553 C42 546 45 543 52 543 L63 543 C72 543 73 537 73 523 C73 471 32 451 32 443 C32 442 32 440 33 438 L47 411 C49 407 52 405 55 405 C88 405 137 463 137 562 L137 562 Z " />
<glyph glyph-name="quotesinglbase" unicode="&#x201a;" horiz-adv-x="177" d="M137 42 L137 100 C137 106 133 110 127 110 L52 110 C45 110 42 107 42 100 L42 33 C42 26 45 23 52 23 L63 23 C72 23 73 17 73 3 C73 -32 56 -49 36 -70 C33 -73 32 -75 32 -78 C32 -79 32 -80 33 -82 L46 -109 C48 -114 50 -116 54 -116 C56 -116 58 -115 60 -114 C114 -85 137 -35 137 42 L137 42 Z " />
<glyph glyph-name="quotedblleft" unicode="&#x201c;" horiz-adv-x="315" d="M283 638 L270 665 C268 669 266 671 262 671 C227 671 178 613 178 514 L178 456 C178 449 181 446 188 446 L263 446 C270 446 273 449 273 456 L273 523 C273 530 269 533 263 533 L252 533 C243 533 242 537 242 548 C242 573 251 598 262 609 C275 622 284 626 284 633 C284 635 284 636 283 638 L283 638 Z M145 638 L132 665 C130 669 127 671 124 671 C89 671 40 613 40 514 L40 456 C40 449 43 446 50 446 L125 446 C132 446 135 449 135 456 L135 523 C135 530 131 533 125 533 L114 533 C106 533 104 537 104 548 C104 573 113 597 123 608 C136 621 146 626 146 633 C146 635 146 636 145 638 L145 638 Z " />
<glyph glyph-name="quotedblright" unicode="&#x201d;" horiz-adv-x="315" d="M275 562 L275 620 C275 627 271 630 265 630 L190 630 C183 630 180 627 180 620 L180 553 C180 546 183 543 190 543 L201 543 C210 543 212 538 212 523 C212 471 170 451 170 443 C170 442 170 440 171 438 L185 411 C187 407 189 405 192 405 C225 405 275 463 275 562 L275 562 Z M137 562 L137 620 C137 627 133 630 127 630 L52 630 C45 630 42 627 42 620 L42 553 C42 546 45 543 52 543 L63 543 C72 543 73 537 73 523 C73 471 32 451 32 443 C32 442 32 440 33 438 L47 411 C49 407 52 405 55 405 C88 405 137 463 137 562 L137 562 Z " />
<glyph glyph-name="quotedblbase" unicode="&#x201e;" horiz-adv-x="315" d="M275 42 L275 100 C275 106 271 110 265 110 L190 110 C183 110 180 107 180 100 L180 33 C180 26 183 23 190 23 L201 23 C210 23 212 17 212 3 C212 -31 194 -49 174 -70 C171 -73 170 -75 170 -78 C170 -79 170 -80 171 -82 L184 -109 C186 -114 188 -116 192 -116 C194 -116 196 -115 198 -114 C252 -85 275 -35 275 42 L275 42 Z M137 42 L137 100 C137 106 133 110 127 110 L52 110 C45 110 42 107 42 100 L42 33 C42 26 45 23 52 23 L63 23 C72 23 73 17 73 3 C73 -32 56 -49 36 -70 C33 -73 32 -75 32 -78 C32 -79 32 -80 33 -82 L46 -109 C48 -114 50 -116 54 -116 C56 -116 58 -115 60 -114 C114 -85 137 -35 137 42 L137 42 Z " />
<glyph glyph-name="dagger" unicode="&#x2020;" horiz-adv-x="410" d="M401 392 L401 457 C401 463 398 467 392 467 L390 467 L241 454 L239 454 C233 454 230 457 230 463 L230 465 L242 619 L242 621 C242 627 238 630 232 630 L170 630 C164 630 160 627 160 621 L160 619 L172 465 L172 463 C172 457 169 454 163 454 L161 454 L11 467 L9 467 C3 467 0 463 0 457 L0 392 C0 386 3 382 9 382 L11 382 L159 394 L162 394 C168 394 170 391 170 386 L170 383 L160 318 L179 -215 C179 -222 182 -225 189 -225 L213 -225 C220 -225 223 -222 223 -215 L242 318 L232 383 L232 386 C232 391 234 394 240 394 L243 394 L390 382 L392 382 C398 382 401 386 401 392 L401 392 Z " />
<glyph glyph-name="daggerdbl" unicode="&#x2021;" horiz-adv-x="410" d="M401 180 L401 245 C401 251 398 255 392 255 L390 255 L248 242 L245 242 C240 242 237 244 237 250 L237 253 L242 320 L232 383 L232 386 C232 391 234 394 240 394 L243 394 L390 382 L392 382 C398 382 401 386 401 392 L401 457 C401 463 398 467 392 467 L390 467 L241 454 L239 454 C233 454 230 457 230 463 L230 465 L242 619 L242 621 C242 627 238 630 232 630 L170 630 C164 630 160 627 160 621 L160 619 L172 465 L172 463 C172 457 169 454 163 454 L161 454 L11 467 L9 467 C3 467 0 463 0 457 L0 392 C0 386 3 382 9 382 L11 382 L159 394 L162 394 C168 394 170 391 170 386 L170 383 L160 319 L165 253 L165 251 C165 245 162 242 156 242 L154 242 L11 255 L9 255 C3 255 0 251 0 245 L0 180 C0 174 3 170 9 170 L11 170 L156 182 L158 182 C164 182 167 178 167 172 L179 -215 C179 -222 182 -225 189 -225 L213 -225 C220 -225 223 -222 223 -215 L235 172 C235 178 238 182 244 182 L246 182 L390 170 L392 170 C398 170 401 174 401 180 L401 180 Z " />
<glyph glyph-name="bullet" unicode="&#x2022;" horiz-adv-x="440" d="M372 305 L372 325 C372 409 313 465 222 465 L218 465 C127 465 68 409 68 325 L68 305 C68 221 127 165 218 165 L222 165 C313 165 372 221 372 305 L372 305 Z " />
<glyph glyph-name="ellipsis" unicode="&#x2026;" horiz-adv-x="459" d="M425 100 L362 132 C360 133 358 134 356 134 C349 134 343 117 324 94 C312 80 289 70 265 70 L235 70 C185 70 145 110 145 160 L145 195 C145 245 185 285 235 285 L315 285 C322 285 325 288 325 295 L325 355 C325 362 322 365 315 365 L235 365 C185 365 145 405 145 455 L145 470 C145 520 185 560 235 560 L265 560 C310 560 325 534 348 504 C351 500 353 498 357 498 C358 498 360 498 362 499 L425 531 C429 533 431 535 431 538 C431 555 412 582 373 611 C350 628 311 640 265 640 L235 640 C125 640 55 571 55 460 L55 445 C55 421 65 393 86 364 C102 342 123 332 123 324 C123 316 103 306 86 281 C65 250 55 221 55 198 L55 168 C55 58 124 -10 235 -10 L265 -10 C313 -10 352 2 374 19 C413 49 431 77 431 93 C431 96 429 98 425 100 L425 100 Z " />
<glyph glyph-name="perthousand" unicode="&#x2030;" horiz-adv-x="742" d="M690 85 L690 185 C690 236 655 270 600 270 C545 270 510 236 510 185 L510 85 C510 34 545 0 600 0 C655 0 690 34 690 85 L690 85 Z M233 445 L233 545 C233 595 198 630 143 630 C88 630 53 596 53 545 L53 445 C53 394 88 360 143 360 C198 360 233 395 233 445 L233 445 Z M407 616 C408 618 409 620 409 622 C409 627 405 630 398 630 L374 630 C370 630 367 628 365 624 L104 14 C103 11 102 9 102 7 C102 3 106 0 113 0 L137 0 C142 1 145 4 146 6 L407 616 Z M458 85 L458 185 C458 235 423 270 368 270 C313 270 278 236 278 185 L278 85 C278 34 313 0 368 0 C423 0 458 35 458 85 L458 85 Z M635 85 C635 65 621 50 600 50 C579 50 565 65 565 85 L565 185 C565 205 579 220 600 220 C621 220 635 205 635 185 L635 85 Z M178 445 C178 425 163 410 143 410 C122 410 108 425 108 445 L108 545 C108 565 123 580 143 580 C163 580 178 565 178 545 L178 445 Z M403 85 C403 65 388 50 368 50 C347 50 333 65 333 85 L333 185 C333 205 347 220 368 220 C388 220 403 205 403 185 L403 85 Z " />
<glyph glyph-name="guilsinglleft" unicode="&#x2039;" horiz-adv-x="338" d="M272 109 L272 166 L268 174 L133 271 C129 274 128 276 128 279 C128 282 129 284 133 287 L268 384 L272 392 L272 449 C272 456 268 460 264 460 C261 460 259 459 256 457 L59 316 L55 308 L55 249 L59 241 L256 101 C259 99 262 98 264 98 C269 98 272 102 272 109 L272 109 Z " />
<glyph glyph-name="guilsinglright" unicode="&#x203a;" horiz-adv-x="338" d="M284 249 L284 308 L280 316 L82 457 C79 459 76 460 74 460 C70 460 66 456 66 449 L66 392 L70 384 L205 287 C208 285 210 282 210 279 C210 277 208 273 205 271 L70 174 L66 166 L66 109 C66 102 69 98 73 98 C76 98 79 99 82 101 L280 241 L284 249 Z " />
<glyph glyph-name="fraction" unicode="&#x2044;" horiz-adv-x="311" d="M62 12 L306 603 C307 606 308 610 308 613 C308 623 301 630 289 630 L267 630 C259 630 252 626 249 618 L5 27 C4 24 3 20 3 17 C3 7 10 0 22 0 L44 0 C52 0 59 5 62 12 L62 12 Z " />
<glyph glyph-name="trademark" unicode="&#x2122;" horiz-adv-x="408" d="M368 370 L368 538 C368 545 365 548 358 548 L346 548 L337 543 L290 462 C287 458 284 455 281 455 C278 455 275 458 272 462 L225 543 L216 548 L204 548 C197 548 194 545 194 538 L194 370 C194 363 197 360 204 360 L216 360 C223 360 226 363 226 370 L226 442 C226 449 229 453 234 453 C237 453 241 451 244 447 L271 406 L279 401 L283 401 L292 406 L317 447 C320 451 323 454 326 454 C332 454 336 449 336 442 L336 370 C336 363 339 360 346 360 L358 360 C365 360 368 363 368 370 L368 370 Z M156 527 L156 538 C156 545 153 548 146 548 L40 548 C33 548 30 545 30 538 L30 527 C30 520 33 517 40 517 L67 517 C74 517 77 514 77 507 L77 370 C77 363 80 360 87 360 L99 360 C106 360 109 363 109 370 L109 507 C109 514 112 517 119 517 L146 517 C153 517 156 520 156 527 L156 527 Z " />
<glyph glyph-name="minus" unicode="&#x2212;" horiz-adv-x="833" d="M709 333 L124 333 L124 264 L709 264 L709 333 Z " />
<glyph glyph-name="fi" unicode="&#xfb01;" horiz-adv-x="495" d="M440 585 C440 616 416 640 385 640 C354 640 330 616 330 585 C330 553 354 530 385 530 C416 530 440 554 440 585 L440 585 Z M430 10 L430 440 C430 447 427 450 420 450 L350 450 C343 450 340 447 340 440 L340 10 C340 3 343 0 350 0 L420 0 C427 0 430 3 430 10 L430 10 Z M260 335 L260 395 C260 402 256 405 250 405 L180 405 C173 405 170 408 170 415 L170 470 C170 525 203 538 252 559 C257 561 260 562 260 569 L260 629 C260 638 255 640 244 640 C199 640 159 619 127 581 C96 545 80 500 80 460 L80 415 C80 408 77 405 70 405 L45 405 C38 405 35 402 35 395 L35 335 C35 328 38 325 45 325 L70 325 C77 325 80 322 80 315 L80 10 C80 3 83 0 90 0 L160 0 C167 0 170 3 170 10 L170 315 C170 322 173 325 180 325 L250 325 C257 325 260 328 260 335 L260 335 Z " />
<glyph glyph-name="fl" unicode="&#xfb02;" horiz-adv-x="498" d="M433 10 L433 620 C433 627 430 630 423 630 L260 630 C211 630 166 612 132 578 C98 544 80 499 80 450 L80 415 C80 408 77 405 70 405 L45 405 C38 405 35 402 35 395 L35 335 C35 328 38 325 45 325 L70 325 C77 325 80 322 80 315 L80 10 C80 3 83 0 90 0 L160 0 C167 0 170 3 170 10 L170 315 C170 322 173 325 180 325 L250 325 C257 325 260 328 260 335 L260 395 C260 402 256 405 250 405 L180 405 C173 405 170 408 170 415 L170 460 C170 510 210 550 260 550 L333 550 C340 550 343 547 343 540 L343 10 C343 3 346 0 353 0 L423 0 C430 0 433 3 433 10 L433 10 Z " />
</font>
</svg>
