<?xml version="1.0" encoding="UTF-8"?>
<svg xmlns="http://www.w3.org/2000/svg" xmlns:xlink="http://www.w3.org/1999/xlink" version="1.2" >
<font id="Conduit ITC Bold">
<font-face  font-family="Conduit ITC" units-per-em="1000" ascent="630.127" descent="-233.887" font-style="normal" font-weight="700" font-stretch="normal" cap-height="750" x-height="500" underline-position="-69" underline-thickness="86" />
<missing-glyph  horiz-adv-x="177" d="" />
<glyph glyph-name="NULL" d="" />
<glyph glyph-name="CR" unicode="&#xd;" horiz-adv-x="250" d="" />
<glyph glyph-name="space" unicode="&#x20;" horiz-adv-x="177" d="" />
<glyph glyph-name="exclam" unicode="&#x21;" horiz-adv-x="278" d="M210 359 L210 620 C210 627 206 630 200 630 L106 630 C99 630 96 627 96 620 L96 359 L119 181 C120 175 123 172 129 172 L179 172 C185 172 188 175 189 181 L210 359 Z M220 57 C220 93 189 124 153 124 C117 124 86 94 86 57 C86 21 116 -10 153 -10 C189 -10 220 21 220 57 L220 57 Z " />
<glyph glyph-name="quotedbl" unicode="&#x22;" horiz-adv-x="316" d="M283 619 L283 621 C283 627 279 630 273 630 L177 630 C171 630 167 627 167 621 L167 619 L190 439 C191 433 194 430 200 430 L250 430 C256 430 259 433 260 439 L283 619 Z M149 619 L149 621 C149 627 145 630 139 630 L43 630 C37 630 33 627 33 621 L33 619 L57 439 C58 433 61 430 67 430 L116 430 C122 430 125 433 126 439 L149 619 Z " />
<glyph glyph-name="numbersign" unicode="&#x23;" horiz-adv-x="556" d="M530 448 L530 450 C530 456 527 458 522 458 L465 458 C458 458 454 461 454 467 C454 468 455 469 455 471 L496 617 C496 618 497 620 497 621 C497 627 493 630 486 630 L426 630 C420 630 417 628 416 623 L370 466 C368 461 365 458 360 458 L283 458 C276 458 272 461 272 467 C272 468 273 470 273 471 L314 617 C314 618 315 620 315 621 C315 627 311 630 304 630 L244 630 C238 630 235 628 234 623 L190 466 C189 461 185 458 180 458 L107 458 C100 458 96 455 95 448 L72 363 C72 361 71 360 71 359 C71 355 74 353 79 353 L143 353 C150 353 154 350 154 344 C154 343 153 342 153 341 L137 285 C136 280 132 277 127 277 L63 277 C56 277 52 274 51 267 L28 182 C28 180 27 179 27 178 C27 174 30 172 35 172 L92 172 C99 172 103 169 103 163 C103 162 102 161 102 160 L60 13 C60 11 59 10 59 9 C59 3 63 0 70 0 L130 0 C135 0 139 2 140 7 L185 166 C186 171 189 172 195 172 L273 172 C280 172 284 169 284 163 C284 162 283 161 283 160 L243 13 C243 11 242 10 242 9 C242 3 246 0 253 0 L312 0 C317 0 321 2 322 7 L368 166 C370 171 372 172 378 172 L450 172 C457 172 461 175 463 182 L486 267 L486 269 C486 275 483 277 478 277 L413 277 C406 277 402 280 402 286 C402 287 403 289 403 290 L419 347 C420 352 423 353 429 353 L494 353 C501 353 505 356 507 363 L530 448 Z M335 341 L319 285 C318 280 314 277 309 277 L232 277 C225 277 221 280 221 286 C221 287 222 289 222 290 L238 347 C239 352 242 353 248 353 L325 353 C332 353 336 350 336 344 C336 343 335 342 335 341 L335 341 Z " />
<glyph glyph-name="dollar" unicode="&#x24;" horiz-adv-x="507" d="M303 368 L298 376 L298 517 C298 524 300 528 305 528 C320 528 331 513 345 488 C352 477 354 470 360 470 C361 470 363 470 365 471 L452 514 C456 516 458 519 458 522 C458 531 445 556 414 589 C397 607 378 619 360 625 C318 639 298 632 298 648 L298 677 C298 684 295 687 288 687 L236 687 C229 687 226 684 226 677 L226 650 C226 632 187 645 144 624 C79 593 45 538 45 463 C45 395 85 338 160 301 C198 283 223 277 226 263 L226 106 C226 99 223 96 216 96 C201 96 184 105 179 114 C160 144 153 161 146 161 C145 161 143 161 141 160 L55 117 C51 115 49 112 49 110 C49 93 81 36 128 11 C179 -16 226 0 226 -20 L226 -47 C226 -54 229 -57 236 -57 L288 -57 C295 -57 298 -54 298 -47 L298 -19 C298 -2 326 -9 373 9 C426 29 468 91 468 162 C468 254 414 319 303 368 L303 368 Z M226 413 C226 407 223 403 219 403 C192 403 159 435 159 467 C159 500 190 533 216 533 C223 533 226 530 226 523 L226 413 Z M298 111 L298 219 C298 226 300 230 305 230 C325 230 354 199 354 167 C354 131 327 101 305 101 C301 101 298 105 298 111 L298 111 Z " />
<glyph glyph-name="percent" unicode="&#x25;" horiz-adv-x="547" d="M247 439 L247 535 C247 592 208 630 146 630 C86 630 46 590 46 532 L46 439 C46 382 85 344 146 344 C208 344 247 382 247 439 L247 439 Z M440 616 C441 618 442 620 442 622 C442 627 438 630 431 630 L378 630 C373 628 370 626 369 624 L108 14 C107 12 106 10 106 8 C106 3 110 0 117 0 L170 0 C174 0 177 2 179 6 L440 616 Z M501 95 L501 191 C501 248 462 286 401 286 C340 286 301 248 301 191 L301 95 C301 38 340 0 401 0 C462 0 501 38 501 95 L501 95 Z M166 439 C166 430 157 420 146 420 C135 420 127 428 127 439 L127 535 C127 546 135 554 146 554 C157 554 166 544 166 535 L166 439 Z M420 95 C420 84 412 76 401 76 C390 76 382 84 382 95 L382 191 C382 202 390 210 401 210 C412 210 420 202 420 191 L420 95 Z " />
<glyph glyph-name="ampersand" unicode="&#x26;" horiz-adv-x="612" d="M597 0 L597 96 C597 102 594 104 588 106 C555 117 516 124 480 166 L477 173 L477 186 C477 227 508 258 548 258 L587 258 C594 258 597 261 597 268 L597 362 C597 369 594 372 587 372 L556 372 C500 372 456 355 431 327 C400 292 389 269 383 269 C377 269 347 297 347 305 C347 315 375 317 391 339 C413 369 425 406 425 434 L425 453 C425 567 353 640 239 640 C125 640 53 568 53 451 C53 416 62 389 69 380 C96 344 112 325 112 320 C112 316 97 299 73 266 C61 250 53 224 53 199 L53 175 C53 61 124 -10 239 -10 L268 -10 C314 -10 348 0 364 12 C398 38 415 53 419 53 C423 53 437 42 464 25 C502 2 540 -10 574 -10 C590 -10 597 -10 597 0 L597 0 Z M311 444 C311 410 288 383 244 370 L237 372 C190 401 167 430 167 463 C167 503 199 535 239 535 C279 535 311 502 311 463 L311 444 Z M335 135 C316 108 293 95 268 95 L239 95 C199 95 167 127 167 167 L167 196 C167 220 178 239 200 256 L210 256 C297 201 337 152 337 138 C337 137 336 136 335 135 L335 135 Z " />
<glyph glyph-name="quotesingle" unicode="&#x27;" horiz-adv-x="182" d="M149 619 L149 621 C149 627 145 630 139 630 L43 630 C37 630 33 627 33 621 L33 619 L57 439 C58 433 61 430 67 430 L116 430 C122 430 125 433 126 439 L149 619 Z " />
<glyph glyph-name="parenleft" unicode="&#x28;" horiz-adv-x="364" d="M282 -162 L282 -76 C282 -64 269 -65 241 -59 C218 -54 196 -26 196 5 L196 549 C196 580 217 607 241 612 C269 618 282 617 282 629 L282 715 C282 724 275 725 260 725 C217 725 162 701 130 669 C98 637 82 594 82 539 L82 14 C82 -40 98 -84 130 -116 C162 -149 218 -172 260 -172 C275 -172 282 -171 282 -162 L282 -162 Z " />
<glyph glyph-name="parenright" unicode="&#x29;" horiz-adv-x="364" d="M282 14 L282 539 C282 652 199 725 102 725 C88 725 82 724 82 715 L82 629 C82 617 93 619 119 613 C146 607 167 581 167 549 L167 5 C167 -27 146 -54 119 -60 C93 -66 82 -64 82 -76 L82 -162 C82 -171 88 -172 102 -172 C146 -172 202 -149 234 -116 C266 -84 282 -39 282 14 L282 14 Z " />
<glyph glyph-name="asterisk" unicode="&#x2a;" horiz-adv-x="390" d="M372 457 C373 459 374 461 374 463 C374 467 372 469 367 471 L287 502 C282 504 279 508 279 511 C279 515 282 518 287 520 L366 554 C371 556 373 559 373 562 C373 564 372 566 371 568 L332 636 C330 640 327 642 324 642 C322 642 320 641 317 639 L250 586 C247 584 245 583 242 583 C238 583 234 587 234 594 L234 596 L245 677 L245 679 C245 685 241 688 235 688 L156 688 C150 688 146 685 146 679 L146 677 L157 597 L157 594 C157 588 154 584 149 584 C146 584 143 585 141 587 L78 639 C75 641 73 642 71 642 C68 642 65 640 63 636 L23 567 C22 565 21 563 21 561 C21 558 23 555 28 553 L104 520 C109 518 111 515 111 511 C111 507 109 504 104 502 L27 471 C22 469 20 466 20 463 C20 461 21 459 22 457 L62 387 C64 383 67 381 70 381 C72 381 74 382 77 384 L141 434 C144 436 147 438 150 438 C154 438 157 434 157 429 L157 426 L146 342 L146 340 C146 334 150 331 156 331 L235 331 C241 331 245 334 245 340 L245 342 L233 427 L233 430 C233 435 236 439 240 439 C243 439 246 437 249 435 L317 386 C320 384 322 383 324 383 C327 383 330 385 332 389 L372 457 Z " />
<glyph glyph-name="plus" unicode="&#x2b;" horiz-adv-x="507" d="M468 210 L468 276 C468 283 464 286 458 286 L306 286 C299 286 296 289 296 296 L296 448 C296 455 292 458 286 458 L220 458 C213 458 210 455 210 448 L210 296 C210 289 207 286 200 286 L49 286 C42 286 39 283 39 276 L39 210 C39 203 42 200 49 200 L200 200 C206 200 210 196 210 190 L210 39 C210 32 213 29 220 29 L286 29 C293 29 296 32 296 39 L296 190 C296 197 299 200 306 200 L458 200 C465 200 468 203 468 210 L468 210 Z " />
<glyph glyph-name="comma" unicode="&#x2c;" horiz-adv-x="230" d="M182 49 L182 122 C182 128 178 132 172 132 L58 132 C51 132 48 129 48 122 L48 25 C48 18 51 15 58 15 L69 15 C76 15 79 12 79 4 C79 -38 34 -55 34 -64 C34 -66 35 -68 36 -70 L63 -123 C65 -127 67 -128 71 -128 C80 -128 125 -105 152 -65 C172 -35 182 3 182 49 L182 49 Z " />
<glyph glyph-name="hyphen" unicode="&#x2d;" horiz-adv-x="278" d="M239 182 L239 276 C239 283 236 286 229 286 L49 286 C42 286 39 283 39 276 L39 182 C39 175 42 172 49 172 L229 172 C236 172 239 175 239 182 L239 182 Z " />
<glyph glyph-name="period" unicode="&#x2e;" horiz-adv-x="230" d="M182 57 C182 93 151 124 115 124 C78 124 48 94 48 57 C48 21 78 -10 115 -10 C151 -10 182 21 182 57 L182 57 Z " />
<glyph glyph-name="slash" unicode="&#x2f;" horiz-adv-x="330" d="M336 616 C337 618 338 620 338 622 C338 627 334 630 327 630 L264 630 C259 628 256 626 255 624 L-6 14 C-7 12 -8 10 -8 8 C-8 3 -4 0 3 0 L66 0 C71 1 74 4 75 6 L336 616 Z " />
<glyph glyph-name="zero" unicode="0" horiz-adv-x="507" d="M454 167 L454 463 C454 569 380 640 268 640 L239 640 C127 640 53 569 53 463 L53 167 C53 61 126 -10 239 -10 L268 -10 C380 -10 454 62 454 167 L454 167 Z M339 167 C339 126 308 95 268 95 L239 95 C199 95 167 127 167 167 L167 463 C167 503 199 535 239 535 L268 535 C308 535 339 504 339 463 L339 167 Z " />
<glyph glyph-name="one" unicode="1" horiz-adv-x="507" d="M442 10 L442 95 C442 102 438 105 432 105 L338 105 C331 105 328 108 328 115 L328 620 C328 627 324 630 318 630 L264 630 L257 627 L90 459 C87 456 86 454 86 452 C86 450 87 448 90 445 L152 384 C155 381 157 380 159 380 C161 380 163 381 166 384 L196 415 C199 418 201 419 204 419 C209 419 213 415 213 408 L213 115 C213 108 210 105 203 105 L109 105 C102 105 99 102 99 95 L99 10 C99 3 102 0 109 0 L432 0 C439 0 442 3 442 10 L442 10 Z " />
<glyph glyph-name="two" unicode="2" horiz-adv-x="507" d="M261 640 L225 640 C169 640 125 624 93 592 C61 559 48 529 48 522 C48 520 50 517 54 515 L140 471 C143 470 145 469 146 469 C153 469 156 484 169 503 C182 523 203 535 225 535 L261 535 C300 535 333 503 333 463 C333 419 300 395 241 360 C127 293 67 231 67 125 L67 10 C67 3 70 0 77 0 L430 0 C437 0 440 3 440 10 L440 95 C440 102 436 105 430 105 L192 105 C185 105 182 108 182 115 L182 125 C182 182 222 209 287 250 C388 313 447 360 447 463 C447 569 374 640 261 640 L261 640 Z " />
<glyph glyph-name="three" unicode="3" horiz-adv-x="507" d="M440 175 L440 204 C440 227 431 257 414 281 C396 307 382 320 382 324 C382 328 396 342 416 369 C431 389 440 417 440 439 L440 453 C440 567 367 640 253 640 L225 640 C169 640 125 624 93 592 C61 559 48 529 48 522 C48 520 50 517 54 515 L140 471 C143 470 145 469 146 469 C153 469 156 484 169 503 C182 523 203 535 225 535 L253 535 C292 535 325 503 325 463 L325 449 C325 409 292 377 253 377 L163 377 C156 377 153 374 153 367 L153 282 C153 275 156 272 163 272 L253 272 C294 272 325 241 325 201 L325 167 C325 127 292 95 253 95 L225 95 C201 95 178 109 167 131 C157 151 154 161 147 161 C145 161 144 161 142 160 L55 117 C51 115 49 112 49 110 C49 100 62 70 94 37 C125 5 168 -10 225 -10 L253 -10 C368 -10 440 61 440 175 L440 175 Z " />
<glyph glyph-name="four" unicode="4" horiz-adv-x="507" d="M482 148 L482 233 C482 239 478 243 472 243 L407 243 C400 243 397 246 397 253 L397 620 C397 627 393 630 387 630 L295 630 L287 626 L26 233 L26 148 C26 141 29 138 36 138 L272 138 C278 138 282 134 282 128 L282 10 C282 3 285 0 292 0 L387 0 C394 0 397 3 397 10 L397 128 C397 135 400 138 407 138 L472 138 C479 138 482 141 482 148 L482 148 Z M282 253 C282 246 279 243 272 243 L169 243 C162 243 158 246 158 251 C158 253 159 256 161 259 L264 414 C267 418 270 420 273 420 C278 420 282 415 282 408 L282 253 Z " />
<glyph glyph-name="five" unicode="5" horiz-adv-x="507" d="M455 175 L455 193 C455 306 384 377 269 377 L217 377 C210 377 207 380 207 387 L207 515 C207 522 210 525 217 525 L435 525 C442 525 445 528 445 535 L445 620 C445 627 441 630 435 630 L102 630 C95 630 92 627 92 620 L92 282 C92 275 95 272 102 272 L269 272 C309 272 340 241 340 201 L340 167 C340 126 309 95 269 95 L240 95 C209 95 185 115 170 154 C168 159 165 161 162 161 C160 161 159 161 157 160 L71 117 C67 115 65 112 65 110 C65 100 77 70 109 37 C139 5 183 -10 240 -10 L269 -10 C384 -10 455 61 455 175 L455 175 Z " />
<glyph glyph-name="six" unicode="6" horiz-adv-x="507" d="M456 167 L456 205 C456 307 381 382 279 382 L249 382 C212 382 188 361 175 361 C171 361 168 365 168 372 L168 463 C168 504 199 535 239 535 L269 535 C302 535 318 518 336 486 C341 476 344 471 349 471 C350 471 352 471 354 472 L441 514 C445 516 447 518 447 522 C447 534 422 579 383 607 C351 630 315 640 269 640 L239 640 C127 640 53 569 53 463 L53 167 C53 61 126 -10 239 -10 L269 -10 C382 -10 456 61 456 167 L456 167 Z M341 167 C341 127 309 95 269 95 L239 95 C199 95 168 126 168 167 L168 205 C168 246 199 277 239 277 L269 277 C309 277 341 244 341 205 L341 167 Z " />
<glyph glyph-name="seven" unicode="7" horiz-adv-x="507" d="M449 505 L449 620 C449 627 446 630 439 630 L87 630 C80 630 77 627 77 620 L77 535 C77 528 80 525 87 525 L325 525 C332 525 335 522 335 515 L335 505 C335 441 289 414 225 369 C140 310 96 260 96 167 L96 10 C96 3 99 0 106 0 L200 0 C207 0 210 3 210 10 L210 167 C210 214 245 239 300 277 C395 343 449 394 449 505 L449 505 Z " />
<glyph glyph-name="eight" unicode="8" horiz-adv-x="507" d="M454 175 L454 199 C454 223 445 252 429 275 C410 302 397 315 397 319 C397 323 410 337 431 365 C445 384 454 411 454 434 L454 453 C454 567 381 640 268 640 L239 640 C125 640 53 568 53 453 L53 434 C53 411 62 384 76 365 C97 337 110 323 110 319 C110 315 97 302 78 275 C62 252 53 223 53 199 L53 175 C53 61 124 -10 239 -10 L268 -10 C382 -10 454 62 454 175 L454 175 Z M339 444 C339 403 308 372 268 372 L239 372 C199 372 167 404 167 444 L167 463 C167 503 199 535 239 535 L268 535 C308 535 339 504 339 463 L339 444 Z M339 167 C339 126 308 95 268 95 L239 95 C199 95 167 127 167 167 L167 196 C167 236 198 267 239 267 L268 267 C308 267 339 236 339 196 L339 167 Z " />
<glyph glyph-name="nine" unicode="9" horiz-adv-x="507" d="M456 167 L456 463 C456 569 382 640 269 640 L239 640 C127 640 53 569 53 463 L53 391 C53 289 127 215 230 215 L260 215 C297 215 321 235 334 235 C338 235 341 231 341 224 L341 167 C341 127 309 95 269 95 L239 95 C214 95 191 109 181 129 C171 150 168 161 161 161 C159 161 158 161 156 160 L70 117 C66 115 64 113 64 110 C64 100 77 70 109 37 C140 5 182 -10 239 -10 L269 -10 C382 -10 456 61 456 167 L456 167 Z M341 391 C341 351 310 320 269 320 L239 320 C198 320 168 350 168 391 L168 463 C168 504 199 535 239 535 L269 535 C309 535 341 503 341 463 L341 391 Z " />
<glyph glyph-name="colon" unicode="&#x3a;" horiz-adv-x="230" d="M182 315 C182 351 151 382 115 382 C78 382 48 351 48 315 C48 278 78 248 115 248 C151 248 182 278 182 315 L182 315 Z M182 57 C182 93 151 124 115 124 C78 124 48 94 48 57 C48 21 78 -10 115 -10 C151 -10 182 21 182 57 L182 57 Z " />
<glyph glyph-name="semicolon" unicode="&#x3b;" horiz-adv-x="230" d="M182 315 C182 351 151 382 115 382 C78 382 48 351 48 315 C48 278 78 248 115 248 C151 248 182 278 182 315 L182 315 Z M182 49 L182 122 C182 128 178 132 172 132 L58 132 C51 132 48 129 48 122 L48 25 C48 18 51 15 58 15 L69 15 C76 15 79 12 79 4 C79 -38 34 -55 34 -64 C34 -66 35 -68 36 -70 L63 -123 C65 -127 67 -128 71 -128 C80 -128 125 -105 152 -65 C172 -35 182 3 182 49 L182 49 Z " />
<glyph glyph-name="less" unicode="&#x3c;" horiz-adv-x="507" d="M427 412 L393 468 C391 472 387 474 384 474 C382 474 381 473 379 472 L64 288 L59 279 L59 210 L64 201 L379 17 C381 16 383 15 385 15 C388 15 391 17 393 21 L426 80 C427 82 428 84 428 86 C428 89 426 92 422 94 L175 236 C170 239 168 242 168 245 C168 248 170 251 175 254 L423 398 C427 400 429 403 429 406 C429 408 428 410 427 412 L427 412 Z " />
<glyph glyph-name="equal" unicode="&#x3d;" horiz-adv-x="507" d="M468 296 L468 362 C468 369 465 372 458 372 L49 372 C42 372 39 369 39 362 L39 296 C39 289 42 286 49 286 L458 286 C465 286 468 289 468 296 L468 296 Z M468 125 L468 190 C468 196 464 200 458 200 L49 200 C42 200 39 197 39 190 L39 125 C39 118 42 115 49 115 L458 115 C465 115 468 118 468 125 L468 125 Z " />
<glyph glyph-name="greater" unicode="&#x3e;" horiz-adv-x="507" d="M448 210 L448 279 L443 288 L130 472 C128 473 126 474 124 474 C121 474 118 472 116 468 L82 412 C81 410 80 408 80 406 C80 403 82 400 86 398 L332 254 C336 251 339 248 339 245 C339 242 336 239 332 236 L86 94 C82 92 80 89 80 86 C80 84 81 82 82 80 L116 21 C118 17 121 15 124 15 C126 15 128 16 130 17 L443 201 L448 210 Z " />
<glyph glyph-name="question" unicode="&#x3f;" horiz-adv-x="507" d="M264 640 L228 640 C172 640 128 624 96 592 C64 559 51 529 51 522 C51 520 53 517 57 515 L143 471 C146 470 148 469 149 469 C156 469 159 484 172 503 C185 523 206 535 228 535 L264 535 C303 535 335 504 335 463 C335 414 297 401 241 372 C179 340 151 302 151 240 C151 193 155 172 167 172 L262 172 C270 172 272 175 272 182 C272 193 266 207 266 226 C266 270 303 281 360 309 C421 339 450 389 450 463 C450 568 376 640 264 640 L264 640 Z M292 57 C292 94 261 124 225 124 C189 124 158 94 158 57 C158 21 188 -10 225 -10 C262 -10 292 21 292 57 L292 57 Z " />
<glyph glyph-name="at" unicode="&#x40;" horiz-adv-x="707" d="M522 151 C585 151 626 191 626 249 L626 451 C626 558 551 630 438 630 L270 630 C156 630 82 558 82 451 L82 179 C82 72 156 0 270 0 L527 0 C536 0 542 6 542 15 L542 66 C542 75 536 81 527 81 L270 81 C203 81 162 120 162 179 L162 451 C162 510 204 549 270 549 L438 549 C504 549 545 510 545 451 L545 254 C545 240 535 230 522 230 L511 230 C496 230 488 239 488 254 L488 469 C488 478 482 483 473 483 L422 483 C414 483 410 480 409 472 L402 472 C379 479 360 483 345 483 C274 483 218 431 218 356 L218 279 C218 202 272 151 347 151 C375 151 402 160 430 178 L436 177 C459 160 483 151 510 151 L522 151 Z M409 348 L409 285 C409 256 384 230 353 230 C322 230 299 254 299 285 L299 348 C299 379 322 403 353 403 C384 403 409 377 409 348 L409 348 Z " />
<glyph glyph-name="A" unicode="A" horiz-adv-x="450" d="M457 13 L271 623 C269 628 266 630 261 630 L189 630 C183 630 181 628 179 623 L-7 13 C-7 11 -8 10 -8 9 C-8 3 -4 0 3 0 L103 0 C108 0 112 2 113 7 L143 112 C144 117 147 118 153 118 L296 118 C302 118 305 117 306 112 L336 7 C337 2 340 0 346 0 L447 0 C454 0 458 3 458 9 C458 10 457 11 457 13 L457 13 Z M271 236 C271 235 272 233 272 232 C272 226 268 223 261 223 L188 223 C181 223 177 226 177 232 C177 233 178 235 178 236 L212 368 C213 374 217 392 224 423 L227 423 C233 392 237 374 238 368 L271 236 Z " />
<glyph glyph-name="B" unicode="B" horiz-adv-x="536" d="M488 184 L488 199 C488 223 479 252 464 274 C445 301 431 315 431 319 C431 323 445 338 466 366 C480 385 488 411 488 434 L488 444 C488 558 416 630 302 630 L77 630 C70 630 67 627 67 620 L67 10 C67 3 70 0 77 0 L302 0 C417 0 488 71 488 184 L488 184 Z M374 444 C374 404 341 372 302 372 L192 372 C185 372 182 375 182 382 L182 515 C182 522 185 525 192 525 L302 525 C341 525 374 492 374 453 L374 444 Z M374 177 C374 137 342 105 302 105 L192 105 C185 105 182 108 182 115 L182 257 C182 264 185 267 192 267 L302 267 C343 267 374 236 374 196 L374 177 Z " />
<glyph glyph-name="C" unicode="C" horiz-adv-x="484" d="M459 118 L372 161 C370 162 369 162 367 162 C362 162 358 155 352 143 C335 111 317 95 288 95 L239 95 C199 95 167 127 167 167 L167 463 C167 503 199 535 239 535 L288 535 C317 535 336 518 353 487 C359 476 361 470 367 470 C368 470 370 470 372 471 L459 514 C463 516 465 518 465 522 C465 533 441 578 401 607 C370 630 333 640 288 640 L239 640 C127 640 53 569 53 463 L53 167 C53 61 126 -10 239 -10 L288 -10 C344 -10 387 5 417 36 C451 71 465 100 465 110 C465 114 463 116 459 118 L459 118 Z " />
<glyph glyph-name="D" unicode="D" horiz-adv-x="541" d="M488 186 L488 444 C488 558 416 630 302 630 L77 630 C70 630 67 627 67 620 L67 10 C67 3 70 0 77 0 L302 0 C416 0 488 72 488 186 L488 186 Z M374 177 C374 137 342 105 302 105 L192 105 C185 105 182 108 182 115 L182 515 C182 522 185 525 192 525 L302 525 C341 525 374 492 374 453 L374 177 Z " />
<glyph glyph-name="E" unicode="E" horiz-adv-x="478" d="M440 10 L440 95 C440 102 436 105 430 105 L192 105 C185 105 182 108 182 115 L182 257 C182 264 185 267 192 267 L387 267 C394 267 397 270 397 277 L397 362 C397 369 394 372 387 372 L192 372 C185 372 182 375 182 382 L182 515 C182 522 185 525 192 525 L430 525 C437 525 440 528 440 535 L440 620 C440 627 436 630 430 630 L77 630 C70 630 67 627 67 620 L67 10 C67 3 70 0 77 0 L430 0 C437 0 440 3 440 10 L440 10 Z " />
<glyph glyph-name="F" unicode="F" horiz-adv-x="454" d="M440 535 L440 620 C440 627 436 630 430 630 L77 630 C70 630 67 627 67 620 L67 10 C67 3 70 0 77 0 L172 0 C179 0 182 3 182 10 L182 257 C182 264 185 267 192 267 L387 267 C394 267 397 270 397 277 L397 362 C397 369 394 372 387 372 L192 372 C185 372 182 375 182 382 L182 515 C182 522 185 525 192 525 L430 525 C437 525 440 528 440 535 L440 535 Z " />
<glyph glyph-name="G" unicode="G" horiz-adv-x="527" d="M305 640 L239 640 C127 640 53 569 53 463 L53 167 C53 61 126 -10 239 -10 L288 -10 C400 -10 474 61 474 167 L474 319 C474 326 471 329 464 329 L255 329 C248 329 245 326 245 319 L245 234 C245 227 248 224 255 224 L349 224 C355 224 359 221 359 214 L359 167 C359 126 328 95 288 95 L239 95 C199 95 167 127 167 167 L167 463 C167 503 199 535 239 535 L305 535 C334 535 353 518 370 487 C376 476 378 470 384 470 C385 470 387 470 389 471 L476 514 C480 516 482 519 482 522 C482 534 458 579 419 607 C388 629 351 640 305 640 L305 640 Z " />
<glyph glyph-name="H" unicode="H" horiz-adv-x="570" d="M502 10 L502 620 C502 627 499 630 492 630 L398 630 C391 630 388 627 388 620 L388 382 C388 375 385 372 378 372 L192 372 C185 372 182 375 182 382 L182 620 C182 627 178 630 172 630 L77 630 C70 630 67 627 67 620 L67 10 C67 3 70 0 77 0 L172 0 C179 0 182 3 182 10 L182 257 C182 264 185 267 192 267 L378 267 C385 267 388 264 388 257 L388 10 C388 3 391 0 398 0 L492 0 C499 0 502 3 502 10 L502 10 Z " />
<glyph glyph-name="I" unicode="I" horiz-adv-x="249" d="M182 10 L182 620 C182 627 178 630 172 630 L77 630 C70 630 67 627 67 620 L67 10 C67 3 70 0 77 0 L172 0 C179 0 182 3 182 10 L182 10 Z " />
<glyph glyph-name="J" unicode="J" horiz-adv-x="421" d="M368 177 L368 620 C368 627 364 630 358 630 L263 630 C256 630 253 627 253 620 L253 167 C253 127 223 95 182 95 C151 95 133 111 117 143 C111 155 109 162 103 162 C102 162 100 161 98 160 L9 118 C4 116 3 113 3 109 C3 86 38 42 98 8 C132 -4 157 -10 182 -10 C235 -10 280 8 313 44 C349 82 368 129 368 177 L368 177 Z " />
<glyph glyph-name="K" unicode="K" horiz-adv-x="521" d="M530 15 L315 363 C314 365 313 367 313 369 C313 370 314 372 315 374 L509 614 C511 617 512 620 512 622 C512 627 508 630 501 630 L386 630 L378 626 L200 392 C197 388 194 386 191 386 C186 386 182 391 182 398 L182 620 C182 627 178 630 172 630 L77 630 C70 630 67 627 67 620 L67 10 C67 3 70 0 77 0 L172 0 C179 0 182 3 182 10 L182 205 L222 258 C224 261 227 262 231 262 C233 262 236 260 239 256 L396 5 L404 0 L521 0 C528 0 532 4 532 8 C532 10 531 13 530 15 L530 15 Z " />
<glyph glyph-name="L" unicode="L" horiz-adv-x="454" d="M440 10 L440 95 C440 102 436 105 430 105 L192 105 C185 105 182 108 182 115 L182 620 C182 627 178 630 172 630 L77 630 C70 630 67 627 67 620 L67 10 C67 3 70 0 77 0 L430 0 C437 0 440 3 440 10 L440 10 Z " />
<glyph glyph-name="M" unicode="M" horiz-adv-x="637" d="M569 10 L569 620 C569 627 566 630 559 630 L473 630 C470 629 467 627 464 624 L318 228 L172 624 C169 627 166 629 163 630 L77 630 C70 630 67 627 67 620 L67 10 C67 3 70 0 77 0 L170 0 C177 0 180 3 180 10 L171 400 L284 92 C286 88 289 86 293 86 L344 86 C347 86 350 89 353 92 L466 400 L457 10 C457 3 460 0 467 0 L559 0 C566 0 569 3 569 10 L569 10 Z " />
<glyph glyph-name="N" unicode="N" horiz-adv-x="550" d="M482 10 L482 620 C482 627 478 630 472 630 L380 630 C373 630 370 627 370 620 L374 219 L170 625 L161 630 L77 630 C70 630 67 627 67 620 L67 10 C67 3 70 0 77 0 L170 0 C177 0 180 3 180 10 L175 407 L380 5 L389 0 L472 0 C479 0 482 3 482 10 L482 10 Z " />
<glyph glyph-name="O" unicode="O" horiz-adv-x="527" d="M474 167 L474 463 C474 569 400 640 288 640 L239 640 C127 640 53 569 53 463 L53 167 C53 61 126 -10 239 -10 L288 -10 C400 -10 474 61 474 167 L474 167 Z M359 167 C359 126 328 95 288 95 L239 95 C199 95 167 127 167 167 L167 463 C167 503 199 535 239 535 L288 535 C328 535 359 504 359 463 L359 167 Z " />
<glyph glyph-name="P" unicode="P" horiz-adv-x="483" d="M282 630 L77 630 C70 630 67 627 67 620 L67 10 C67 3 70 0 77 0 L172 0 C179 0 182 3 182 10 L182 257 C182 264 185 267 192 267 L282 267 C393 267 468 341 468 444 C468 557 395 630 282 630 L282 630 Z M354 444 C354 404 322 372 282 372 L192 372 C185 372 182 375 182 382 L182 515 C182 522 185 525 192 525 L282 525 C322 525 354 492 354 453 L354 444 Z " />
<glyph glyph-name="Q" unicode="Q" horiz-adv-x="527" d="M474 167 L474 463 C474 569 400 640 288 640 L239 640 C127 640 53 569 53 463 L53 167 C53 97 83 44 139 13 C176 -8 211 -1 211 -17 L211 -76 C211 -83 214 -86 221 -86 L306 -86 C313 -86 316 -83 316 -76 L316 -17 C316 0 345 -5 386 13 C437 35 474 96 474 167 L474 167 Z M359 167 C359 133 333 104 320 104 C317 104 314 106 312 112 L299 154 C298 159 294 161 289 161 L238 161 C233 161 230 159 228 154 L215 114 C213 109 210 106 207 106 C191 106 167 134 167 167 L167 463 C167 503 199 535 239 535 L288 535 C328 535 359 504 359 463 L359 167 Z " />
<glyph glyph-name="R" unicode="R" horiz-adv-x="527" d="M498 13 L403 288 L403 289 C403 298 426 310 444 327 C464 349 488 387 488 434 L488 444 C488 558 416 630 302 630 L77 630 C70 630 67 627 67 620 L67 10 C67 3 70 0 77 0 L172 0 C179 0 182 3 182 10 L182 257 C182 264 185 267 192 267 L281 267 L289 261 L377 7 C380 2 383 0 386 0 L489 0 C496 0 499 3 499 8 C499 9 499 11 498 13 L498 13 Z M374 444 C374 404 341 372 302 372 L192 372 C185 372 182 375 182 382 L182 515 C182 522 185 525 192 525 L302 525 C341 525 374 492 374 453 L374 444 Z " />
<glyph glyph-name="S" unicode="S" horiz-adv-x="440" d="M220 535 L235 535 C266 535 283 517 302 485 C308 476 310 470 315 470 C316 470 318 470 320 471 L407 514 C411 516 413 518 413 522 C413 534 388 579 349 607 C317 630 281 640 235 640 L220 640 C108 640 34 569 34 463 C34 364 90 319 200 266 C265 235 307 217 307 167 C307 127 274 95 235 95 L195 95 C172 95 147 110 136 131 C126 151 124 161 117 161 C115 161 114 161 112 160 L25 117 C21 115 19 112 19 110 C19 100 32 71 65 37 C95 6 138 -10 195 -10 L235 -10 C348 -10 421 61 421 167 C421 266 371 321 264 370 C194 402 148 416 148 463 C148 504 181 535 220 535 L220 535 Z " />
<glyph glyph-name="T" unicode="T" horiz-adv-x="402" d="M387 535 L387 620 C387 627 383 630 377 630 L25 630 C18 630 15 627 15 620 L15 535 C15 528 18 525 25 525 L134 525 C141 525 144 522 144 515 L144 10 C144 3 147 0 154 0 L248 0 C255 0 258 3 258 10 L258 515 C258 522 261 525 268 525 L377 525 C384 525 387 528 387 535 L387 535 Z " />
<glyph glyph-name="U" unicode="U" horiz-adv-x="527" d="M474 167 L474 620 C474 627 471 630 464 630 L369 630 C362 630 359 627 359 620 L359 167 C359 126 328 95 288 95 L239 95 C199 95 167 127 167 167 L167 620 C167 627 163 630 157 630 L63 630 C56 630 53 627 53 620 L53 167 C53 61 126 -10 239 -10 L288 -10 C400 -10 474 61 474 167 L474 167 Z " />
<glyph glyph-name="V" unicode="V" horiz-adv-x="450" d="M457 617 C457 618 458 620 458 621 C458 627 454 630 447 630 L346 630 C340 630 337 628 336 623 L227 217 L113 623 C112 628 109 630 103 630 L3 630 C-4 630 -8 627 -8 621 C-8 620 -7 618 -7 617 L179 7 C181 2 184 0 189 0 L261 0 C266 0 270 2 271 7 L457 617 Z " />
<glyph glyph-name="W" unicode="W" horiz-adv-x="657" d="M654 618 C654 619 655 621 655 622 C655 627 651 630 644 630 L542 630 C537 630 533 627 532 622 L458 215 L363 625 C362 630 359 632 353 632 L303 632 C297 632 294 630 293 625 L198 215 L125 622 C124 627 120 630 115 630 L13 630 C6 630 2 627 2 622 C2 621 3 619 3 618 L135 8 C136 3 140 0 145 0 L218 0 C224 0 227 2 228 7 L328 403 L429 7 C430 2 433 0 439 0 L512 0 C517 0 521 3 522 8 L654 618 Z " />
<glyph glyph-name="X" unicode="X" horiz-adv-x="458" d="M456 14 L307 311 L307 319 L456 616 C457 618 458 620 458 622 C458 627 454 630 447 630 L334 630 C329 628 326 626 325 624 L239 440 C237 435 233 433 230 433 C227 433 223 435 221 440 L132 624 C128 628 125 630 123 630 L12 630 C5 630 1 627 1 622 C1 620 2 618 3 615 L153 320 L153 311 L3 15 C2 12 1 10 1 8 C1 3 5 0 12 0 L124 0 L133 6 L221 187 C223 192 227 194 230 194 C233 194 237 192 239 187 L324 6 C326 2 328 0 333 0 L447 0 C454 0 458 3 458 8 C458 10 457 12 456 14 L456 14 Z " />
<glyph glyph-name="Y" unicode="Y" horiz-adv-x="450" d="M457 615 C458 618 459 620 459 622 C459 627 455 630 448 630 L338 630 L329 624 L234 428 C232 423 228 421 225 421 C222 421 218 423 216 428 L121 624 L112 630 L1 630 C-6 630 -10 627 -10 622 C-10 620 -9 618 -8 615 L167 287 L167 10 C167 3 170 0 177 0 L272 0 C279 0 282 3 282 10 L282 287 L457 615 Z " />
<glyph glyph-name="Z" unicode="Z" horiz-adv-x="440" d="M408 616 C409 618 410 620 410 622 C410 627 406 630 399 630 L44 630 C37 630 34 627 34 620 L34 535 C34 528 37 525 44 525 L226 525 C233 525 237 522 237 517 C237 515 236 513 235 511 L12 14 C11 12 10 10 10 8 C10 3 14 0 21 0 L396 0 C403 0 406 3 406 10 L406 95 C406 102 402 105 396 105 L193 105 C186 105 182 108 182 113 C182 115 183 117 184 119 L408 616 Z " />
<glyph glyph-name="bracketleft" unicode="&#x5b;" horiz-adv-x="364" d="M282 -162 L282 -77 C282 -70 278 -67 272 -67 L206 -67 C199 -67 196 -64 196 -57 L196 610 C196 617 199 620 206 620 L272 620 C279 620 282 623 282 630 L282 715 C282 722 279 725 272 725 L92 725 C85 725 82 722 82 715 L82 -162 C82 -169 85 -172 92 -172 L272 -172 C279 -172 282 -169 282 -162 L282 -162 Z " />
<glyph glyph-name="backslash" unicode="&#x5c;" horiz-adv-x="330" d="M336 14 L75 624 C74 626 71 628 66 630 L3 630 C-4 630 -8 627 -8 622 C-8 620 -7 618 -6 616 L255 6 C256 4 259 1 264 0 L327 0 C334 0 338 3 338 8 C338 10 337 12 336 14 L336 14 Z " />
<glyph glyph-name="bracketright" unicode="&#x5d;" horiz-adv-x="364" d="M282 -162 L282 715 C282 722 279 725 272 725 L92 725 C85 725 82 722 82 715 L82 630 C82 623 85 620 92 620 L157 620 C164 620 167 617 167 610 L167 -57 C167 -64 164 -67 157 -67 L92 -67 C85 -67 82 -70 82 -77 L82 -162 C82 -169 85 -172 92 -172 L272 -172 C279 -172 282 -169 282 -162 L282 -162 Z " />
<glyph glyph-name="asciicircum" unicode="&#x5e;" horiz-adv-x="757" d="M715 573 C715 610 685 640 649 640 C612 640 582 610 582 573 C582 536 612 506 649 506 C685 506 715 536 715 573 L715 573 Z M706 10 L706 448 C706 455 703 458 696 458 L601 458 C594 458 591 455 591 448 L591 10 C591 3 594 0 601 0 L696 0 C703 0 706 3 706 10 L706 10 Z M534 320 L534 405 C534 412 531 415 524 415 L458 415 C451 415 448 418 448 425 L448 463 C448 494 470 522 493 527 C522 533 534 532 534 544 L534 630 C534 639 529 640 516 640 C452 640 410 598 398 598 C388 598 345 640 268 640 C154 640 72 558 72 453 L72 425 C72 418 69 415 62 415 L39 415 C32 415 29 412 29 405 L29 320 C29 313 32 310 39 310 L62 310 C69 310 72 307 72 300 L72 10 C72 3 75 0 82 0 L177 0 C184 0 187 3 187 10 L187 300 C187 307 190 310 197 310 L323 310 C330 310 333 307 333 300 L333 10 C333 3 336 0 343 0 L438 0 C445 0 448 3 448 10 L448 300 C448 307 451 310 458 310 L524 310 C531 310 534 313 534 320 L534 320 Z M338 495 C334 479 333 465 333 453 L333 425 C333 418 330 415 323 415 L197 415 C190 415 187 418 187 425 L187 463 C187 504 218 535 258 535 C286 535 314 524 335 504 L338 495 Z " />
<glyph glyph-name="underscore" unicode="&#x5f;" horiz-adv-x="230" d="M239 -205 L239 -153 C239 -146 236 -143 229 -143 L1 -143 C-6 -143 -9 -146 -9 -153 L-9 -205 C-9 -212 -6 -215 1 -215 L229 -215 C236 -215 239 -212 239 -205 L239 -205 Z " />
<glyph glyph-name="grave" unicode="&#x60;" horiz-adv-x="500" d="M312 529 L216 676 L208 681 L82 681 C75 681 71 678 71 673 C71 670 72 667 75 664 L224 517 L231 514 L304 514 C310 514 314 517 314 522 C314 524 314 527 312 529 L312 529 Z " />
<glyph glyph-name="a" unicode="a" horiz-adv-x="473" d="M416 10 L416 292 C416 398 342 468 229 468 C175 468 132 454 102 425 C68 392 54 360 54 352 C54 350 56 347 60 345 L142 302 C144 301 146 300 148 300 C156 300 160 315 174 333 C189 352 211 363 229 363 C270 363 297 337 301 296 L302 284 L302 282 C302 276 298 273 292 273 L196 273 C113 273 55 218 55 139 L55 134 C55 57 113 0 196 0 L234 0 C270 0 293 19 304 19 C313 19 306 0 321 0 L406 0 C413 0 416 3 416 10 L416 10 Z M302 177 C301 166 301 161 301 161 C288 124 265 105 234 105 L196 105 C180 105 169 117 169 134 L169 149 C169 164 181 177 196 177 L302 177 Z " />
<glyph glyph-name="b" unicode="b" horiz-adv-x="473" d="M430 177 L430 282 C430 383 355 458 259 458 C216 458 191 438 179 438 C175 438 172 442 172 449 L172 620 C172 627 168 630 162 630 L68 630 C61 630 58 627 58 620 L58 10 C58 3 61 0 68 0 L153 0 C167 0 161 20 170 20 C182 20 205 0 250 0 C354 0 430 72 430 177 L430 177 Z M315 177 C315 136 285 105 244 105 C203 105 172 137 172 177 L172 282 C172 322 202 353 244 353 C285 353 315 322 315 282 L315 177 Z " />
<glyph glyph-name="c" unicode="c" horiz-adv-x="429" d="M401 118 L314 161 C312 162 311 162 309 162 C304 162 300 155 294 143 C277 111 259 95 230 95 C188 95 158 127 158 167 L158 291 C158 331 188 363 230 363 C259 363 278 347 295 315 C301 304 303 298 309 298 C310 298 312 298 314 299 L401 342 C405 344 407 347 407 350 C407 362 383 406 344 435 C313 458 276 468 230 468 C117 468 43 397 43 291 L43 167 C43 61 117 -10 230 -10 C286 -10 329 6 358 36 C392 72 407 99 407 110 C407 113 405 116 401 118 L401 118 Z " />
<glyph glyph-name="d" unicode="d" horiz-adv-x="473" d="M416 10 L416 620 C416 627 412 630 406 630 L311 630 C304 630 301 627 301 620 L301 449 C301 442 298 438 294 438 C283 438 257 458 214 458 C118 458 43 383 43 282 L43 177 C43 72 119 0 223 0 C268 0 292 20 304 20 C314 20 306 0 321 0 L406 0 C413 0 416 3 416 10 L416 10 Z M301 177 C301 136 271 105 230 105 C188 105 158 136 158 177 L158 282 C158 322 188 353 230 353 C271 353 301 322 301 282 L301 177 Z " />
<glyph glyph-name="e" unicode="e" horiz-adv-x="459" d="M416 210 L416 291 C416 322 406 356 388 383 C353 437 294 468 230 468 C165 468 107 437 71 383 C53 356 43 322 43 291 L43 167 C43 61 117 -10 230 -10 C286 -10 329 6 358 36 C392 72 407 99 407 110 C407 113 405 116 401 118 L314 161 C312 162 311 162 309 162 C304 162 300 155 294 143 C277 111 259 95 230 95 C188 95 158 127 158 167 L158 190 C158 197 161 200 168 200 L406 200 C413 200 416 203 416 210 L416 210 Z M289 296 L170 296 C163 296 160 299 160 305 C160 333 192 363 230 363 C266 363 299 333 299 306 C299 299 296 296 289 296 L289 296 Z " />
<glyph glyph-name="f" unicode="f" horiz-adv-x="292" d="M329 620 C329 621 330 623 330 624 C330 636 307 640 258 640 C205 640 161 622 127 585 C91 547 72 500 72 453 L72 425 C72 418 69 415 62 415 L39 415 C32 415 29 412 29 405 L29 320 C29 313 32 310 39 310 L62 310 C69 310 72 307 72 300 L72 10 C72 3 75 0 82 0 L177 0 C184 0 187 3 187 10 L187 300 C187 307 190 310 197 310 L262 310 C269 310 272 313 272 320 L272 405 C272 412 269 415 262 415 L197 415 C190 415 187 418 187 425 L187 463 C187 503 217 535 258 535 C270 535 280 529 288 529 C294 529 297 530 299 536 L329 620 Z " />
<glyph glyph-name="g" unicode="g" horiz-adv-x="459" d="M459 -91 L459 -72 C459 5 401 62 315 62 L203 62 C198 68 195 74 195 80 C195 86 197 91 202 96 L217 96 C340 96 416 168 416 273 L416 448 C416 455 412 458 406 458 L321 458 C306 458 313 438 305 438 C293 438 267 458 223 458 C122 458 43 382 43 282 L43 273 C43 206 74 176 98 143 C100 141 101 139 101 136 C101 128 87 109 87 80 C87 53 97 38 97 32 C97 26 90 21 80 10 C60 -14 43 -34 43 -72 L43 -91 C43 -168 101 -225 187 -225 L315 -225 C400 -225 459 -168 459 -91 L459 -91 Z M301 273 C301 233 270 201 230 201 C188 201 158 233 158 273 L158 282 C158 322 188 353 230 353 C271 353 301 322 301 282 L301 273 Z M344 -91 C344 -107 331 -120 315 -120 L187 -120 C170 -120 158 -108 158 -91 L158 -72 C158 -55 170 -43 187 -43 L315 -43 C332 -43 344 -55 344 -72 L344 -91 Z " />
<glyph glyph-name="h" unicode="h" horiz-adv-x="483" d="M430 10 L430 282 C430 384 353 458 259 458 C216 458 191 438 179 438 C175 438 172 442 172 449 L172 620 C172 627 168 630 162 630 L68 630 C61 630 58 627 58 620 L58 10 C58 3 61 0 68 0 L162 0 C169 0 172 3 172 10 L172 282 C172 322 202 353 244 353 C285 353 315 322 315 282 L315 10 C315 3 318 0 325 0 L420 0 C427 0 430 3 430 10 L430 10 Z " />
<glyph glyph-name="i" unicode="i" horiz-adv-x="230" d="M182 573 C182 609 151 640 115 640 C78 640 48 610 48 573 C48 536 78 506 115 506 C151 506 182 537 182 573 L182 573 Z M172 10 L172 448 C172 455 168 458 162 458 L68 458 C61 458 58 455 58 448 L58 10 C58 3 61 0 68 0 L162 0 C169 0 172 3 172 10 L172 10 Z " />
<glyph glyph-name="j" unicode="j" horiz-adv-x="230" d="M182 573 C182 609 151 640 115 640 C78 640 48 610 48 573 C48 536 78 506 115 506 C151 506 182 537 182 573 L182 573 Z M172 -50 L172 448 C172 455 168 458 162 458 L68 458 C61 458 58 455 58 448 L58 -59 C58 -91 38 -117 9 -124 C-17 -130 -28 -128 -28 -140 L-28 -225 C-28 -233 -25 -235 -17 -235 C20 -235 59 -221 98 -195 C144 -164 172 -109 172 -50 L172 -50 Z " />
<glyph glyph-name="k" unicode="k" horiz-adv-x="449" d="M457 15 L288 288 C287 290 286 291 286 293 C286 295 288 297 290 300 L428 441 C431 444 432 447 432 450 C432 455 428 458 421 458 L302 458 L295 455 L189 339 C186 336 184 335 181 335 C176 335 172 339 172 346 L172 620 C172 627 168 630 162 630 L68 630 C61 630 58 627 58 620 L58 10 C58 3 61 0 68 0 L162 0 C169 0 172 3 172 10 L172 173 L175 180 L191 196 C194 199 197 200 199 200 C202 200 205 198 207 194 L322 5 L331 0 L448 0 C455 0 459 4 459 8 C459 10 458 13 457 15 L457 15 Z " />
<glyph glyph-name="l" unicode="l" horiz-adv-x="230" d="M172 10 L172 620 C172 627 168 630 162 630 L68 630 C61 630 58 627 58 620 L58 10 C58 3 61 0 68 0 L162 0 C169 0 172 3 172 10 L172 10 Z " />
<glyph glyph-name="m" unicode="m" horiz-adv-x="707" d="M650 10 L650 282 C650 385 576 458 473 458 C430 458 395 448 361 422 C358 420 356 419 354 419 C352 419 350 420 347 422 C320 438 294 458 251 458 C209 458 183 436 170 436 C160 436 167 458 153 458 L68 458 C61 458 58 455 58 448 L58 10 C58 3 61 0 68 0 L162 0 C169 0 172 3 172 10 L172 282 C172 320 204 353 234 353 C267 353 296 321 296 282 L296 10 C296 3 299 0 306 0 L401 0 C408 0 411 3 411 10 L411 282 C411 320 442 353 473 353 C506 353 535 321 535 282 L535 10 C535 3 538 0 545 0 L640 0 C647 0 650 3 650 10 L650 10 Z " />
<glyph glyph-name="n" unicode="n" horiz-adv-x="488" d="M430 10 L430 282 C430 386 354 458 252 458 C206 458 182 438 170 438 C162 438 168 458 153 458 L68 458 C61 458 58 455 58 448 L58 10 C58 3 61 0 68 0 L162 0 C169 0 172 3 172 10 L172 282 C172 322 202 353 244 353 C285 353 315 322 315 282 L315 10 C315 3 318 0 325 0 L420 0 C427 0 430 3 430 10 L430 10 Z " />
<glyph glyph-name="o" unicode="o" horiz-adv-x="459" d="M416 167 L416 291 C416 397 342 468 230 468 C117 468 43 397 43 291 L43 167 C43 61 117 -10 230 -10 C342 -10 416 61 416 167 L416 167 Z M301 167 C301 127 270 95 230 95 C188 95 158 127 158 167 L158 291 C158 331 188 363 230 363 C270 363 301 331 301 291 L301 167 Z " />
<glyph glyph-name="p" unicode="p" horiz-adv-x="473" d="M430 177 L430 282 C430 387 354 458 252 458 C207 458 181 438 170 438 C161 438 167 458 153 458 L68 458 C61 458 58 455 58 448 L58 -215 C58 -222 61 -225 68 -225 L162 -225 C169 -225 172 -222 172 -215 L172 9 C172 16 175 20 179 20 C192 20 217 0 253 0 C356 0 430 75 430 177 L430 177 Z M315 177 C315 136 285 105 244 105 C203 105 172 137 172 177 L172 282 C172 322 202 353 244 353 C285 353 315 322 315 282 L315 177 Z " />
<glyph glyph-name="q" unicode="q" horiz-adv-x="473" d="M416 -215 L416 448 C416 455 412 458 406 458 L321 458 C306 458 313 438 305 438 C293 438 267 458 222 458 C120 458 43 387 43 282 L43 177 C43 130 62 84 95 49 C126 16 168 0 220 0 C257 0 281 20 294 20 C298 20 301 16 301 9 L301 -215 C301 -222 304 -225 311 -225 L406 -225 C413 -225 416 -222 416 -215 L416 -215 Z M301 177 C301 136 271 105 230 105 C188 105 158 136 158 177 L158 282 C158 322 188 353 230 353 C271 353 301 322 301 282 L301 177 Z " />
<glyph glyph-name="r" unicode="r" horiz-adv-x="312" d="M310 343 L310 440 C310 450 289 458 254 458 C228 458 204 448 178 428 L172 425 C166 426 163 429 163 435 L163 449 C163 456 160 458 153 458 L68 458 C61 458 58 455 58 448 L58 10 C58 3 61 0 68 0 L162 0 C169 0 172 3 172 10 L172 282 C172 321 202 352 241 352 C269 352 290 332 303 332 C307 332 310 336 310 343 L310 343 Z " />
<glyph glyph-name="s" unicode="s" horiz-adv-x="459" d="M242 468 L213 468 C114 468 45 404 45 313 C45 245 82 207 162 187 C244 166 300 175 300 135 C300 110 278 92 242 92 L213 92 C174 92 161 116 141 149 C138 153 136 156 133 156 C131 156 130 156 128 155 L46 115 C42 113 40 111 40 108 C40 99 52 71 83 39 C114 6 157 -10 213 -10 L242 -10 C347 -10 414 55 414 149 C414 215 376 252 295 274 C213 296 158 287 158 328 C158 353 177 366 213 366 L242 366 C283 366 294 340 315 309 C318 305 319 303 323 303 C324 303 326 303 328 304 L410 344 C414 346 416 349 416 352 C416 364 394 407 357 434 C326 457 289 468 242 468 L242 468 Z " />
<glyph glyph-name="t" unicode="t" horiz-adv-x="321" d="M277 0 L277 86 C277 98 265 97 237 103 C213 108 191 136 191 167 L191 343 C191 350 194 353 201 353 L267 353 C274 353 277 356 277 363 L277 448 C277 455 274 458 267 458 L201 458 C194 458 191 461 191 468 L191 534 C191 541 188 544 181 544 L132 544 L125 541 L7 416 L5 363 C5 356 8 353 15 353 L67 353 C74 353 77 350 77 343 L77 167 C77 117 93 75 125 44 C158 12 213 -10 256 -10 C271 -10 277 -9 277 0 L277 0 Z " />
<glyph glyph-name="u" unicode="u" horiz-adv-x="478" d="M420 10 L420 448 C420 455 416 458 410 458 L316 458 C309 458 306 455 306 448 L306 177 C306 137 275 105 234 105 C193 105 163 136 163 177 L163 448 C163 455 159 458 153 458 L58 458 C51 458 48 455 48 448 L48 177 C48 72 123 0 227 0 C272 0 296 20 308 20 C317 20 311 0 325 0 L410 0 C417 0 420 3 420 10 L420 10 Z " />
<glyph glyph-name="v" unicode="v" horiz-adv-x="430" d="M438 444 C439 446 440 448 440 450 C440 455 436 458 429 458 L327 458 C307 458 286 361 217 177 C195 237 159 329 112 452 C109 455 106 457 103 458 L2 458 C-5 458 -9 455 -9 450 C-9 448 -8 446 -7 444 L170 6 C173 3 176 1 179 0 L251 0 C255 0 258 2 260 6 L438 444 Z " />
<glyph glyph-name="w" unicode="w" horiz-adv-x="599" d="M597 445 C597 446 598 448 598 449 C598 455 594 458 587 458 L487 458 C481 458 478 456 477 451 L416 175 L354 451 C353 456 350 458 344 458 L256 458 C250 458 247 456 246 451 L186 175 L123 451 C122 456 119 458 113 458 L13 458 C6 458 2 455 2 449 C2 448 3 447 3 445 L136 7 C137 2 140 0 146 0 L218 0 C224 0 227 2 228 7 L301 299 L372 7 C373 2 376 0 382 0 L453 0 C458 0 461 2 463 7 L597 445 Z " />
<glyph glyph-name="x" unicode="x" horiz-adv-x="409" d="M417 15 L280 225 L280 234 L417 442 C419 445 420 448 420 450 C420 455 416 458 409 458 L296 458 L288 453 L211 331 C209 327 206 325 204 325 C202 325 199 327 196 331 L120 453 L112 458 L0 458 C-6 458 -10 455 -10 450 C-10 448 -10 446 -8 443 L128 235 L128 232 C128 230 128 227 127 223 L6 15 C5 12 4 10 4 8 C4 3 8 0 15 0 L111 0 L120 5 L195 126 C198 130 201 133 204 133 C207 133 210 130 213 126 L288 5 L297 0 L409 0 C415 0 419 4 419 8 C419 10 419 12 417 15 L417 15 Z " />
<glyph glyph-name="y" unicode="y" horiz-adv-x="478" d="M420 -49 L420 448 C420 455 416 458 410 458 L316 458 C309 458 306 455 306 448 L306 177 C306 137 275 105 234 105 C193 105 163 136 163 177 L163 448 C163 455 159 458 153 458 L58 458 C51 458 48 455 48 448 L48 177 C48 71 121 0 234 0 C268 0 288 14 299 14 C303 14 306 10 306 4 L306 -58 C306 -97 274 -130 234 -130 C204 -130 186 -114 169 -83 C164 -72 161 -65 155 -65 C154 -65 152 -66 150 -67 L64 -110 C60 -112 58 -114 58 -117 C58 -129 81 -175 120 -203 C151 -225 188 -235 234 -235 C349 -235 420 -164 420 -49 L420 -49 Z " />
<glyph glyph-name="z" unicode="z" horiz-adv-x="430" d="M403 442 C404 444 405 447 405 449 C405 453 401 457 394 457 L39 457 C32 457 29 454 29 447 L29 362 C29 355 32 352 39 352 L193 352 C200 352 204 348 204 344 C204 342 203 339 202 337 L9 15 C8 13 7 10 7 8 C7 3 11 0 18 0 L390 0 C397 0 400 3 400 10 L400 95 C400 102 396 105 390 105 L218 105 C210 105 207 108 207 113 C207 115 207 118 209 120 L403 442 Z " />
<glyph glyph-name="braceleft" unicode="&#x7b;" horiz-adv-x="378" d="M296 -162 L296 -76 C296 -64 284 -65 256 -59 C232 -54 210 -26 210 5 L210 156 C210 180 201 208 185 231 C166 258 153 272 153 276 C153 280 167 295 189 325 C202 342 210 368 210 391 L210 549 C210 580 232 607 256 612 C284 618 296 617 296 629 L296 715 C296 724 290 725 275 725 C232 725 176 701 144 669 C112 637 96 594 96 539 L96 401 C96 369 75 342 48 336 C21 330 10 332 10 320 L10 233 C10 221 21 223 48 217 C75 211 96 184 96 153 L96 14 C96 -40 112 -84 144 -116 C176 -149 232 -172 275 -172 C290 -172 296 -171 296 -162 L296 -162 Z " />
<glyph glyph-name="bar" unicode="&#x7c;" horiz-adv-x="766" d="M709 10 L709 620 C709 627 706 630 699 630 L519 630 C479 630 443 619 410 596 C408 594 406 593 405 593 C403 593 401 594 398 596 C360 621 323 640 266 640 C208 640 160 621 127 585 C91 546 72 500 72 453 L72 425 C72 418 69 415 62 415 L39 415 C32 415 29 412 29 405 L29 320 C29 313 32 310 39 310 L62 310 C69 310 72 307 72 300 L72 10 C72 3 75 0 82 0 L177 0 C184 0 187 3 187 10 L187 300 C187 307 190 310 197 310 L323 310 C330 310 333 307 333 300 L333 10 C333 3 336 0 343 0 L438 0 C445 0 448 3 448 10 L448 300 C448 307 451 310 458 310 L524 310 C531 310 534 313 534 320 L534 405 C534 412 531 415 524 415 L458 415 C451 415 448 418 448 425 L448 453 C448 494 479 525 519 525 L584 525 C591 525 594 522 594 515 L594 10 C594 3 597 0 604 0 L699 0 C706 0 709 3 709 10 L709 10 Z M339 492 C335 477 333 461 333 444 L333 425 C333 418 330 415 323 415 L197 415 C190 415 187 418 187 425 L187 463 C187 504 218 535 258 535 C288 535 317 523 337 501 L339 492 Z " />
<glyph glyph-name="braceright" unicode="&#x7d;" horiz-adv-x="378" d="M368 233 L368 320 C368 332 356 331 327 337 C304 342 282 370 282 401 L282 539 C282 652 199 725 102 725 C88 725 82 724 82 715 L82 629 C82 617 93 619 119 613 C146 607 167 581 167 549 L167 391 C167 354 186 329 209 298 C217 287 225 281 225 276 C225 272 210 255 187 223 C175 206 167 180 167 156 L167 5 C167 -27 146 -54 119 -60 C93 -66 82 -64 82 -76 L82 -162 C82 -171 88 -172 102 -172 C146 -172 202 -149 234 -116 C266 -84 282 -39 282 14 L282 153 C282 183 303 211 327 216 C356 222 368 221 368 233 L368 233 Z " />
<glyph glyph-name="asciitilde" unicode="&#x7e;" horiz-adv-x="553" d="M590 620 C590 621 591 623 591 624 C591 636 569 640 519 640 C446 640 407 598 398 598 C388 598 345 640 268 640 C154 640 72 558 72 453 L72 425 C72 418 69 415 62 415 L39 415 C32 415 29 412 29 405 L29 320 C29 313 32 310 39 310 L62 310 C69 310 72 307 72 300 L72 10 C72 3 75 0 82 0 L177 0 C184 0 187 3 187 10 L187 300 C187 307 190 310 197 310 L323 310 C330 310 333 307 333 300 L333 10 C333 3 336 0 343 0 L438 0 C445 0 448 3 448 10 L448 300 C448 307 451 310 458 310 L524 310 C531 310 534 313 534 320 L534 405 C534 412 531 415 524 415 L458 415 C451 415 448 418 448 425 L448 463 C448 503 478 535 519 535 C531 535 541 529 549 529 C555 529 558 530 560 536 L590 620 Z M338 495 C334 479 333 465 333 453 L333 425 C333 418 330 415 323 415 L197 415 C190 415 187 418 187 425 L187 463 C187 504 218 535 258 535 C286 535 314 524 335 504 L338 495 Z " />
<glyph glyph-name="exclamdown" unicode="&#xa1;" horiz-adv-x="278" d="M191 401 C191 438 161 468 125 468 C89 468 58 438 58 401 C58 364 88 334 125 334 C161 334 191 364 191 401 L191 401 Z M182 -162 L182 102 L159 277 C158 283 154 286 149 286 L99 286 C93 286 90 283 89 277 L67 102 L67 -162 C67 -169 70 -172 77 -172 L172 -172 C179 -172 182 -169 182 -162 L182 -162 Z " />
<glyph glyph-name="cent" unicode="&#xa2;" horiz-adv-x="507" d="M473 203 L386 246 C384 247 383 247 381 247 C373 247 367 231 349 203 C343 193 326 183 313 183 C310 183 307 187 307 193 L307 437 C307 445 309 448 315 448 C340 448 352 424 373 391 C376 387 378 385 381 385 C383 385 384 385 386 386 L473 429 C477 431 479 433 479 437 C479 449 463 474 431 507 C414 524 395 536 375 542 C329 555 307 548 307 564 L307 620 C307 627 303 630 297 630 L245 630 C238 630 235 627 235 620 L235 563 C235 546 197 555 155 535 C91 505 58 450 58 377 L58 253 C58 180 90 127 155 94 C197 73 235 85 235 67 L235 10 C235 3 238 0 245 0 L297 0 C304 0 307 3 307 10 L307 66 C307 86 349 71 398 98 C445 124 479 179 479 194 C479 198 477 201 473 203 L473 203 Z M235 194 C235 187 232 183 228 183 C199 183 173 214 173 253 L173 377 C173 415 199 447 225 447 C232 447 235 444 235 436 L235 194 Z " />
<glyph glyph-name="sterling" unicode="&#xa3;" horiz-adv-x="507" d="M125 453 L125 382 C125 375 122 372 115 372 L92 372 C85 372 82 369 82 362 L82 277 C82 270 85 267 92 267 L115 267 C122 267 125 264 125 257 L125 177 C125 141 103 116 62 105 L6 105 C-1 105 -4 102 -4 95 L-4 10 C-4 3 -1 0 6 0 L444 0 C451 0 454 3 454 10 L454 95 C454 102 450 105 444 105 L238 105 C232 105 228 108 228 112 C228 124 239 142 239 167 L239 257 C239 264 242 267 249 267 L315 267 C322 267 325 270 325 277 L325 362 C325 369 322 372 315 372 L249 372 C242 372 239 375 239 382 L239 463 C239 502 270 535 311 535 C340 535 359 519 376 487 C382 476 384 470 390 470 C391 470 393 470 395 471 L482 514 C486 516 488 518 488 522 C488 534 464 578 424 607 C394 629 358 640 318 640 C261 640 213 621 180 585 C144 547 125 500 125 453 L125 453 Z " />
<glyph glyph-name="currency" unicode="&#xa4;" horiz-adv-x="606" d="M84 702 L33 650 L132 550 C108 516 95 477 95 432 C95 387 107 349 132 314 L33 214 L84 163 L184 262 C219 236 258 224 304 224 C352 224 391 238 424 262 L523 163 L574 214 L475 314 C500 350 512 389 512 432 C512 477 499 516 475 550 L574 650 L523 702 L424 603 C388 629 348 641 303 641 C255 641 217 627 184 603 L84 702 Z M304 567 C378 567 439 505 439 432 C439 358 378 298 304 298 C229 298 169 358 169 432 C169 505 230 567 304 567 L304 567 Z " />
<glyph glyph-name="yen" unicode="&#xa5;" horiz-adv-x="507" d="M486 615 C487 618 488 620 488 622 C488 627 484 630 477 630 L366 630 L357 624 L262 428 C260 423 256 421 253 421 C250 421 246 423 244 428 L149 624 L140 630 L30 630 C23 630 19 627 19 623 C19 621 19 618 21 615 L158 359 C159 356 160 354 160 352 C160 347 156 344 149 344 L44 344 C37 344 34 341 34 334 L34 258 C34 251 37 248 44 248 L186 248 C192 248 196 244 196 238 L196 192 C196 185 193 182 186 182 L44 182 C37 182 34 179 34 172 L34 96 C34 89 37 86 44 86 L186 86 C192 86 196 83 196 76 L196 10 C196 3 199 0 206 0 L301 0 C308 0 311 3 311 10 L311 76 C311 83 314 86 321 86 L463 86 C470 86 473 89 473 96 L473 172 C473 178 469 182 463 182 L321 182 C314 182 311 185 311 192 L311 238 C311 245 314 248 321 248 L463 248 C470 248 473 251 473 258 L473 334 C473 341 470 344 463 344 L358 344 C351 344 347 347 347 351 C347 353 347 356 349 359 L486 615 Z " />
<glyph glyph-name="brokenbar" unicode="&#xa6;" horiz-adv-x="500" d="M200 699 L200 329 L301 329 L301 699 L200 699 Z M200 199 L200 -171 L301 -171 L301 199 L200 199 Z " />
<glyph glyph-name="section" unicode="&#xa7;" horiz-adv-x="507" d="M428 43 L428 53 C446 84 455 115 455 147 L455 167 C455 255 412 306 319 351 C238 390 182 406 182 463 C182 505 213 535 253 535 L269 535 C298 535 317 518 334 487 C340 476 342 470 348 470 C349 470 351 470 353 471 L440 514 C444 516 446 518 446 522 C446 533 422 578 382 607 C351 630 314 640 269 640 L253 640 C140 640 67 570 67 459 C67 425 75 395 93 366 L94 356 C76 326 67 294 67 258 L67 238 C67 152 111 109 203 64 C285 24 340 4 340 -58 C340 -99 308 -130 269 -130 L229 -130 C200 -130 181 -114 165 -84 C159 -72 156 -65 150 -65 C149 -65 147 -66 145 -67 L59 -110 C55 -112 53 -115 53 -117 C53 -127 66 -156 99 -189 C130 -220 173 -235 229 -235 L269 -235 C381 -235 455 -164 455 -58 C455 -22 446 10 428 43 L428 43 Z M340 140 C340 134 337 130 333 130 C317 130 257 148 204 190 C191 201 182 220 182 238 L182 258 C182 275 185 284 191 284 C196 284 215 276 249 261 C273 250 289 242 295 238 C325 218 340 199 340 167 L340 140 Z " />
<glyph glyph-name="dieresis" unicode="&#xa8;" horiz-adv-x="500" d="M396 590 C396 625 369 652 334 652 C299 652 272 625 272 590 C272 554 298 528 334 528 C369 528 396 555 396 590 L396 590 Z M227 590 C227 625 200 652 165 652 C130 652 103 625 103 590 C103 554 129 528 165 528 C200 528 227 555 227 590 L227 590 Z " />
<glyph glyph-name="copyright" unicode="&#xa9;" horiz-adv-x="707" d="M626 177 L626 453 C626 559 552 630 440 630 L268 630 C155 630 82 559 82 453 L82 177 C82 70 155 0 268 0 L440 0 C552 0 626 71 626 177 L626 177 Z M554 177 C554 115 510 72 440 72 L268 72 C197 72 153 115 153 177 L153 453 C153 515 197 558 268 558 L440 558 C509 558 554 515 554 453 L554 177 Z M474 236 L422 262 C420 263 419 263 418 263 C415 263 413 261 410 258 C391 237 379 218 353 218 C319 218 296 242 296 274 L296 368 C296 400 319 424 353 424 C379 424 391 406 410 385 C413 382 415 380 418 380 C419 380 420 380 422 381 L474 407 C478 409 481 411 481 414 C481 436 433 495 353 495 C270 495 217 444 217 368 L217 274 C217 197 271 145 353 145 C432 145 480 203 480 228 C480 231 478 234 474 236 L474 236 Z " />
<glyph glyph-name="ordfeminine" unicode="&#xaa;" horiz-adv-x="331" d="M296 314 L296 511 C296 588 242 640 160 640 C80 640 33 582 33 554 C33 550 35 547 39 544 L97 514 C99 513 102 512 104 512 C107 512 110 514 113 519 C127 544 143 556 160 556 C188 556 206 538 206 514 L206 506 L204 503 L137 503 C75 503 33 462 33 404 L33 401 C33 344 76 302 137 302 L164 302 C179 302 194 306 209 315 L213 313 C213 304 216 302 225 302 L284 302 C293 302 296 305 296 314 L296 314 Z M206 426 L206 421 C198 397 183 385 164 385 L137 385 C130 385 123 392 123 401 L123 411 C123 419 130 426 137 426 L206 426 Z " />
<glyph glyph-name="guillemotleft" unicode="&#xab;" horiz-adv-x="574" d="M515 92 L515 180 L511 188 L393 273 C389 276 388 278 388 281 C388 283 389 286 393 289 L511 373 L515 381 L515 470 C515 477 511 481 507 481 C505 481 502 480 499 478 L282 324 L278 316 L278 245 L282 237 L499 84 C502 82 505 81 508 81 C512 81 515 85 515 92 L515 92 Z M284 92 L284 180 L280 188 L162 273 C158 276 157 278 157 281 C157 283 158 286 162 289 L280 373 L284 381 L284 470 C284 477 280 481 276 481 C274 481 271 480 268 478 L52 324 L48 316 L48 245 L52 237 L268 84 C271 82 274 81 276 81 C281 81 284 85 284 92 L284 92 Z " />
<glyph glyph-name="logicalnot" unicode="&#xac;" horiz-adv-x="833" d="M124 422 L124 326 L612 326 L612 177 L709 177 L709 422 L124 422 Z " />
<glyph glyph-name="registered" unicode="&#xae;" horiz-adv-x="460" d="M412 440 L412 460 C412 562 341 630 232 630 L228 630 C119 630 48 562 48 460 L48 440 C48 338 119 270 228 270 L232 270 C341 270 412 338 412 440 L412 440 Z M382 440 C382 356 323 300 232 300 L228 300 C137 300 78 356 78 440 L78 460 C78 544 137 600 228 600 L232 600 C323 600 382 544 382 460 L382 440 Z M304 481 L304 485 C304 523 279 548 241 548 L178 548 C171 548 168 545 168 538 L168 370 C168 363 171 360 178 360 L189 360 C196 360 199 363 199 370 L199 415 C199 422 202 425 209 425 L234 425 C239 423 242 421 243 419 L266 366 C267 364 270 361 275 360 L291 360 C298 360 302 363 302 368 C302 370 301 372 300 374 L275 424 C274 425 274 426 274 427 C274 439 304 453 304 481 L304 481 Z M272 485 C272 467 259 453 241 453 L209 453 C202 453 199 456 199 463 L199 510 C199 517 202 520 209 520 L241 520 C259 520 272 506 272 488 L272 485 Z " />
<glyph glyph-name="macron" unicode="&#xaf;" horiz-adv-x="500" d="M376 556 L376 641 C376 648 373 651 366 651 L138 651 C131 651 128 648 128 641 L128 556 C128 549 131 546 138 546 L366 546 C373 546 376 549 376 556 L376 556 Z " />
<glyph glyph-name="degree" unicode="&#xb0;" horiz-adv-x="230" d="M215 515 L215 544 C215 601 175 640 115 640 C55 640 15 601 15 544 L15 515 C15 458 54 420 115 420 C176 420 215 459 215 515 L215 515 Z M144 515 C144 500 131 487 115 487 C99 487 86 500 86 515 L86 544 C86 559 99 573 115 573 C131 573 144 559 144 544 L144 515 Z " />
<glyph glyph-name="plusminus" unicode="&#xb1;" horiz-adv-x="833" d="M367 597 L367 438 L124 438 L124 341 L367 341 L367 182 L466 182 L466 341 L709 341 L709 438 L466 438 L466 597 L367 597 Z M124 96 L124 -1 L709 -1 L709 96 L124 96 Z " />
<glyph glyph-name="twosuperior" unicode="&#xb2;" horiz-adv-x="335" d="M172 636 L149 636 C112 636 83 626 61 607 C40 587 32 569 32 565 C32 564 33 562 36 561 L92 535 L96 533 C101 533 103 542 112 554 C120 566 134 573 149 573 L172 573 C198 573 220 554 220 530 C220 503 198 489 159 468 C84 428 44 391 44 327 L44 258 C44 254 46 252 51 252 L284 252 C288 252 290 254 290 258 L290 309 C290 313 288 315 284 315 L127 315 C122 315 120 317 120 321 L120 327 C120 361 147 377 189 402 C256 440 295 468 295 530 C295 593 247 636 172 636 L172 636 Z " />
<glyph glyph-name="threesuperior" unicode="&#xb3;" horiz-adv-x="335" d="M290 357 L290 374 C290 388 284 406 273 421 C261 436 252 444 252 446 C252 449 261 457 275 473 C284 485 290 502 290 515 L290 524 C290 592 242 636 167 636 L149 636 C112 636 83 626 61 607 C40 587 32 569 32 565 C32 564 33 562 36 561 L92 535 L96 533 C101 533 103 542 112 554 C120 566 134 573 149 573 L167 573 C193 573 215 554 215 530 L215 521 C215 497 193 478 167 478 L108 478 C103 478 101 476 101 472 L101 421 C101 417 103 415 108 415 L167 415 C194 415 215 397 215 373 L215 352 C215 328 193 309 167 309 L149 309 C133 309 117 317 110 331 C104 343 102 349 97 349 C96 349 95 349 94 348 L36 322 C34 321 32 319 32 318 C32 312 41 294 62 274 C83 255 111 246 149 246 L167 246 C243 246 290 289 290 357 L290 357 Z " />
<glyph glyph-name="acute" unicode="&#xb4;" horiz-adv-x="500" d="M431 663 C434 666 435 668 435 671 C435 676 431 680 424 680 L298 680 L290 676 L193 529 C191 526 190 523 190 521 C190 516 194 513 201 513 L275 513 L282 516 L431 663 Z " />
<glyph glyph-name="mu" unicode="&#xb5;" horiz-adv-x="610" d="M100 533 L-31 -214 L109 -214 L153 43 C180 3 213 -16 257 -16 C303 -16 335 7 362 57 L353 0 L484 0 L578 533 L437 533 L393 282 C371 157 342 100 272 100 C216 100 189 129 189 190 C189 210 192 255 204 321 L241 533 L100 533 Z " />
<glyph glyph-name="paragraph" unicode="&#xb6;" horiz-adv-x="637" d="M570 -215 L570 620 C570 627 567 630 560 630 L239 630 C126 630 53 558 53 444 L53 262 C53 159 128 86 239 86 L243 86 C249 86 253 83 253 76 L253 -215 C253 -222 256 -225 263 -225 L358 -225 C365 -225 368 -222 368 -215 L368 515 C368 522 371 525 378 525 L445 525 C452 525 455 522 455 515 L455 -215 C455 -222 458 -225 465 -225 L560 -225 C567 -225 570 -222 570 -215 L570 -215 Z " />
<glyph glyph-name="periodcentered" unicode="&#xb7;" horiz-adv-x="230" d="M182 316 C182 352 151 383 115 383 C78 383 48 353 48 316 C48 279 78 249 115 249 C151 249 182 280 182 316 L182 316 Z " />
<glyph glyph-name="cedilla" unicode="&#xb8;" horiz-adv-x="500" d="M325 -122 L325 -114 C325 -89 312 -64 287 -42 C285 -40 284 -38 284 -36 C284 -34 285 -32 286 -30 L304 6 L205 6 L165 -82 C164 -84 163 -86 163 -88 C163 -93 167 -96 174 -96 L214 -96 C223 -96 232 -105 232 -114 L232 -122 C232 -130 224 -139 214 -139 L155 -139 C148 -139 145 -142 145 -149 L145 -215 C145 -222 148 -225 155 -225 L214 -225 C280 -225 325 -181 325 -122 L325 -122 Z " />
<glyph glyph-name="onesuperior" unicode="&#xb9;" horiz-adv-x="335" d="M292 258 L292 309 C292 313 289 315 285 315 L223 315 C218 315 216 317 216 321 L216 624 C216 628 214 630 210 630 L174 630 L170 628 L59 527 C57 526 57 524 57 523 C57 522 57 521 59 519 L100 482 C102 481 104 480 105 480 C106 480 108 481 110 482 L129 501 C131 503 133 503 135 503 C138 503 141 501 141 497 L141 321 C141 317 139 315 134 315 L72 315 C67 315 65 313 65 309 L65 258 C65 254 67 252 72 252 L285 252 C290 252 292 254 292 258 L292 258 Z " />
<glyph glyph-name="ordmasculine" unicode="&#xba;" horiz-adv-x="321" d="M296 424 L296 511 C296 587 242 640 161 640 C79 640 25 588 25 511 L25 424 C25 346 78 295 161 295 C243 295 296 347 296 424 L296 424 Z M206 424 C206 399 186 378 161 378 C135 378 116 398 116 424 L116 511 C116 536 135 556 161 556 C186 556 206 536 206 511 L206 424 Z " />
<glyph glyph-name="guillemotright" unicode="&#xbb;" horiz-adv-x="574" d="M526 245 L526 316 L522 324 L306 478 C303 480 300 481 298 481 C294 481 290 477 290 470 L290 381 L294 373 L412 289 C415 287 417 283 417 281 C417 278 415 275 412 273 L294 188 L290 180 L290 92 C290 85 293 81 298 81 C300 81 303 82 306 84 L522 237 L526 245 Z M295 245 L295 316 L291 324 L75 478 C72 480 69 481 67 481 C63 481 59 477 59 470 L59 381 L63 373 L180 289 C183 287 185 283 185 281 C185 278 183 275 180 273 L63 188 L59 180 L59 92 C59 85 62 81 67 81 C69 81 72 82 75 84 L291 237 L295 245 Z " />
<glyph glyph-name="onequarter" unicode="&#xbc;" horiz-adv-x="956" d="M278 283 L278 330 C278 334 276 336 272 336 L213 336 C209 336 207 337 207 341 L207 624 C207 628 204 630 200 630 L166 630 L162 628 L57 534 C55 532 54 531 54 530 C54 529 55 528 57 526 L96 492 C98 490 99 490 100 490 C101 490 103 490 105 492 L123 509 C125 511 127 512 129 512 C132 512 134 509 134 505 L134 341 C134 337 132 336 128 336 L69 336 C64 336 62 334 62 330 L62 283 C62 279 64 277 69 277 L272 277 C277 277 278 279 278 283 L278 283 Z M644 616 C645 618 646 620 646 622 C646 627 642 630 635 630 L581 630 C576 628 573 626 572 624 L311 14 C310 12 309 10 309 8 C309 3 313 0 320 0 L374 0 C379 1 382 4 383 6 L644 616 Z M940 83 L940 130 C940 134 937 136 933 136 L892 136 C888 136 886 138 886 142 L886 347 C886 351 884 353 880 353 L822 353 L817 351 L652 130 L652 83 C652 79 654 77 659 77 L807 77 C811 77 814 75 814 72 L814 6 C814 2 816 0 820 0 L880 0 C884 0 886 2 886 6 L886 72 C886 76 888 77 892 77 L933 77 C938 77 940 79 940 83 L940 83 Z M814 142 C814 138 812 136 807 136 L742 136 C738 136 736 138 736 141 C736 142 736 143 737 145 L802 232 C804 234 806 235 808 235 C811 235 814 232 814 228 L814 142 Z " />
<glyph glyph-name="onehalf" unicode="&#xbd;" horiz-adv-x="956" d="M278 283 L278 330 C278 334 276 336 272 336 L213 336 C209 336 207 337 207 341 L207 624 C207 628 204 630 200 630 L166 630 L162 628 L57 534 C55 532 54 531 54 530 C54 529 55 528 57 526 L96 492 C98 490 99 490 100 490 C101 490 103 490 105 492 L123 509 C125 511 127 512 129 512 C132 512 134 509 134 505 L134 341 C134 337 132 336 128 336 L69 336 C64 336 62 334 62 330 L62 283 C62 279 64 277 69 277 L272 277 C277 277 278 279 278 283 L278 283 Z M644 616 C645 618 646 620 646 622 C646 627 642 630 635 630 L581 630 C576 628 573 626 572 624 L311 14 C310 12 309 10 309 8 C309 3 313 0 320 0 L374 0 C379 1 382 4 383 6 L644 616 Z M800 358 L778 358 C742 358 715 349 695 332 C674 313 666 296 666 292 C666 291 667 290 670 288 L724 264 C726 263 727 263 728 263 C732 263 734 271 742 282 C751 293 764 300 778 300 L800 300 C825 300 846 282 846 259 C846 235 825 221 788 202 C716 164 678 129 678 70 L678 6 C678 2 680 0 685 0 L907 0 C911 0 913 2 913 6 L913 53 C913 57 911 59 907 59 L757 59 C753 59 751 60 751 64 L751 70 C751 102 776 117 817 140 C880 175 918 202 918 259 C918 319 872 358 800 358 L800 358 Z " />
<glyph glyph-name="threequarters" unicode="&#xbe;" horiz-adv-x="956" d="M277 375 L277 391 C277 404 272 421 261 434 C249 449 241 456 241 458 C241 461 249 469 262 484 C272 495 277 511 277 523 L277 531 C277 595 231 635 159 635 L142 635 C106 635 79 626 59 609 C38 590 30 573 30 569 C30 568 31 567 34 565 L88 541 C90 540 91 540 92 540 C96 540 98 548 106 559 C115 570 128 577 142 577 L159 577 C184 577 205 559 205 536 L205 528 C205 506 184 488 159 488 L103 488 C98 488 96 486 96 483 L96 435 C96 431 98 429 103 429 L159 429 C185 429 205 412 205 390 L205 371 C205 348 184 330 159 330 L142 330 C127 330 112 338 105 350 C99 362 97 367 93 367 L89 367 L35 343 C32 341 31 340 31 339 C31 333 39 316 59 298 C79 280 106 271 142 271 L159 271 C232 271 277 311 277 375 L277 375 Z M644 616 C645 618 646 620 646 622 C646 627 642 630 635 630 L581 630 C576 628 573 626 572 624 L311 14 C310 12 309 10 309 8 C309 3 313 0 320 0 L374 0 C379 1 382 4 383 6 L644 616 Z M940 83 L940 130 C940 134 937 136 933 136 L892 136 C888 136 886 138 886 142 L886 347 C886 351 884 353 880 353 L822 353 L817 351 L652 130 L652 83 C652 79 654 77 659 77 L807 77 C811 77 814 75 814 72 L814 6 C814 2 816 0 820 0 L880 0 C884 0 886 2 886 6 L886 72 C886 76 888 77 892 77 L933 77 C938 77 940 79 940 83 L940 83 Z M814 142 C814 138 812 136 807 136 L742 136 C738 136 736 138 736 141 C736 142 736 143 737 145 L802 232 C804 234 806 235 808 235 C811 235 814 232 814 228 L814 142 Z " />
<glyph glyph-name="questiondown" unicode="&#xbf;" horiz-adv-x="507" d="M349 401 C349 437 318 468 282 468 C246 468 215 438 215 401 C215 364 245 334 282 334 C319 334 349 365 349 401 L349 401 Z M452 -57 L365 -13 C363 -12 361 -11 359 -11 C353 -11 350 -18 343 -30 C325 -60 308 -76 279 -76 L243 -76 C202 -76 171 -46 171 -5 C171 45 211 61 274 93 C331 122 356 161 356 219 C356 265 352 286 340 286 L244 286 C236 286 234 284 234 277 C234 263 241 248 241 232 C241 187 200 179 157 156 C85 118 57 76 57 -5 C57 -111 129 -181 243 -181 L279 -181 C335 -181 378 -166 409 -135 C444 -101 458 -73 458 -64 C458 -61 456 -59 452 -57 L452 -57 Z " />
<glyph glyph-name="Agrave" unicode="&#xc0;" horiz-adv-x="450" d="M457 13 L271 623 C269 628 266 630 261 630 L189 630 C183 630 181 628 179 623 L-7 13 C-7 11 -8 10 -8 9 C-8 3 -4 0 3 0 L103 0 C108 0 112 2 113 7 L143 112 C144 117 147 118 153 118 L296 118 C302 118 305 117 306 112 L336 7 C337 2 340 0 346 0 L447 0 C454 0 458 3 458 9 C458 10 457 11 457 13 L457 13 Z M271 236 C271 235 272 233 272 232 C272 226 268 223 261 223 L188 223 C181 223 177 226 177 232 C177 233 178 235 178 236 L212 368 C213 374 217 392 224 423 L227 423 C233 392 237 374 238 368 L271 236 Z M288 701 L192 848 L184 853 L58 853 C51 853 47 850 47 845 C47 842 48 839 51 836 L200 689 L207 686 L280 686 C286 686 290 689 290 694 C290 696 290 699 288 701 L288 701 Z " />
<glyph glyph-name="Aacute" unicode="&#xc1;" horiz-adv-x="450" d="M457 13 L271 623 C269 628 266 630 261 630 L189 630 C183 630 181 628 179 623 L-7 13 C-7 11 -8 10 -8 9 C-8 3 -4 0 3 0 L103 0 C108 0 112 2 113 7 L143 112 C144 117 147 118 153 118 L296 118 C302 118 305 117 306 112 L336 7 C337 2 340 0 346 0 L447 0 C454 0 458 3 458 9 C458 10 457 11 457 13 L457 13 Z M271 236 C271 235 272 233 272 232 C272 226 268 223 261 223 L188 223 C181 223 177 226 177 232 C177 233 178 235 178 236 L212 368 C213 374 217 392 224 423 L227 423 C233 392 237 374 238 368 L271 236 Z M407 835 C410 838 411 840 411 843 C411 848 407 852 400 852 L274 852 L266 848 L169 701 C167 698 166 695 166 693 C166 688 170 685 177 685 L251 685 L258 688 L407 835 Z " />
<glyph glyph-name="Acircumflex" unicode="&#xc2;" horiz-adv-x="450" d="M457 13 L271 623 C269 628 266 630 261 630 L189 630 C183 630 181 628 179 623 L-7 13 C-7 11 -8 10 -8 9 C-8 3 -4 0 3 0 L103 0 C108 0 112 2 113 7 L143 112 C144 117 147 118 153 118 L296 118 C302 118 305 117 306 112 L336 7 C337 2 340 0 346 0 L447 0 C454 0 458 3 458 9 C458 10 457 11 457 13 L457 13 Z M271 236 C271 235 272 233 272 232 C272 226 268 223 261 223 L188 223 C181 223 177 226 177 232 C177 233 178 235 178 236 L212 368 C213 374 217 392 224 423 L227 423 C233 392 237 374 238 368 L271 236 Z M364 701 L259 848 L251 852 L202 852 L194 848 L90 701 C88 698 87 695 87 693 C87 689 91 685 98 685 L179 685 L187 690 L219 741 C222 745 225 747 227 747 C229 747 232 745 234 741 L267 690 L275 685 L356 685 C363 685 367 688 367 693 C367 695 366 698 364 701 L364 701 Z " />
<glyph glyph-name="Atilde" unicode="&#xc3;" horiz-adv-x="450" d="M457 13 L271 623 C269 628 266 630 261 630 L189 630 C183 630 181 628 179 623 L-7 13 C-7 11 -8 10 -8 9 C-8 3 -4 0 3 0 L103 0 C108 0 112 2 113 7 L143 112 C144 117 147 118 153 118 L296 118 C302 118 305 117 306 112 L336 7 C337 2 340 0 346 0 L447 0 C454 0 458 3 458 9 C458 10 457 11 457 13 L457 13 Z M271 236 C271 235 272 233 272 232 C272 226 268 223 261 223 L188 223 C181 223 177 226 177 232 C177 233 178 235 178 236 L212 368 C213 374 217 392 224 423 L227 423 C233 392 237 374 238 368 L271 236 Z M384 779 C385 781 385 783 385 784 C385 788 384 790 381 792 L341 824 C339 826 336 827 334 827 C324 827 313 787 283 787 C273 787 264 791 255 798 L238 810 C214 827 193 836 170 836 C140 836 116 821 93 792 C75 769 68 754 68 749 C68 747 70 744 73 742 L115 711 C117 710 119 709 121 709 C131 709 143 745 170 745 C179 745 187 742 195 735 L213 725 C239 705 262 695 283 695 C321 695 355 723 384 779 L384 779 Z " />
<glyph glyph-name="Adieresis" unicode="&#xc4;" horiz-adv-x="450" d="M457 13 L271 623 C269 628 266 630 261 630 L189 630 C183 630 181 628 179 623 L-7 13 C-7 11 -8 10 -8 9 C-8 3 -4 0 3 0 L103 0 C108 0 112 2 113 7 L143 112 C144 117 147 118 153 118 L296 118 C302 118 305 117 306 112 L336 7 C337 2 340 0 346 0 L447 0 C454 0 458 3 458 9 C458 10 457 11 457 13 L457 13 Z M271 236 C271 235 272 233 272 232 C272 226 268 223 261 223 L188 223 C181 223 177 226 177 232 C177 233 178 235 178 236 L212 368 C213 374 217 392 224 423 L227 423 C233 392 237 374 238 368 L271 236 Z M372 762 C372 797 345 824 310 824 C275 824 248 797 248 762 C248 726 274 700 310 700 C345 700 372 727 372 762 L372 762 Z M203 762 C203 797 176 824 141 824 C106 824 79 797 79 762 C79 726 105 700 141 700 C176 700 203 727 203 762 L203 762 Z " />
<glyph glyph-name="Aring" unicode="&#xc5;" horiz-adv-x="450" d="M326 773 L326 802 C326 859 287 897 226 897 C165 897 126 859 126 802 L126 773 C126 716 165 678 226 678 C287 678 326 716 326 773 L326 773 Z M255 773 C255 758 242 745 226 745 C210 745 197 758 197 773 L197 802 C197 817 210 831 226 831 C242 831 255 816 255 802 L255 773 Z M457 13 L271 623 C269 628 266 630 261 630 L189 630 C183 630 181 628 179 623 L-7 13 C-7 11 -8 10 -8 9 C-8 3 -4 0 3 0 L103 0 C108 0 112 2 113 7 L143 112 C144 117 147 118 153 118 L296 118 C302 118 305 117 306 112 L336 7 C337 2 340 0 346 0 L447 0 C454 0 458 3 458 9 C458 10 457 11 457 13 L457 13 Z M271 236 C271 235 272 233 272 232 C272 226 268 223 261 223 L188 223 C181 223 177 226 177 232 C177 233 178 235 178 236 L212 368 C213 374 217 392 224 423 L227 423 C233 392 237 374 238 368 L271 236 Z " />
<glyph glyph-name="AE" unicode="&#xc6;" horiz-adv-x="686" d="M648 10 L648 95 C648 102 645 105 638 105 L400 105 C393 105 390 108 390 115 L390 257 C390 264 393 267 400 267 L595 267 C602 267 605 270 605 277 L605 362 C605 369 602 372 595 372 L400 372 C393 372 390 375 390 382 L390 515 C390 522 393 525 400 525 L638 525 C645 525 648 528 648 535 L648 620 C648 627 645 630 638 630 L299 630 L290 625 L-70 15 C-71 12 -72 10 -72 8 C-72 3 -68 0 -61 0 L41 0 L50 5 L122 134 L132 138 L265 138 C271 138 275 134 275 128 L275 10 C275 3 278 0 285 0 L638 0 C645 0 648 3 648 10 L648 10 Z M281 416 C277 372 275 331 275 293 L275 253 C275 246 272 243 265 243 L204 243 C197 243 193 246 193 251 C193 253 194 255 195 258 L254 366 C259 374 266 391 277 417 L281 416 Z " />
<glyph glyph-name="Ccedilla" unicode="&#xc7;" horiz-adv-x="484" d="M345 -122 L345 -114 C345 -89 332 -64 307 -42 C305 -40 304 -38 304 -36 C304 -34 305 -32 306 -30 L316 -9 C362 -3 396 13 421 41 C452 76 465 101 465 110 C465 114 463 116 459 118 L372 161 C370 162 369 162 367 162 C362 162 358 155 352 143 C335 111 317 95 288 95 L239 95 C199 95 167 127 167 167 L167 463 C167 503 199 535 239 535 L288 535 C317 535 336 518 353 487 C359 476 361 470 367 470 C368 470 370 470 372 471 L459 514 C463 516 465 518 465 522 C465 533 441 578 401 607 C370 630 333 640 288 640 L239 640 C127 640 53 569 53 463 L53 167 C53 68 113 2 218 -9 L185 -82 C184 -84 183 -86 183 -88 C183 -93 187 -96 194 -96 L234 -96 C243 -96 252 -105 252 -114 L252 -122 C252 -130 244 -139 234 -139 L175 -139 C168 -139 165 -142 165 -149 L165 -215 C165 -222 168 -225 175 -225 L234 -225 C300 -225 345 -181 345 -122 L345 -122 Z " />
<glyph glyph-name="Egrave" unicode="&#xc8;" horiz-adv-x="478" d="M440 10 L440 95 C440 102 436 105 430 105 L192 105 C185 105 182 108 182 115 L182 257 C182 264 185 267 192 267 L387 267 C394 267 397 270 397 277 L397 362 C397 369 394 372 387 372 L192 372 C185 372 182 375 182 382 L182 515 C182 522 185 525 192 525 L430 525 C437 525 440 528 440 535 L440 620 C440 627 436 630 430 630 L77 630 C70 630 67 627 67 620 L67 10 C67 3 70 0 77 0 L430 0 C437 0 440 3 440 10 L440 10 Z M318 701 L222 848 L214 853 L88 853 C81 853 77 850 77 845 C77 842 78 839 81 836 L230 689 L237 686 L310 686 C316 686 320 689 320 694 C320 696 320 699 318 701 L318 701 Z " />
<glyph glyph-name="Eacute" unicode="&#xc9;" horiz-adv-x="478" d="M440 10 L440 95 C440 102 436 105 430 105 L192 105 C185 105 182 108 182 115 L182 257 C182 264 185 267 192 267 L387 267 C394 267 397 270 397 277 L397 362 C397 369 394 372 387 372 L192 372 C185 372 182 375 182 382 L182 515 C182 522 185 525 192 525 L430 525 C437 525 440 528 440 535 L440 620 C440 627 436 630 430 630 L77 630 C70 630 67 627 67 620 L67 10 C67 3 70 0 77 0 L430 0 C437 0 440 3 440 10 L440 10 Z M437 835 C440 838 441 840 441 843 C441 848 437 852 430 852 L304 852 L296 848 L199 701 C197 698 196 695 196 693 C196 688 200 685 207 685 L281 685 L288 688 L437 835 Z " />
<glyph glyph-name="Ecircumflex" unicode="&#xca;" horiz-adv-x="478" d="M440 10 L440 95 C440 102 436 105 430 105 L192 105 C185 105 182 108 182 115 L182 257 C182 264 185 267 192 267 L387 267 C394 267 397 270 397 277 L397 362 C397 369 394 372 387 372 L192 372 C185 372 182 375 182 382 L182 515 C182 522 185 525 192 525 L430 525 C437 525 440 528 440 535 L440 620 C440 627 436 630 430 630 L77 630 C70 630 67 627 67 620 L67 10 C67 3 70 0 77 0 L430 0 C437 0 440 3 440 10 L440 10 Z M394 701 L289 848 L281 852 L232 852 L224 848 L120 701 C118 698 117 695 117 693 C117 689 121 685 128 685 L209 685 L217 690 L249 741 C252 745 255 747 257 747 C259 747 262 745 264 741 L297 690 L305 685 L386 685 C393 685 397 688 397 693 C397 695 396 698 394 701 L394 701 Z " />
<glyph glyph-name="Edieresis" unicode="&#xcb;" horiz-adv-x="478" d="M440 10 L440 95 C440 102 436 105 430 105 L192 105 C185 105 182 108 182 115 L182 257 C182 264 185 267 192 267 L387 267 C394 267 397 270 397 277 L397 362 C397 369 394 372 387 372 L192 372 C185 372 182 375 182 382 L182 515 C182 522 185 525 192 525 L430 525 C437 525 440 528 440 535 L440 620 C440 627 436 630 430 630 L77 630 C70 630 67 627 67 620 L67 10 C67 3 70 0 77 0 L430 0 C437 0 440 3 440 10 L440 10 Z M402 762 C402 797 375 824 340 824 C305 824 278 797 278 762 C278 726 304 700 340 700 C375 700 402 727 402 762 L402 762 Z M233 762 C233 797 206 824 171 824 C136 824 109 797 109 762 C109 726 135 700 171 700 C206 700 233 727 233 762 L233 762 Z " />
<glyph glyph-name="Igrave" unicode="&#xcc;" horiz-adv-x="249" d="M182 10 L182 620 C182 627 178 630 172 630 L77 630 C70 630 67 627 67 620 L67 10 C67 3 70 0 77 0 L172 0 C179 0 182 3 182 10 L182 10 Z M187 701 L91 848 L83 853 L-43 853 C-50 853 -54 850 -54 845 C-54 842 -53 839 -50 836 L99 689 L106 686 L179 686 C185 686 189 689 189 694 C189 696 189 699 187 701 L187 701 Z " />
<glyph glyph-name="Iacute" unicode="&#xcd;" horiz-adv-x="249" d="M182 10 L182 620 C182 627 178 630 172 630 L77 630 C70 630 67 627 67 620 L67 10 C67 3 70 0 77 0 L172 0 C179 0 182 3 182 10 L182 10 Z M306 835 C309 838 310 840 310 843 C310 848 306 852 299 852 L173 852 L165 848 L68 701 C66 698 65 695 65 693 C65 688 69 685 76 685 L150 685 L157 688 L306 835 Z " />
<glyph glyph-name="Icircumflex" unicode="&#xce;" horiz-adv-x="249" d="M182 10 L182 620 C182 627 178 630 172 630 L77 630 C70 630 67 627 67 620 L67 10 C67 3 70 0 77 0 L172 0 C179 0 182 3 182 10 L182 10 Z M263 701 L158 848 L150 852 L101 852 L93 848 L-11 701 C-13 698 -14 695 -14 693 C-14 689 -10 685 -3 685 L78 685 L86 690 L118 741 C121 745 124 747 126 747 C128 747 131 745 133 741 L166 690 L174 685 L255 685 C262 685 266 688 266 693 C266 695 265 698 263 701 L263 701 Z " />
<glyph glyph-name="Idieresis" unicode="&#xcf;" horiz-adv-x="249" d="M182 10 L182 620 C182 627 178 630 172 630 L77 630 C70 630 67 627 67 620 L67 10 C67 3 70 0 77 0 L172 0 C179 0 182 3 182 10 L182 10 Z M271 762 C271 797 244 824 209 824 C174 824 147 797 147 762 C147 726 173 700 209 700 C244 700 271 727 271 762 L271 762 Z M102 762 C102 797 75 824 40 824 C5 824 -22 797 -22 762 C-22 726 4 700 40 700 C75 700 102 727 102 762 L102 762 Z " />
<glyph glyph-name="Eth" unicode="&#xd0;" horiz-adv-x="521" d="M468 186 L468 444 C468 558 396 630 282 630 L77 630 C70 630 67 627 67 620 L67 382 C67 375 64 372 57 372 L28 372 C21 372 18 369 18 362 L18 268 C18 261 21 258 28 258 L57 258 C63 258 67 255 67 248 L67 10 C67 3 70 0 77 0 L282 0 C397 0 468 72 468 186 L468 186 Z M354 177 C354 136 322 105 282 105 L192 105 C185 105 182 108 182 115 L182 248 C182 255 185 258 192 258 L272 258 C279 258 282 261 282 268 L282 362 C282 369 279 372 272 372 L192 372 C185 372 182 375 182 382 L182 515 C182 522 185 525 192 525 L282 525 C322 525 354 492 354 453 L354 177 Z " />
<glyph glyph-name="Ntilde" unicode="&#xd1;" horiz-adv-x="550" d="M482 10 L482 620 C482 627 478 630 472 630 L380 630 C373 630 370 627 370 620 L374 219 L170 625 L161 630 L77 630 C70 630 67 627 67 620 L67 10 C67 3 70 0 77 0 L170 0 C177 0 180 3 180 10 L175 407 L380 5 L389 0 L472 0 C479 0 482 3 482 10 L482 10 Z M434 779 C435 781 435 783 435 784 C435 788 434 790 431 792 L391 824 C389 826 386 827 384 827 C374 827 363 787 333 787 C323 787 314 791 305 798 L288 810 C264 827 243 836 220 836 C190 836 166 821 143 792 C125 769 118 754 118 749 C118 747 120 744 123 742 L165 711 C167 710 169 709 171 709 C181 709 193 745 220 745 C229 745 237 742 245 735 L263 725 C289 705 312 695 333 695 C371 695 405 723 434 779 L434 779 Z " />
<glyph glyph-name="Ograve" unicode="&#xd2;" horiz-adv-x="527" d="M474 167 L474 463 C474 569 400 640 288 640 L239 640 C127 640 53 569 53 463 L53 167 C53 61 126 -10 239 -10 L288 -10 C400 -10 474 61 474 167 L474 167 Z M359 167 C359 126 328 95 288 95 L239 95 C199 95 167 127 167 167 L167 463 C167 503 199 535 239 535 L288 535 C328 535 359 504 359 463 L359 167 Z M326 701 L230 848 L222 853 L96 853 C89 853 85 850 85 845 C85 842 86 839 89 836 L238 689 L245 686 L318 686 C324 686 328 689 328 694 C328 696 328 699 326 701 L326 701 Z " />
<glyph glyph-name="Oacute" unicode="&#xd3;" horiz-adv-x="527" d="M474 167 L474 463 C474 569 400 640 288 640 L239 640 C127 640 53 569 53 463 L53 167 C53 61 126 -10 239 -10 L288 -10 C400 -10 474 61 474 167 L474 167 Z M359 167 C359 126 328 95 288 95 L239 95 C199 95 167 127 167 167 L167 463 C167 503 199 535 239 535 L288 535 C328 535 359 504 359 463 L359 167 Z M445 835 C448 838 449 840 449 843 C449 848 445 852 438 852 L312 852 L304 848 L207 701 C205 698 204 695 204 693 C204 688 208 685 215 685 L289 685 L296 688 L445 835 Z " />
<glyph glyph-name="Ocircumflex" unicode="&#xd4;" horiz-adv-x="527" d="M474 167 L474 463 C474 569 400 640 288 640 L239 640 C127 640 53 569 53 463 L53 167 C53 61 126 -10 239 -10 L288 -10 C400 -10 474 61 474 167 L474 167 Z M359 167 C359 126 328 95 288 95 L239 95 C199 95 167 127 167 167 L167 463 C167 503 199 535 239 535 L288 535 C328 535 359 504 359 463 L359 167 Z M402 701 L297 848 L289 852 L240 852 L232 848 L128 701 C126 698 125 695 125 693 C125 689 129 685 136 685 L217 685 L225 690 L257 741 C260 745 263 747 265 747 C267 747 270 745 272 741 L305 690 L313 685 L394 685 C401 685 405 688 405 693 C405 695 404 698 402 701 L402 701 Z " />
<glyph glyph-name="Otilde" unicode="&#xd5;" horiz-adv-x="527" d="M474 167 L474 463 C474 569 400 640 288 640 L239 640 C127 640 53 569 53 463 L53 167 C53 61 126 -10 239 -10 L288 -10 C400 -10 474 61 474 167 L474 167 Z M359 167 C359 126 328 95 288 95 L239 95 C199 95 167 127 167 167 L167 463 C167 503 199 535 239 535 L288 535 C328 535 359 504 359 463 L359 167 Z M422 779 C423 781 423 783 423 784 C423 788 422 790 419 792 L379 824 C377 826 374 827 372 827 C362 827 351 787 321 787 C311 787 302 791 293 798 L276 810 C252 827 231 836 208 836 C178 836 154 821 131 792 C113 769 106 754 106 749 C106 747 108 744 111 742 L153 711 C155 710 157 709 159 709 C169 709 181 745 208 745 C217 745 225 742 233 735 L251 725 C277 705 300 695 321 695 C359 695 393 723 422 779 L422 779 Z " />
<glyph glyph-name="Odieresis" unicode="&#xd6;" horiz-adv-x="527" d="M474 167 L474 463 C474 569 400 640 288 640 L239 640 C127 640 53 569 53 463 L53 167 C53 61 126 -10 239 -10 L288 -10 C400 -10 474 61 474 167 L474 167 Z M359 167 C359 126 328 95 288 95 L239 95 C199 95 167 127 167 167 L167 463 C167 503 199 535 239 535 L288 535 C328 535 359 504 359 463 L359 167 Z M410 762 C410 797 383 824 348 824 C313 824 286 797 286 762 C286 726 312 700 348 700 C383 700 410 727 410 762 L410 762 Z M241 762 C241 797 214 824 179 824 C144 824 117 797 117 762 C117 726 143 700 179 700 C214 700 241 727 241 762 L241 762 Z " />
<glyph glyph-name="multiply" unicode="&#xd7;" horiz-adv-x="833" d="M203 587 L135 519 L355 298 L135 78 L203 10 L423 230 L643 10 L712 78 L492 298 L712 519 L643 587 L423 367 L203 587 Z " />
<glyph glyph-name="Oslash" unicode="&#xd8;" horiz-adv-x="527" d="M474 167 L474 463 C474 569 400 640 288 640 L239 640 C127 640 53 569 53 463 L53 167 C53 61 126 -10 239 -10 L288 -10 C400 -10 474 61 474 167 L474 167 Z M323 516 L186 244 C184 239 180 236 176 236 C171 236 167 241 167 248 L167 463 C167 503 199 535 239 535 L288 535 C311 535 324 528 324 520 C324 518 323 517 323 516 L323 516 Z M359 167 C359 126 328 95 288 95 L239 95 C215 95 198 105 198 115 C198 117 199 120 200 123 L343 410 C346 417 350 420 353 420 C356 420 359 418 359 414 L359 167 Z " />
<glyph glyph-name="Ugrave" unicode="&#xd9;" horiz-adv-x="527" d="M474 167 L474 620 C474 627 471 630 464 630 L369 630 C362 630 359 627 359 620 L359 167 C359 126 328 95 288 95 L239 95 C199 95 167 127 167 167 L167 620 C167 627 163 630 157 630 L63 630 C56 630 53 627 53 620 L53 167 C53 61 126 -10 239 -10 L288 -10 C400 -10 474 61 474 167 L474 167 Z M326 701 L230 848 L222 853 L96 853 C89 853 85 850 85 845 C85 842 86 839 89 836 L238 689 L245 686 L318 686 C324 686 328 689 328 694 C328 696 328 699 326 701 L326 701 Z " />
<glyph glyph-name="Uacute" unicode="&#xda;" horiz-adv-x="527" d="M474 167 L474 620 C474 627 471 630 464 630 L369 630 C362 630 359 627 359 620 L359 167 C359 126 328 95 288 95 L239 95 C199 95 167 127 167 167 L167 620 C167 627 163 630 157 630 L63 630 C56 630 53 627 53 620 L53 167 C53 61 126 -10 239 -10 L288 -10 C400 -10 474 61 474 167 L474 167 Z M445 835 C448 838 449 840 449 843 C449 848 445 852 438 852 L312 852 L304 848 L207 701 C205 698 204 695 204 693 C204 688 208 685 215 685 L289 685 L296 688 L445 835 Z " />
<glyph glyph-name="Ucircumflex" unicode="&#xdb;" horiz-adv-x="527" d="M474 167 L474 620 C474 627 471 630 464 630 L369 630 C362 630 359 627 359 620 L359 167 C359 126 328 95 288 95 L239 95 C199 95 167 127 167 167 L167 620 C167 627 163 630 157 630 L63 630 C56 630 53 627 53 620 L53 167 C53 61 126 -10 239 -10 L288 -10 C400 -10 474 61 474 167 L474 167 Z M402 701 L297 848 L289 852 L240 852 L232 848 L128 701 C126 698 125 695 125 693 C125 689 129 685 136 685 L217 685 L225 690 L257 741 C260 745 263 747 265 747 C267 747 270 745 272 741 L305 690 L313 685 L394 685 C401 685 405 688 405 693 C405 695 404 698 402 701 L402 701 Z " />
<glyph glyph-name="Udieresis" unicode="&#xdc;" horiz-adv-x="527" d="M474 167 L474 620 C474 627 471 630 464 630 L369 630 C362 630 359 627 359 620 L359 167 C359 126 328 95 288 95 L239 95 C199 95 167 127 167 167 L167 620 C167 627 163 630 157 630 L63 630 C56 630 53 627 53 620 L53 167 C53 61 126 -10 239 -10 L288 -10 C400 -10 474 61 474 167 L474 167 Z M410 762 C410 797 383 824 348 824 C313 824 286 797 286 762 C286 726 312 700 348 700 C383 700 410 727 410 762 L410 762 Z M241 762 C241 797 214 824 179 824 C144 824 117 797 117 762 C117 726 143 700 179 700 C214 700 241 727 241 762 L241 762 Z " />
<glyph glyph-name="Yacute" unicode="&#xdd;" horiz-adv-x="450" d="M457 615 C458 618 459 620 459 622 C459 627 455 630 448 630 L338 630 L329 624 L234 428 C232 423 228 421 225 421 C222 421 218 423 216 428 L121 624 L112 630 L1 630 C-6 630 -10 627 -10 622 C-10 620 -9 618 -8 615 L167 287 L167 10 C167 3 170 0 177 0 L272 0 C279 0 282 3 282 10 L282 287 L457 615 Z M407 835 C410 838 411 840 411 843 C411 848 407 852 400 852 L274 852 L266 848 L169 701 C167 698 166 695 166 693 C166 688 170 685 177 685 L251 685 L258 688 L407 835 Z " />
<glyph glyph-name="Thorn" unicode="&#xde;" horiz-adv-x="483" d="M282 544 L192 544 C185 544 182 547 182 554 L182 620 C182 627 178 630 172 630 L77 630 C70 630 67 627 67 620 L67 10 C67 3 70 0 77 0 L172 0 C179 0 182 3 182 10 L182 171 C182 178 185 181 192 181 L282 181 C393 181 468 255 468 358 C468 471 396 544 282 544 L282 544 Z M354 359 C354 319 322 287 282 287 L192 287 C185 287 182 290 182 297 L182 430 C182 437 185 440 192 440 L282 440 C322 440 354 407 354 368 L354 359 Z " />
<glyph glyph-name="germandbls" unicode="&#xdf;" horiz-adv-x="491" d="M444 175 L444 199 C444 223 435 252 419 275 C400 302 387 315 387 319 C387 323 400 337 421 365 C435 384 444 411 444 434 L444 453 C444 566 369 640 264 640 C208 640 160 621 127 585 C91 547 72 500 72 453 L72 425 C72 418 69 415 62 415 L39 415 C32 415 29 412 29 405 L29 320 C29 313 32 310 39 310 L62 310 C69 310 72 307 72 300 L72 10 C72 3 75 0 82 0 L176 0 C183 0 186 3 186 10 L186 463 C186 504 216 535 258 535 C298 535 329 503 329 463 L329 444 C329 412 308 385 280 379 C254 373 243 375 243 363 L243 276 C243 264 254 266 281 260 C308 254 329 227 329 196 L329 167 C329 135 308 108 281 102 C254 96 243 98 243 86 L243 0 C243 -9 249 -10 264 -10 C362 -10 444 63 444 175 L444 175 Z " />
<glyph glyph-name="agrave" unicode="&#xe0;" horiz-adv-x="473" d="M416 10 L416 292 C416 398 342 468 229 468 C175 468 132 454 102 425 C68 392 54 360 54 352 C54 350 56 347 60 345 L142 302 C144 301 146 300 148 300 C156 300 160 315 174 333 C189 352 211 363 229 363 C270 363 297 337 301 296 L302 284 L302 282 C302 276 298 273 292 273 L196 273 C113 273 55 218 55 139 L55 134 C55 57 113 0 196 0 L234 0 C270 0 293 19 304 19 C313 19 306 0 321 0 L406 0 C413 0 416 3 416 10 L416 10 Z M302 177 C301 166 301 161 301 161 C288 124 265 105 234 105 L196 105 C180 105 169 117 169 134 L169 149 C169 164 181 177 196 177 L302 177 Z M298 529 L202 676 L194 681 L68 681 C61 681 57 678 57 673 C57 670 58 667 61 664 L210 517 L217 514 L290 514 C296 514 300 517 300 522 C300 524 300 527 298 529 L298 529 Z " />
<glyph glyph-name="aacute" unicode="&#xe1;" horiz-adv-x="473" d="M416 10 L416 292 C416 398 342 468 229 468 C175 468 132 454 102 425 C68 392 54 360 54 352 C54 350 56 347 60 345 L142 302 C144 301 146 300 148 300 C156 300 160 315 174 333 C189 352 211 363 229 363 C270 363 297 337 301 296 L302 284 L302 282 C302 276 298 273 292 273 L196 273 C113 273 55 218 55 139 L55 134 C55 57 113 0 196 0 L234 0 C270 0 293 19 304 19 C313 19 306 0 321 0 L406 0 C413 0 416 3 416 10 L416 10 Z M302 177 C301 166 301 161 301 161 C288 124 265 105 234 105 L196 105 C180 105 169 117 169 134 L169 149 C169 164 181 177 196 177 L302 177 Z M417 663 C420 666 421 668 421 671 C421 676 417 680 410 680 L284 680 L276 676 L179 529 C177 526 176 523 176 521 C176 516 180 513 187 513 L261 513 L268 516 L417 663 Z " />
<glyph glyph-name="acircumflex" unicode="&#xe2;" horiz-adv-x="473" d="M416 10 L416 292 C416 398 342 468 229 468 C175 468 132 454 102 425 C68 392 54 360 54 352 C54 350 56 347 60 345 L142 302 C144 301 146 300 148 300 C156 300 160 315 174 333 C189 352 211 363 229 363 C270 363 297 337 301 296 L302 284 L302 282 C302 276 298 273 292 273 L196 273 C113 273 55 218 55 139 L55 134 C55 57 113 0 196 0 L234 0 C270 0 293 19 304 19 C313 19 306 0 321 0 L406 0 C413 0 416 3 416 10 L416 10 Z M302 177 C301 166 301 161 301 161 C288 124 265 105 234 105 L196 105 C180 105 169 117 169 134 L169 149 C169 164 181 177 196 177 L302 177 Z M374 529 L269 676 L261 680 L212 680 L204 676 L100 529 C98 526 97 523 97 521 C97 517 101 513 108 513 L189 513 L197 518 L229 569 C232 573 235 575 237 575 C239 575 242 573 244 569 L277 518 L285 513 L366 513 C373 513 377 516 377 521 C377 523 376 526 374 529 L374 529 Z " />
<glyph glyph-name="atilde" unicode="&#xe3;" horiz-adv-x="473" d="M416 10 L416 292 C416 398 342 468 229 468 C175 468 132 454 102 425 C68 392 54 360 54 352 C54 350 56 347 60 345 L142 302 C144 301 146 300 148 300 C156 300 160 315 174 333 C189 352 211 363 229 363 C270 363 297 337 301 296 L302 284 L302 282 C302 276 298 273 292 273 L196 273 C113 273 55 218 55 139 L55 134 C55 57 113 0 196 0 L234 0 C270 0 293 19 304 19 C313 19 306 0 321 0 L406 0 C413 0 416 3 416 10 L416 10 Z M302 177 C301 166 301 161 301 161 C288 124 265 105 234 105 L196 105 C180 105 169 117 169 134 L169 149 C169 164 181 177 196 177 L302 177 Z M394 607 C395 609 395 611 395 612 C395 616 394 618 391 620 L351 652 C349 654 346 655 344 655 C334 655 323 615 293 615 C283 615 274 619 265 626 L248 638 C224 655 203 664 180 664 C150 664 126 649 103 620 C85 597 78 582 78 577 C78 575 80 572 83 570 L125 539 C127 538 129 537 131 537 C141 537 153 573 180 573 C189 573 197 570 205 563 L223 553 C249 533 272 523 293 523 C331 523 365 551 394 607 L394 607 Z " />
<glyph glyph-name="adieresis" unicode="&#xe4;" horiz-adv-x="473" d="M416 10 L416 292 C416 398 342 468 229 468 C175 468 132 454 102 425 C68 392 54 360 54 352 C54 350 56 347 60 345 L142 302 C144 301 146 300 148 300 C156 300 160 315 174 333 C189 352 211 363 229 363 C270 363 297 337 301 296 L302 284 L302 282 C302 276 298 273 292 273 L196 273 C113 273 55 218 55 139 L55 134 C55 57 113 0 196 0 L234 0 C270 0 293 19 304 19 C313 19 306 0 321 0 L406 0 C413 0 416 3 416 10 L416 10 Z M302 177 C301 166 301 161 301 161 C288 124 265 105 234 105 L196 105 C180 105 169 117 169 134 L169 149 C169 164 181 177 196 177 L302 177 Z M382 590 C382 625 355 652 320 652 C285 652 258 625 258 590 C258 554 284 528 320 528 C355 528 382 555 382 590 L382 590 Z M213 590 C213 625 186 652 151 652 C116 652 89 625 89 590 C89 554 115 528 151 528 C186 528 213 555 213 590 L213 590 Z " />
<glyph glyph-name="aring" unicode="&#xe5;" horiz-adv-x="473" d="M416 10 L416 292 C416 398 342 468 229 468 C175 468 132 454 102 425 C68 392 54 360 54 352 C54 350 56 347 60 345 L142 302 C144 301 146 300 148 300 C156 300 160 315 174 333 C189 352 211 363 229 363 C270 363 297 337 301 296 L302 284 L302 282 C302 276 298 273 292 273 L196 273 C113 273 55 218 55 139 L55 134 C55 57 113 0 196 0 L234 0 C270 0 293 19 304 19 C313 19 306 0 321 0 L406 0 C413 0 416 3 416 10 L416 10 Z M302 177 C301 166 301 161 301 161 C288 124 265 105 234 105 L196 105 C180 105 169 117 169 134 L169 149 C169 164 181 177 196 177 L302 177 Z M336 609 L336 638 C336 694 297 733 236 733 C175 733 136 695 136 638 L136 609 C136 552 175 514 236 514 C297 514 336 553 336 609 L336 609 Z M265 609 C265 595 252 581 236 581 C220 581 207 594 207 609 L207 638 C207 653 220 667 236 667 C251 667 265 653 265 638 L265 609 Z " />
<glyph glyph-name="ae" unicode="&#xe6;" horiz-adv-x="717" d="M673 210 L673 291 C673 321 663 356 645 383 C611 435 550 468 487 468 C406 468 370 423 361 423 C353 423 312 468 230 468 C174 468 131 450 100 419 C67 386 54 359 54 349 C54 346 56 343 60 341 L146 298 C148 297 150 297 151 297 C159 297 161 311 173 330 C185 349 208 363 230 363 C270 363 301 329 301 289 L301 287 C301 280 298 277 291 277 L187 277 C102 277 43 220 43 143 L43 124 C43 47 101 -10 187 -10 L234 -10 C256 -10 282 -1 302 12 C329 30 342 43 346 43 C350 43 363 30 389 14 C415 -2 446 -10 487 -10 C543 -10 587 6 618 37 C652 72 666 103 666 110 C666 113 664 115 660 117 L573 161 C571 162 569 163 568 163 C562 163 559 156 552 143 C535 111 516 95 487 95 C446 95 416 127 416 167 L416 190 C416 197 419 200 426 200 L663 200 C670 200 673 203 673 210 L673 210 Z M547 296 L428 296 C421 296 418 299 418 305 C418 333 449 363 487 363 C525 363 557 333 557 305 C557 299 554 296 547 296 L547 296 Z M301 162 L299 149 C283 113 258 95 234 95 L187 95 C170 95 158 107 158 124 L158 153 C158 170 170 182 187 182 L291 182 C297 182 300 180 301 175 L301 162 Z " />
<glyph glyph-name="ccedilla" unicode="&#xe7;" horiz-adv-x="429" d="M305 -122 L305 -114 C305 -89 292 -64 267 -42 C265 -40 264 -38 264 -36 C264 -34 265 -32 266 -30 L278 -6 C325 5 357 29 384 67 C399 89 407 103 407 110 C407 113 405 116 401 118 L314 161 C312 162 311 162 309 162 C304 162 300 155 294 143 C277 111 259 95 230 95 C188 95 158 127 158 167 L158 291 C158 331 188 363 230 363 C259 363 278 347 295 315 C301 304 303 298 309 298 C310 298 312 298 314 299 L401 342 C405 344 407 347 407 350 C407 362 383 406 344 435 C313 458 276 468 230 468 C117 468 43 397 43 291 L43 167 C43 78 92 16 180 -5 L145 -82 C144 -84 143 -86 143 -88 C143 -93 147 -96 154 -96 L194 -96 C203 -96 212 -105 212 -114 L212 -122 C212 -130 204 -139 194 -139 L135 -139 C128 -139 125 -142 125 -149 L125 -215 C125 -222 128 -225 135 -225 L194 -225 C260 -225 305 -181 305 -122 L305 -122 Z " />
<glyph glyph-name="egrave" unicode="&#xe8;" horiz-adv-x="459" d="M416 210 L416 291 C416 322 406 356 388 383 C353 437 294 468 230 468 C165 468 107 437 71 383 C53 356 43 322 43 291 L43 167 C43 61 117 -10 230 -10 C286 -10 329 6 358 36 C392 72 407 99 407 110 C407 113 405 116 401 118 L314 161 C312 162 311 162 309 162 C304 162 300 155 294 143 C277 111 259 95 230 95 C188 95 158 127 158 167 L158 190 C158 197 161 200 168 200 L406 200 C413 200 416 203 416 210 L416 210 Z M289 296 L170 296 C163 296 160 299 160 305 C160 333 192 363 230 363 C266 363 299 333 299 306 C299 299 296 296 289 296 L289 296 Z M291 529 L195 676 L187 681 L61 681 C54 681 50 678 50 673 C50 670 51 667 54 664 L203 517 L210 514 L283 514 C289 514 293 517 293 522 C293 524 293 527 291 529 L291 529 Z " />
<glyph glyph-name="eacute" unicode="&#xe9;" horiz-adv-x="459" d="M416 210 L416 291 C416 322 406 356 388 383 C353 437 294 468 230 468 C165 468 107 437 71 383 C53 356 43 322 43 291 L43 167 C43 61 117 -10 230 -10 C286 -10 329 6 358 36 C392 72 407 99 407 110 C407 113 405 116 401 118 L314 161 C312 162 311 162 309 162 C304 162 300 155 294 143 C277 111 259 95 230 95 C188 95 158 127 158 167 L158 190 C158 197 161 200 168 200 L406 200 C413 200 416 203 416 210 L416 210 Z M289 296 L170 296 C163 296 160 299 160 305 C160 333 192 363 230 363 C266 363 299 333 299 306 C299 299 296 296 289 296 L289 296 Z M410 663 C413 666 414 668 414 671 C414 676 410 680 403 680 L277 680 L269 676 L172 529 C170 526 169 523 169 521 C169 516 173 513 180 513 L254 513 L261 516 L410 663 Z " />
<glyph glyph-name="ecircumflex" unicode="&#xea;" horiz-adv-x="459" d="M416 210 L416 291 C416 322 406 356 388 383 C353 437 294 468 230 468 C165 468 107 437 71 383 C53 356 43 322 43 291 L43 167 C43 61 117 -10 230 -10 C286 -10 329 6 358 36 C392 72 407 99 407 110 C407 113 405 116 401 118 L314 161 C312 162 311 162 309 162 C304 162 300 155 294 143 C277 111 259 95 230 95 C188 95 158 127 158 167 L158 190 C158 197 161 200 168 200 L406 200 C413 200 416 203 416 210 L416 210 Z M289 296 L170 296 C163 296 160 299 160 305 C160 333 192 363 230 363 C266 363 299 333 299 306 C299 299 296 296 289 296 L289 296 Z M367 529 L262 676 L254 680 L205 680 L197 676 L93 529 C91 526 90 523 90 521 C90 517 94 513 101 513 L182 513 L190 518 L222 569 C225 573 228 575 230 575 C232 575 235 573 237 569 L270 518 L278 513 L359 513 C366 513 370 516 370 521 C370 523 369 526 367 529 L367 529 Z " />
<glyph glyph-name="edieresis" unicode="&#xeb;" horiz-adv-x="459" d="M416 210 L416 291 C416 322 406 356 388 383 C353 437 294 468 230 468 C165 468 107 437 71 383 C53 356 43 322 43 291 L43 167 C43 61 117 -10 230 -10 C286 -10 329 6 358 36 C392 72 407 99 407 110 C407 113 405 116 401 118 L314 161 C312 162 311 162 309 162 C304 162 300 155 294 143 C277 111 259 95 230 95 C188 95 158 127 158 167 L158 190 C158 197 161 200 168 200 L406 200 C413 200 416 203 416 210 L416 210 Z M289 296 L170 296 C163 296 160 299 160 305 C160 333 192 363 230 363 C266 363 299 333 299 306 C299 299 296 296 289 296 L289 296 Z M375 590 C375 625 348 652 313 652 C278 652 251 625 251 590 C251 554 277 528 313 528 C348 528 375 555 375 590 L375 590 Z M206 590 C206 625 179 652 144 652 C109 652 82 625 82 590 C82 554 108 528 144 528 C179 528 206 555 206 590 L206 590 Z " />
<glyph glyph-name="igrave" unicode="&#xec;" horiz-adv-x="230" d="M172 10 L172 448 C172 455 168 458 162 458 L68 458 C61 458 58 455 58 448 L58 10 C58 3 61 0 68 0 L162 0 C169 0 172 3 172 10 L172 10 Z M177 529 L81 676 L73 681 L-53 681 C-60 681 -64 678 -64 673 C-64 670 -63 667 -60 664 L89 517 L96 514 L169 514 C175 514 179 517 179 522 C179 524 179 527 177 529 L177 529 Z " />
<glyph glyph-name="iacute" unicode="&#xed;" horiz-adv-x="230" d="M172 10 L172 448 C172 455 168 458 162 458 L68 458 C61 458 58 455 58 448 L58 10 C58 3 61 0 68 0 L162 0 C169 0 172 3 172 10 L172 10 Z M296 663 C299 666 300 668 300 671 C300 676 296 680 289 680 L163 680 L155 676 L58 529 C56 526 55 523 55 521 C55 516 59 513 66 513 L140 513 L147 516 L296 663 Z " />
<glyph glyph-name="icircumflex" unicode="&#xee;" horiz-adv-x="230" d="M172 10 L172 448 C172 455 168 458 162 458 L68 458 C61 458 58 455 58 448 L58 10 C58 3 61 0 68 0 L162 0 C169 0 172 3 172 10 L172 10 Z M253 529 L148 676 L140 680 L91 680 L83 676 L-21 529 C-23 526 -24 523 -24 521 C-24 517 -20 513 -13 513 L68 513 L76 518 L108 569 C111 573 114 575 116 575 C118 575 121 573 123 569 L156 518 L164 513 L245 513 C252 513 256 516 256 521 C256 523 255 526 253 529 L253 529 Z " />
<glyph glyph-name="idieresis" unicode="&#xef;" horiz-adv-x="230" d="M172 10 L172 448 C172 455 168 458 162 458 L68 458 C61 458 58 455 58 448 L58 10 C58 3 61 0 68 0 L162 0 C169 0 172 3 172 10 L172 10 Z M261 590 C261 625 234 652 199 652 C164 652 137 625 137 590 C137 554 163 528 199 528 C234 528 261 555 261 590 L261 590 Z M92 590 C92 625 65 652 30 652 C-5 652 -32 625 -32 590 C-32 554 -6 528 30 528 C65 528 92 555 92 590 L92 590 Z " />
<glyph glyph-name="eth" unicode="&#xf0;" horiz-adv-x="507" d="M497 566 L461 618 C459 621 457 623 455 623 C452 623 450 622 447 620 L402 589 C400 588 398 587 395 587 C391 587 378 599 349 617 C324 632 292 640 253 640 C197 640 153 624 124 594 C91 560 78 532 78 522 C78 520 80 517 84 515 L170 472 C172 471 174 470 175 470 C181 470 183 477 188 488 C204 519 221 535 253 535 C279 535 294 525 294 519 C294 515 292 513 288 510 L240 477 C237 475 236 472 236 469 C236 467 236 465 238 463 L276 409 C278 406 280 405 283 405 C285 405 288 405 290 407 L309 420 C312 422 315 423 317 423 C322 423 325 419 325 412 L325 372 C325 365 322 361 318 361 C306 361 281 382 237 382 C190 382 150 365 119 332 C85 297 67 252 67 205 L67 167 C67 61 141 -10 253 -10 C366 -10 440 62 440 167 L440 463 C440 487 436 499 436 502 C436 507 437 510 440 513 L495 552 C498 554 499 557 499 560 C499 562 499 564 497 566 L497 566 Z M325 167 C325 128 293 95 253 95 C212 95 182 127 182 167 L182 205 C182 245 212 277 253 277 C293 277 325 243 325 205 L325 167 Z " />
<glyph glyph-name="ntilde" unicode="&#xf1;" horiz-adv-x="488" d="M430 10 L430 282 C430 386 354 458 252 458 C206 458 182 438 170 438 C162 438 168 458 153 458 L68 458 C61 458 58 455 58 448 L58 10 C58 3 61 0 68 0 L162 0 C169 0 172 3 172 10 L172 282 C172 322 202 353 244 353 C285 353 315 322 315 282 L315 10 C315 3 318 0 325 0 L420 0 C427 0 430 3 430 10 L430 10 Z M402 607 C403 609 403 611 403 612 C403 616 402 618 399 620 L359 652 C357 654 354 655 352 655 C342 655 331 615 301 615 C291 615 282 619 273 626 L256 638 C232 655 211 664 188 664 C158 664 134 649 111 620 C93 597 86 582 86 577 C86 575 88 572 91 570 L133 539 C135 538 137 537 139 537 C149 537 161 573 188 573 C197 573 205 570 213 563 L231 553 C257 533 280 523 301 523 C339 523 373 551 402 607 L402 607 Z " />
<glyph glyph-name="ograve" unicode="&#xf2;" horiz-adv-x="459" d="M416 167 L416 291 C416 397 342 468 230 468 C117 468 43 397 43 291 L43 167 C43 61 117 -10 230 -10 C342 -10 416 61 416 167 L416 167 Z M301 167 C301 127 270 95 230 95 C188 95 158 127 158 167 L158 291 C158 331 188 363 230 363 C270 363 301 331 301 291 L301 167 Z M291 529 L195 676 L187 681 L61 681 C54 681 50 678 50 673 C50 670 51 667 54 664 L203 517 L210 514 L283 514 C289 514 293 517 293 522 C293 524 293 527 291 529 L291 529 Z " />
<glyph glyph-name="oacute" unicode="&#xf3;" horiz-adv-x="459" d="M416 167 L416 291 C416 397 342 468 230 468 C117 468 43 397 43 291 L43 167 C43 61 117 -10 230 -10 C342 -10 416 61 416 167 L416 167 Z M301 167 C301 127 270 95 230 95 C188 95 158 127 158 167 L158 291 C158 331 188 363 230 363 C270 363 301 331 301 291 L301 167 Z M410 663 C413 666 414 668 414 671 C414 676 410 680 403 680 L277 680 L269 676 L172 529 C170 526 169 523 169 521 C169 516 173 513 180 513 L254 513 L261 516 L410 663 Z " />
<glyph glyph-name="ocircumflex" unicode="&#xf4;" horiz-adv-x="459" d="M416 167 L416 291 C416 397 342 468 230 468 C117 468 43 397 43 291 L43 167 C43 61 117 -10 230 -10 C342 -10 416 61 416 167 L416 167 Z M301 167 C301 127 270 95 230 95 C188 95 158 127 158 167 L158 291 C158 331 188 363 230 363 C270 363 301 331 301 291 L301 167 Z M367 529 L262 676 L254 680 L205 680 L197 676 L93 529 C91 526 90 523 90 521 C90 517 94 513 101 513 L182 513 L190 518 L222 569 C225 573 228 575 230 575 C232 575 235 573 237 569 L270 518 L278 513 L359 513 C366 513 370 516 370 521 C370 523 369 526 367 529 L367 529 Z " />
<glyph glyph-name="otilde" unicode="&#xf5;" horiz-adv-x="459" d="M416 167 L416 291 C416 397 342 468 230 468 C117 468 43 397 43 291 L43 167 C43 61 117 -10 230 -10 C342 -10 416 61 416 167 L416 167 Z M301 167 C301 127 270 95 230 95 C188 95 158 127 158 167 L158 291 C158 331 188 363 230 363 C270 363 301 331 301 291 L301 167 Z M387 607 C388 609 388 611 388 612 C388 616 387 618 384 620 L344 652 C342 654 339 655 337 655 C327 655 316 615 286 615 C276 615 267 619 258 626 L241 638 C217 655 196 664 173 664 C143 664 119 649 96 620 C78 597 71 582 71 577 C71 575 73 572 76 570 L118 539 C120 538 122 537 124 537 C134 537 146 573 173 573 C182 573 190 570 198 563 L216 553 C242 533 265 523 286 523 C324 523 358 551 387 607 L387 607 Z " />
<glyph glyph-name="odieresis" unicode="&#xf6;" horiz-adv-x="459" d="M416 167 L416 291 C416 397 342 468 230 468 C117 468 43 397 43 291 L43 167 C43 61 117 -10 230 -10 C342 -10 416 61 416 167 L416 167 Z M301 167 C301 127 270 95 230 95 C188 95 158 127 158 167 L158 291 C158 331 188 363 230 363 C270 363 301 331 301 291 L301 167 Z M375 590 C375 625 348 652 313 652 C278 652 251 625 251 590 C251 554 277 528 313 528 C348 528 375 555 375 590 L375 590 Z M206 590 C206 625 179 652 144 652 C109 652 82 625 82 590 C82 554 108 528 144 528 C179 528 206 555 206 590 L206 590 Z " />
<glyph glyph-name="divide" unicode="&#xf7;" horiz-adv-x="833" d="M417 564 C377 564 343 532 343 490 C343 449 376 416 417 416 C459 416 491 450 491 490 C491 531 457 564 417 564 L417 564 Z M124 347 L124 250 L709 250 L709 347 L124 347 Z M417 180 C377 180 343 148 343 106 C343 65 376 33 417 33 C458 33 491 67 491 106 C491 147 457 180 417 180 L417 180 Z " />
<glyph glyph-name="oslash" unicode="&#xf8;" horiz-adv-x="459" d="M416 167 L416 291 C416 397 342 468 230 468 C117 468 43 397 43 291 L43 167 C43 61 117 -10 230 -10 C342 -10 416 61 416 167 L416 167 Z M241 349 L177 203 C175 198 171 195 167 195 C162 195 158 200 158 207 L158 291 C158 332 189 363 230 363 L232 363 C239 363 243 360 243 355 C243 353 242 351 241 349 L241 349 Z M301 167 C301 126 270 95 230 95 L223 95 C216 95 212 98 212 103 C212 105 213 107 214 109 L289 291 C290 294 292 295 295 295 C298 295 301 293 301 291 L301 167 Z " />
<glyph glyph-name="ugrave" unicode="&#xf9;" horiz-adv-x="478" d="M420 10 L420 448 C420 455 416 458 410 458 L316 458 C309 458 306 455 306 448 L306 177 C306 137 275 105 234 105 C193 105 163 136 163 177 L163 448 C163 455 159 458 153 458 L58 458 C51 458 48 455 48 448 L48 177 C48 72 123 0 227 0 C272 0 296 20 308 20 C317 20 311 0 325 0 L410 0 C417 0 420 3 420 10 L420 10 Z M301 529 L205 676 L197 681 L71 681 C64 681 60 678 60 673 C60 670 61 667 64 664 L213 517 L220 514 L293 514 C299 514 303 517 303 522 C303 524 303 527 301 529 L301 529 Z " />
<glyph glyph-name="uacute" unicode="&#xfa;" horiz-adv-x="478" d="M420 10 L420 448 C420 455 416 458 410 458 L316 458 C309 458 306 455 306 448 L306 177 C306 137 275 105 234 105 C193 105 163 136 163 177 L163 448 C163 455 159 458 153 458 L58 458 C51 458 48 455 48 448 L48 177 C48 72 123 0 227 0 C272 0 296 20 308 20 C317 20 311 0 325 0 L410 0 C417 0 420 3 420 10 L420 10 Z M420 663 C423 666 424 668 424 671 C424 676 420 680 413 680 L287 680 L279 676 L182 529 C180 526 179 523 179 521 C179 516 183 513 190 513 L264 513 L271 516 L420 663 Z " />
<glyph glyph-name="ucircumflex" unicode="&#xfb;" horiz-adv-x="478" d="M420 10 L420 448 C420 455 416 458 410 458 L316 458 C309 458 306 455 306 448 L306 177 C306 137 275 105 234 105 C193 105 163 136 163 177 L163 448 C163 455 159 458 153 458 L58 458 C51 458 48 455 48 448 L48 177 C48 72 123 0 227 0 C272 0 296 20 308 20 C317 20 311 0 325 0 L410 0 C417 0 420 3 420 10 L420 10 Z M377 529 L272 676 L264 680 L215 680 L207 676 L103 529 C101 526 100 523 100 521 C100 517 104 513 111 513 L192 513 L200 518 L232 569 C235 573 238 575 240 575 C242 575 245 573 247 569 L280 518 L288 513 L369 513 C376 513 380 516 380 521 C380 523 379 526 377 529 L377 529 Z " />
<glyph glyph-name="udieresis" unicode="&#xfc;" horiz-adv-x="478" d="M420 10 L420 448 C420 455 416 458 410 458 L316 458 C309 458 306 455 306 448 L306 177 C306 137 275 105 234 105 C193 105 163 136 163 177 L163 448 C163 455 159 458 153 458 L58 458 C51 458 48 455 48 448 L48 177 C48 72 123 0 227 0 C272 0 296 20 308 20 C317 20 311 0 325 0 L410 0 C417 0 420 3 420 10 L420 10 Z M385 590 C385 625 358 652 323 652 C288 652 261 625 261 590 C261 554 287 528 323 528 C358 528 385 555 385 590 L385 590 Z M216 590 C216 625 189 652 154 652 C119 652 92 625 92 590 C92 554 118 528 154 528 C189 528 216 555 216 590 L216 590 Z " />
<glyph glyph-name="yacute" unicode="&#xfd;" horiz-adv-x="478" d="M420 -49 L420 448 C420 455 416 458 410 458 L316 458 C309 458 306 455 306 448 L306 177 C306 137 275 105 234 105 C193 105 163 136 163 177 L163 448 C163 455 159 458 153 458 L58 458 C51 458 48 455 48 448 L48 177 C48 71 121 0 234 0 C268 0 288 14 299 14 C303 14 306 10 306 4 L306 -58 C306 -97 274 -130 234 -130 C204 -130 186 -114 169 -83 C164 -72 161 -65 155 -65 C154 -65 152 -66 150 -67 L64 -110 C60 -112 58 -114 58 -117 C58 -129 81 -175 120 -203 C151 -225 188 -235 234 -235 C349 -235 420 -164 420 -49 L420 -49 Z M420 663 C423 666 424 668 424 671 C424 676 420 680 413 680 L287 680 L279 676 L182 529 C180 526 179 523 179 521 C179 516 183 513 190 513 L264 513 L271 516 L420 663 Z " />
<glyph glyph-name="thorn" unicode="&#xfe;" horiz-adv-x="473" d="M430 177 L430 282 C430 386 354 458 257 458 C212 458 190 438 179 438 C175 438 172 442 172 449 L172 620 C172 627 168 630 162 630 L68 630 C61 630 58 627 58 620 L58 -215 C58 -222 61 -225 68 -225 L162 -225 C169 -225 172 -222 172 -215 L172 9 C172 16 175 20 179 20 C192 20 217 0 253 0 C356 0 430 75 430 177 L430 177 Z M315 177 C315 136 285 105 244 105 C203 105 172 137 172 177 L172 282 C172 322 202 353 244 353 C285 353 315 322 315 282 L315 177 Z " />
<glyph glyph-name="ydieresis" unicode="&#xff;" horiz-adv-x="478" d="M420 -49 L420 448 C420 455 416 458 410 458 L316 458 C309 458 306 455 306 448 L306 177 C306 137 275 105 234 105 C193 105 163 136 163 177 L163 448 C163 455 159 458 153 458 L58 458 C51 458 48 455 48 448 L48 177 C48 71 121 0 234 0 C268 0 288 14 299 14 C303 14 306 10 306 4 L306 -58 C306 -97 274 -130 234 -130 C204 -130 186 -114 169 -83 C164 -72 161 -65 155 -65 C154 -65 152 -66 150 -67 L64 -110 C60 -112 58 -114 58 -117 C58 -129 81 -175 120 -203 C151 -225 188 -235 234 -235 C349 -235 420 -164 420 -49 L420 -49 Z M385 590 C385 625 358 652 323 652 C288 652 261 625 261 590 C261 554 287 528 323 528 C358 528 385 555 385 590 L385 590 Z M216 590 C216 625 189 652 154 652 C119 652 92 625 92 590 C92 554 118 528 154 528 C189 528 216 555 216 590 L216 590 Z " />
<glyph glyph-name="dotlessi" unicode="&#x131;" horiz-adv-x="230" d="M172 10 L172 448 C172 455 168 458 162 458 L68 458 C61 458 58 455 58 448 L58 10 C58 3 61 0 68 0 L162 0 C169 0 172 3 172 10 L172 10 Z " />
<glyph glyph-name="Lslash" unicode="&#x141;" horiz-adv-x="454" d="M440 10 L440 95 C440 102 436 105 430 105 L192 105 C185 105 182 108 182 115 L182 321 L185 328 L263 405 C265 407 267 410 267 412 C267 415 265 417 263 419 L214 465 C212 467 209 468 207 468 C205 468 203 467 200 465 C196 462 193 460 190 460 C185 460 182 464 182 471 L182 620 C182 627 178 630 172 630 L77 630 C70 630 67 627 67 620 L67 337 L64 330 L-12 255 C-14 253 -16 250 -16 248 C-16 246 -14 243 -12 241 L38 195 C41 192 43 191 45 191 C49 191 54 197 60 197 C64 197 67 193 67 186 L67 10 C67 3 70 0 77 0 L430 0 C437 0 440 3 440 10 L440 10 Z " />
<glyph glyph-name="lslash" unicode="&#x142;" horiz-adv-x="230" d="M251 404 C253 406 255 409 255 411 C255 413 253 415 251 418 L205 465 C203 467 201 468 199 468 C197 468 196 468 194 467 L191 466 C187 463 184 462 181 462 C176 462 172 465 172 471 L172 620 C172 627 168 630 162 630 L68 630 C61 630 58 627 58 620 L58 337 L55 330 L-21 255 C-23 253 -25 250 -25 248 C-25 246 -23 243 -21 241 L29 195 C32 193 34 191 36 191 C38 191 39 192 41 193 C45 196 48 197 51 197 C55 197 58 193 58 186 L58 10 C58 3 61 0 68 0 L162 0 C169 0 172 3 172 10 L172 321 L175 328 L251 404 Z " />
<glyph glyph-name="OE" unicode="&#x152;" horiz-adv-x="750" d="M712 10 L712 95 C712 102 709 105 702 105 L458 105 C450 105 448 108 448 115 C448 123 454 139 454 167 L454 257 C454 264 457 267 464 267 L659 267 C666 267 669 270 669 277 L669 362 C669 369 666 372 659 372 L464 372 C457 372 454 375 454 382 L454 463 C454 490 448 507 448 515 C448 522 450 525 458 525 L702 525 C709 525 712 528 712 535 L712 620 C712 627 709 630 702 630 L330 630 C310 637 290 640 268 640 L239 640 C127 640 53 569 53 463 L53 167 C53 61 126 -10 239 -10 L268 -10 C290 -10 310 -7 330 0 L702 0 C709 0 712 3 712 10 L712 10 Z M339 167 C339 126 308 95 268 95 L239 95 C199 95 167 127 167 167 L167 463 C167 503 199 535 239 535 L268 535 C308 535 339 504 339 463 L339 167 Z " />
<glyph glyph-name="oe" unicode="&#x153;" horiz-adv-x="717" d="M673 210 L673 291 C673 321 663 356 645 383 C611 436 551 468 487 468 C411 468 372 424 362 424 C354 424 314 468 230 468 C117 468 43 397 43 291 L43 167 C43 61 117 -10 230 -10 C310 -10 350 30 358 30 C366 30 403 -10 487 -10 C543 -10 587 6 618 37 C652 72 666 103 666 110 C666 113 664 115 660 117 L573 161 C571 162 569 163 568 163 C562 163 559 156 552 143 C535 111 516 95 487 95 C448 95 416 128 416 165 L416 190 C416 197 419 200 426 200 L663 200 C670 200 673 203 673 210 L673 210 Z M547 296 L425 296 C418 296 415 299 415 306 L415 311 C432 346 456 363 487 363 C524 363 557 333 557 305 C557 299 554 296 547 296 L547 296 Z M301 167 C301 127 270 95 230 95 C188 95 158 127 158 167 L158 291 C158 331 188 363 230 363 C270 363 301 331 301 291 L301 167 Z " />
<glyph glyph-name="Scaron" unicode="&#x160;" horiz-adv-x="440" d="M220 535 L235 535 C266 535 283 517 302 485 C308 476 310 470 315 470 C316 470 318 470 320 471 L407 514 C411 516 413 518 413 522 C413 534 388 579 349 607 C317 630 281 640 235 640 L220 640 C108 640 34 569 34 463 C34 364 90 319 200 266 C265 235 307 217 307 167 C307 127 274 95 235 95 L195 95 C172 95 147 110 136 131 C126 151 124 161 117 161 C115 161 114 161 112 160 L25 117 C21 115 19 112 19 110 C19 100 32 71 65 37 C95 6 138 -10 195 -10 L235 -10 C348 -10 421 61 421 167 C421 266 371 321 264 370 C194 402 148 416 148 463 C148 504 181 535 220 535 L220 535 Z M365 837 C367 840 368 842 368 845 C368 849 364 853 357 853 L276 853 L268 848 L235 797 C232 793 230 791 227 791 C225 791 223 793 220 797 L188 848 L180 853 L99 853 C92 853 88 849 88 845 C88 842 89 840 91 837 L195 690 L203 686 L252 686 L260 690 L365 837 Z " />
<glyph glyph-name="scaron" unicode="&#x161;" horiz-adv-x="459" d="M242 468 L213 468 C114 468 45 404 45 313 C45 245 82 207 162 187 C244 166 300 175 300 135 C300 110 278 92 242 92 L213 92 C174 92 161 116 141 149 C138 153 136 156 133 156 C131 156 130 156 128 155 L46 115 C42 113 40 111 40 108 C40 99 52 71 83 39 C114 6 157 -10 213 -10 L242 -10 C347 -10 414 55 414 149 C414 215 376 252 295 274 C213 296 158 287 158 328 C158 353 177 366 213 366 L242 366 C283 366 294 340 315 309 C318 305 319 303 323 303 C324 303 326 303 328 304 L410 344 C414 346 416 349 416 352 C416 364 394 407 357 434 C326 457 289 468 242 468 L242 468 Z M366 665 C368 668 369 670 369 673 C369 677 365 681 358 681 L277 681 L269 676 L236 625 C233 621 231 619 228 619 C226 619 224 621 221 625 L189 676 L181 681 L100 681 C93 681 89 677 89 673 C89 670 90 668 92 665 L196 518 L204 514 L253 514 L261 518 L366 665 Z " />
<glyph glyph-name="Ydieresis" unicode="&#x178;" horiz-adv-x="450" d="M457 615 C458 618 459 620 459 622 C459 627 455 630 448 630 L338 630 L329 624 L234 428 C232 423 228 421 225 421 C222 421 218 423 216 428 L121 624 L112 630 L1 630 C-6 630 -10 627 -10 622 C-10 620 -9 618 -8 615 L167 287 L167 10 C167 3 170 0 177 0 L272 0 C279 0 282 3 282 10 L282 287 L457 615 Z M372 762 C372 797 345 824 310 824 C275 824 248 797 248 762 C248 726 274 700 310 700 C345 700 372 727 372 762 L372 762 Z M203 762 C203 797 176 824 141 824 C106 824 79 797 79 762 C79 726 105 700 141 700 C176 700 203 727 203 762 L203 762 Z " />
<glyph glyph-name="Zcaron" unicode="&#x17d;" horiz-adv-x="440" d="M408 616 C409 618 410 620 410 622 C410 627 406 630 399 630 L44 630 C37 630 34 627 34 620 L34 535 C34 528 37 525 44 525 L226 525 C233 525 237 522 237 517 C237 515 236 513 235 511 L12 14 C11 12 10 10 10 8 C10 3 14 0 21 0 L396 0 C403 0 406 3 406 10 L406 95 C406 102 402 105 396 105 L193 105 C186 105 182 108 182 113 C182 115 183 117 184 119 L408 616 Z M358 837 C360 840 361 842 361 845 C361 849 357 853 350 853 L269 853 L261 848 L228 797 C225 793 223 791 220 791 C218 791 216 793 213 797 L181 848 L173 853 L92 853 C85 853 81 849 81 845 C81 842 82 840 84 837 L188 690 L196 686 L245 686 L253 690 L358 837 Z " />
<glyph glyph-name="zcaron" unicode="&#x17e;" horiz-adv-x="430" d="M403 442 C404 444 405 447 405 449 C405 453 401 457 394 457 L39 457 C32 457 29 454 29 447 L29 362 C29 355 32 352 39 352 L193 352 C200 352 204 348 204 344 C204 342 203 339 202 337 L9 15 C8 13 7 10 7 8 C7 3 11 0 18 0 L390 0 C397 0 400 3 400 10 L400 95 C400 102 396 105 390 105 L218 105 C210 105 207 108 207 113 C207 115 207 118 209 120 L403 442 Z M352 665 C354 668 355 670 355 673 C355 677 351 681 344 681 L263 681 L255 676 L222 625 C219 621 217 619 214 619 C212 619 210 621 207 625 L175 676 L167 681 L86 681 C79 681 75 677 75 673 C75 670 76 668 78 665 L182 518 L190 514 L239 514 L247 518 L352 665 Z " />
<glyph glyph-name="florin" unicode="&#x192;" horiz-adv-x="507" d="M436 620 C436 621 437 623 437 624 C437 636 414 640 365 640 C312 640 268 622 234 585 C198 547 179 500 179 453 L179 382 C179 375 176 372 169 372 L146 372 C139 372 136 369 136 362 L136 277 C136 270 139 267 146 267 L169 267 C176 267 179 264 179 257 L179 -58 C179 -97 148 -130 107 -130 C95 -130 85 -123 75 -123 C72 -123 70 -126 68 -131 L39 -215 C39 -216 38 -218 38 -219 C38 -230 61 -235 107 -235 C160 -235 206 -216 239 -181 C274 -143 293 -96 293 -49 L293 257 C293 264 296 267 303 267 L369 267 C376 267 379 270 379 277 L379 362 C379 369 376 372 369 372 L303 372 C296 372 293 375 293 382 L293 463 C293 502 324 535 365 535 C377 535 387 529 395 529 C401 529 404 530 406 536 L436 620 Z " />
<glyph glyph-name="circumflex" unicode="&#x2c6;" horiz-adv-x="500" d="M388 529 L283 676 L275 680 L226 680 L218 676 L114 529 C112 526 111 523 111 521 C111 517 115 513 122 513 L203 513 L211 518 L243 569 C246 573 249 575 251 575 C253 575 256 573 258 569 L291 518 L299 513 L380 513 C387 513 391 516 391 521 C391 523 390 526 388 529 L388 529 Z " />
<glyph glyph-name="caron" unicode="&#x2c7;" horiz-adv-x="500" d="M387 665 C389 668 390 670 390 673 C390 677 386 681 379 681 L298 681 L290 676 L257 625 C254 621 252 619 249 619 C247 619 245 621 242 625 L210 676 L202 681 L121 681 C114 681 110 677 110 673 C110 670 111 668 113 665 L217 518 L225 514 L274 514 L282 518 L387 665 Z " />
<glyph glyph-name="breve" unicode="&#x2d8;" horiz-adv-x="500" d="M371 607 L371 669 C371 676 368 679 361 679 L309 679 C302 679 299 676 299 669 L299 626 C299 610 287 598 271 598 L228 598 C212 598 199 611 199 626 L199 669 C199 676 196 679 189 679 L138 679 C131 679 128 676 128 669 L128 607 C128 550 167 512 228 512 L271 512 C332 512 371 551 371 607 L371 607 Z " />
<glyph glyph-name="dotaccent" unicode="&#x2d9;" horiz-adv-x="500" d="M322 581 L322 609 C322 649 295 676 251 676 C207 676 179 648 179 609 L179 581 C179 542 207 514 251 514 C295 514 322 541 322 581 L322 581 Z " />
<glyph glyph-name="ring" unicode="&#x2da;" horiz-adv-x="500" d="M350 609 L350 638 C350 695 311 733 250 733 C189 733 150 695 150 638 L150 609 C150 552 189 514 250 514 C311 514 350 552 350 609 L350 609 Z M279 609 C279 594 266 581 250 581 C234 581 221 594 221 609 L221 638 C221 653 234 667 250 667 C266 667 279 653 279 638 L279 609 Z " />
<glyph glyph-name="ogonek" unicode="&#x2db;" horiz-adv-x="500" d="M361 -204 L361 -138 C361 -129 354 -129 344 -126 C313 -118 297 -105 297 -78 L297 7 L204 7 L204 -72 C204 -149 274 -214 350 -214 C358 -214 361 -211 361 -204 L361 -204 Z " />
<glyph glyph-name="tilde" unicode="&#x2dc;" horiz-adv-x="500" d="M408 607 C409 609 409 611 409 612 C409 616 408 618 405 620 L365 652 C363 654 360 655 358 655 C348 655 337 615 307 615 C297 615 288 619 279 626 L262 638 C238 655 217 664 194 664 C164 664 140 649 117 620 C99 597 92 582 92 577 C92 575 94 572 97 570 L139 539 C141 538 143 537 145 537 C155 537 167 573 194 573 C203 573 211 570 219 563 L237 553 C263 533 286 523 307 523 C345 523 379 551 408 607 L408 607 Z " />
<glyph glyph-name="hungarumlaut" unicode="&#x2dd;" horiz-adv-x="500" d="M438 666 C440 669 440 671 440 673 C440 678 436 681 430 681 L347 681 C344 680 341 677 338 674 L288 527 C288 525 287 524 287 522 C287 517 291 514 297 514 L337 514 L345 519 L438 666 Z M313 666 C314 669 315 671 315 673 C315 678 311 681 304 681 L221 681 C217 681 214 679 212 674 L162 527 C161 525 161 523 161 522 C161 517 164 514 171 514 L219 514 L228 519 L313 666 Z " />
<glyph glyph-name="endash" unicode="&#x2013;" horiz-adv-x="507" d="M492 210 L492 276 C492 283 488 286 482 286 L25 286 C18 286 15 283 15 276 L15 210 C15 203 18 200 25 200 L482 200 C489 200 492 203 492 210 L492 210 Z " />
<glyph glyph-name="emdash" unicode="&#x2014;" horiz-adv-x="765" d="M750 210 L750 276 C750 283 747 286 740 286 L25 286 C18 286 15 283 15 276 L15 210 C15 203 18 200 25 200 L740 200 C747 200 750 203 750 210 L750 210 Z " />
<glyph glyph-name="quoteleft" unicode="&#x2018;" horiz-adv-x="189" d="M168 618 L142 669 C140 673 137 675 134 675 C125 675 98 661 71 630 C45 600 34 559 34 505 L34 436 C34 429 37 426 44 426 L143 426 C150 426 153 429 153 436 L153 527 C153 534 150 537 143 537 L135 537 C128 537 125 541 125 549 C125 591 170 601 170 612 C170 613 169 616 168 618 L168 618 Z " />
<glyph glyph-name="quoteright" unicode="&#x2019;" horiz-adv-x="189" d="M155 551 L155 620 C155 627 152 630 145 630 L46 630 C39 630 36 627 36 620 L36 528 C36 521 39 518 46 518 L54 518 C62 518 64 515 64 507 C64 467 21 455 21 445 C21 443 22 441 23 439 L49 389 C51 385 54 383 56 383 C64 383 92 396 118 427 C144 457 155 497 155 551 L155 551 Z " />
<glyph glyph-name="quotesinglbase" unicode="&#x201a;" horiz-adv-x="189" d="M155 54 L155 124 C155 130 152 134 145 134 L46 134 C39 134 36 131 36 124 L36 32 C36 25 39 22 46 22 L54 22 C62 22 64 19 64 11 C64 -27 21 -43 21 -52 C21 -54 22 -56 23 -58 L49 -109 C51 -113 53 -114 56 -114 C65 -114 92 -101 119 -70 C144 -41 155 0 155 54 L155 54 Z " />
<glyph glyph-name="quotedblleft" unicode="&#x201c;" horiz-adv-x="346" d="M325 618 L299 669 C297 673 294 675 291 675 C282 675 256 661 228 629 C202 600 191 559 191 505 L191 436 C191 429 194 426 201 426 L300 426 C307 426 310 429 310 436 L310 527 C310 534 307 537 300 537 L291 537 C283 537 281 540 281 549 C281 581 300 589 320 604 C324 607 326 610 326 613 C326 615 326 616 325 618 L325 618 Z M168 618 L142 669 C140 673 137 675 134 675 C125 675 98 661 71 630 C45 600 34 559 34 505 L34 436 C34 429 37 426 44 426 L143 426 C150 426 153 429 153 436 L153 527 C153 534 150 537 143 537 L135 537 C128 537 125 541 125 549 C125 591 170 601 170 612 C170 613 169 616 168 618 L168 618 Z " />
<glyph glyph-name="quotedblright" unicode="&#x201d;" horiz-adv-x="346" d="M312 551 L312 620 C312 627 308 630 302 630 L202 630 C195 630 192 627 192 620 L192 528 C192 521 195 518 202 518 L211 518 C219 518 221 515 221 507 C221 479 204 469 184 454 C180 451 177 448 177 445 C177 443 178 442 179 440 L207 389 C209 385 211 383 214 383 C223 383 250 397 276 428 C301 457 312 497 312 551 L312 551 Z M155 551 L155 620 C155 627 152 630 145 630 L46 630 C39 630 36 627 36 620 L36 528 C36 521 39 518 46 518 L54 518 C62 518 64 515 64 507 C64 467 21 455 21 445 C21 443 22 441 23 439 L49 389 C51 385 54 383 56 383 C64 383 92 396 118 427 C144 457 155 497 155 551 L155 551 Z " />
<glyph glyph-name="quotedblbase" unicode="&#x201e;" horiz-adv-x="346" d="M312 54 L312 124 C312 130 308 134 302 134 L202 134 C195 134 192 131 192 124 L192 32 C192 25 195 22 202 22 L211 22 C219 22 221 19 221 11 C221 -28 177 -42 177 -52 C177 -54 178 -56 179 -58 L207 -109 C209 -113 211 -114 214 -114 C223 -114 249 -101 276 -69 C300 -41 312 0 312 54 L312 54 Z M155 54 L155 124 C155 130 152 134 145 134 L46 134 C39 134 36 131 36 124 L36 32 C36 25 39 22 46 22 L54 22 C62 22 64 19 64 11 C64 -27 21 -43 21 -52 C21 -54 22 -56 23 -58 L49 -109 C51 -113 53 -114 56 -114 C65 -114 92 -101 119 -70 C144 -41 155 0 155 54 L155 54 Z " />
<glyph glyph-name="dagger" unicode="&#x2020;" horiz-adv-x="401" d="M401 377 L401 461 C401 467 398 471 392 471 L390 471 L249 459 L247 459 C241 459 238 462 238 468 L238 470 L250 619 L250 621 C250 627 246 630 240 630 L162 630 C156 630 152 627 152 621 L152 619 L164 470 L164 468 C164 462 161 459 155 459 L153 459 L11 471 L9 471 C3 471 0 467 0 461 L0 377 C0 371 3 367 9 367 L11 367 L150 380 L152 380 C158 380 161 376 161 371 L161 369 L153 316 L172 -215 C172 -222 175 -225 182 -225 L220 -225 C227 -225 230 -222 230 -215 L249 316 L241 369 L241 371 C241 377 244 380 250 380 L252 380 L390 367 L392 367 C398 367 401 371 401 377 L401 377 Z " />
<glyph glyph-name="daggerdbl" unicode="&#x2021;" horiz-adv-x="401" d="M401 170 L401 254 C401 260 398 264 392 264 L390 264 L257 252 L255 252 C248 252 246 256 246 263 L249 318 L241 369 L241 371 C241 377 244 380 250 380 L252 380 L390 367 L392 367 C398 367 401 371 401 377 L401 461 C401 467 398 471 392 471 L390 471 L249 459 L247 459 C241 459 238 462 238 468 L238 470 L250 619 L250 621 C250 627 246 630 240 630 L162 630 C156 630 152 627 152 621 L152 619 L164 470 L164 468 C164 462 161 459 155 459 L153 459 L11 471 L9 471 C3 471 0 467 0 461 L0 377 C0 371 3 367 9 367 L11 367 L150 380 L152 380 C158 380 161 376 161 371 L161 369 L153 317 L156 263 C156 256 154 252 147 252 L145 252 L11 264 L9 264 C2 264 0 260 0 254 L0 170 C0 164 2 160 9 160 L11 160 L149 172 L151 172 C157 172 160 168 160 162 L172 -215 C172 -222 175 -225 182 -225 L220 -225 C227 -225 230 -222 230 -215 L242 162 C242 168 245 172 251 172 L253 172 L390 160 L392 160 C398 160 401 164 401 170 L401 170 Z " />
<glyph glyph-name="bullet" unicode="&#x2022;" horiz-adv-x="440" d="M379 305 L379 325 C379 412 317 472 222 472 L218 472 C123 472 61 413 61 325 L61 305 C61 217 123 157 218 157 L222 157 C317 157 379 217 379 305 L379 305 Z " />
<glyph glyph-name="ellipsis" unicode="&#x2026;" horiz-adv-x="458" d="M443 117 L356 160 C354 161 352 161 351 161 C347 161 344 159 343 154 C328 115 304 95 273 95 L245 95 C205 95 173 127 173 167 L173 201 C173 241 204 272 245 272 L335 272 C342 272 345 275 345 282 L345 367 C345 374 341 377 335 377 L245 377 C205 377 173 409 173 449 L173 463 C173 503 205 535 245 535 L273 535 C304 535 321 518 339 485 C344 476 347 469 352 469 C354 469 355 470 358 471 L444 515 C448 517 450 520 450 522 C450 529 437 560 404 593 C373 625 330 640 273 640 L245 640 C131 640 58 567 58 453 L58 439 C58 394 86 366 112 331 C114 328 116 326 116 324 C116 320 102 304 79 272 C67 255 58 228 58 204 L58 175 C58 61 130 -10 245 -10 L273 -10 C330 -10 373 6 403 37 C436 71 449 100 449 109 C449 113 447 115 443 117 L443 117 Z " />
<glyph glyph-name="perthousand" unicode="&#x2030;" horiz-adv-x="788" d="M743 95 L743 191 C743 247 704 286 643 286 C582 286 542 247 542 191 L542 95 C542 39 581 0 643 0 C704 0 743 39 743 95 L743 95 Z M247 439 L247 535 C247 592 208 630 146 630 C85 630 46 592 46 535 L46 439 C46 382 85 344 146 344 C208 344 247 382 247 439 L247 439 Z M440 616 C441 618 442 620 442 622 C442 627 438 630 431 630 L378 630 C373 628 370 626 369 624 L108 14 C107 12 106 10 106 8 C106 3 110 0 117 0 L170 0 C174 0 177 2 179 6 L440 616 Z M501 95 L501 191 C501 248 462 286 401 286 C340 286 301 248 301 191 L301 95 C301 38 340 0 401 0 C462 0 501 38 501 95 L501 95 Z M662 95 C662 84 654 76 643 76 C632 76 624 84 624 95 L624 191 C624 202 632 210 643 210 C654 210 662 202 662 191 L662 95 Z M166 439 C166 430 157 420 146 420 C135 420 127 428 127 439 L127 535 C127 546 135 554 146 554 C157 554 166 544 166 535 L166 439 Z M420 95 C420 84 412 76 401 76 C390 76 382 84 382 95 L382 191 C382 202 390 210 401 210 C412 210 420 202 420 191 L420 95 Z " />
<glyph glyph-name="guilsinglleft" unicode="&#x2039;" horiz-adv-x="343" d="M284 92 L284 180 L280 188 L162 273 C158 276 157 278 157 281 C157 283 158 286 162 289 L280 373 L284 381 L284 470 C284 477 280 481 276 481 C274 481 271 480 268 478 L52 324 L48 316 L48 245 L52 237 L268 84 C271 82 274 81 276 81 C281 81 284 85 284 92 L284 92 Z " />
<glyph glyph-name="guilsinglright" unicode="&#x203a;" horiz-adv-x="343" d="M295 245 L295 316 L291 324 L75 478 C72 480 69 481 67 481 C63 481 59 477 59 470 L59 381 L63 373 L180 289 C183 287 185 283 185 281 C185 278 183 275 180 273 L63 188 L59 180 L59 92 C59 85 62 81 67 81 C69 81 72 82 75 84 L291 237 L295 245 Z " />
<glyph glyph-name="fraction" unicode="&#x2044;" horiz-adv-x="317" d="M325 616 C326 618 327 620 327 622 C327 627 323 630 316 630 L262 630 C257 628 254 626 253 624 L-8 14 C-9 12 -10 10 -10 8 C-10 3 -6 0 1 0 L55 0 C60 1 63 4 64 6 L325 616 Z " />
<glyph glyph-name="trademark" unicode="&#x2122;" horiz-adv-x="428" d="M378 370 L378 538 C378 545 375 548 368 548 L356 548 L347 543 L300 462 C297 458 294 455 291 455 C288 455 285 458 282 462 L235 543 L226 548 L214 548 C207 548 204 545 204 538 L204 370 C204 363 207 360 214 360 L226 360 C233 360 236 363 236 370 L236 442 C236 449 240 453 244 453 C247 453 251 451 254 447 L281 406 L289 401 L293 401 L302 406 L327 447 C330 451 333 454 336 454 C342 454 346 449 346 442 L346 370 C346 363 349 360 356 360 L368 360 C375 360 378 363 378 370 L378 370 Z M166 527 L166 538 C166 545 163 548 156 548 L50 548 C43 548 40 545 40 538 L40 527 C40 520 43 517 50 517 L77 517 C84 517 87 514 87 507 L87 370 C87 363 90 360 97 360 L109 360 C116 360 119 363 119 370 L119 507 C119 514 122 517 129 517 L156 517 C163 517 166 520 166 527 L166 527 Z " />
<glyph glyph-name="minus" unicode="&#x2212;" horiz-adv-x="833" d="M124 348 L124 249 L709 249 L709 348 L124 348 Z " />
<glyph glyph-name="fi" unicode="&#xfb01;" horiz-adv-x="502" d="M454 573 C454 609 423 640 387 640 C351 640 321 610 321 573 C321 536 351 506 387 506 C423 506 454 537 454 573 L454 573 Z M445 10 L445 448 C445 455 441 458 435 458 L340 458 C333 458 330 455 330 448 L330 10 C330 3 333 0 340 0 L435 0 C442 0 445 3 445 10 L445 10 Z M272 320 L272 405 C272 412 269 415 262 415 L197 415 C190 415 187 418 187 425 L187 463 C187 494 209 522 232 527 C260 533 272 532 272 544 L272 629 C272 638 268 640 257 640 C224 640 185 626 146 599 C101 568 72 512 72 453 L72 425 C72 418 69 415 62 415 L39 415 C32 415 29 412 29 405 L29 320 C29 313 32 310 39 310 L62 310 C69 310 72 307 72 300 L72 10 C72 3 75 0 82 0 L177 0 C184 0 187 3 187 10 L187 300 C187 307 190 310 197 310 L262 310 C269 310 272 313 272 320 L272 320 Z " />
<glyph glyph-name="fl" unicode="&#xfb02;" horiz-adv-x="505" d="M448 10 L448 620 C448 627 444 630 438 630 L258 630 C208 630 161 611 126 576 C91 541 72 494 72 444 L72 425 C72 418 69 415 62 415 L39 415 C32 415 29 412 29 405 L29 320 C29 313 32 310 39 310 L62 310 C69 310 72 307 72 300 L72 10 C72 3 75 0 82 0 L177 0 C184 0 187 3 187 10 L187 300 C187 307 190 310 197 310 L262 310 C269 310 272 313 272 320 L272 405 C272 412 269 415 262 415 L197 415 C190 415 187 418 187 425 L187 453 C187 494 218 525 258 525 L323 525 C330 525 333 522 333 515 L333 10 C333 3 336 0 343 0 L438 0 C445 0 448 3 448 10 L448 10 Z " />
</font>
</svg>
