<?xml version="1.0" encoding="UTF-8"?>
<svg xmlns="http://www.w3.org/2000/svg" xmlns:xlink="http://www.w3.org/1999/xlink" version="1.2" >
<font id="Conduit ITC Light">
<font-face  font-family="Conduit ITC" units-per-em="1000" ascent="630.127" descent="-233.887" font-style="normal" font-weight="300" font-stretch="normal" cap-height="750" x-height="500" underline-position="-88.5" underline-thickness="47" />
<missing-glyph  horiz-adv-x="174" d="" />
<glyph glyph-name="NULL" d="" />
<glyph glyph-name="CR" unicode="&#xd;" horiz-adv-x="250" d="" />
<glyph glyph-name="space" unicode="&#x20;" horiz-adv-x="174" d="" />
<glyph glyph-name="exclam" unicode="&#x21;" horiz-adv-x="261" d="M180 366 L180 619 C180 626 177 629 170 629 L122 629 C115 629 112 626 112 619 L112 365 L134 196 C135 190 138 187 144 187 L149 187 C155 187 158 190 159 196 L180 366 Z M196 34 C196 62 175 83 146 83 C120 83 97 61 97 34 C97 7 119 -15 146 -15 C175 -15 196 6 196 34 L196 34 Z " />
<glyph glyph-name="quotedbl" unicode="&#x22;" horiz-adv-x="282" d="M241 623 L241 625 C241 631 237 634 231 634 L177 634 C171 634 167 631 167 625 L167 623 L188 472 C189 466 192 463 198 463 L212 463 C217 463 221 466 222 472 L241 623 Z M116 623 L116 625 C116 631 112 634 106 634 L51 634 C45 634 41 631 41 625 L41 623 L62 472 C63 466 66 463 72 463 L87 463 C92 463 96 466 97 472 L116 623 Z " />
<glyph glyph-name="numbersign" unicode="&#x23;" horiz-adv-x="563" d="M518 432 C518 434 519 435 519 436 C519 440 516 442 511 442 L458 442 C451 442 447 445 447 451 C447 452 448 454 448 455 L494 617 C494 618 495 620 495 621 C495 627 491 630 484 630 L451 630 C445 630 442 628 441 623 L391 450 C389 445 386 442 381 442 L259 442 C252 442 248 445 248 451 C248 452 249 454 249 455 L295 617 C295 618 296 620 296 621 C296 627 292 630 285 630 L252 630 C246 630 244 628 242 623 L192 450 C190 445 187 442 182 442 L116 442 C109 442 105 439 103 432 L93 395 C93 393 92 392 92 391 C92 387 95 385 100 385 L160 385 C167 385 171 382 171 376 C171 375 170 374 170 373 L135 252 C133 247 130 244 125 244 L68 244 C61 244 57 241 55 234 L45 197 C45 195 44 194 44 193 C44 189 47 187 52 187 L103 187 C110 187 114 184 114 178 C114 177 113 176 113 175 L68 13 C68 11 67 10 67 9 C67 3 71 0 78 0 L111 0 C116 0 120 2 121 7 L171 181 C172 186 175 187 181 187 L303 187 C310 187 314 184 314 178 C314 177 313 176 313 175 L267 13 C267 11 266 10 266 9 C266 3 270 0 277 0 L310 0 C315 0 319 2 320 7 L369 181 C370 186 373 187 379 187 L448 187 C455 187 459 190 461 197 L471 234 C471 236 472 237 472 238 C472 242 469 244 464 244 L402 244 C395 244 391 247 391 253 C391 254 392 256 392 257 L426 379 C427 384 430 385 436 385 L495 385 C502 385 506 388 508 395 L518 432 Z M369 373 L335 252 C333 247 330 244 325 244 L203 244 C196 244 192 247 192 253 C192 254 193 255 193 257 L227 379 C228 384 231 385 237 385 L359 385 C366 385 370 382 370 376 C370 375 369 374 369 373 L369 373 Z " />
<glyph glyph-name="dollar" unicode="&#x24;" horiz-adv-x="510" d="M284 358 L284 568 C284 575 287 578 293 578 C333 578 361 523 373 523 C374 523 376 523 378 524 L420 545 C424 547 427 550 427 553 C427 572 390 614 340 629 C302 640 284 635 284 650 L284 682 C284 689 281 692 274 692 L247 692 C240 692 237 689 237 682 L237 649 C237 633 207 637 166 619 C116 597 82 543 82 476 C82 408 114 355 175 323 C210 304 234 298 237 285 L237 57 C237 48 233 47 221 47 C187 47 164 70 134 103 C131 106 130 108 127 108 C126 108 124 108 122 107 L80 86 C76 84 74 81 74 78 C74 53 119 6 172 -4 C215 -12 237 -4 237 -20 L237 -52 C237 -59 240 -62 247 -62 L274 -62 C281 -62 284 -59 284 -52 L284 -19 C284 -3 310 -9 357 10 C409 31 447 87 447 154 C447 227 415 280 348 319 C310 341 284 345 284 358 L284 358 Z M237 390 C237 383 234 379 230 379 C220 379 199 391 173 417 C158 432 149 454 149 476 C149 531 191 577 230 577 C233 577 237 572 237 566 L237 390 Z M284 62 L284 252 C284 259 287 263 291 263 C303 263 323 249 352 221 C369 204 379 181 379 154 C379 101 333 52 292 52 C285 52 284 54 284 62 L284 62 Z " />
<glyph glyph-name="percent" unicode="&#x25;" horiz-adv-x="490" d="M223 445 L223 545 C223 596 188 630 133 630 C78 630 43 596 43 545 L43 445 C43 394 78 360 133 360 C188 360 223 394 223 445 L223 445 Z M397 616 C398 618 399 620 399 622 C399 627 395 630 388 630 L364 630 C359 628 356 626 355 624 L94 14 C93 11 92 9 92 7 C92 3 96 0 103 0 L127 0 C132 1 135 4 136 6 L397 616 Z M448 85 L448 185 C448 235 413 270 358 270 C303 270 268 236 268 185 L268 85 C268 34 303 0 358 0 C413 0 448 34 448 85 L448 85 Z M173 445 C173 424 155 405 133 405 C111 405 93 424 93 445 L93 545 C93 566 111 585 133 585 C154 585 173 565 173 545 L173 445 Z M398 85 C398 64 380 45 358 45 C336 45 318 64 318 85 L318 185 C318 206 336 225 358 225 C379 225 398 205 398 185 L398 85 Z " />
<glyph glyph-name="ampersand" unicode="&#x26;" horiz-adv-x="625" d="M602 -1 L602 48 C602 50 600 53 597 56 C550 73 509 100 473 138 L469 147 L469 174 C469 235 517 283 579 283 L594 283 C600 283 602 285 602 291 L602 338 C602 344 600 346 594 346 L587 346 C514 346 461 313 433 251 C421 225 422 208 411 208 C397 208 375 250 319 290 C307 299 298 304 298 312 C298 323 324 327 357 349 C390 371 412 412 412 446 L412 467 C412 573 345 640 239 640 C133 640 66 573 66 473 C66 426 80 387 111 358 C134 336 153 326 153 315 C153 310 132 299 103 272 C81 252 66 217 66 187 L66 161 C66 55 132 -10 239 -10 L270 -10 C323 -10 362 3 396 35 C417 55 424 75 432 75 C438 75 452 63 478 43 C514 16 544 -9 594 -9 C600 -9 602 -7 602 -1 L602 -1 Z M350 477 L350 457 C350 402 309 357 236 343 L228 345 C162 387 130 428 130 477 C130 539 177 587 239 587 C302 587 350 537 350 477 L350 477 Z M382 122 C353 69 314 42 270 42 L239 42 C179 42 130 90 130 153 L130 184 C130 226 153 261 198 286 L200 286 C211 286 253 265 306 217 C357 172 383 134 383 124 C383 123 383 122 382 122 L382 122 Z " />
<glyph glyph-name="quotesingle" unicode="&#x27;" horiz-adv-x="157" d="M116 623 L116 625 C116 631 112 634 106 634 L51 634 C45 634 41 631 41 625 L41 623 L62 472 C63 466 66 463 72 463 L87 463 C92 463 96 466 97 472 L116 623 Z " />
<glyph glyph-name="parenleft" unicode="&#x28;" horiz-adv-x="354" d="M258 -176 L258 -137 C258 -131 255 -129 250 -127 C221 -112 198 -104 187 -89 C172 -68 165 -48 165 -23 L165 570 C165 595 172 615 187 636 C197 649 220 658 250 673 C255 675 258 677 258 683 L258 722 C258 730 255 732 247 732 C213 732 166 710 137 676 C111 646 97 607 97 560 L97 -12 C97 -59 111 -98 137 -128 C167 -163 213 -186 247 -186 C255 -186 258 -184 258 -176 L258 -176 Z " />
<glyph glyph-name="parenright" unicode="&#x29;" horiz-adv-x="354" d="M258 -12 L258 560 C258 606 245 645 219 675 C189 709 141 732 109 732 C100 732 97 730 97 722 L97 683 C97 676 100 675 105 673 C133 659 156 652 168 636 C184 615 191 594 191 570 L191 -23 C191 -47 184 -68 168 -89 C156 -105 133 -113 105 -127 C100 -129 97 -130 97 -137 L97 -176 C97 -185 100 -186 109 -186 C141 -186 189 -163 219 -128 C245 -98 258 -59 258 -12 L258 -12 Z " />
<glyph glyph-name="asterisk" unicode="&#x2a;" horiz-adv-x="384" d="M352 460 C353 462 354 464 354 466 C354 470 352 472 347 474 L240 519 C235 521 232 525 232 528 C232 532 235 535 240 537 L347 584 C352 586 354 589 354 592 C354 594 353 596 352 598 L333 630 C331 634 328 636 325 636 C323 636 321 635 318 633 L224 566 C221 564 219 563 216 563 C212 563 208 567 208 573 L208 575 L221 687 L221 689 C221 695 217 698 211 698 L173 698 C167 698 163 695 163 689 L163 687 L175 575 L175 573 C175 567 171 563 167 563 C164 563 162 564 159 566 L70 633 C67 635 65 636 63 636 C60 636 57 634 55 630 L36 598 C35 596 34 594 34 592 C34 589 36 586 41 584 L144 537 C149 535 151 532 151 528 C151 525 149 521 144 519 L41 475 C36 473 34 471 34 467 C34 465 35 463 36 461 L55 428 C57 424 60 422 63 422 C65 422 68 423 70 425 L161 490 C164 492 167 493 169 493 C173 493 177 489 177 483 L177 481 L163 367 L163 365 C163 359 167 356 173 356 L212 356 C218 356 222 359 222 365 L222 367 L208 481 L208 483 C208 489 212 493 216 493 C218 493 221 492 224 490 L318 425 C320 423 323 423 325 423 C328 423 331 424 333 428 L352 460 Z " />
<glyph glyph-name="plus" unicode="&#x2b;" horiz-adv-x="510" d="M466 223 L466 250 C466 256 462 260 456 260 L289 260 C282 260 279 263 279 270 L279 437 C279 444 276 447 269 447 L243 447 C236 447 233 444 233 437 L233 270 C233 263 230 260 223 260 L55 260 C48 260 45 257 45 250 L45 223 C45 216 48 213 55 213 L223 213 C230 213 233 209 233 203 L233 36 C233 29 236 26 243 26 L269 26 C276 26 279 29 279 36 L279 203 C279 210 282 213 289 213 L456 213 C463 213 466 216 466 223 L466 223 Z " />
<glyph glyph-name="comma" unicode="&#x2c;" horiz-adv-x="209" d="M154 25 L154 81 C154 87 150 91 144 91 L66 91 C59 91 56 88 56 81 L56 22 C56 15 59 12 66 12 L80 12 C88 12 90 7 90 -4 C90 -40 76 -76 50 -101 C48 -103 47 -105 47 -108 C47 -110 48 -112 49 -114 L59 -130 C61 -134 64 -135 66 -135 C99 -135 154 -72 154 25 L154 25 Z " />
<glyph glyph-name="hyphen" unicode="&#x2d;" horiz-adv-x="261" d="M212 197 L212 245 C212 252 208 255 202 255 L60 255 C53 255 50 252 50 245 L50 197 C50 190 53 187 60 187 L202 187 C209 187 212 190 212 197 L212 197 Z " />
<glyph glyph-name="period" unicode="&#x2e;" horiz-adv-x="209" d="M154 34 C154 62 133 83 104 83 C78 83 56 61 56 34 C56 7 78 -15 104 -15 C133 -15 154 6 154 34 L154 34 Z " />
<glyph glyph-name="slash" unicode="&#x2f;" horiz-adv-x="305" d="M309 616 C310 618 311 620 311 622 C311 627 307 630 300 630 L266 630 C261 628 258 626 257 624 L-4 14 C-5 12 -6 10 -6 8 C-6 3 -2 0 5 0 L39 0 C43 0 46 2 48 6 L309 616 Z " />
<glyph glyph-name="zero" unicode="0" horiz-adv-x="510" d="M446 154 L446 476 C446 573 377 640 271 640 L240 640 C134 640 66 574 66 476 L66 154 C66 56 134 -10 240 -10 L271 -10 C377 -10 446 56 446 154 L446 154 Z M378 154 C378 95 329 47 271 47 L240 47 C181 47 134 94 134 154 L134 476 C134 536 180 582 240 582 L271 582 C331 582 378 535 378 476 L378 154 Z " />
<glyph glyph-name="one" unicode="1" horiz-adv-x="510" d="M433 10 L433 47 C433 53 430 57 423 57 L318 57 C311 57 308 60 308 67 L308 619 C308 626 305 629 298 629 L279 629 L272 626 L119 473 C117 471 116 468 116 466 C116 464 117 462 119 459 L144 431 C146 428 149 427 151 427 C153 427 155 428 158 431 L224 497 C227 500 230 501 233 501 C238 501 241 497 241 490 L241 67 C241 60 238 57 231 57 L126 57 C119 57 116 54 116 47 L116 10 C116 3 119 0 126 0 L423 0 C430 0 433 3 433 10 L433 10 Z " />
<glyph glyph-name="two" unicode="2" horiz-adv-x="510" d="M264 640 L224 640 C132 640 71 586 71 553 C71 549 73 547 77 545 L119 524 C121 523 122 523 123 523 C126 523 128 525 131 528 C158 557 180 582 224 582 L264 582 C323 582 371 536 371 476 C371 410 316 378 231 324 C133 262 82 208 82 108 L82 10 C82 3 85 0 92 0 L420 0 C427 0 430 3 430 10 L430 47 C430 53 427 57 420 57 L160 57 C153 57 150 60 150 67 L150 108 C150 167 182 207 247 249 C290 277 331 300 366 328 C412 365 439 419 439 476 C439 573 370 640 264 640 L264 640 Z " />
<glyph glyph-name="three" unicode="3" horiz-adv-x="510" d="M430 162 L430 193 C430 246 395 298 335 323 L335 327 C397 353 430 397 430 450 L430 466 C430 572 362 640 255 640 L224 640 C130 640 69 585 69 552 C69 549 71 547 75 545 L117 523 C119 522 121 522 122 522 C125 522 127 524 130 527 C157 557 178 582 224 582 L255 582 C315 582 362 535 362 476 L362 461 C362 400 315 353 255 353 L185 353 C178 353 175 350 175 343 L175 306 C175 299 178 296 185 296 L255 296 C314 296 362 248 362 190 L362 154 C362 95 313 47 255 47 L224 47 C178 47 157 72 130 103 C127 106 126 108 123 108 C122 108 120 108 118 107 L76 86 C72 84 70 81 70 78 C70 43 130 -10 224 -10 L255 -10 C363 -10 430 57 430 162 L430 162 Z " />
<glyph glyph-name="four" unicode="4" horiz-adv-x="510" d="M477 161 L477 198 C477 205 474 208 467 208 L393 208 C386 208 383 211 383 218 L383 619 C383 626 380 629 373 629 L313 629 L305 625 L37 218 L35 161 C35 154 38 151 45 151 L306 151 C312 151 316 147 316 141 L316 10 C316 3 319 0 326 0 L373 0 C380 0 383 3 383 10 L383 141 C383 148 386 151 393 151 L467 151 C474 151 477 154 477 161 L477 161 Z M316 218 C316 211 313 208 306 208 L110 208 C103 208 99 211 99 216 C99 218 100 221 102 224 L298 519 C300 523 304 525 307 525 C312 525 316 520 316 513 L316 218 Z " />
<glyph glyph-name="five" unicode="5" horiz-adv-x="510" d="M447 162 L447 182 C447 287 380 353 272 353 L186 353 C179 353 176 356 176 363 L176 562 C176 569 179 572 186 572 L426 572 C433 572 436 575 436 582 L436 619 C436 626 433 629 426 629 L119 629 C112 629 109 626 109 619 L109 306 C109 299 112 296 119 296 L272 296 C331 296 379 248 379 190 L379 154 C379 95 331 47 272 47 L241 47 C195 47 175 74 147 103 C144 106 143 108 139 108 C138 108 136 108 134 107 L92 85 C88 83 86 81 86 78 C86 45 146 -10 241 -10 L272 -10 C380 -10 447 57 447 162 L447 162 Z " />
<glyph glyph-name="six" unicode="6" horiz-adv-x="510" d="M445 154 L445 196 C445 290 375 359 281 359 L251 359 C214 359 196 341 172 321 C157 308 149 298 142 298 C138 298 134 302 134 309 L134 476 C134 536 180 582 240 582 L270 582 C319 582 339 557 365 528 C368 525 370 523 373 523 C374 523 375 523 377 524 L419 545 C423 547 426 550 426 553 C426 586 363 640 270 640 L240 640 C135 640 67 575 67 476 L67 154 C67 55 134 -10 240 -10 L270 -10 C376 -10 445 56 445 154 L445 154 Z M377 154 C377 95 329 47 270 47 L240 47 C182 47 134 95 134 154 L134 196 C134 256 180 302 240 302 L270 302 C329 302 377 254 377 196 L377 154 Z " />
<glyph glyph-name="seven" unicode="7" horiz-adv-x="510" d="M441 522 L441 619 C441 626 438 629 431 629 L102 629 C95 629 92 626 92 619 L92 582 C92 575 95 572 102 572 L363 572 C370 572 373 569 373 562 L373 522 C373 444 320 407 239 351 C156 294 113 247 113 154 L113 10 C113 3 116 0 123 0 L171 0 C178 0 181 3 181 10 L181 154 C181 214 220 249 289 296 C383 361 441 410 441 522 L441 522 Z " />
<glyph glyph-name="eight" unicode="8" horiz-adv-x="510" d="M446 162 L446 188 C446 241 411 293 351 318 L351 322 C413 349 446 393 446 445 L446 466 C446 572 378 640 271 640 L240 640 C133 640 66 572 66 466 L66 445 C66 391 100 346 164 321 L164 316 C102 289 69 246 67 188 L66 162 L66 153 C66 54 133 -10 240 -10 L271 -10 C379 -10 446 57 446 162 L446 162 Z M378 456 C378 395 331 348 271 348 L240 348 C180 348 134 394 134 456 L134 476 C134 536 180 582 240 582 L271 582 C331 582 378 535 378 476 L378 456 Z M378 154 C378 95 329 47 271 47 L240 47 C181 47 134 94 134 154 L134 185 C134 245 180 291 240 291 L271 291 C330 291 378 243 378 185 L378 154 Z " />
<glyph glyph-name="nine" unicode="9" horiz-adv-x="510" d="M445 154 L445 476 C445 573 376 640 270 640 L240 640 C135 640 67 575 67 476 L67 398 C67 303 136 234 230 234 L260 234 C296 234 315 252 339 273 C354 286 362 297 369 297 C373 297 377 292 377 286 L377 154 C377 95 329 47 270 47 L240 47 C189 47 172 74 147 103 C144 106 142 108 139 108 C138 108 136 108 134 107 L92 86 C88 84 86 81 86 78 C86 43 146 -10 240 -10 L270 -10 C376 -10 445 56 445 154 L445 154 Z M377 398 C377 339 329 291 270 291 L240 291 C182 291 134 339 134 398 L134 476 C134 536 180 582 240 582 L270 582 C330 582 377 535 377 476 L377 398 Z " />
<glyph glyph-name="colon" unicode="&#x3a;" horiz-adv-x="209" d="M154 315 C154 343 133 364 104 364 C78 364 56 342 56 315 C56 287 78 265 104 265 C132 265 154 288 154 315 L154 315 Z M154 34 C154 62 133 83 104 83 C78 83 56 61 56 34 C56 7 78 -15 104 -15 C133 -15 154 6 154 34 L154 34 Z " />
<glyph glyph-name="semicolon" unicode="&#x3b;" horiz-adv-x="209" d="M154 315 C154 343 133 364 104 364 C78 364 56 342 56 315 C56 287 78 265 104 265 C132 265 154 288 154 315 L154 315 Z M154 25 L154 81 C154 87 150 91 144 91 L66 91 C59 91 56 88 56 81 L56 22 C56 15 59 12 66 12 L80 12 C88 12 90 7 90 -4 C90 -40 76 -76 50 -101 C48 -103 47 -105 47 -108 C47 -110 48 -112 49 -114 L59 -130 C61 -134 64 -135 66 -135 C99 -135 154 -72 154 25 L154 25 Z " />
<glyph glyph-name="less" unicode="&#x3c;" horiz-adv-x="510" d="M412 429 L399 450 C397 454 394 456 391 456 C389 456 387 455 385 454 L72 273 L67 264 L67 213 L72 204 L384 25 C386 24 388 23 390 23 C393 23 395 25 397 28 L411 49 C412 51 413 54 413 56 C413 59 411 62 408 64 L120 231 C116 234 113 237 113 240 C113 243 116 246 120 249 L408 415 C412 417 414 420 414 423 C414 425 413 427 412 429 L412 429 Z " />
<glyph glyph-name="equal" unicode="&#x3d;" horiz-adv-x="510" d="M466 317 L466 343 C466 350 463 353 456 353 L55 353 C48 353 45 350 45 343 L45 317 C45 310 48 307 55 307 L456 307 C463 307 466 310 466 317 L466 317 Z M466 130 L466 156 C466 162 462 166 456 166 L55 166 C48 166 45 163 45 156 L45 130 C45 123 48 120 55 120 L456 120 C463 120 466 123 466 130 L466 130 Z " />
<glyph glyph-name="greater" unicode="&#x3e;" horiz-adv-x="510" d="M444 214 L444 263 L439 272 L127 454 C125 455 123 456 121 456 C118 456 115 454 113 450 L100 429 C99 427 98 425 98 423 C98 420 100 417 104 415 L391 249 C395 246 398 243 398 240 C398 237 395 234 391 231 L104 64 C100 62 98 59 98 56 C98 54 99 52 100 50 L113 29 C115 25 118 23 121 23 C123 23 125 24 127 25 L439 205 L444 214 Z " />
<glyph glyph-name="question" unicode="&#x3f;" horiz-adv-x="510" d="M267 640 L227 640 C133 640 72 585 72 552 C72 549 74 547 78 545 L120 523 C122 522 124 522 125 522 C128 522 130 524 133 527 C161 557 182 582 227 582 L267 582 C326 582 374 536 374 476 C374 408 327 388 251 350 C198 323 173 287 173 233 L173 213 C173 194 174 187 184 187 L232 187 C239 187 242 190 242 198 C242 205 241 210 241 214 C241 269 267 288 323 316 C400 354 441 383 441 476 C441 574 372 640 267 640 L267 640 Z M274 34 C274 62 253 83 224 83 C198 83 175 61 175 34 C175 7 197 -15 224 -15 C253 -15 274 6 274 34 L274 34 Z " />
<glyph glyph-name="at" unicode="&#x40;" horiz-adv-x="700" d="M527 158 C589 163 620 192 620 246 L620 458 C620 561 548 630 438 630 L262 630 C152 630 80 561 80 458 L80 172 C80 69 152 0 262 0 L517 0 C527 0 532 5 532 15 L532 39 C532 49 527 54 517 54 L262 54 C184 54 134 101 134 172 L134 458 C134 529 184 576 262 576 L438 576 C516 576 566 529 566 458 L566 251 C566 230 548 212 527 212 L515 212 C491 212 475 228 475 251 L476 462 C476 471 471 476 461 476 L437 476 C428 476 423 471 423 462 L423 458 C423 454 422 452 421 452 C413 452 387 476 343 476 C276 476 223 428 223 358 L223 277 C223 206 274 157 343 157 C394 157 423 192 434 192 C435 192 436 192 437 191 C458 168 483 157 508 157 L514 157 L527 158 Z M423 350 L423 284 C423 245 391 212 349 212 C307 212 277 244 277 284 L277 350 C277 389 309 422 349 422 C392 422 423 390 423 350 L423 350 Z " />
<glyph glyph-name="A" unicode="A" horiz-adv-x="448" d="M438 13 L253 622 C251 627 248 629 243 629 L205 629 C199 629 197 627 195 622 L10 13 C10 11 9 10 9 9 C9 3 13 0 20 0 L71 0 C76 0 80 2 81 7 L120 145 C121 150 124 151 130 151 L318 151 C324 151 327 150 328 145 L367 7 C368 2 371 0 377 0 L428 0 C435 0 439 3 439 9 C439 10 438 11 438 13 L438 13 Z M305 221 C305 220 306 218 306 217 C306 211 302 208 295 208 L151 208 C144 208 140 211 140 217 C140 218 141 219 141 221 L212 478 C215 488 219 501 223 517 L227 517 C233 495 237 482 238 478 L305 221 Z " />
<glyph glyph-name="B" unicode="B" horiz-adv-x="521" d="M461 173 L461 188 C461 249 430 277 385 311 C382 314 379 315 379 320 C379 328 407 335 428 362 C451 391 461 421 461 445 L461 456 C461 561 393 629 286 629 L92 629 C85 629 82 626 82 619 L82 10 C82 3 85 0 92 0 L286 0 C393 0 461 67 461 173 L461 173 Z M394 456 C394 395 347 348 286 348 L159 348 C152 348 149 351 149 358 L149 562 C149 569 152 572 159 572 L286 572 C346 572 394 525 394 466 L394 456 Z M394 164 C394 104 347 57 286 57 L159 57 C152 57 149 60 149 67 L149 281 C149 288 152 291 159 291 L286 291 C346 291 394 244 394 185 L394 164 Z " />
<glyph glyph-name="C" unicode="C" horiz-adv-x="464" d="M420 86 L378 107 C376 108 374 108 373 108 C367 108 358 93 336 72 C320 57 294 47 271 47 L240 47 C181 47 134 94 134 154 L134 476 C134 536 180 582 240 582 L271 582 C314 582 336 556 366 527 C369 524 370 523 373 523 C374 523 376 523 378 524 L420 545 C424 547 427 550 427 553 C427 586 363 640 271 640 L240 640 C134 640 66 574 66 476 L66 154 C66 56 134 -10 240 -10 L271 -10 C365 -10 426 46 426 78 C426 82 425 84 420 86 L420 86 Z " />
<glyph glyph-name="D" unicode="D" horiz-adv-x="526" d="M461 175 L461 456 C461 561 393 629 286 629 L92 629 C85 629 82 626 82 619 L82 10 C82 3 85 0 92 0 L286 0 C393 0 461 68 461 175 L461 175 Z M394 164 C394 104 347 57 286 57 L159 57 C152 57 149 60 149 67 L149 562 C149 569 152 572 159 572 L286 572 C346 572 394 525 394 466 L394 164 Z " />
<glyph glyph-name="E" unicode="E" horiz-adv-x="479" d="M430 10 L430 47 C430 53 427 57 420 57 L159 57 C152 57 149 60 149 67 L149 281 C149 288 152 291 159 291 L373 291 C380 291 383 294 383 301 L383 338 C383 345 380 348 373 348 L159 348 C152 348 149 351 149 358 L149 562 C149 569 152 572 159 572 L420 572 C427 572 430 575 430 582 L430 619 C430 626 427 629 420 629 L92 629 C85 629 82 626 82 619 L82 10 C82 3 85 0 92 0 L420 0 C427 0 430 3 430 10 L430 10 Z " />
<glyph glyph-name="F" unicode="F" horiz-adv-x="453" d="M430 582 L430 619 C430 626 427 629 420 629 L92 629 C85 629 82 626 82 619 L82 10 C82 3 85 0 92 0 L139 0 C146 0 149 3 149 10 L149 281 C149 288 152 291 159 291 L373 291 C380 291 383 294 383 301 L383 338 C383 345 380 348 373 348 L159 348 C152 348 149 351 149 358 L149 562 C149 569 152 572 159 572 L420 572 C427 572 430 575 430 582 L430 582 Z " />
<glyph glyph-name="G" unicode="G" horiz-adv-x="510" d="M446 154 L446 292 C446 299 442 302 436 302 L263 302 C256 302 253 299 253 292 L253 254 C253 247 256 244 263 244 L368 244 C374 244 378 240 378 234 L378 154 C378 95 329 47 271 47 L240 47 C181 47 134 94 134 154 L134 476 C134 536 180 582 240 582 L290 582 C335 582 356 556 384 527 C386 524 388 523 391 523 C392 523 394 523 396 524 L438 545 C442 547 445 550 445 553 C445 586 383 640 290 640 L240 640 C134 640 66 574 66 476 L66 154 C66 56 134 -10 240 -10 L271 -10 C377 -10 446 56 446 154 L446 154 Z " />
<glyph glyph-name="H" unicode="H" horiz-adv-x="557" d="M477 10 L477 619 C477 626 474 629 467 629 L419 629 C412 629 409 626 409 619 L409 358 C409 351 406 348 399 348 L159 348 C152 348 149 351 149 358 L149 619 C149 626 146 629 139 629 L92 629 C85 629 82 626 82 619 L82 10 C82 3 85 0 92 0 L139 0 C146 0 149 3 149 10 L149 281 C149 288 152 291 159 291 L399 291 C406 291 409 288 409 281 L409 10 C409 3 412 0 419 0 L467 0 C474 0 477 3 477 10 L477 10 Z " />
<glyph glyph-name="I" unicode="I" horiz-adv-x="230" d="M149 10 L149 619 C149 626 146 629 139 629 L92 629 C85 629 82 626 82 619 L82 10 C82 3 85 0 92 0 L139 0 C146 0 149 3 149 10 L149 10 Z " />
<glyph glyph-name="J" unicode="J" horiz-adv-x="417" d="M352 164 L352 619 C352 626 349 629 342 629 L294 629 C287 629 284 626 284 619 L284 154 C284 95 236 47 172 47 C147 47 129 56 118 73 C106 93 97 109 77 109 C74 109 71 108 70 108 L28 87 C24 85 21 82 21 79 C21 67 43 38 91 14 C123 -2 155 -10 182 -10 C229 -10 269 7 301 41 C334 76 352 121 352 164 L352 164 Z " />
<glyph glyph-name="K" unicode="K" horiz-adv-x="526" d="M505 15 L286 370 C285 372 284 374 284 376 C284 377 285 379 286 381 L474 613 C476 616 477 619 477 621 C477 626 473 629 466 629 L413 629 L405 625 L167 313 C164 309 161 307 158 307 C153 307 149 312 149 319 L149 619 C149 626 146 629 139 629 L92 629 C85 629 82 626 82 619 L82 10 C82 3 85 0 92 0 L139 0 C146 0 149 3 149 10 L149 208 L227 306 C230 309 232 311 236 311 C239 311 241 308 244 304 L427 5 L436 0 L496 0 C503 0 507 4 507 8 C507 10 506 13 505 15 L505 15 Z " />
<glyph glyph-name="L" unicode="L" horiz-adv-x="453" d="M430 10 L430 47 C430 53 427 57 420 57 L159 57 C152 57 149 60 149 67 L149 619 C149 626 146 629 139 629 L92 629 C85 629 82 626 82 619 L82 10 C82 3 85 0 92 0 L420 0 C427 0 430 3 430 10 L430 10 Z " />
<glyph glyph-name="M" unicode="M" horiz-adv-x="652" d="M510 497 L504 10 C504 3 507 0 514 0 L561 0 C568 0 571 3 571 10 L571 619 C571 626 568 629 561 629 L514 629 C509 628 506 626 505 623 L328 203 L325 203 L147 623 C146 625 143 628 138 629 L92 629 C85 629 82 626 82 619 L82 10 C82 3 85 0 92 0 L139 0 C146 0 149 3 149 10 L143 495 L309 100 C311 96 314 94 318 94 L334 94 C339 95 342 98 343 100 L510 497 Z " />
<glyph glyph-name="N" unicode="N" horiz-adv-x="557" d="M477 10 L477 619 C477 626 474 629 467 629 L419 629 C412 629 409 626 409 619 L415 128 L413 128 L144 624 L135 629 L92 629 C85 629 82 626 82 619 L82 10 C82 3 85 0 92 0 L139 0 C146 0 149 3 149 10 L144 498 L146 498 L414 5 L423 0 L467 0 C474 0 477 3 477 10 L477 10 Z " />
<glyph glyph-name="O" unicode="O" horiz-adv-x="510" d="M446 154 L446 476 C446 573 377 640 271 640 L240 640 C134 640 66 574 66 476 L66 154 C66 56 134 -10 240 -10 L271 -10 C377 -10 446 56 446 154 L446 154 Z M378 154 C378 95 329 47 271 47 L240 47 C181 47 134 94 134 154 L134 476 C134 536 180 582 240 582 L271 582 C331 582 378 535 378 476 L378 154 Z " />
<glyph glyph-name="P" unicode="P" horiz-adv-x="484" d="M286 629 L92 629 C85 629 82 626 82 619 L82 10 C82 3 85 0 92 0 L139 0 C146 0 149 3 149 10 L149 281 C149 288 152 291 159 291 L286 291 C391 291 461 360 461 461 C461 559 392 629 286 629 L286 629 Z M394 456 C394 395 347 348 286 348 L159 348 C152 348 149 351 149 358 L149 562 C149 569 152 572 159 572 L286 572 C346 572 394 525 394 466 L394 456 Z " />
<glyph glyph-name="Q" unicode="Q" horiz-adv-x="510" d="M446 154 L446 476 C446 573 377 640 271 640 L240 640 C134 640 66 574 66 476 L66 154 C66 89 95 40 152 10 C191 -11 227 -3 227 -19 L227 -84 C227 -91 230 -94 237 -94 L274 -94 C281 -94 284 -91 284 -84 L284 -19 C284 -3 308 -3 313 -3 C345 -3 386 20 405 46 C431 82 446 113 446 154 L446 154 Z M378 154 C378 100 331 52 289 52 C286 52 284 55 284 61 L284 109 C284 115 280 119 274 119 L237 119 C230 119 227 116 227 109 L227 60 C227 54 224 50 221 50 C180 50 134 100 134 154 L134 476 C134 536 180 582 240 582 L271 582 C331 582 378 535 378 476 L378 154 Z " />
<glyph glyph-name="R" unicode="R" horiz-adv-x="510" d="M461 13 L361 302 C361 303 360 304 360 305 C360 315 379 317 401 335 C440 368 461 410 461 445 L461 456 C461 561 393 629 286 629 L92 629 C85 629 82 626 82 619 L82 10 C82 3 85 0 92 0 L139 0 C146 0 149 3 149 10 L149 281 C149 288 152 291 159 291 L285 291 C290 289 292 287 293 285 L389 7 C390 4 393 2 398 0 L452 0 C458 0 462 3 462 8 C462 10 462 11 461 13 L461 13 Z M394 456 C394 395 347 348 286 348 L159 348 C152 348 149 351 149 358 L149 562 C149 569 152 572 159 572 L286 572 C346 572 394 525 394 466 L394 456 Z " />
<glyph glyph-name="S" unicode="S" horiz-adv-x="438" d="M219 582 L235 582 C281 582 302 556 330 527 C332 524 334 523 337 523 C338 523 340 523 342 524 L384 545 C388 547 391 549 391 552 C391 584 329 640 235 640 L219 640 C113 640 45 574 45 476 C45 374 104 338 207 288 C292 247 343 221 343 154 C343 93 295 47 235 47 L192 47 C146 47 126 74 98 103 C95 106 94 108 90 108 C89 108 87 108 85 107 L43 85 C39 83 37 81 37 77 C37 46 97 -10 192 -10 L235 -10 C342 -10 410 56 410 154 C410 216 387 265 340 301 C304 328 258 347 208 371 C144 401 113 434 113 479 C113 537 160 582 219 582 L219 582 Z " />
<glyph glyph-name="T" unicode="T" horiz-adv-x="396" d="M373 582 L373 619 C373 626 370 629 363 629 L34 629 C27 629 24 626 24 619 L24 582 C24 575 27 572 34 572 L155 572 C162 572 165 569 165 562 L165 10 C165 3 168 0 175 0 L222 0 C229 0 232 3 232 10 L232 562 C232 569 235 572 242 572 L363 572 C370 572 373 575 373 582 L373 582 Z " />
<glyph glyph-name="U" unicode="U" horiz-adv-x="510" d="M446 154 L446 619 C446 626 443 629 436 629 L388 629 C381 629 378 626 378 619 L378 154 C378 95 329 47 271 47 L240 47 C181 47 134 94 134 154 L134 619 C134 626 131 629 124 629 L76 629 C69 629 66 626 66 619 L66 154 C66 56 134 -10 240 -10 L271 -10 C377 -10 446 56 446 154 L446 154 Z " />
<glyph glyph-name="V" unicode="V" horiz-adv-x="448" d="M438 616 C438 618 439 619 439 620 C439 626 435 629 428 629 L380 629 C374 629 371 627 370 622 L229 113 L224 113 L78 622 C77 627 73 629 68 629 L20 629 C13 629 9 626 9 620 C9 619 10 618 10 616 L194 7 C196 2 199 0 204 0 L244 0 C249 0 252 2 254 7 L438 616 Z " />
<glyph glyph-name="W" unicode="W" horiz-adv-x="674" d="M657 617 C657 618 658 620 658 621 C658 626 654 629 647 629 L596 629 C591 629 587 626 586 621 L488 133 L354 622 C353 629 349 629 344 629 L330 629 C329 629 327 630 326 630 C323 630 321 627 320 622 L184 133 L88 621 C87 626 83 629 78 629 L27 629 C20 629 16 626 16 621 C16 620 17 618 17 617 L149 8 C150 3 153 0 159 0 L195 0 C200 0 204 2 205 7 L336 462 L468 7 C469 2 472 0 478 0 L514 0 C519 0 523 3 524 8 L657 617 Z " />
<glyph glyph-name="X" unicode="X" horiz-adv-x="457" d="M430 14 L281 311 L281 321 L429 615 C430 617 431 619 431 621 C431 626 427 629 420 629 L360 629 C355 628 352 625 351 623 L241 384 C239 379 235 377 232 377 C229 377 225 379 223 384 L106 623 L97 629 L37 629 C30 629 26 626 26 621 C26 619 27 617 28 614 L179 320 L179 311 L27 15 C26 12 25 10 25 8 C25 3 29 0 36 0 L97 0 L106 6 L223 244 C225 249 229 251 232 251 C235 251 239 249 241 244 L351 6 C352 4 355 1 360 0 L421 0 C428 0 432 3 432 8 C432 10 431 12 430 14 L430 14 Z " />
<glyph glyph-name="Y" unicode="Y" horiz-adv-x="448" d="M430 614 C431 617 432 619 432 621 C432 626 428 629 421 629 L364 629 L355 623 L234 371 C232 366 228 364 225 364 C222 364 218 366 216 371 L93 623 L84 629 L27 629 C19 629 16 626 16 621 C16 619 16 617 18 614 L189 291 L189 10 C189 3 192 0 199 0 L248 0 C255 0 258 3 258 10 L258 291 L430 614 Z " />
<glyph glyph-name="Z" unicode="Z" horiz-adv-x="438" d="M394 10 L394 47 C394 53 390 57 384 57 L144 57 C137 57 133 60 133 65 C133 67 134 69 135 71 L380 615 C381 617 382 619 382 621 C382 626 378 629 371 629 L55 629 C48 629 45 626 45 619 L45 582 C45 575 48 572 55 572 L270 572 C277 572 281 569 281 564 C281 562 280 560 279 558 L36 14 C35 12 34 10 34 8 C34 3 38 0 45 0 L384 0 C391 0 394 3 394 10 L394 10 Z " />
<glyph glyph-name="bracketleft" unicode="&#x5b;" horiz-adv-x="354" d="M258 -177 L258 -140 C258 -134 255 -130 248 -130 L175 -130 C168 -130 165 -127 165 -120 L165 666 C165 673 168 676 175 676 L248 676 C255 676 258 679 258 686 L258 723 C258 730 255 733 248 733 L107 733 C100 733 97 730 97 723 L97 -177 C97 -184 100 -187 107 -187 L248 -187 C255 -187 258 -184 258 -177 L258 -177 Z " />
<glyph glyph-name="backslash" unicode="&#x5c;" horiz-adv-x="305" d="M309 14 L48 624 C46 628 43 630 39 630 L5 630 C-2 630 -6 627 -6 622 C-6 620 -5 618 -4 616 L257 6 C258 4 261 1 266 0 L300 0 C307 0 311 3 311 8 C311 10 310 12 309 14 L309 14 Z " />
<glyph glyph-name="bracketright" unicode="&#x5d;" horiz-adv-x="354" d="M258 -177 L258 723 C258 730 255 733 248 733 L107 733 C100 733 97 730 97 723 L97 686 C97 679 100 676 107 676 L181 676 C188 676 191 673 191 666 L191 -120 C191 -127 188 -130 181 -130 L107 -130 C100 -130 97 -133 97 -140 L97 -177 C97 -184 100 -187 107 -187 L248 -187 C255 -187 258 -184 258 -177 L258 -177 Z " />
<glyph glyph-name="asciicircum" unicode="&#x5e;" horiz-adv-x="741" d="M689 596 C689 621 669 640 644 640 C619 640 600 621 600 596 C600 570 619 551 644 551 C668 551 689 571 689 596 L689 596 Z M678 10 L678 432 C678 439 675 442 668 442 L621 442 C614 442 611 439 611 432 L611 10 C611 3 614 0 621 0 L668 0 C675 0 678 3 678 10 L678 10 Z M511 348 L511 385 C511 392 508 395 501 395 L428 395 C421 395 418 398 418 405 L418 476 C418 500 426 522 441 542 C452 557 474 565 503 579 C508 581 511 582 511 589 L511 628 C511 636 509 638 502 638 C474 638 440 622 399 589 C397 587 395 586 393 586 C386 586 379 596 362 609 C336 630 302 640 260 640 C212 640 167 621 137 589 C104 554 87 511 87 466 L87 405 C87 398 84 395 77 395 L50 395 C43 395 40 392 40 385 L40 348 C40 341 43 338 50 338 L77 338 C84 338 87 335 87 328 L87 10 C87 3 90 0 97 0 L144 0 C151 0 154 3 154 10 L154 328 C154 335 157 338 164 338 L340 338 C347 338 350 335 350 328 L350 10 C350 3 353 0 360 0 L408 0 C415 0 418 3 418 10 L418 328 C418 335 421 338 428 338 L501 338 C508 338 511 341 511 348 L511 348 Z M357 517 C352 499 350 482 350 466 L350 405 C350 398 347 395 340 395 L164 395 C157 395 154 398 154 405 L154 476 C154 535 199 582 260 582 C297 582 327 564 355 526 L357 517 Z " />
<glyph glyph-name="underscore" unicode="&#x5f;" horiz-adv-x="200" d="M215 -215 L215 -190 C215 -184 211 -180 205 -180 L-5 -180 C-12 -180 -15 -183 -15 -190 L-15 -215 C-15 -222 -12 -225 -5 -225 L205 -225 C212 -225 215 -222 215 -215 L215 -215 Z " />
<glyph glyph-name="grave" unicode="&#x60;" horiz-adv-x="500" d="M288 515 L218 619 L210 623 L142 623 C135 623 130 620 130 615 C130 612 132 609 135 606 L253 501 L280 499 C287 499 291 501 291 506 C291 508 290 512 288 515 L288 515 Z " />
<glyph glyph-name="a" unicode="a" horiz-adv-x="454" d="M384 10 L384 289 C384 386 316 450 209 450 C114 450 54 394 54 363 C54 360 56 358 60 356 L102 334 C104 333 106 333 107 333 C114 333 121 348 142 367 C160 384 184 393 209 393 C270 393 314 348 315 289 L316 249 C316 242 313 239 306 239 L174 239 C99 239 48 190 48 123 L48 117 C48 50 99 0 174 0 L214 0 C227 0 247 7 260 17 C292 43 309 65 319 65 C323 65 327 60 327 53 L327 10 C327 3 330 0 337 0 L374 0 C381 0 384 3 384 10 L384 10 Z M316 164 L315 143 C288 86 254 57 214 57 L174 57 C142 57 115 84 115 117 L115 133 C115 166 141 192 174 192 L306 192 C312 192 316 188 316 182 L316 164 Z " />
<glyph glyph-name="b" unicode="b" horiz-adv-x="474" d="M420 164 L420 279 C420 322 403 363 372 396 C344 426 306 442 263 442 C216 442 199 424 176 405 C161 392 153 382 146 382 C142 382 139 386 139 393 L139 619 C139 626 136 629 129 629 L81 629 C74 629 71 626 71 619 L71 10 C71 3 74 0 81 0 L118 0 C125 0 128 3 128 10 L128 51 C128 58 132 62 136 62 C147 62 163 35 199 12 C209 6 228 0 254 0 C347 0 420 68 420 164 L420 164 Z M352 164 C352 106 305 57 245 57 C185 57 139 106 139 164 L139 279 C139 338 184 385 245 385 C305 385 352 336 352 279 L352 164 Z " />
<glyph glyph-name="c" unicode="c" horiz-adv-x="425" d="M378 86 L336 107 C334 108 332 108 331 108 C325 108 316 94 295 74 C277 57 253 47 229 47 C169 47 123 96 123 154 L123 289 C123 348 168 395 229 395 C274 395 294 368 324 340 C327 337 329 336 332 336 C333 336 334 336 336 337 L378 358 C382 360 385 363 385 366 C385 399 322 452 229 452 C123 452 56 388 56 289 L56 154 C56 55 123 -10 229 -10 C323 -10 384 46 384 78 C384 82 383 84 378 86 L378 86 Z " />
<glyph glyph-name="d" unicode="d" horiz-adv-x="474" d="M404 10 L404 619 C404 626 401 629 394 629 L346 629 C339 629 336 626 336 619 L336 391 C336 384 332 380 328 380 C317 380 301 406 265 430 C255 436 236 442 212 442 C125 442 56 373 56 279 L56 164 C56 67 127 0 219 0 C267 0 285 19 308 39 C324 53 332 64 339 64 C343 64 347 60 347 53 L347 10 C347 3 350 0 357 0 L394 0 C401 0 404 3 404 10 L404 10 Z M336 164 C336 106 289 57 229 57 C169 57 123 106 123 164 L123 279 C123 338 168 385 229 385 C289 385 336 336 336 279 L336 164 Z " />
<glyph glyph-name="e" unicode="e" horiz-adv-x="458" d="M404 228 L404 289 C404 375 326 452 229 452 C178 452 136 434 103 399 C73 367 56 326 56 289 L56 154 C56 55 123 -10 229 -10 C323 -10 384 46 384 78 C384 82 383 84 378 86 L336 107 C334 108 332 108 331 108 C325 108 316 94 295 74 C277 57 253 47 229 47 C169 47 123 96 123 154 L123 208 C123 215 126 218 133 218 L394 218 C401 218 404 221 404 228 L404 228 Z M336 275 C336 268 333 265 326 265 L133 265 C126 265 123 268 123 275 L123 289 C123 348 168 395 229 395 C289 395 336 346 336 289 L336 275 Z " />
<glyph glyph-name="f" unicode="f" horiz-adv-x="276" d="M300 626 C301 628 301 630 301 631 C301 640 287 640 254 640 C209 640 168 622 137 589 C104 554 87 510 87 466 L87 405 C87 398 84 395 77 395 L50 395 C43 395 40 392 40 385 L40 348 C40 341 43 338 50 338 L77 338 C84 338 87 335 87 328 L87 10 C87 3 90 0 97 0 L144 0 C151 0 154 3 154 10 L154 328 C154 335 157 338 164 338 L238 338 C245 338 248 341 248 348 L248 385 C248 392 245 395 238 395 L164 395 C157 395 154 398 154 405 L154 476 C154 535 198 582 260 582 C262 582 268 581 278 581 L287 588 L300 626 Z " />
<glyph glyph-name="g" unicode="g" horiz-adv-x="458" d="M323 11 L196 11 C171 22 160 37 160 59 C160 78 172 94 197 107 C208 106 218 105 229 105 C332 105 404 177 404 269 L404 432 C404 439 401 442 394 442 L357 442 C350 442 347 439 347 432 L347 390 C347 383 343 379 339 379 C328 379 312 406 275 430 C265 437 245 442 221 442 C130 442 56 370 56 279 L56 269 C56 231 66 201 77 189 C110 151 128 133 128 129 C128 119 103 99 103 59 C103 28 123 9 123 -2 C123 -8 106 -18 81 -43 C65 -58 56 -83 56 -110 C56 -175 109 -225 182 -225 L323 -225 C398 -225 451 -175 451 -107 C451 -39 399 11 323 11 L323 11 Z M336 269 C336 211 289 162 229 162 C169 162 123 211 123 269 L123 279 C123 338 168 385 229 385 C289 385 336 336 336 279 L336 269 Z M323 -168 L182 -168 C149 -168 123 -143 123 -107 C123 -72 149 -47 182 -47 L323 -47 C356 -47 383 -73 383 -107 C383 -142 356 -168 323 -168 L323 -168 Z " />
<glyph glyph-name="h" unicode="h" horiz-adv-x="484" d="M420 10 L420 279 C420 372 350 442 262 442 C216 442 199 423 176 405 C161 392 153 382 146 382 C142 382 139 386 139 393 L139 619 C139 626 136 629 129 629 L81 629 C74 629 71 626 71 619 L71 10 C71 3 74 0 81 0 L129 0 C136 0 139 3 139 10 L139 279 C139 338 184 385 245 385 C305 385 352 336 352 279 L352 10 C352 3 355 0 362 0 L410 0 C417 0 420 3 420 10 L420 10 Z " />
<glyph glyph-name="i" unicode="i" horiz-adv-x="209" d="M149 596 C149 621 130 640 104 640 C81 640 61 620 61 596 C61 570 80 551 104 551 C129 551 149 572 149 596 L149 596 Z M139 10 L139 432 C139 439 136 442 129 442 L81 442 C74 442 71 439 71 432 L71 10 C71 3 74 0 81 0 L129 0 C136 0 139 3 139 10 L139 10 Z " />
<glyph glyph-name="j" unicode="j" horiz-adv-x="209" d="M149 596 C149 621 130 640 104 640 C81 640 61 620 61 596 C61 570 80 551 104 551 C129 551 149 572 149 596 L149 596 Z M139 -62 L139 432 C139 439 136 442 129 442 L81 442 C74 442 71 439 71 432 L71 -73 C71 -97 63 -118 48 -139 C36 -155 13 -164 -14 -177 C-19 -179 -22 -180 -22 -187 L-22 -225 C-22 -233 -19 -235 -12 -235 C28 -235 67 -213 97 -174 C124 -138 139 -98 139 -62 L139 -62 Z " />
<glyph glyph-name="k" unicode="k" horiz-adv-x="447" d="M426 15 L256 290 C255 292 255 293 255 295 C255 297 256 300 258 302 L380 425 C383 428 384 430 384 433 C384 438 380 442 373 442 L318 442 L311 439 L156 268 C153 265 150 264 147 264 C142 264 139 268 139 275 L139 619 C139 626 136 629 129 629 L81 629 C74 629 71 626 71 619 L71 10 C71 3 74 0 81 0 L129 0 C136 0 139 3 139 10 L139 177 L194 233 C196 236 200 237 202 237 C205 237 208 235 210 231 L348 5 L357 0 L417 0 C424 0 428 4 428 8 C428 10 427 13 426 15 L426 15 Z " />
<glyph glyph-name="l" unicode="l" horiz-adv-x="209" d="M139 10 L139 619 C139 626 136 629 129 629 L81 629 C74 629 71 626 71 619 L71 10 C71 3 74 0 81 0 L129 0 C136 0 139 3 139 10 L139 10 Z " />
<glyph glyph-name="m" unicode="m" horiz-adv-x="729" d="M659 10 L659 279 C659 374 590 442 494 442 C459 442 430 433 410 417 C382 394 370 378 365 378 C360 378 347 395 318 419 C300 434 277 442 251 442 C211 442 192 423 168 404 C151 390 141 380 135 380 C131 380 128 385 128 392 L128 432 C128 439 125 442 118 442 L81 442 C74 442 71 439 71 432 L71 10 C71 3 74 0 81 0 L129 0 C136 0 139 3 139 10 L139 279 C139 335 187 385 234 385 C282 385 331 335 331 279 L331 10 C331 3 334 0 341 0 L389 0 C396 0 399 3 399 10 L399 279 C399 334 448 385 494 385 C542 385 591 335 591 279 L591 10 C591 3 594 0 601 0 L649 0 C656 0 659 3 659 10 L659 10 Z " />
<glyph glyph-name="n" unicode="n" horiz-adv-x="490" d="M420 10 L420 279 C420 375 347 442 254 442 C206 442 189 423 166 404 C151 391 143 381 136 381 C132 381 128 386 128 392 L128 432 C128 439 125 442 118 442 L81 442 C74 442 71 439 71 432 L71 10 C71 3 74 0 81 0 L129 0 C136 0 139 3 139 10 L139 279 C139 338 184 385 245 385 C305 385 352 336 352 279 L352 10 C352 3 355 0 362 0 L410 0 C417 0 420 3 420 10 L420 10 Z " />
<glyph glyph-name="o" unicode="o" horiz-adv-x="458" d="M404 154 L404 289 C404 386 335 452 229 452 C123 452 56 388 56 289 L56 154 C56 55 123 -10 229 -10 C335 -10 404 56 404 154 L404 154 Z M336 154 C336 96 289 47 229 47 C169 47 123 96 123 154 L123 289 C123 348 168 395 229 395 C289 395 336 346 336 289 L336 154 Z " />
<glyph glyph-name="p" unicode="p" horiz-adv-x="474" d="M420 164 L420 279 C420 375 347 442 254 442 C206 442 189 423 166 404 C151 391 143 381 136 381 C132 381 128 386 128 392 L128 432 C128 439 125 442 118 442 L81 442 C74 442 71 439 71 432 L71 -215 C71 -222 74 -225 81 -225 L129 -225 C136 -225 139 -222 139 -215 L139 50 C139 57 142 62 146 62 C157 62 174 36 209 13 C220 6 240 0 265 0 C306 0 343 16 372 46 C403 79 420 121 420 164 L420 164 Z M352 164 C352 106 305 57 245 57 C185 57 139 106 139 164 L139 279 C139 338 184 385 245 385 C305 385 352 336 352 279 L352 164 Z " />
<glyph glyph-name="q" unicode="q" horiz-adv-x="474" d="M404 -215 L404 432 C404 439 401 442 394 442 L357 442 C350 442 347 439 347 432 L347 390 C347 383 343 379 339 379 C328 379 312 406 275 430 C265 437 245 442 219 442 C127 442 56 376 56 279 L56 164 C56 120 73 78 103 46 C131 16 168 0 211 0 C258 0 274 19 296 38 C313 52 321 63 328 63 C332 63 336 58 336 52 L336 -215 C336 -222 339 -225 346 -225 L394 -225 C401 -225 404 -222 404 -215 L404 -215 Z M336 164 C336 106 289 57 229 57 C169 57 123 106 123 164 L123 279 C123 338 168 385 229 385 C289 385 336 336 336 279 L336 164 Z " />
<glyph glyph-name="r" unicode="r" horiz-adv-x="298" d="M292 381 L292 432 C292 439 289 442 282 442 L245 442 C231 442 210 434 199 425 C163 396 147 371 136 371 C132 371 128 375 128 382 L128 432 C128 439 125 442 118 442 L81 442 C74 442 71 439 71 432 L71 10 C71 3 74 0 81 0 L129 0 C136 0 139 3 139 10 L139 269 C139 328 184 374 245 374 C262 374 275 371 283 371 C290 371 292 373 292 381 L292 381 Z " />
<glyph glyph-name="s" unicode="s" horiz-adv-x="438" d="M200 399 L231 399 C276 399 299 375 327 345 C330 342 332 340 335 340 C336 340 337 340 339 341 L377 360 C381 362 384 364 384 367 C384 397 322 452 231 452 L200 452 C107 452 46 395 46 313 C46 225 109 213 225 189 C292 175 323 153 323 116 C323 75 287 43 231 43 L200 43 C151 43 131 70 105 99 C102 102 100 104 97 104 C96 104 94 104 92 103 L53 84 C48 82 46 80 46 77 C46 46 107 -10 200 -10 L231 -10 C328 -10 390 49 390 134 C390 218 326 233 211 258 C142 273 111 292 111 333 C111 374 142 399 200 399 L200 399 Z " />
<glyph glyph-name="t" unicode="t" horiz-adv-x="308" d="M253 1 L253 40 C253 46 250 48 245 50 C216 65 193 73 182 88 C167 109 160 130 160 154 L160 375 C160 382 163 385 170 385 L243 385 C250 385 253 388 253 395 L253 432 C253 439 250 442 243 442 L170 442 C163 442 160 445 160 452 L160 526 C160 533 156 536 150 536 L134 536 L127 533 L14 414 L14 395 C14 388 17 385 24 385 L82 385 C89 385 92 382 92 375 L92 154 C92 58 167 -9 242 -9 C250 -9 253 -6 253 1 L253 1 Z " />
<glyph glyph-name="u" unicode="u" horiz-adv-x="479" d="M409 10 L409 432 C409 439 406 442 399 442 L352 442 C345 442 342 439 342 432 L342 164 C342 105 296 57 234 57 C175 57 128 106 128 164 L128 432 C128 439 125 442 118 442 L71 442 C64 442 61 439 61 432 L61 164 C61 67 133 0 224 0 C257 0 287 11 307 30 C325 48 335 64 344 64 C348 64 352 60 352 53 L352 10 C352 3 355 0 362 0 L399 0 C406 0 409 3 409 10 L409 10 Z " />
<glyph glyph-name="v" unicode="v" horiz-adv-x="427" d="M414 428 C415 430 416 432 416 434 C416 439 412 442 405 442 L355 442 C351 442 347 440 346 436 L216 102 L212 102 L81 436 C78 439 75 442 72 442 L23 442 C16 442 12 439 12 434 C12 432 13 430 14 428 L184 6 C186 2 189 0 193 0 L235 0 C238 1 241 3 244 6 L414 428 Z " />
<glyph glyph-name="w" unicode="w" horiz-adv-x="611" d="M591 429 C591 431 592 432 592 433 C592 439 588 442 581 442 L529 442 C505 442 493 327 435 103 L433 103 C373 327 357 442 334 442 L278 442 C256 442 238 328 178 103 L176 103 C117 326 106 442 82 442 L30 442 C23 442 19 439 19 433 C19 432 20 431 20 429 L149 7 C150 2 153 0 159 0 L195 0 C219 0 234 118 304 344 L308 344 C350 199 382 86 406 7 C408 2 411 0 416 0 L452 0 C457 0 460 2 462 7 L591 429 Z " />
<glyph glyph-name="x" unicode="x" horiz-adv-x="404" d="M382 15 L251 218 L251 228 L381 427 C383 430 383 432 383 434 C383 438 380 442 373 442 L319 442 L311 437 L211 276 C209 273 206 271 203 271 C200 271 196 273 194 276 L93 437 L85 442 L31 442 C24 442 20 438 20 434 C20 432 21 429 23 427 L153 229 L153 218 L21 15 C19 12 18 10 18 8 C18 4 22 0 29 0 L85 0 L93 5 L194 167 C196 171 199 172 202 172 C205 172 208 170 210 167 L310 5 L319 0 L374 0 C380 0 384 4 384 8 C384 10 384 12 382 15 L382 15 Z " />
<glyph glyph-name="y" unicode="y" horiz-adv-x="479" d="M409 -60 L409 432 C409 439 406 442 399 442 L352 442 C345 442 342 439 342 432 L342 164 C342 105 296 57 234 57 C175 57 128 106 128 164 L128 432 C128 439 125 442 118 442 L71 442 C64 442 61 439 61 432 L61 164 C61 67 134 0 223 0 C267 0 283 17 305 36 C320 49 327 59 334 59 C338 59 342 55 342 48 L342 -71 C342 -130 296 -178 234 -178 C190 -178 168 -153 140 -122 C137 -119 136 -117 133 -117 C132 -117 130 -117 128 -118 L86 -139 C81 -141 80 -143 80 -147 C80 -179 141 -235 234 -235 C343 -235 409 -169 409 -60 L409 -60 Z " />
<glyph glyph-name="z" unicode="z" horiz-adv-x="427" d="M387 10 L387 47 C387 53 383 57 377 57 L164 57 C157 57 153 60 153 65 C153 67 154 69 155 72 L368 426 C369 428 370 431 370 433 C370 437 366 441 359 441 L50 441 C43 441 40 438 40 431 L40 394 C40 387 43 384 50 384 L242 384 C249 384 253 381 253 376 C253 374 252 371 251 369 L40 15 C38 12 38 10 38 8 C38 3 41 0 49 0 L377 0 C384 0 387 3 387 10 L387 10 Z " />
<glyph glyph-name="braceleft" unicode="&#x7b;" horiz-adv-x="354" d="M258 -176 L258 -137 C258 -131 255 -129 250 -127 C221 -112 198 -104 187 -89 C172 -68 165 -48 165 -23 L165 141 C165 187 134 246 83 273 L83 277 C134 303 165 355 165 398 L165 570 C165 595 172 615 187 636 C197 649 220 658 250 673 C255 675 258 677 258 683 L258 722 C258 730 255 732 247 732 C213 732 166 710 137 676 C111 646 97 607 97 560 L97 409 C97 385 89 364 74 343 C64 329 41 320 12 305 C7 302 4 301 4 295 L4 251 C4 244 7 243 12 241 C40 228 62 220 74 204 C89 184 97 162 97 138 L97 -12 C97 -59 111 -98 137 -128 C167 -163 213 -186 247 -186 C255 -186 258 -184 258 -176 L258 -176 Z " />
<glyph glyph-name="bar" unicode="&#x7c;" horiz-adv-x="751" d="M681 10 L681 619 C681 626 678 629 671 629 L524 629 C491 629 461 620 439 607 C414 592 401 580 397 580 C389 580 378 600 354 616 C331 631 299 640 265 640 C161 640 87 564 87 466 L87 405 C87 398 84 395 77 395 L50 395 C43 395 40 392 40 385 L40 348 C40 341 43 338 50 338 L77 338 C84 338 87 335 87 328 L87 10 C87 3 90 0 97 0 L144 0 C151 0 154 3 154 10 L154 328 C154 335 157 338 164 338 L340 338 C347 338 350 335 350 328 L350 10 C350 3 353 0 360 0 L408 0 C415 0 418 3 418 10 L418 328 C418 335 421 338 428 338 L501 338 C508 338 511 341 511 348 L511 385 C511 392 508 395 501 395 L428 395 C421 395 418 398 418 405 L418 466 C418 526 464 572 524 572 L604 572 C611 572 614 569 614 562 L614 10 C614 3 617 0 624 0 L671 0 C678 0 681 3 681 10 L681 10 Z M359 513 C352 496 350 477 350 456 L350 405 C350 398 347 395 340 395 L164 395 C157 395 154 398 154 405 L154 476 C154 535 199 582 260 582 C298 582 329 562 358 521 L359 513 Z " />
<glyph glyph-name="braceright" unicode="&#x7d;" horiz-adv-x="354" d="M352 251 L352 295 C352 301 349 302 344 305 C313 321 290 331 281 343 C266 364 259 384 259 409 L259 560 C259 607 245 646 219 676 C189 710 142 732 109 732 C101 732 98 730 98 722 L98 683 C98 676 101 675 106 673 C134 659 157 651 168 636 C183 616 191 594 191 570 L191 398 C191 353 222 301 274 277 L274 273 C223 246 191 188 191 141 L191 -23 C191 -47 183 -68 168 -89 C156 -106 133 -114 106 -127 C101 -129 98 -130 98 -137 L98 -176 C98 -184 101 -186 109 -186 C142 -186 189 -163 219 -128 C245 -97 259 -59 259 -12 L259 138 C259 162 266 184 281 204 C291 218 314 226 344 241 C349 243 352 245 352 251 L352 251 Z " />
<glyph glyph-name="asciitilde" unicode="&#x7e;" horiz-adv-x="540" d="M564 626 C565 628 565 630 565 631 C565 640 552 640 519 640 C479 640 439 623 399 589 C397 587 395 586 393 586 C386 586 379 596 362 609 C336 630 302 640 260 640 C212 640 167 621 137 589 C104 554 87 511 87 466 L87 405 C87 398 84 395 77 395 L50 395 C43 395 40 392 40 385 L40 348 C40 341 43 338 50 338 L77 338 C84 338 87 335 87 328 L87 10 C87 3 90 0 97 0 L144 0 C151 0 154 3 154 10 L154 328 C154 335 157 338 164 338 L340 338 C347 338 350 335 350 328 L350 10 C350 3 353 0 360 0 L408 0 C415 0 418 3 418 10 L418 328 C418 335 421 338 428 338 L501 338 C508 338 511 341 511 348 L511 385 C511 392 508 395 501 395 L428 395 C421 395 418 398 418 405 L418 476 C418 535 463 582 524 582 C531 582 536 581 540 581 C544 581 547 583 551 588 L564 626 Z M357 517 C352 499 350 482 350 466 L350 405 C350 398 347 395 340 395 L164 395 C157 395 154 398 154 405 L154 476 C154 535 199 582 260 582 C297 582 327 564 355 526 L357 517 Z " />
<glyph glyph-name="exclamdown" unicode="&#xa1;" horiz-adv-x="261" d="M165 409 C165 434 142 457 115 457 C88 457 66 435 66 409 C66 380 87 359 115 359 C142 359 165 382 165 409 L165 409 Z M149 -177 L149 81 L127 246 C126 252 123 255 117 255 L111 255 C105 255 102 252 101 246 L80 80 L80 -177 C80 -184 83 -187 90 -187 L139 -187 C146 -187 149 -184 149 -177 L149 -177 Z " />
<glyph glyph-name="cent" unicode="&#xa2;" horiz-adv-x="510" d="M408 179 L366 201 C364 202 362 203 360 203 C350 203 321 148 287 148 C283 148 281 151 281 157 L281 470 C281 479 284 482 292 482 C310 482 327 462 354 433 C357 430 358 428 361 428 C363 428 365 429 367 430 L408 452 C412 454 414 456 414 459 C414 487 381 512 316 536 C293 545 281 543 281 555 L281 620 C281 627 277 630 271 630 L246 630 C239 630 236 627 236 620 L236 555 C236 540 207 543 166 524 C118 502 85 448 85 383 L85 248 C85 182 117 129 166 107 C205 89 236 91 236 76 L236 10 C236 3 239 0 246 0 L271 0 C278 0 281 3 281 10 L281 75 C281 87 293 86 316 94 C381 118 413 142 413 170 C413 174 412 177 408 179 L408 179 Z M236 157 C236 151 233 147 229 147 C195 147 153 195 153 248 L153 383 C153 436 193 482 229 482 C233 482 236 478 236 472 L236 157 Z " />
<glyph glyph-name="sterling" unicode="&#xa3;" horiz-adv-x="510" d="M144 466 L144 358 C144 351 141 348 134 348 L107 348 C100 348 97 345 97 338 L97 301 C97 294 100 291 107 291 L134 291 C141 291 144 288 144 281 L144 164 C144 113 112 75 51 58 L14 57 C7 57 4 54 4 47 L4 10 C4 3 7 0 14 0 L436 0 C443 0 446 3 446 10 L446 47 C446 53 442 57 436 57 L188 57 C181 57 177 60 177 65 C177 84 212 114 212 154 L212 281 C212 288 215 291 222 291 L295 291 C302 291 305 294 305 301 L305 338 C305 345 302 348 295 348 L222 348 C215 348 212 351 212 358 L212 476 C212 536 256 582 318 582 C363 582 383 556 412 527 C414 524 416 523 419 523 C420 523 422 523 424 524 L466 545 C470 547 473 550 473 553 C473 585 408 640 325 640 C219 640 144 565 144 466 L144 466 Z " />
<glyph glyph-name="currency" unicode="&#xa4;" horiz-adv-x="606" d="M176 591 L76 691 L44 659 L144 559 C116 521 100 478 100 432 C100 386 116 344 144 306 L44 205 L76 173 L176 273 C215 244 256 229 303 229 C350 229 393 244 431 273 L531 173 L563 205 L463 306 C491 344 506 386 506 432 C506 478 491 521 463 559 L563 659 L531 691 L431 591 C394 620 350 635 303 635 C256 635 214 620 176 591 L176 591 Z M461 433 C461 347 392 274 304 274 C217 274 145 346 145 433 C145 519 217 590 304 590 C392 590 461 519 461 433 L461 433 Z " />
<glyph glyph-name="yen" unicode="&#xa5;" horiz-adv-x="510" d="M466 104 L466 140 C466 146 462 150 456 150 L300 150 C293 150 290 153 290 160 L290 250 C290 257 293 260 300 260 L456 260 C463 260 466 263 466 270 L466 307 C466 314 463 317 456 317 L320 317 C313 317 309 320 309 325 C309 327 310 329 311 332 L461 614 C462 617 463 619 463 621 C463 626 459 629 452 629 L395 629 L386 623 L265 371 C263 366 259 364 256 364 C253 364 249 366 247 371 L124 623 L115 629 L58 629 C51 629 47 626 47 622 C47 620 47 617 49 614 L199 332 C200 329 201 327 201 325 C201 320 197 317 190 317 L55 317 C48 317 45 314 45 307 L45 270 C45 263 48 260 55 260 L212 260 C218 260 222 256 222 250 L222 160 C222 153 219 150 212 150 L55 150 C48 150 45 147 45 140 L45 104 C45 97 48 94 55 94 L212 94 C218 94 222 90 222 84 L222 10 C222 3 225 0 232 0 L280 0 C287 0 290 3 290 10 L290 84 C290 91 293 94 300 94 L456 94 C463 94 466 97 466 104 L466 104 Z " />
<glyph glyph-name="brokenbar" unicode="&#xa6;" horiz-adv-x="500" d="M277 699 L224 699 L224 329 L277 329 L277 699 Z M277 199 L224 199 L224 -171 L277 -171 L277 199 Z " />
<glyph glyph-name="section" unicode="&#xa7;" horiz-adv-x="510" d="M255 582 L272 582 C316 582 338 555 367 527 C370 524 372 523 375 523 C376 523 377 523 379 524 L421 545 C425 547 428 549 428 552 C428 584 365 640 272 640 L255 640 C150 640 82 574 82 476 C82 405 119 375 119 365 C119 357 82 325 82 253 C82 160 129 112 230 63 C319 20 379 -1 379 -70 C379 -130 330 -177 272 -177 L226 -177 C206 -177 190 -173 177 -162 C164 -151 158 -116 129 -116 C126 -116 123 -117 122 -117 L80 -138 C75 -140 74 -142 74 -146 C74 -178 135 -234 228 -234 L272 -234 C378 -234 447 -167 447 -70 C447 2 411 39 411 47 C411 55 447 88 447 154 C447 251 400 305 298 354 C209 397 149 415 149 476 C149 538 196 582 255 582 L255 582 Z M379 154 C379 121 362 94 354 94 C334 94 289 120 212 165 C201 172 192 178 186 183 C161 203 149 226 149 253 C149 293 168 320 177 320 C179 320 239 301 317 250 C358 223 379 193 379 154 L379 154 Z " />
<glyph glyph-name="dieresis" unicode="&#xa8;" horiz-adv-x="500" d="M375 563 C375 587 356 606 330 606 C305 606 287 588 287 563 C287 537 305 518 330 518 C354 518 375 539 375 563 L375 563 Z M212 563 C212 588 193 606 168 606 C142 606 124 588 124 563 C124 537 143 518 168 518 C193 518 212 537 212 563 L212 563 Z " />
<glyph glyph-name="copyright" unicode="&#xa9;" horiz-adv-x="700" d="M620 170 L620 460 C620 561 549 630 440 630 L260 630 C151 630 80 562 80 460 L80 170 C80 68 151 0 260 0 L440 0 C549 0 620 69 620 170 L620 170 Z M575 170 C575 96 522 45 440 45 L260 45 C178 45 125 95 125 170 L125 460 C125 535 178 585 260 585 L440 585 C522 585 575 534 575 460 L575 170 Z M457 224 L427 240 C425 241 424 242 422 242 C412 242 393 198 349 198 C307 198 275 232 275 272 L275 371 C275 412 306 444 349 444 C393 444 412 402 421 402 C423 402 425 403 427 404 L456 419 C459 421 461 424 461 426 C461 448 418 489 349 489 C271 489 222 442 222 371 L222 272 C222 200 272 152 349 152 C418 152 462 190 462 215 C462 219 461 222 457 224 L457 224 Z " />
<glyph glyph-name="ordfeminine" unicode="&#xaa;" horiz-adv-x="318" d="M274 327 L274 522 C274 593 224 640 146 640 C77 640 33 600 33 574 C33 571 35 567 40 565 L69 550 C72 549 74 548 76 548 C79 548 81 550 84 555 C103 579 122 590 146 590 C186 590 214 562 215 522 L216 494 L214 492 L122 492 C66 492 29 456 29 406 L29 402 C29 351 66 315 122 315 L150 315 C169 315 194 329 220 359 L224 357 L224 327 C224 318 227 315 236 315 L262 315 C271 315 274 318 274 327 L274 327 Z M216 435 L215 421 C199 384 175 365 150 365 L122 365 C101 365 85 381 85 402 L85 413 C85 433 101 449 122 449 L214 449 L216 447 L216 435 Z " />
<glyph glyph-name="guillemotleft" unicode="&#xab;" horiz-adv-x="556" d="M490 114 L490 157 L486 165 L341 270 C337 273 336 275 336 278 C336 281 337 283 341 286 L486 390 L490 398 L490 440 C490 447 486 451 482 451 C480 451 477 450 474 448 L283 313 L279 305 L279 250 L283 242 L474 106 C477 104 480 103 482 103 C487 103 490 107 490 114 L490 114 Z M265 115 L265 157 L261 165 L116 270 C112 273 111 275 111 278 C111 281 112 283 116 286 L261 390 L265 398 L265 440 C265 447 261 451 257 451 C255 451 252 450 249 448 L60 313 L56 305 L56 250 L60 242 L249 107 C252 105 255 104 257 104 C262 104 265 108 265 115 L265 115 Z " />
<glyph glyph-name="logicalnot" unicode="&#xac;" horiz-adv-x="833" d="M709 419 L124 419 L124 370 L662 370 L662 174 L709 174 L709 419 Z " />
<glyph glyph-name="registered" unicode="&#xae;" horiz-adv-x="420" d="M392 440 L392 460 C392 561 321 630 212 630 L208 630 C99 630 28 562 28 460 L28 440 C28 338 99 270 208 270 L212 270 C321 270 392 338 392 440 L392 440 Z M362 440 C362 356 303 300 212 300 L208 300 C117 300 58 356 58 440 L58 460 C58 544 117 600 208 600 L212 600 C303 600 362 544 362 460 L362 440 Z M284 481 L284 485 C284 523 259 548 221 548 L158 548 C151 548 148 545 148 538 L148 370 C148 363 151 360 158 360 L169 360 C176 360 179 363 179 370 L179 415 C179 422 182 425 189 425 L214 425 C218 425 221 423 223 419 L246 366 C248 362 250 360 255 360 L271 360 C278 360 282 363 282 368 C282 370 281 372 280 374 L255 424 C254 425 254 426 254 427 C254 439 284 453 284 481 L284 481 Z M252 485 C252 467 239 453 221 453 L189 453 C182 453 179 456 179 463 L179 510 C179 517 182 520 189 520 L221 520 C239 520 252 506 252 488 L252 485 Z " />
<glyph glyph-name="macron" unicode="&#xaf;" horiz-adv-x="500" d="M356 545 L356 582 C356 589 353 592 346 592 L152 592 C145 592 142 589 142 582 L142 545 C142 538 145 535 152 535 L346 535 C353 535 356 538 356 545 L356 545 Z " />
<glyph glyph-name="degree" unicode="&#xb0;" horiz-adv-x="209" d="M186 538 L186 567 C186 611 154 643 104 643 C55 643 24 612 24 567 L24 538 C24 492 55 461 104 461 C154 461 186 493 186 538 L186 538 Z M148 567 L148 538 C148 515 131 499 104 499 C78 499 62 514 62 538 L62 567 C62 590 78 605 104 605 C132 605 148 590 148 567 L148 567 Z " />
<glyph glyph-name="plusminus" unicode="&#xb1;" horiz-adv-x="833" d="M441 571 L393 571 L393 401 L124 401 L124 353 L393 353 L393 183 L441 183 L441 353 L709 353 L709 401 L441 401 L441 571 Z M709 73 L124 73 L124 25 L709 25 L709 73 Z " />
<glyph glyph-name="twosuperior" unicode="&#xb2;" horiz-adv-x="337" d="M174 636 L148 636 C87 636 47 604 47 584 C47 581 48 580 51 579 L79 566 L81 566 C83 566 84 567 86 569 C104 586 119 601 148 601 L174 601 C213 601 245 574 245 538 C245 498 209 479 152 446 C88 409 54 377 54 317 L54 258 C54 254 56 252 61 252 L277 252 C282 252 284 254 284 258 L284 280 C284 284 282 286 277 286 L106 286 C101 286 99 288 99 292 L99 317 C99 352 120 376 163 401 C191 418 218 432 242 449 C272 471 290 503 290 538 C290 596 244 636 174 636 L174 636 Z " />
<glyph glyph-name="threesuperior" unicode="&#xb3;" horiz-adv-x="337" d="M284 349 L284 368 C284 400 261 431 221 446 L221 448 C262 464 284 490 284 522 L284 532 C284 595 239 636 168 636 L148 636 C86 636 46 603 46 583 C46 581 47 580 50 579 L77 566 C79 565 80 565 81 565 C83 565 84 566 86 568 C104 586 117 601 148 601 L168 601 C208 601 239 573 239 538 L239 529 C239 492 208 464 168 464 L122 464 C117 464 116 462 116 458 L116 436 C116 431 117 430 122 430 L168 430 C207 430 239 401 239 366 L239 344 C239 309 207 280 168 280 L148 280 C117 280 104 295 86 314 C84 316 83 317 81 317 C81 317 79 317 78 316 L50 304 C48 302 46 301 46 299 C46 278 86 246 148 246 L168 246 C240 246 284 286 284 349 L284 349 Z " />
<glyph glyph-name="acute" unicode="&#xb4;" horiz-adv-x="500" d="M368 606 C371 609 373 612 373 615 C373 619 368 623 361 623 L293 623 L285 619 L215 515 C213 512 212 509 212 506 C212 502 216 499 223 499 L249 501 L368 606 Z " />
<glyph glyph-name="mu" unicode="&#xb5;" horiz-adv-x="542" d="M168 520 L100 520 L-54 -208 L14 -208 L70 64 C95 15 141 -12 201 -12 C267 -12 320 17 347 67 L347 60 C347 12 368 -11 414 -11 C426 -11 441 -10 456 -6 L466 48 C456 47 450 47 448 47 C426 47 415 58 415 79 C415 92 419 113 426 144 L506 520 L438 520 L379 248 C350 113 289 44 209 44 C138 44 99 87 99 163 C99 186 102 208 107 231 L168 520 Z " />
<glyph glyph-name="paragraph" unicode="&#xb6;" horiz-adv-x="620" d="M539 -215 L539 619 C539 626 536 629 529 629 L240 629 C134 629 66 562 66 456 L66 258 C66 161 135 94 240 94 L274 94 C280 94 284 90 284 84 L284 -215 C284 -222 287 -225 294 -225 L342 -225 C349 -225 352 -222 352 -215 L352 562 C352 569 355 572 362 572 L462 572 C469 572 472 569 472 562 L472 -215 C472 -222 475 -225 482 -225 L529 -225 C536 -225 539 -222 539 -215 L539 -215 Z " />
<glyph glyph-name="periodcentered" unicode="&#xb7;" horiz-adv-x="209" d="M154 316 C154 344 133 365 104 365 C78 365 56 343 56 316 C56 289 79 266 104 266 C132 266 154 289 154 316 L154 316 Z " />
<glyph glyph-name="cedilla" unicode="&#xb8;" horiz-adv-x="500" d="M312 -150 L312 -141 C312 -116 297 -93 266 -75 C262 -72 260 -69 260 -66 C260 -64 261 -62 262 -60 L293 4 L250 4 L210 -80 C209 -83 208 -85 208 -86 C208 -91 212 -92 219 -94 C248 -103 267 -108 267 -141 L267 -150 C267 -177 246 -198 219 -198 L183 -198 C176 -198 173 -201 173 -208 L173 -224 C173 -231 176 -234 183 -234 L219 -234 C274 -234 312 -198 312 -150 L312 -150 Z " />
<glyph glyph-name="onesuperior" unicode="&#xb9;" horiz-adv-x="337" d="M286 258 L286 280 C286 284 284 286 279 286 L210 286 C205 286 203 288 203 292 L203 623 C203 628 201 629 197 629 L184 629 L180 628 L79 536 C77 535 77 533 77 532 C77 530 77 529 79 527 L95 511 C96 509 98 508 100 508 C101 508 102 509 104 511 L148 550 C150 552 152 553 154 553 C157 553 159 550 159 546 L159 292 C159 288 157 286 152 286 L83 286 C79 286 77 284 77 280 L77 258 C77 254 79 252 83 252 L279 252 C284 252 286 254 286 258 L286 258 Z " />
<glyph glyph-name="ordmasculine" unicode="&#xba;" horiz-adv-x="321" d="M288 427 L288 521 C288 592 237 640 160 640 C84 640 34 593 34 521 L34 427 C34 354 84 307 160 307 C237 307 288 356 288 427 L288 427 Z M230 427 C230 389 200 357 160 357 C121 357 91 389 91 427 L91 521 C91 559 120 590 160 590 C200 590 230 558 230 521 L230 427 Z " />
<glyph glyph-name="guillemotright" unicode="&#xbb;" horiz-adv-x="556" d="M501 250 L501 305 L497 313 L308 448 C305 450 303 451 300 451 C295 451 292 447 292 440 L292 398 L296 390 L441 286 C444 284 446 281 446 278 C446 275 444 272 441 270 L296 165 L292 157 L292 115 C292 108 295 104 300 104 C303 104 305 105 308 107 L497 242 L501 250 Z M278 250 L278 305 L274 313 L83 448 C80 450 78 451 75 451 C70 451 67 447 67 440 L67 398 L71 390 L216 286 C219 284 221 281 221 278 C221 275 219 272 216 270 L71 165 L67 157 L67 115 C67 108 70 104 75 104 C78 104 80 105 83 107 L274 242 L278 250 Z " />
<glyph glyph-name="onequarter" unicode="&#xbc;" horiz-adv-x="934" d="M273 283 L273 303 C273 307 271 309 266 309 L200 309 C196 309 194 311 194 315 L194 624 C194 628 192 629 188 629 L176 629 L171 628 L75 542 C74 541 73 539 73 538 C73 537 74 536 75 534 L91 518 C92 517 94 516 95 516 C96 516 98 517 100 518 L141 555 C143 557 145 558 147 558 C150 558 152 555 152 551 L152 315 C152 311 150 309 146 309 L79 309 C75 309 73 307 73 303 L73 283 C73 279 75 277 79 277 L266 277 C271 277 273 279 273 283 L273 283 Z M618 616 C619 618 620 620 620 622 C620 627 616 630 609 630 L585 630 C580 628 577 626 576 624 L315 14 C314 12 313 10 313 8 C313 3 317 0 324 0 L348 0 C353 1 356 4 357 6 L618 616 Z M913 90 L913 111 C913 115 911 116 906 116 L860 116 C855 116 853 118 853 122 L853 347 C853 351 851 352 847 352 L809 352 L804 350 L635 122 L634 90 C634 86 636 85 640 85 L805 85 C809 85 811 82 811 79 L811 6 C811 2 813 0 817 0 L847 0 C851 0 853 2 853 6 L853 79 C853 83 855 85 860 85 L906 85 C911 85 913 86 913 90 L913 90 Z M811 122 C811 118 809 116 805 116 L681 116 C677 116 674 118 674 121 C674 122 675 124 676 125 L800 291 C801 293 804 294 805 294 C809 294 811 291 811 287 L811 122 Z " />
<glyph glyph-name="onehalf" unicode="&#xbd;" horiz-adv-x="934" d="M273 283 L273 303 C273 307 271 309 266 309 L200 309 C196 309 194 311 194 315 L194 624 C194 628 192 629 188 629 L176 629 L171 628 L75 542 C74 541 73 539 73 538 C73 537 74 536 75 534 L91 518 C92 517 94 516 95 516 C96 516 98 517 100 518 L141 555 C143 557 145 558 147 558 C150 558 152 555 152 551 L152 315 C152 311 150 309 146 309 L79 309 C75 309 73 307 73 303 L73 283 C73 279 75 277 79 277 L266 277 C271 277 273 279 273 283 L273 283 Z M618 616 C619 618 620 620 620 622 C620 627 616 630 609 630 L585 630 C580 628 577 626 576 624 L315 14 C314 12 313 10 313 8 C313 3 317 0 324 0 L348 0 C353 1 356 4 357 6 L618 616 Z M778 358 L753 358 C695 358 657 328 657 310 C657 307 658 306 661 305 L687 293 L689 293 C691 293 693 294 695 296 C712 312 725 326 753 326 L778 326 C815 326 846 300 846 267 C846 230 811 212 758 181 C696 147 664 116 664 60 L664 6 C664 2 666 0 670 0 L877 0 C881 0 883 2 883 6 L883 26 C883 30 881 32 877 32 L713 32 C708 32 706 34 706 38 L706 60 C706 94 727 116 768 139 C795 155 821 168 843 184 C872 204 889 235 889 267 C889 321 845 358 778 358 L778 358 Z " />
<glyph glyph-name="threequarters" unicode="&#xbe;" horiz-adv-x="934" d="M271 368 L271 385 C271 415 249 444 211 458 L211 460 C250 475 271 499 271 529 L271 538 C271 597 228 635 161 635 L141 635 C82 635 43 605 43 586 C43 584 45 583 47 582 L74 570 C75 569 76 569 77 569 C79 569 80 570 82 572 C99 589 112 603 141 603 L161 603 C198 603 228 577 228 544 L228 535 C228 501 198 475 161 475 L117 475 C112 475 110 473 110 469 L110 448 C110 444 112 443 117 443 L161 443 C198 443 228 416 228 383 L228 363 C228 330 197 303 161 303 L141 303 C112 303 99 317 82 335 C80 336 79 337 77 337 L74 337 L48 325 C45 324 44 322 44 321 C44 301 82 271 141 271 L161 271 C229 271 271 309 271 368 L271 368 Z M618 616 C619 618 620 620 620 622 C620 627 616 630 609 630 L585 630 C580 628 577 626 576 624 L315 14 C314 12 313 10 313 8 C313 3 317 0 324 0 L348 0 C353 1 356 4 357 6 L618 616 Z M913 90 L913 111 C913 115 911 116 906 116 L860 116 C855 116 853 118 853 122 L853 347 C853 351 851 352 847 352 L809 352 L804 350 L635 122 L634 90 C634 86 636 85 640 85 L805 85 C809 85 811 82 811 79 L811 6 C811 2 813 0 817 0 L847 0 C851 0 853 2 853 6 L853 79 C853 83 855 85 860 85 L906 85 C911 85 913 86 913 90 L913 90 Z M811 122 C811 118 809 116 805 116 L681 116 C677 116 674 118 674 121 C674 122 675 124 676 125 L800 291 C801 293 804 294 805 294 C809 294 811 291 811 287 L811 122 Z " />
<glyph glyph-name="questiondown" unicode="&#xbf;" horiz-adv-x="510" d="M336 409 C336 434 313 457 286 457 C259 457 238 436 238 409 C238 381 260 359 286 359 C313 359 336 382 336 409 L336 409 Z M432 -102 L391 -80 C389 -79 388 -78 386 -78 C380 -78 368 -94 344 -117 C330 -130 307 -140 283 -140 L244 -140 C185 -140 138 -95 138 -33 C138 25 173 50 237 82 C304 115 338 143 338 210 C338 243 338 255 326 255 L279 255 C272 255 269 252 269 244 C269 238 271 232 271 225 C271 164 226 147 158 112 C97 81 70 38 70 -33 C70 -131 138 -198 244 -198 L283 -198 C382 -198 438 -135 438 -109 C438 -106 436 -104 432 -102 L432 -102 Z " />
<glyph glyph-name="Agrave" unicode="&#xc0;" horiz-adv-x="448" d="M438 13 L253 622 C251 627 248 629 243 629 L205 629 C199 629 197 627 195 622 L10 13 C10 11 9 10 9 9 C9 3 13 0 20 0 L71 0 C76 0 80 2 81 7 L120 145 C121 150 124 151 130 151 L318 151 C324 151 327 150 328 145 L367 7 C368 2 371 0 377 0 L428 0 C435 0 439 3 439 9 C439 10 438 11 438 13 L438 13 Z M305 221 C305 220 306 218 306 217 C306 211 302 208 295 208 L151 208 C144 208 140 211 140 217 C140 218 141 219 141 221 L212 478 C215 488 219 501 223 517 L227 517 C233 495 237 482 238 478 L305 221 Z M263 703 L193 807 L185 811 L117 811 C110 811 105 808 105 803 C105 800 107 797 110 794 L228 689 L255 687 C262 687 266 689 266 694 C266 696 265 700 263 703 L263 703 Z " />
<glyph glyph-name="Aacute" unicode="&#xc1;" horiz-adv-x="448" d="M438 13 L253 622 C251 627 248 629 243 629 L205 629 C199 629 197 627 195 622 L10 13 C10 11 9 10 9 9 C9 3 13 0 20 0 L71 0 C76 0 80 2 81 7 L120 145 C121 150 124 151 130 151 L318 151 C324 151 327 150 328 145 L367 7 C368 2 371 0 377 0 L428 0 C435 0 439 3 439 9 C439 10 438 11 438 13 L438 13 Z M305 221 C305 220 306 218 306 217 C306 211 302 208 295 208 L151 208 C144 208 140 211 140 217 C140 218 141 219 141 221 L212 478 C215 488 219 501 223 517 L227 517 C233 495 237 482 238 478 L305 221 Z M343 794 C346 797 348 800 348 803 C348 807 343 811 336 811 L268 811 L260 807 L190 703 C188 700 187 697 187 694 C187 690 191 687 198 687 L224 689 L343 794 Z " />
<glyph glyph-name="Acircumflex" unicode="&#xc2;" horiz-adv-x="448" d="M438 13 L253 622 C251 627 248 629 243 629 L205 629 C199 629 197 627 195 622 L10 13 C10 11 9 10 9 9 C9 3 13 0 20 0 L71 0 C76 0 80 2 81 7 L120 145 C121 150 124 151 130 151 L318 151 C324 151 327 150 328 145 L367 7 C368 2 371 0 377 0 L428 0 C435 0 439 3 439 9 C439 10 438 11 438 13 L438 13 Z M305 221 C305 220 306 218 306 217 C306 211 302 208 295 208 L151 208 C144 208 140 211 140 217 C140 218 141 219 141 221 L212 478 C215 488 219 501 223 517 L227 517 C233 495 237 482 238 478 L305 221 Z M330 702 L249 807 L241 811 L210 811 L202 807 L122 702 C120 699 119 697 119 694 C119 689 123 686 130 686 L164 686 L172 690 L219 752 C222 756 224 757 227 757 C229 757 232 756 235 752 L279 690 L287 686 L322 686 C329 686 333 689 333 694 C333 696 332 699 330 702 L330 702 Z " />
<glyph glyph-name="Atilde" unicode="&#xc3;" horiz-adv-x="448" d="M438 13 L253 622 C251 627 248 629 243 629 L205 629 C199 629 197 627 195 622 L10 13 C10 11 9 10 9 9 C9 3 13 0 20 0 L71 0 C76 0 80 2 81 7 L120 145 C121 150 124 151 130 151 L318 151 C324 151 327 150 328 145 L367 7 C368 2 371 0 377 0 L428 0 C435 0 439 3 439 9 C439 10 438 11 438 13 L438 13 Z M305 221 C305 220 306 218 306 217 C306 211 302 208 295 208 L151 208 C144 208 140 211 140 217 C140 218 141 219 141 221 L212 478 C215 488 219 501 223 517 L227 517 C233 495 237 482 238 478 L305 221 Z M362 767 L353 774 C351 776 349 776 346 776 C339 776 319 746 286 746 C271 746 253 753 242 761 L221 777 C201 792 185 800 165 800 C133 800 108 781 84 741 C83 739 83 738 83 736 C83 733 84 731 87 728 L97 721 C99 719 101 719 104 719 C112 719 129 748 162 748 C174 748 188 743 204 733 L224 720 C245 703 265 694 286 694 C326 694 367 745 367 760 C367 762 365 764 362 767 L362 767 Z " />
<glyph glyph-name="Adieresis" unicode="&#xc4;" horiz-adv-x="448" d="M438 13 L253 622 C251 627 248 629 243 629 L205 629 C199 629 197 627 195 622 L10 13 C10 11 9 10 9 9 C9 3 13 0 20 0 L71 0 C76 0 80 2 81 7 L120 145 C121 150 124 151 130 151 L318 151 C324 151 327 150 328 145 L367 7 C368 2 371 0 377 0 L428 0 C435 0 439 3 439 9 C439 10 438 11 438 13 L438 13 Z M305 221 C305 220 306 218 306 217 C306 211 302 208 295 208 L151 208 C144 208 140 211 140 217 C140 218 141 219 141 221 L212 478 C215 488 219 501 223 517 L227 517 C233 495 237 482 238 478 L305 221 Z M350 751 C350 775 331 794 305 794 C280 794 262 776 262 751 C262 725 280 706 305 706 C329 706 350 727 350 751 L350 751 Z M187 751 C187 776 168 794 143 794 C117 794 99 776 99 751 C99 725 118 706 143 706 C168 706 187 725 187 751 L187 751 Z " />
<glyph glyph-name="Aring" unicode="&#xc5;" horiz-adv-x="448" d="M438 13 L253 622 C251 627 248 629 243 629 L205 629 C199 629 197 627 195 622 L10 13 C10 11 9 10 9 9 C9 3 13 0 20 0 L71 0 C76 0 80 2 81 7 L120 145 C121 150 124 151 130 151 L318 151 C324 151 327 150 328 145 L367 7 C368 2 371 0 377 0 L428 0 C435 0 439 3 439 9 C439 10 438 11 438 13 L438 13 Z M305 221 C305 220 306 218 306 217 C306 211 302 208 295 208 L151 208 C144 208 140 211 140 217 C140 218 141 219 141 221 L212 478 C215 488 219 501 223 517 L227 517 C233 495 237 482 238 478 L305 221 Z M307 751 L307 780 C307 825 275 856 226 856 C178 856 146 825 146 780 L146 751 C146 706 177 674 226 674 C275 674 307 706 307 751 L307 751 Z M270 780 L270 751 C270 728 253 712 226 712 C200 712 184 727 184 751 L184 780 C184 803 199 818 226 818 C254 818 270 803 270 780 L270 780 Z " />
<glyph glyph-name="AE" unicode="&#xc6;" horiz-adv-x="706" d="M657 10 L657 47 C657 54 654 57 647 57 L386 57 C379 57 376 60 376 67 L376 281 C376 288 379 291 386 291 L600 291 C607 291 610 294 610 301 L610 338 C610 345 607 348 600 348 L386 348 C379 348 376 351 376 358 L376 562 C376 569 379 572 386 572 L647 572 C654 572 657 575 657 582 L657 619 C657 626 654 629 647 629 L322 629 L313 624 L-47 15 C-48 12 -49 10 -49 8 C-49 3 -45 0 -38 0 L8 0 L17 5 L96 147 L106 151 L298 151 C305 151 308 147 308 141 L308 10 C308 3 311 0 318 0 L647 0 C654 0 657 3 657 10 L657 10 Z M311 516 C308 438 308 361 308 284 L308 218 C308 211 305 208 298 208 L150 208 C143 208 139 211 139 216 C139 218 140 220 141 223 L289 482 C293 490 299 501 307 517 L311 516 Z " />
<glyph glyph-name="Ccedilla" unicode="&#xc7;" horiz-adv-x="464" d="M319 -150 L319 -141 C319 -116 304 -93 273 -75 C269 -72 267 -69 267 -66 C267 -64 268 -62 269 -60 L294 -9 C377 0 426 52 426 78 C426 82 425 84 420 86 L378 107 C376 108 374 108 373 108 C367 108 358 93 336 72 C320 57 294 47 271 47 L240 47 C181 47 134 94 134 154 L134 476 C134 536 180 582 240 582 L271 582 C314 582 336 556 366 527 C369 524 370 523 373 523 C374 523 376 523 378 524 L420 545 C424 547 427 550 427 553 C427 586 363 640 271 640 L240 640 C134 640 66 574 66 476 L66 154 C66 56 134 -10 240 -10 L250 -10 L217 -80 C216 -83 215 -85 215 -86 C215 -91 219 -92 226 -94 C256 -103 274 -108 274 -141 L274 -150 C274 -177 254 -198 226 -198 L190 -198 C183 -198 180 -201 180 -208 L180 -224 C180 -231 183 -234 190 -234 L226 -234 C281 -234 319 -198 319 -150 L319 -150 Z " />
<glyph glyph-name="Egrave" unicode="&#xc8;" horiz-adv-x="479" d="M430 10 L430 47 C430 53 427 57 420 57 L159 57 C152 57 149 60 149 67 L149 281 C149 288 152 291 159 291 L373 291 C380 291 383 294 383 301 L383 338 C383 345 380 348 373 348 L159 348 C152 348 149 351 149 358 L149 562 C149 569 152 572 159 572 L420 572 C427 572 430 575 430 582 L430 619 C430 626 427 629 420 629 L92 629 C85 629 82 626 82 619 L82 10 C82 3 85 0 92 0 L420 0 C427 0 430 3 430 10 L430 10 Z M290 703 L220 807 L212 811 L144 811 C137 811 132 808 132 803 C132 800 134 797 137 794 L255 689 L282 687 C289 687 293 689 293 694 C293 696 292 700 290 703 L290 703 Z " />
<glyph glyph-name="Eacute" unicode="&#xc9;" horiz-adv-x="479" d="M430 10 L430 47 C430 53 427 57 420 57 L159 57 C152 57 149 60 149 67 L149 281 C149 288 152 291 159 291 L373 291 C380 291 383 294 383 301 L383 338 C383 345 380 348 373 348 L159 348 C152 348 149 351 149 358 L149 562 C149 569 152 572 159 572 L420 572 C427 572 430 575 430 582 L430 619 C430 626 427 629 420 629 L92 629 C85 629 82 626 82 619 L82 10 C82 3 85 0 92 0 L420 0 C427 0 430 3 430 10 L430 10 Z M370 794 C373 797 375 800 375 803 C375 807 370 811 363 811 L295 811 L287 807 L217 703 C215 700 214 697 214 694 C214 690 218 687 225 687 L251 689 L370 794 Z " />
<glyph glyph-name="Ecircumflex" unicode="&#xca;" horiz-adv-x="479" d="M430 10 L430 47 C430 53 427 57 420 57 L159 57 C152 57 149 60 149 67 L149 281 C149 288 152 291 159 291 L373 291 C380 291 383 294 383 301 L383 338 C383 345 380 348 373 348 L159 348 C152 348 149 351 149 358 L149 562 C149 569 152 572 159 572 L420 572 C427 572 430 575 430 582 L430 619 C430 626 427 629 420 629 L92 629 C85 629 82 626 82 619 L82 10 C82 3 85 0 92 0 L420 0 C427 0 430 3 430 10 L430 10 Z M357 702 L276 807 L268 811 L237 811 L229 807 L149 702 C147 699 146 697 146 694 C146 689 150 686 157 686 L191 686 L199 690 L246 752 C249 756 251 757 254 757 C256 757 259 756 262 752 L306 690 L314 686 L349 686 C356 686 360 689 360 694 C360 696 359 699 357 702 L357 702 Z " />
<glyph glyph-name="Edieresis" unicode="&#xcb;" horiz-adv-x="479" d="M430 10 L430 47 C430 53 427 57 420 57 L159 57 C152 57 149 60 149 67 L149 281 C149 288 152 291 159 291 L373 291 C380 291 383 294 383 301 L383 338 C383 345 380 348 373 348 L159 348 C152 348 149 351 149 358 L149 562 C149 569 152 572 159 572 L420 572 C427 572 430 575 430 582 L430 619 C430 626 427 629 420 629 L92 629 C85 629 82 626 82 619 L82 10 C82 3 85 0 92 0 L420 0 C427 0 430 3 430 10 L430 10 Z M377 751 C377 775 358 794 332 794 C307 794 289 776 289 751 C289 725 307 706 332 706 C356 706 377 727 377 751 L377 751 Z M214 751 C214 776 195 794 170 794 C144 794 126 776 126 751 C126 725 145 706 170 706 C195 706 214 725 214 751 L214 751 Z " />
<glyph glyph-name="Igrave" unicode="&#xcc;" horiz-adv-x="230" d="M149 10 L149 619 C149 626 146 629 139 629 L92 629 C85 629 82 626 82 619 L82 10 C82 3 85 0 92 0 L139 0 C146 0 149 3 149 10 L149 10 Z M154 703 L84 807 L76 811 L8 811 C1 811 -4 808 -4 803 C-4 800 -2 797 1 794 L119 689 L146 687 C153 687 157 689 157 694 C157 696 156 700 154 703 L154 703 Z " />
<glyph glyph-name="Iacute" unicode="&#xcd;" horiz-adv-x="230" d="M149 10 L149 619 C149 626 146 629 139 629 L92 629 C85 629 82 626 82 619 L82 10 C82 3 85 0 92 0 L139 0 C146 0 149 3 149 10 L149 10 Z M234 794 C237 797 239 800 239 803 C239 807 234 811 227 811 L159 811 L151 807 L81 703 C79 700 78 697 78 694 C78 690 82 687 89 687 L115 689 L234 794 Z " />
<glyph glyph-name="Icircumflex" unicode="&#xce;" horiz-adv-x="230" d="M149 10 L149 619 C149 626 146 629 139 629 L92 629 C85 629 82 626 82 619 L82 10 C82 3 85 0 92 0 L139 0 C146 0 149 3 149 10 L149 10 Z M221 702 L140 807 L132 811 L101 811 L93 807 L13 702 C11 699 10 697 10 694 C10 689 14 686 21 686 L55 686 L63 690 L110 752 C113 756 115 757 118 757 C120 757 123 756 126 752 L170 690 L178 686 L213 686 C220 686 224 689 224 694 C224 696 223 699 221 702 L221 702 Z " />
<glyph glyph-name="Idieresis" unicode="&#xcf;" horiz-adv-x="230" d="M149 10 L149 619 C149 626 146 629 139 629 L92 629 C85 629 82 626 82 619 L82 10 C82 3 85 0 92 0 L139 0 C146 0 149 3 149 10 L149 10 Z M241 751 C241 775 222 794 196 794 C171 794 153 776 153 751 C153 725 171 706 196 706 C220 706 241 727 241 751 L241 751 Z M78 751 C78 776 59 794 34 794 C8 794 -10 776 -10 751 C-10 725 9 706 34 706 C59 706 78 725 78 751 L78 751 Z " />
<glyph glyph-name="Eth" unicode="&#xd0;" horiz-adv-x="526" d="M461 175 L461 456 C461 561 393 629 286 629 L92 629 C85 629 82 626 82 619 L82 358 C82 351 79 348 72 348 L37 348 C30 348 27 345 27 338 L27 291 C27 284 30 281 37 281 L72 281 C79 281 82 278 82 271 L82 10 C82 3 85 0 92 0 L286 0 C393 0 461 68 461 175 L461 175 Z M394 164 C394 104 347 57 286 57 L159 57 C152 57 149 60 149 67 L149 271 C149 278 152 281 159 281 L248 281 C255 281 258 284 258 291 L258 338 C258 345 255 348 248 348 L159 348 C152 348 149 351 149 358 L149 562 C149 569 152 572 159 572 L286 572 C346 572 394 525 394 466 L394 164 Z " />
<glyph glyph-name="Ntilde" unicode="&#xd1;" horiz-adv-x="557" d="M477 10 L477 619 C477 626 474 629 467 629 L419 629 C412 629 409 626 409 619 L415 128 L413 128 L144 624 L135 629 L92 629 C85 629 82 626 82 619 L82 10 C82 3 85 0 92 0 L139 0 C146 0 149 3 149 10 L144 498 L146 498 L414 5 L423 0 L467 0 C474 0 477 3 477 10 L477 10 Z M417 767 L408 774 C406 776 404 776 401 776 C394 776 374 746 341 746 C326 746 308 753 297 761 L276 777 C256 792 240 800 220 800 C188 800 163 781 139 741 C138 739 138 738 138 736 C138 733 139 731 142 728 L152 721 C154 719 156 719 159 719 C167 719 184 748 217 748 C229 748 243 743 259 733 L279 720 C300 703 320 694 341 694 C381 694 422 745 422 760 C422 762 420 764 417 767 L417 767 Z " />
<glyph glyph-name="Ograve" unicode="&#xd2;" horiz-adv-x="510" d="M446 154 L446 476 C446 573 377 640 271 640 L240 640 C134 640 66 574 66 476 L66 154 C66 56 134 -10 240 -10 L271 -10 C377 -10 446 56 446 154 L446 154 Z M378 154 C378 95 329 47 271 47 L240 47 C181 47 134 94 134 154 L134 476 C134 536 180 582 240 582 L271 582 C331 582 378 535 378 476 L378 154 Z M294 703 L224 807 L216 811 L148 811 C141 811 136 808 136 803 C136 800 138 797 141 794 L259 689 L286 687 C293 687 297 689 297 694 C297 696 296 700 294 703 L294 703 Z " />
<glyph glyph-name="Oacute" unicode="&#xd3;" horiz-adv-x="510" d="M446 154 L446 476 C446 573 377 640 271 640 L240 640 C134 640 66 574 66 476 L66 154 C66 56 134 -10 240 -10 L271 -10 C377 -10 446 56 446 154 L446 154 Z M378 154 C378 95 329 47 271 47 L240 47 C181 47 134 94 134 154 L134 476 C134 536 180 582 240 582 L271 582 C331 582 378 535 378 476 L378 154 Z M374 794 C377 797 379 800 379 803 C379 807 374 811 367 811 L299 811 L291 807 L221 703 C219 700 218 697 218 694 C218 690 222 687 229 687 L255 689 L374 794 Z " />
<glyph glyph-name="Ocircumflex" unicode="&#xd4;" horiz-adv-x="510" d="M446 154 L446 476 C446 573 377 640 271 640 L240 640 C134 640 66 574 66 476 L66 154 C66 56 134 -10 240 -10 L271 -10 C377 -10 446 56 446 154 L446 154 Z M378 154 C378 95 329 47 271 47 L240 47 C181 47 134 94 134 154 L134 476 C134 536 180 582 240 582 L271 582 C331 582 378 535 378 476 L378 154 Z M361 702 L280 807 L272 811 L241 811 L233 807 L153 702 C151 699 150 697 150 694 C150 689 154 686 161 686 L195 686 L203 690 L250 752 C253 756 255 757 258 757 C260 757 263 756 266 752 L310 690 L318 686 L353 686 C360 686 364 689 364 694 C364 696 363 699 361 702 L361 702 Z " />
<glyph glyph-name="Otilde" unicode="&#xd5;" horiz-adv-x="510" d="M446 154 L446 476 C446 573 377 640 271 640 L240 640 C134 640 66 574 66 476 L66 154 C66 56 134 -10 240 -10 L271 -10 C377 -10 446 56 446 154 L446 154 Z M378 154 C378 95 329 47 271 47 L240 47 C181 47 134 94 134 154 L134 476 C134 536 180 582 240 582 L271 582 C331 582 378 535 378 476 L378 154 Z M393 767 L384 774 C382 776 380 776 377 776 C370 776 350 746 317 746 C302 746 284 753 273 761 L252 777 C232 792 216 800 196 800 C164 800 139 781 115 741 C114 739 114 738 114 736 C114 733 115 731 118 728 L128 721 C130 719 132 719 135 719 C143 719 160 748 193 748 C205 748 219 743 235 733 L255 720 C276 703 296 694 317 694 C357 694 398 745 398 760 C398 762 396 764 393 767 L393 767 Z " />
<glyph glyph-name="Odieresis" unicode="&#xd6;" horiz-adv-x="510" d="M446 154 L446 476 C446 573 377 640 271 640 L240 640 C134 640 66 574 66 476 L66 154 C66 56 134 -10 240 -10 L271 -10 C377 -10 446 56 446 154 L446 154 Z M378 154 C378 95 329 47 271 47 L240 47 C181 47 134 94 134 154 L134 476 C134 536 180 582 240 582 L271 582 C331 582 378 535 378 476 L378 154 Z M381 751 C381 775 362 794 336 794 C311 794 293 776 293 751 C293 725 311 706 336 706 C360 706 381 727 381 751 L381 751 Z M218 751 C218 776 199 794 174 794 C148 794 130 776 130 751 C130 725 149 706 174 706 C199 706 218 725 218 751 L218 751 Z " />
<glyph glyph-name="multiply" unicode="&#xd7;" horiz-adv-x="833" d="M418 332 L183 567 L149 533 L384 298 L149 63 L183 29 L418 264 L653 29 L687 63 L452 298 L687 533 L653 567 L418 332 Z " />
<glyph glyph-name="Oslash" unicode="&#xd8;" horiz-adv-x="510" d="M446 154 L446 476 C446 573 377 640 271 640 L240 640 C134 640 66 574 66 476 L66 154 C66 56 134 -10 240 -10 L271 -10 C377 -10 446 56 446 154 L446 154 Z M334 553 L154 136 C152 131 148 128 145 128 C141 128 138 131 135 138 C134 146 134 151 134 154 L134 476 C134 536 180 582 240 582 L271 582 C309 582 335 568 335 556 C335 555 334 554 334 553 L334 553 Z M378 154 C378 95 329 47 271 47 L240 47 C202 47 175 64 175 73 C175 87 213 156 265 285 C328 428 360 508 368 508 C374 508 378 497 378 476 L378 154 Z " />
<glyph glyph-name="Ugrave" unicode="&#xd9;" horiz-adv-x="510" d="M446 154 L446 619 C446 626 443 629 436 629 L388 629 C381 629 378 626 378 619 L378 154 C378 95 329 47 271 47 L240 47 C181 47 134 94 134 154 L134 619 C134 626 131 629 124 629 L76 629 C69 629 66 626 66 619 L66 154 C66 56 134 -10 240 -10 L271 -10 C377 -10 446 56 446 154 L446 154 Z M294 703 L224 807 L216 811 L148 811 C141 811 136 808 136 803 C136 800 138 797 141 794 L259 689 L286 687 C293 687 297 689 297 694 C297 696 296 700 294 703 L294 703 Z " />
<glyph glyph-name="Uacute" unicode="&#xda;" horiz-adv-x="510" d="M446 154 L446 619 C446 626 443 629 436 629 L388 629 C381 629 378 626 378 619 L378 154 C378 95 329 47 271 47 L240 47 C181 47 134 94 134 154 L134 619 C134 626 131 629 124 629 L76 629 C69 629 66 626 66 619 L66 154 C66 56 134 -10 240 -10 L271 -10 C377 -10 446 56 446 154 L446 154 Z M374 794 C377 797 379 800 379 803 C379 807 374 811 367 811 L299 811 L291 807 L221 703 C219 700 218 697 218 694 C218 690 222 687 229 687 L255 689 L374 794 Z " />
<glyph glyph-name="Ucircumflex" unicode="&#xdb;" horiz-adv-x="510" d="M446 154 L446 619 C446 626 443 629 436 629 L388 629 C381 629 378 626 378 619 L378 154 C378 95 329 47 271 47 L240 47 C181 47 134 94 134 154 L134 619 C134 626 131 629 124 629 L76 629 C69 629 66 626 66 619 L66 154 C66 56 134 -10 240 -10 L271 -10 C377 -10 446 56 446 154 L446 154 Z M361 702 L280 807 L272 811 L241 811 L233 807 L153 702 C151 699 150 697 150 694 C150 689 154 686 161 686 L195 686 L203 690 L250 752 C253 756 255 757 258 757 C260 757 263 756 266 752 L310 690 L318 686 L353 686 C360 686 364 689 364 694 C364 696 363 699 361 702 L361 702 Z " />
<glyph glyph-name="Udieresis" unicode="&#xdc;" horiz-adv-x="510" d="M446 154 L446 619 C446 626 443 629 436 629 L388 629 C381 629 378 626 378 619 L378 154 C378 95 329 47 271 47 L240 47 C181 47 134 94 134 154 L134 619 C134 626 131 629 124 629 L76 629 C69 629 66 626 66 619 L66 154 C66 56 134 -10 240 -10 L271 -10 C377 -10 446 56 446 154 L446 154 Z M381 751 C381 775 362 794 336 794 C311 794 293 776 293 751 C293 725 311 706 336 706 C360 706 381 727 381 751 L381 751 Z M218 751 C218 776 199 794 174 794 C148 794 130 776 130 751 C130 725 149 706 174 706 C199 706 218 725 218 751 L218 751 Z " />
<glyph glyph-name="Yacute" unicode="&#xdd;" horiz-adv-x="448" d="M430 614 C431 617 432 619 432 621 C432 626 428 629 421 629 L364 629 L355 623 L234 371 C232 366 228 364 225 364 C222 364 218 366 216 371 L93 623 L84 629 L27 629 C19 629 16 626 16 621 C16 619 16 617 18 614 L189 291 L189 10 C189 3 192 0 199 0 L248 0 C255 0 258 3 258 10 L258 291 L430 614 Z M343 794 C346 797 348 800 348 803 C348 807 343 811 336 811 L268 811 L260 807 L190 703 C188 700 187 697 187 694 C187 690 191 687 198 687 L224 689 L343 794 Z " />
<glyph glyph-name="Thorn" unicode="&#xde;" horiz-adv-x="484" d="M286 536 L159 536 C152 536 149 539 149 546 L149 619 C149 626 146 629 139 629 L92 629 C85 629 82 626 82 619 L82 10 C82 3 85 0 92 0 L139 0 C146 0 149 3 149 10 L149 188 C149 195 152 198 159 198 L286 198 C391 198 461 266 461 362 C461 467 392 536 286 536 L286 536 Z M394 362 C394 302 347 255 286 255 L159 255 C152 255 149 258 149 265 L149 468 C149 475 152 478 159 478 L286 478 C347 478 394 432 394 372 L394 362 Z " />
<glyph glyph-name="germandbls" unicode="&#xdf;" horiz-adv-x="487" d="M436 162 L436 188 C436 242 408 275 360 311 C356 314 352 316 352 320 C352 324 356 326 360 329 C407 363 436 393 436 445 L436 466 C436 571 367 640 267 640 C162 640 87 564 87 466 L87 405 C87 398 84 395 77 395 L50 395 C43 395 40 392 40 385 L40 348 C40 341 43 338 50 338 L77 338 C84 338 87 335 87 328 L87 10 C87 3 90 0 97 0 L145 0 C152 0 155 3 155 10 L155 476 C155 538 198 582 261 582 C322 582 368 534 368 476 L368 456 C368 432 361 410 345 389 C334 374 311 365 282 351 C277 349 274 348 274 341 L274 298 C274 292 277 290 282 288 C312 273 335 265 345 251 C361 230 368 209 368 185 L368 154 C368 130 361 109 345 88 C334 73 311 65 282 50 C277 48 274 46 274 40 L274 1 C274 -6 277 -9 285 -9 C320 -9 366 14 396 47 C423 77 436 115 436 162 L436 162 Z " />
<glyph glyph-name="agrave" unicode="&#xe0;" horiz-adv-x="454" d="M384 10 L384 289 C384 386 316 450 209 450 C114 450 54 394 54 363 C54 360 56 358 60 356 L102 334 C104 333 106 333 107 333 C114 333 121 348 142 367 C160 384 184 393 209 393 C270 393 314 348 315 289 L316 249 C316 242 313 239 306 239 L174 239 C99 239 48 190 48 123 L48 117 C48 50 99 0 174 0 L214 0 C227 0 247 7 260 17 C292 43 309 65 319 65 C323 65 327 60 327 53 L327 10 C327 3 330 0 337 0 L374 0 C381 0 384 3 384 10 L384 10 Z M316 164 L315 143 C288 86 254 57 214 57 L174 57 C142 57 115 84 115 117 L115 133 C115 166 141 192 174 192 L306 192 C312 192 316 188 316 182 L316 164 Z M253 515 L183 619 L175 623 L107 623 C100 623 95 620 95 615 C95 612 97 609 100 606 L218 501 L245 499 C252 499 256 501 256 506 C256 508 255 512 253 515 L253 515 Z " />
<glyph glyph-name="aacute" unicode="&#xe1;" horiz-adv-x="454" d="M384 10 L384 289 C384 386 316 450 209 450 C114 450 54 394 54 363 C54 360 56 358 60 356 L102 334 C104 333 106 333 107 333 C114 333 121 348 142 367 C160 384 184 393 209 393 C270 393 314 348 315 289 L316 249 C316 242 313 239 306 239 L174 239 C99 239 48 190 48 123 L48 117 C48 50 99 0 174 0 L214 0 C227 0 247 7 260 17 C292 43 309 65 319 65 C323 65 327 60 327 53 L327 10 C327 3 330 0 337 0 L374 0 C381 0 384 3 384 10 L384 10 Z M316 164 L315 143 C288 86 254 57 214 57 L174 57 C142 57 115 84 115 117 L115 133 C115 166 141 192 174 192 L306 192 C312 192 316 188 316 182 L316 164 Z M333 606 C336 609 338 612 338 615 C338 619 333 623 326 623 L258 623 L250 619 L180 515 C178 512 177 509 177 506 C177 502 181 499 188 499 L214 501 L333 606 Z " />
<glyph glyph-name="acircumflex" unicode="&#xe2;" horiz-adv-x="454" d="M384 10 L384 289 C384 386 316 450 209 450 C114 450 54 394 54 363 C54 360 56 358 60 356 L102 334 C104 333 106 333 107 333 C114 333 121 348 142 367 C160 384 184 393 209 393 C270 393 314 348 315 289 L316 249 C316 242 313 239 306 239 L174 239 C99 239 48 190 48 123 L48 117 C48 50 99 0 174 0 L214 0 C227 0 247 7 260 17 C292 43 309 65 319 65 C323 65 327 60 327 53 L327 10 C327 3 330 0 337 0 L374 0 C381 0 384 3 384 10 L384 10 Z M316 164 L315 143 C288 86 254 57 214 57 L174 57 C142 57 115 84 115 117 L115 133 C115 166 141 192 174 192 L306 192 C312 192 316 188 316 182 L316 164 Z M320 514 L239 619 L231 623 L200 623 L192 619 L112 514 C110 511 109 509 109 506 C109 501 113 498 120 498 L154 498 L162 502 L209 564 C212 568 214 569 217 569 C219 569 222 568 225 564 L269 502 L277 498 L312 498 C319 498 323 501 323 506 C323 508 322 511 320 514 L320 514 Z " />
<glyph glyph-name="atilde" unicode="&#xe3;" horiz-adv-x="454" d="M384 10 L384 289 C384 386 316 450 209 450 C114 450 54 394 54 363 C54 360 56 358 60 356 L102 334 C104 333 106 333 107 333 C114 333 121 348 142 367 C160 384 184 393 209 393 C270 393 314 348 315 289 L316 249 C316 242 313 239 306 239 L174 239 C99 239 48 190 48 123 L48 117 C48 50 99 0 174 0 L214 0 C227 0 247 7 260 17 C292 43 309 65 319 65 C323 65 327 60 327 53 L327 10 C327 3 330 0 337 0 L374 0 C381 0 384 3 384 10 L384 10 Z M316 164 L315 143 C288 86 254 57 214 57 L174 57 C142 57 115 84 115 117 L115 133 C115 166 141 192 174 192 L306 192 C312 192 316 188 316 182 L316 164 Z M352 579 L343 586 C341 588 339 588 336 588 C329 588 309 558 276 558 C261 558 243 565 232 573 L211 589 C191 604 175 612 155 612 C123 612 98 593 74 553 C73 551 73 550 73 548 C73 545 74 543 77 540 L87 533 C89 531 91 531 94 531 C102 531 119 560 152 560 C164 560 178 555 194 545 L214 532 C235 515 255 506 276 506 C316 506 357 557 357 572 C357 574 355 576 352 579 L352 579 Z " />
<glyph glyph-name="adieresis" unicode="&#xe4;" horiz-adv-x="454" d="M384 10 L384 289 C384 386 316 450 209 450 C114 450 54 394 54 363 C54 360 56 358 60 356 L102 334 C104 333 106 333 107 333 C114 333 121 348 142 367 C160 384 184 393 209 393 C270 393 314 348 315 289 L316 249 C316 242 313 239 306 239 L174 239 C99 239 48 190 48 123 L48 117 C48 50 99 0 174 0 L214 0 C227 0 247 7 260 17 C292 43 309 65 319 65 C323 65 327 60 327 53 L327 10 C327 3 330 0 337 0 L374 0 C381 0 384 3 384 10 L384 10 Z M316 164 L315 143 C288 86 254 57 214 57 L174 57 C142 57 115 84 115 117 L115 133 C115 166 141 192 174 192 L306 192 C312 192 316 188 316 182 L316 164 Z M340 563 C340 587 321 606 295 606 C270 606 252 588 252 563 C252 537 270 518 295 518 C319 518 340 539 340 563 L340 563 Z M177 563 C177 588 158 606 133 606 C107 606 89 588 89 563 C89 537 108 518 133 518 C158 518 177 537 177 563 L177 563 Z " />
<glyph glyph-name="aring" unicode="&#xe5;" horiz-adv-x="454" d="M384 10 L384 289 C384 386 316 450 209 450 C114 450 54 394 54 363 C54 360 56 358 60 356 L102 334 C104 333 106 333 107 333 C114 333 122 347 142 366 C161 384 185 393 209 393 C270 393 314 348 315 289 L316 249 C316 242 313 239 306 239 L174 239 C99 239 48 190 48 123 L48 117 C48 50 99 0 174 0 L214 0 C227 0 247 7 260 17 C292 43 309 65 319 65 C323 65 327 60 327 53 L327 10 C327 3 330 0 337 0 L374 0 C381 0 384 3 384 10 L384 10 Z M316 164 L315 143 C288 86 254 57 214 57 L174 57 C142 57 115 84 115 117 L115 133 C115 166 141 192 174 192 L306 192 C312 192 316 188 316 182 L316 164 Z M297 575 L297 604 C297 649 265 680 216 680 C168 680 136 649 136 604 L136 575 C136 529 167 498 216 498 C265 498 297 530 297 575 L297 575 Z M260 604 L260 575 C260 552 243 536 216 536 C190 536 174 551 174 575 L174 604 C174 628 189 642 216 642 C244 642 260 627 260 604 L260 604 Z " />
<glyph glyph-name="ae" unicode="&#xe6;" horiz-adv-x="739" d="M685 228 L685 289 C685 376 607 452 510 452 C474 452 445 443 422 427 C393 406 378 392 374 392 C370 392 357 406 329 424 C303 441 269 452 229 452 C135 452 74 394 74 363 C74 360 76 358 80 356 L122 334 C124 333 126 333 127 333 C133 333 141 348 162 367 C180 384 204 395 229 395 C289 395 336 344 336 287 L336 254 C336 247 333 244 326 244 L182 244 C104 244 56 203 56 138 L56 107 C56 40 107 -10 182 -10 L234 -10 C260 -10 290 3 309 21 C338 49 350 69 354 69 C360 69 378 49 416 16 C433 1 466 -10 510 -10 C604 -10 666 47 666 78 C666 82 664 84 659 86 L617 107 C615 108 613 108 612 108 C607 108 598 94 577 74 C559 57 534 47 510 47 C450 47 404 96 404 154 L404 208 C404 215 407 218 414 218 L675 218 C682 218 685 221 685 228 L685 228 Z M617 275 C617 268 614 265 607 265 L414 265 C407 265 404 268 404 275 L404 289 C404 348 449 395 510 395 C570 395 617 346 617 289 L617 275 Z M336 154 C336 151 335 144 335 133 C308 76 274 47 234 47 L182 47 C150 47 123 74 123 107 L123 138 C123 171 149 197 182 197 L326 197 C333 197 336 193 336 187 L336 154 Z " />
<glyph glyph-name="ccedilla" unicode="&#xe7;" horiz-adv-x="425" d="M378 86 L336 107 C334 108 332 108 331 108 C325 108 316 94 295 74 C277 57 253 47 229 47 C169 47 123 96 123 154 L123 289 C123 348 168 395 229 395 C274 395 294 368 324 340 C327 337 329 336 332 336 C333 336 334 336 336 337 L378 358 C382 360 385 363 385 366 C385 399 322 452 229 452 C123 452 56 388 56 289 L56 154 C56 60 115 -2 217 -10 L184 -80 C183 -83 182 -85 182 -86 C182 -91 186 -92 193 -94 C222 -103 241 -108 241 -141 L241 -150 C241 -177 220 -198 193 -198 L157 -198 C150 -198 147 -201 147 -208 L147 -224 C147 -231 150 -234 157 -234 L193 -234 C248 -234 286 -198 286 -150 L286 -141 C286 -116 271 -93 240 -75 C236 -72 234 -69 234 -66 C234 -64 235 -62 236 -60 L261 -8 C342 11 384 50 384 78 C384 82 383 84 378 86 L378 86 Z " />
<glyph glyph-name="egrave" unicode="&#xe8;" horiz-adv-x="458" d="M404 228 L404 289 C404 375 326 452 229 452 C178 452 136 434 103 399 C73 367 56 326 56 289 L56 154 C56 55 123 -10 229 -10 C323 -10 384 46 384 78 C384 82 383 84 378 86 L336 107 C334 108 332 108 331 108 C325 108 316 94 295 74 C277 57 253 47 229 47 C169 47 123 96 123 154 L123 208 C123 215 126 218 133 218 L394 218 C401 218 404 221 404 228 L404 228 Z M336 275 C336 268 333 265 326 265 L133 265 C126 265 123 268 123 275 L123 289 C123 348 168 395 229 395 C289 395 336 346 336 289 L336 275 Z M267 515 L197 619 L189 623 L121 623 C114 623 109 620 109 615 C109 612 111 609 114 606 L232 501 L259 499 C266 499 270 501 270 506 C270 508 269 512 267 515 L267 515 Z " />
<glyph glyph-name="eacute" unicode="&#xe9;" horiz-adv-x="458" d="M404 228 L404 289 C404 375 326 452 229 452 C178 452 136 434 103 399 C73 367 56 326 56 289 L56 154 C56 55 123 -10 229 -10 C323 -10 384 46 384 78 C384 82 383 84 378 86 L336 107 C334 108 332 108 331 108 C325 108 316 94 295 74 C277 57 253 47 229 47 C169 47 123 96 123 154 L123 208 C123 215 126 218 133 218 L394 218 C401 218 404 221 404 228 L404 228 Z M336 275 C336 268 333 265 326 265 L133 265 C126 265 123 268 123 275 L123 289 C123 348 168 395 229 395 C289 395 336 346 336 289 L336 275 Z M347 606 C350 609 352 612 352 615 C352 619 347 623 340 623 L272 623 L264 619 L194 515 C192 512 191 509 191 506 C191 502 195 499 202 499 L228 501 L347 606 Z " />
<glyph glyph-name="ecircumflex" unicode="&#xea;" horiz-adv-x="458" d="M404 228 L404 289 C404 375 326 452 229 452 C178 452 136 434 103 399 C73 367 56 326 56 289 L56 154 C56 55 123 -10 229 -10 C323 -10 384 46 384 78 C384 82 383 84 378 86 L336 107 C334 108 332 108 331 108 C325 108 316 94 295 74 C277 57 253 47 229 47 C169 47 123 96 123 154 L123 208 C123 215 126 218 133 218 L394 218 C401 218 404 221 404 228 L404 228 Z M336 275 C336 268 333 265 326 265 L133 265 C126 265 123 268 123 275 L123 289 C123 348 168 395 229 395 C289 395 336 346 336 289 L336 275 Z M334 514 L253 619 L245 623 L214 623 L206 619 L126 514 C124 511 123 509 123 506 C123 501 127 498 134 498 L168 498 L176 502 L223 564 C226 568 228 569 231 569 C233 569 236 568 239 564 L283 502 L291 498 L326 498 C333 498 337 501 337 506 C337 508 336 511 334 514 L334 514 Z " />
<glyph glyph-name="edieresis" unicode="&#xeb;" horiz-adv-x="458" d="M404 228 L404 289 C404 375 326 452 229 452 C178 452 136 434 103 399 C73 367 56 326 56 289 L56 154 C56 55 123 -10 229 -10 C323 -10 384 46 384 78 C384 82 383 84 378 86 L336 107 C334 108 332 108 331 108 C325 108 316 94 295 74 C277 57 253 47 229 47 C169 47 123 96 123 154 L123 208 C123 215 126 218 133 218 L394 218 C401 218 404 221 404 228 L404 228 Z M336 275 C336 268 333 265 326 265 L133 265 C126 265 123 268 123 275 L123 289 C123 348 168 395 229 395 C289 395 336 346 336 289 L336 275 Z M354 563 C354 587 335 606 309 606 C284 606 266 588 266 563 C266 537 284 518 309 518 C333 518 354 539 354 563 L354 563 Z M191 563 C191 588 172 606 147 606 C121 606 103 588 103 563 C103 537 122 518 147 518 C172 518 191 537 191 563 L191 563 Z " />
<glyph glyph-name="igrave" unicode="&#xec;" horiz-adv-x="209" d="M139 10 L139 432 C139 439 136 442 129 442 L81 442 C74 442 71 439 71 432 L71 10 C71 3 74 0 81 0 L129 0 C136 0 139 3 139 10 L139 10 Z M142 515 L72 619 L64 623 L-4 623 C-11 623 -16 620 -16 615 C-16 612 -14 609 -11 606 L107 501 L134 499 C141 499 145 501 145 506 C145 508 144 512 142 515 L142 515 Z " />
<glyph glyph-name="iacute" unicode="&#xed;" horiz-adv-x="209" d="M139 10 L139 432 C139 439 136 442 129 442 L81 442 C74 442 71 439 71 432 L71 10 C71 3 74 0 81 0 L129 0 C136 0 139 3 139 10 L139 10 Z M222 606 C225 609 227 612 227 615 C227 619 222 623 215 623 L147 623 L139 619 L69 515 C67 512 66 509 66 506 C66 502 70 499 77 499 L103 501 L222 606 Z " />
<glyph glyph-name="icircumflex" unicode="&#xee;" horiz-adv-x="209" d="M139 10 L139 432 C139 439 136 442 129 442 L81 442 C74 442 71 439 71 432 L71 10 C71 3 74 0 81 0 L129 0 C136 0 139 3 139 10 L139 10 Z M209 514 L128 619 L120 623 L89 623 L81 619 L1 514 C-1 511 -2 509 -2 506 C-2 501 2 498 9 498 L43 498 L51 502 L98 564 C101 568 103 569 106 569 C108 569 111 568 114 564 L158 502 L166 498 L201 498 C208 498 212 501 212 506 C212 508 211 511 209 514 L209 514 Z " />
<glyph glyph-name="idieresis" unicode="&#xef;" horiz-adv-x="209" d="M139 10 L139 432 C139 439 136 442 129 442 L81 442 C74 442 71 439 71 432 L71 10 C71 3 74 0 81 0 L129 0 C136 0 139 3 139 10 L139 10 Z M229 563 C229 587 210 606 184 606 C159 606 141 588 141 563 C141 537 159 518 184 518 C208 518 229 539 229 563 L229 563 Z M66 563 C66 588 47 606 22 606 C-4 606 -22 588 -22 563 C-22 537 -3 518 22 518 C47 518 66 537 66 563 L66 563 Z " />
<glyph glyph-name="eth" unicode="&#xf0;" horiz-adv-x="510" d="M497 604 L488 617 C486 620 484 622 481 622 C479 622 477 621 474 619 L411 576 C409 574 407 573 405 573 C399 573 386 589 358 611 C333 630 298 640 255 640 C161 640 100 585 100 552 C100 549 103 547 107 545 L149 524 C151 523 153 523 154 523 C159 523 166 537 184 555 C202 573 226 582 255 582 C304 582 344 548 344 531 C344 529 342 526 339 524 L255 466 C252 464 251 461 251 459 C251 457 252 455 253 453 L262 439 C264 436 267 434 270 434 C272 434 274 434 276 436 L346 486 C349 488 351 489 354 489 C359 489 362 485 362 478 L362 308 C362 301 358 297 354 297 C343 297 327 323 291 347 C281 353 262 359 238 359 C151 359 82 289 82 196 L82 154 C82 55 150 -10 255 -10 C361 -10 430 56 430 154 L430 476 C430 508 423 526 423 532 C423 536 424 539 427 542 L495 590 C498 592 499 595 499 598 C499 600 499 602 497 604 L497 604 Z M362 154 C362 97 315 47 255 47 C196 47 149 96 149 154 L149 196 C149 255 194 302 255 302 C315 302 362 253 362 196 L362 154 Z " />
<glyph glyph-name="ntilde" unicode="&#xf1;" horiz-adv-x="490" d="M420 10 L420 279 C420 375 347 442 254 442 C206 442 189 423 166 404 C151 391 143 381 136 381 C132 381 128 386 128 392 L128 432 C128 439 125 442 118 442 L81 442 C74 442 71 439 71 432 L71 10 C71 3 74 0 81 0 L129 0 C136 0 139 3 139 10 L139 279 C139 338 184 385 245 385 C305 385 352 336 352 279 L352 10 C352 3 355 0 362 0 L410 0 C417 0 420 3 420 10 L420 10 Z M382 579 L373 586 C371 588 369 588 366 588 C359 588 339 558 306 558 C291 558 273 565 262 573 L241 589 C221 604 205 612 185 612 C153 612 128 593 104 553 C103 551 103 550 103 548 C103 545 104 543 107 540 L117 533 C119 531 121 531 124 531 C132 531 149 560 182 560 C194 560 208 555 224 545 L244 532 C265 515 285 506 306 506 C346 506 387 557 387 572 C387 574 385 576 382 579 L382 579 Z " />
<glyph glyph-name="ograve" unicode="&#xf2;" horiz-adv-x="458" d="M404 154 L404 289 C404 386 335 452 229 452 C123 452 56 388 56 289 L56 154 C56 55 123 -10 229 -10 C335 -10 404 56 404 154 L404 154 Z M336 154 C336 96 289 47 229 47 C169 47 123 96 123 154 L123 289 C123 348 168 395 229 395 C289 395 336 346 336 289 L336 154 Z M267 515 L197 619 L189 623 L121 623 C114 623 109 620 109 615 C109 612 111 609 114 606 L232 501 L259 499 C266 499 270 501 270 506 C270 508 269 512 267 515 L267 515 Z " />
<glyph glyph-name="oacute" unicode="&#xf3;" horiz-adv-x="458" d="M404 154 L404 289 C404 386 335 452 229 452 C123 452 56 388 56 289 L56 154 C56 55 123 -10 229 -10 C335 -10 404 56 404 154 L404 154 Z M336 154 C336 96 289 47 229 47 C169 47 123 96 123 154 L123 289 C123 348 168 395 229 395 C289 395 336 346 336 289 L336 154 Z M347 606 C350 609 352 612 352 615 C352 619 347 623 340 623 L272 623 L264 619 L194 515 C192 512 191 509 191 506 C191 502 195 499 202 499 L228 501 L347 606 Z " />
<glyph glyph-name="ocircumflex" unicode="&#xf4;" horiz-adv-x="458" d="M404 154 L404 289 C404 386 335 452 229 452 C123 452 56 388 56 289 L56 154 C56 55 123 -10 229 -10 C335 -10 404 56 404 154 L404 154 Z M336 154 C336 96 289 47 229 47 C169 47 123 96 123 154 L123 289 C123 348 168 395 229 395 C289 395 336 346 336 289 L336 154 Z M334 514 L253 619 L245 623 L214 623 L206 619 L126 514 C124 511 123 509 123 506 C123 501 127 498 134 498 L168 498 L176 502 L223 564 C226 568 228 569 231 569 C233 569 236 568 239 564 L283 502 L291 498 L326 498 C333 498 337 501 337 506 C337 508 336 511 334 514 L334 514 Z " />
<glyph glyph-name="otilde" unicode="&#xf5;" horiz-adv-x="458" d="M404 154 L404 289 C404 386 335 452 229 452 C123 452 56 388 56 289 L56 154 C56 55 123 -10 229 -10 C335 -10 404 56 404 154 L404 154 Z M336 154 C336 96 289 47 229 47 C169 47 123 96 123 154 L123 289 C123 348 168 395 229 395 C289 395 336 346 336 289 L336 154 Z M366 579 L357 586 C355 588 353 588 350 588 C343 588 323 558 290 558 C275 558 257 565 246 573 L225 589 C205 604 189 612 169 612 C137 612 112 593 88 553 C87 551 87 550 87 548 C87 545 88 543 91 540 L101 533 C103 531 105 531 108 531 C116 531 133 560 166 560 C178 560 192 555 208 545 L228 532 C249 515 269 506 290 506 C330 506 371 557 371 572 C371 574 369 576 366 579 L366 579 Z " />
<glyph glyph-name="odieresis" unicode="&#xf6;" horiz-adv-x="458" d="M404 154 L404 289 C404 386 335 452 229 452 C123 452 56 388 56 289 L56 154 C56 55 123 -10 229 -10 C335 -10 404 56 404 154 L404 154 Z M336 154 C336 96 289 47 229 47 C169 47 123 96 123 154 L123 289 C123 348 168 395 229 395 C289 395 336 346 336 289 L336 154 Z M354 563 C354 587 335 606 309 606 C284 606 266 588 266 563 C266 537 284 518 309 518 C333 518 354 539 354 563 L354 563 Z M191 563 C191 588 172 606 147 606 C121 606 103 588 103 563 C103 537 122 518 147 518 C172 518 191 537 191 563 L191 563 Z " />
<glyph glyph-name="divide" unicode="&#xf7;" horiz-adv-x="833" d="M417 523 C389 523 365 499 365 470 C365 441 387 418 417 418 C447 418 469 442 469 470 C469 499 446 523 417 523 L417 523 Z M709 322 L124 322 L124 274 L709 274 L709 322 Z M417 178 C389 178 365 155 365 126 C365 97 388 74 417 74 C447 74 469 98 469 126 C469 155 446 178 417 178 L417 178 Z " />
<glyph glyph-name="oslash" unicode="&#xf8;" horiz-adv-x="458" d="M404 154 L404 289 C404 386 335 452 229 452 C123 452 56 388 56 289 L56 154 C56 55 123 -10 229 -10 C335 -10 404 56 404 154 L404 154 Z M336 154 C336 96 289 47 229 47 C217 47 204 50 190 56 C186 58 183 61 183 65 C183 66 184 68 184 69 L301 345 C303 350 306 353 309 353 C318 353 336 326 336 289 L336 154 Z M266 377 L151 110 C149 105 146 102 142 102 C135 102 123 122 123 154 L123 289 C123 348 168 395 229 395 C255 395 267 391 267 382 C267 380 267 379 266 377 L266 377 Z " />
<glyph glyph-name="ugrave" unicode="&#xf9;" horiz-adv-x="479" d="M409 10 L409 432 C409 439 406 442 399 442 L352 442 C345 442 342 439 342 432 L342 164 C342 105 296 57 234 57 C175 57 128 106 128 164 L128 432 C128 439 125 442 118 442 L71 442 C64 442 61 439 61 432 L61 164 C61 67 133 0 224 0 C257 0 287 11 307 30 C325 48 335 64 344 64 C348 64 352 60 352 53 L352 10 C352 3 355 0 362 0 L399 0 C406 0 409 3 409 10 L409 10 Z M277 515 L207 619 L199 623 L131 623 C124 623 119 620 119 615 C119 612 121 609 124 606 L242 501 L269 499 C276 499 280 501 280 506 C280 508 279 512 277 515 L277 515 Z " />
<glyph glyph-name="uacute" unicode="&#xfa;" horiz-adv-x="479" d="M409 10 L409 432 C409 439 406 442 399 442 L352 442 C345 442 342 439 342 432 L342 164 C342 105 296 57 234 57 C175 57 128 106 128 164 L128 432 C128 439 125 442 118 442 L71 442 C64 442 61 439 61 432 L61 164 C61 67 133 0 224 0 C257 0 287 11 307 30 C325 48 335 64 344 64 C348 64 352 60 352 53 L352 10 C352 3 355 0 362 0 L399 0 C406 0 409 3 409 10 L409 10 Z M357 606 C360 609 362 612 362 615 C362 619 357 623 350 623 L282 623 L274 619 L204 515 C202 512 201 509 201 506 C201 502 205 499 212 499 L238 501 L357 606 Z " />
<glyph glyph-name="ucircumflex" unicode="&#xfb;" horiz-adv-x="479" d="M409 10 L409 432 C409 439 406 442 399 442 L352 442 C345 442 342 439 342 432 L342 164 C342 105 296 57 234 57 C175 57 128 106 128 164 L128 432 C128 439 125 442 118 442 L71 442 C64 442 61 439 61 432 L61 164 C61 67 133 0 224 0 C257 0 287 11 307 30 C325 48 335 64 344 64 C348 64 352 60 352 53 L352 10 C352 3 355 0 362 0 L399 0 C406 0 409 3 409 10 L409 10 Z M344 514 L263 619 L255 623 L224 623 L216 619 L136 514 C134 511 133 509 133 506 C133 501 137 498 144 498 L178 498 L186 502 L233 564 C236 568 238 569 241 569 C243 569 246 568 249 564 L293 502 L301 498 L336 498 C343 498 347 501 347 506 C347 508 346 511 344 514 L344 514 Z " />
<glyph glyph-name="udieresis" unicode="&#xfc;" horiz-adv-x="479" d="M409 10 L409 432 C409 439 406 442 399 442 L352 442 C345 442 342 439 342 432 L342 164 C342 105 296 57 234 57 C175 57 128 106 128 164 L128 432 C128 439 125 442 118 442 L71 442 C64 442 61 439 61 432 L61 164 C61 67 133 0 224 0 C257 0 287 11 307 30 C325 48 335 64 344 64 C348 64 352 60 352 53 L352 10 C352 3 355 0 362 0 L399 0 C406 0 409 3 409 10 L409 10 Z M364 563 C364 587 345 606 319 606 C294 606 276 588 276 563 C276 537 294 518 319 518 C343 518 364 539 364 563 L364 563 Z M201 563 C201 588 182 606 157 606 C131 606 113 588 113 563 C113 537 132 518 157 518 C182 518 201 537 201 563 L201 563 Z " />
<glyph glyph-name="yacute" unicode="&#xfd;" horiz-adv-x="479" d="M409 -60 L409 432 C409 439 406 442 399 442 L352 442 C345 442 342 439 342 432 L342 164 C342 105 296 57 234 57 C175 57 128 106 128 164 L128 432 C128 439 125 442 118 442 L71 442 C64 442 61 439 61 432 L61 164 C61 67 134 0 223 0 C267 0 283 17 305 36 C320 49 327 59 334 59 C338 59 342 55 342 48 L342 -71 C342 -130 296 -178 234 -178 C190 -178 168 -153 140 -122 C137 -119 136 -117 133 -117 C132 -117 130 -117 128 -118 L86 -139 C81 -141 80 -143 80 -147 C80 -179 141 -235 234 -235 C343 -235 409 -169 409 -60 L409 -60 Z M357 606 C360 609 362 612 362 615 C362 619 357 623 350 623 L282 623 L274 619 L204 515 C202 512 201 509 201 506 C201 502 205 499 212 499 L238 501 L357 606 Z " />
<glyph glyph-name="thorn" unicode="&#xfe;" horiz-adv-x="474" d="M420 164 L420 279 C420 375 326 442 263 442 C213 442 198 423 177 404 C164 391 154 381 147 381 C143 381 139 386 139 392 L139 619 C139 626 136 629 129 629 L81 629 C74 629 71 626 71 619 L71 -215 C71 -222 74 -225 81 -225 L129 -225 C136 -225 139 -222 139 -215 L139 50 C139 57 142 62 146 62 C157 62 174 36 209 13 C220 6 240 0 265 0 C306 0 343 16 372 46 C403 79 420 121 420 164 L420 164 Z M352 164 C352 106 305 57 245 57 C185 57 139 106 139 164 L139 279 C139 338 184 385 245 385 C305 385 352 336 352 279 L352 164 Z " />
<glyph glyph-name="ydieresis" unicode="&#xff;" horiz-adv-x="479" d="M409 -60 L409 432 C409 439 406 442 399 442 L352 442 C345 442 342 439 342 432 L342 164 C342 105 296 57 234 57 C175 57 128 106 128 164 L128 432 C128 439 125 442 118 442 L71 442 C64 442 61 439 61 432 L61 164 C61 67 134 0 223 0 C267 0 283 17 305 36 C320 49 327 59 334 59 C338 59 342 55 342 48 L342 -71 C342 -130 296 -178 234 -178 C190 -178 168 -153 140 -122 C137 -119 136 -117 133 -117 C132 -117 130 -117 128 -118 L86 -139 C81 -141 80 -143 80 -147 C80 -179 141 -235 234 -235 C343 -235 409 -169 409 -60 L409 -60 Z M364 563 C364 587 345 606 319 606 C294 606 276 588 276 563 C276 537 294 518 319 518 C343 518 364 539 364 563 L364 563 Z M201 563 C201 588 182 606 157 606 C131 606 113 588 113 563 C113 537 132 518 157 518 C182 518 201 537 201 563 L201 563 Z " />
<glyph glyph-name="dotlessi" unicode="&#x131;" horiz-adv-x="209" d="M139 10 L139 432 C139 439 136 442 129 442 L81 442 C74 442 71 439 71 432 L71 10 C71 3 74 0 81 0 L129 0 C136 0 139 3 139 10 L139 10 Z " />
<glyph glyph-name="Lslash" unicode="&#x141;" horiz-adv-x="453" d="M430 10 L430 47 C430 53 427 57 420 57 L159 57 C152 57 149 60 149 67 L149 336 L152 343 L222 413 C224 415 225 418 225 420 C225 422 224 425 222 427 L212 438 C210 440 207 442 205 442 C203 442 201 440 198 438 L166 407 C163 404 160 403 157 403 C152 403 149 407 149 414 L149 619 C149 626 146 629 139 629 L92 629 C85 629 82 626 82 619 L82 326 L79 319 L7 249 C5 247 3 244 3 242 C3 240 5 237 7 235 L19 224 C21 222 24 221 26 221 C29 221 31 222 33 224 L65 255 C68 258 70 259 73 259 C78 259 82 255 82 248 L82 10 C82 3 85 0 92 0 L420 0 C427 0 430 3 430 10 L430 10 Z " />
<glyph glyph-name="lslash" unicode="&#x142;" horiz-adv-x="209" d="M212 413 C214 415 215 418 215 420 C215 422 214 425 212 427 L202 438 C200 440 197 442 195 442 C193 442 191 440 188 438 L156 407 C153 404 150 403 147 403 C142 403 139 407 139 414 L139 619 C139 626 136 629 129 629 L81 629 C74 629 71 626 71 619 L71 326 L68 319 L-3 249 C-5 247 -6 244 -6 241 C-6 239 -5 237 -2 234 L11 223 C13 221 15 220 18 220 C20 220 22 222 24 224 L54 255 C57 258 59 259 62 259 C67 259 71 255 71 248 L71 10 C71 3 74 0 81 0 L129 0 C136 0 139 3 139 10 L139 336 L142 343 L212 413 Z " />
<glyph glyph-name="OE" unicode="&#x152;" horiz-adv-x="776" d="M726 10 L726 47 C726 54 723 57 716 57 L434 57 C428 57 424 60 424 64 C424 80 446 108 446 154 L446 281 C446 288 449 291 456 291 L670 291 C677 291 680 294 680 301 L680 338 C680 345 677 348 670 348 L456 348 C449 348 446 351 446 358 L446 476 C446 522 424 550 424 565 C424 569 428 572 434 572 L716 572 C723 572 726 575 726 582 L726 619 C726 626 723 629 716 629 L336 630 C313 637 291 640 271 640 L240 640 C134 640 66 574 66 476 L66 154 C66 56 134 -10 240 -10 L271 -10 C293 -10 315 -7 335 0 L716 0 C723 0 726 3 726 10 L726 10 Z M378 154 C378 95 329 47 271 47 L240 47 C181 47 134 94 134 154 L134 476 C134 536 180 582 240 582 L271 582 C331 582 378 535 378 476 L378 154 Z " />
<glyph glyph-name="oe" unicode="&#x153;" horiz-adv-x="739" d="M685 228 L685 289 C685 376 607 452 510 452 C454 452 431 432 406 415 C389 404 381 395 375 395 C370 395 355 409 324 429 C299 445 268 452 229 452 C123 452 56 388 56 289 L56 154 C56 55 123 -10 229 -10 C267 -10 297 -2 319 12 C351 33 366 47 370 47 C375 47 391 33 424 11 C443 -2 472 -10 510 -10 C604 -10 666 47 666 78 C666 82 664 84 659 86 L617 107 C615 108 613 108 612 108 C607 108 598 94 577 74 C558 56 534 47 510 47 C467 47 431 76 403 133 C404 146 404 153 404 154 L404 208 C404 215 407 218 414 218 L675 218 C682 218 685 221 685 228 L685 228 Z M617 275 C617 268 614 265 607 265 L414 265 C407 265 404 268 404 275 L404 289 C404 294 404 301 403 310 C428 367 464 395 510 395 C570 395 617 346 617 289 L617 275 Z M336 154 C336 96 289 47 229 47 C169 47 123 96 123 154 L123 289 C123 348 168 395 229 395 C289 395 336 346 336 289 L336 154 Z " />
<glyph glyph-name="Scaron" unicode="&#x160;" horiz-adv-x="438" d="M219 582 L235 582 C281 582 302 556 330 527 C332 524 334 523 337 523 C338 523 340 523 342 524 L384 545 C388 547 391 549 391 552 C391 584 329 640 235 640 L219 640 C113 640 45 574 45 476 C45 374 104 338 207 288 C292 247 343 221 343 154 C343 93 295 47 235 47 L192 47 C146 47 126 74 98 103 C95 106 94 108 90 108 C89 108 87 108 85 107 L43 85 C39 83 37 81 37 77 C37 46 97 -10 192 -10 L235 -10 C342 -10 410 56 410 154 C410 216 387 265 340 301 C304 328 258 347 208 371 C144 401 113 434 113 479 C113 537 160 582 219 582 L219 582 Z M332 794 C334 797 335 799 335 802 C335 807 331 810 324 810 L288 810 L280 806 L237 746 C234 742 231 741 229 741 C226 741 224 742 221 746 L175 806 L167 810 L132 810 C125 810 121 807 121 802 C121 799 122 797 124 794 L204 689 L212 685 L243 685 L251 689 L332 794 Z " />
<glyph glyph-name="scaron" unicode="&#x161;" horiz-adv-x="438" d="M200 399 L231 399 C276 399 299 375 327 345 C330 342 332 340 335 340 C336 340 337 340 339 341 L377 360 C381 362 384 364 384 367 C384 397 322 452 231 452 L200 452 C107 452 46 395 46 313 C46 225 109 213 225 189 C292 175 323 153 323 116 C323 75 287 43 231 43 L200 43 C151 43 131 70 105 99 C102 102 100 104 97 104 C96 104 94 104 92 103 L53 84 C48 82 46 80 46 77 C46 46 107 -10 200 -10 L231 -10 C328 -10 390 49 390 134 C390 218 326 233 211 258 C142 273 111 292 111 333 C111 374 142 399 200 399 L200 399 Z M324 606 C326 609 327 611 327 614 C327 619 323 622 316 622 L280 622 L272 618 L229 558 C226 554 223 553 221 553 C218 553 216 554 213 558 L167 618 L159 622 L124 622 C117 622 113 619 113 614 C113 611 114 609 116 606 L196 501 L204 497 L235 497 L243 501 L324 606 Z " />
<glyph glyph-name="Ydieresis" unicode="&#x178;" horiz-adv-x="448" d="M430 614 C431 617 432 619 432 621 C432 626 428 629 421 629 L364 629 L355 623 L234 371 C232 366 228 364 225 364 C222 364 218 366 216 371 L93 623 L84 629 L27 629 C19 629 16 626 16 621 C16 619 16 617 18 614 L189 291 L189 10 C189 3 192 0 199 0 L248 0 C255 0 258 3 258 10 L258 291 L430 614 Z M350 751 C350 775 331 794 305 794 C280 794 262 776 262 751 C262 725 280 706 305 706 C329 706 350 727 350 751 L350 751 Z M187 751 C187 776 168 794 143 794 C117 794 99 776 99 751 C99 725 118 706 143 706 C168 706 187 725 187 751 L187 751 Z " />
<glyph glyph-name="Zcaron" unicode="&#x17d;" horiz-adv-x="438" d="M394 10 L394 47 C394 53 390 57 384 57 L144 57 C137 57 133 60 133 65 C133 67 134 69 135 71 L380 615 C381 617 382 619 382 621 C382 626 378 629 371 629 L55 629 C48 629 45 626 45 619 L45 582 C45 575 48 572 55 572 L270 572 C277 572 281 569 281 564 C281 562 280 560 279 558 L36 14 C35 12 34 10 34 8 C34 3 38 0 45 0 L384 0 C391 0 394 3 394 10 L394 10 Z M325 794 C327 797 328 799 328 802 C328 807 324 810 317 810 L281 810 L273 806 L230 746 C227 742 224 741 222 741 C219 741 217 742 214 746 L168 806 L160 810 L125 810 C118 810 114 807 114 802 C114 799 115 797 117 794 L197 689 L205 685 L236 685 L244 689 L325 794 Z " />
<glyph glyph-name="zcaron" unicode="&#x17e;" horiz-adv-x="427" d="M387 10 L387 47 C387 53 383 57 377 57 L164 57 C157 57 153 60 153 65 C153 67 154 69 155 72 L368 426 C369 428 370 431 370 433 C370 437 366 441 359 441 L50 441 C43 441 40 438 40 431 L40 394 C40 387 43 384 50 384 L242 384 C249 384 253 381 253 376 C253 374 252 371 251 369 L40 15 C38 12 38 10 38 8 C38 3 41 0 49 0 L377 0 C384 0 387 3 387 10 L387 10 Z M318 606 C320 609 321 611 321 614 C321 619 317 622 310 622 L274 622 L266 618 L223 558 C220 554 217 553 215 553 C212 553 210 554 207 558 L161 618 L153 622 L118 622 C111 622 107 619 107 614 C107 611 108 609 110 606 L190 501 L198 497 L229 497 L237 501 L318 606 Z " />
<glyph glyph-name="florin" unicode="&#x192;" horiz-adv-x="510" d="M417 626 C418 628 418 630 418 631 C418 639 408 640 384 640 L371 640 C325 640 285 622 254 589 C221 554 203 510 203 466 L203 358 C203 351 200 348 193 348 L166 348 C159 348 156 345 156 338 L156 301 C156 294 159 291 166 291 L193 291 C200 291 203 288 203 281 L203 -71 C203 -129 156 -178 96 -178 C88 -178 83 -176 80 -176 C76 -176 73 -178 71 -182 L57 -219 C56 -221 56 -223 56 -225 C56 -234 68 -235 96 -235 C146 -235 188 -218 220 -184 C253 -149 271 -105 271 -60 L271 281 C271 288 274 291 281 291 L354 291 C361 291 364 294 364 301 L364 338 C364 345 361 348 354 348 L281 348 C274 348 271 351 271 358 L271 476 C271 535 316 582 377 582 C383 582 389 581 393 581 C397 581 400 583 404 588 L417 626 Z " />
<glyph glyph-name="circumflex" unicode="&#x2c6;" horiz-adv-x="500" d="M355 514 L274 619 L266 623 L235 623 L227 619 L147 514 C145 511 144 509 144 506 C144 501 148 498 155 498 L189 498 L197 502 L244 564 C247 568 249 569 252 569 C254 569 257 568 260 564 L304 502 L312 498 L347 498 C354 498 358 501 358 506 C358 508 357 511 355 514 L355 514 Z " />
<glyph glyph-name="caron" unicode="&#x2c7;" horiz-adv-x="500" d="M355 606 C357 609 358 611 358 614 C358 619 354 622 347 622 L311 622 L303 618 L260 558 C257 554 254 553 252 553 C249 553 247 554 244 558 L198 618 L190 622 L155 622 C148 622 144 619 144 614 C144 611 145 609 147 606 L227 501 L235 497 L266 497 L274 501 L355 606 Z " />
<glyph glyph-name="breve" unicode="&#x2d8;" horiz-adv-x="500" d="M358 573 L358 613 C358 620 355 623 348 623 L337 623 C330 623 327 620 327 613 L327 592 C327 565 303 542 271 542 L225 542 C193 542 170 565 170 592 L170 613 C170 620 167 623 160 623 L150 623 C143 623 140 620 140 613 L140 573 C140 527 172 498 225 498 L271 498 C324 498 358 530 358 573 L358 573 Z " />
<glyph glyph-name="dotaccent" unicode="&#x2d9;" horiz-adv-x="500" d="M300 544 L300 575 C300 601 281 619 250 619 C219 619 201 602 201 575 L201 544 C201 517 219 499 250 499 C281 499 300 518 300 544 L300 544 Z " />
<glyph glyph-name="ring" unicode="&#x2da;" horiz-adv-x="454" d="M331 575 L331 604 C331 649 299 680 250 680 C201 680 170 650 170 604 L170 575 C170 529 201 498 250 498 C299 498 331 530 331 575 L331 575 Z M294 604 L294 575 C294 552 277 536 250 536 C224 536 208 551 208 575 L208 604 C208 628 223 642 250 642 C278 642 294 627 294 604 L294 604 Z " />
<glyph glyph-name="ogonek" unicode="&#x2db;" horiz-adv-x="500" d="M342 -221 L342 -204 C342 -197 340 -196 335 -194 C298 -174 272 -163 272 -113 L272 4 L227 4 L227 -106 C227 -171 281 -231 333 -231 C340 -231 342 -229 342 -221 L342 -221 Z " />
<glyph glyph-name="tilde" unicode="&#x2dc;" horiz-adv-x="500" d="M387 579 L378 586 C376 588 374 588 371 588 C364 588 344 558 311 558 C296 558 278 565 267 573 L246 589 C226 604 210 612 190 612 C158 612 133 593 109 553 C108 551 108 550 108 548 C108 545 109 543 112 540 L122 533 C124 531 126 531 129 531 C137 531 154 560 187 560 C199 560 213 555 229 545 L249 532 C270 515 290 506 311 506 C351 506 392 557 392 572 C392 574 390 576 387 579 L387 579 Z " />
<glyph glyph-name="hungarumlaut" unicode="&#x2dd;" horiz-adv-x="500" d="M379 608 C381 611 381 613 381 615 C381 619 377 623 371 623 L336 623 C333 623 330 621 327 616 L290 511 C289 509 289 507 289 506 C289 501 292 498 299 498 L305 498 L313 503 L379 608 Z M278 608 C280 611 280 613 280 615 C280 619 277 623 270 623 L234 623 L225 616 L188 511 C187 509 187 507 187 506 C187 501 190 498 197 498 L204 498 L212 503 L278 608 Z " />
<glyph glyph-name="endash" unicode="&#x2013;" horiz-adv-x="510" d="M492 223 L492 250 C492 256 488 260 482 260 L29 260 C22 260 19 257 19 250 L19 223 C19 216 22 213 29 213 L482 213 C489 213 492 216 492 223 L492 223 Z " />
<glyph glyph-name="emdash" unicode="&#x2014;" horiz-adv-x="791" d="M773 223 L773 250 C773 257 770 260 763 260 L29 260 C22 260 19 257 19 250 L19 223 C19 216 22 213 29 213 L763 213 C770 213 773 216 773 223 L773 223 Z " />
<glyph glyph-name="quoteleft" unicode="&#x2018;" horiz-adv-x="164" d="M131 654 L124 669 C122 673 120 675 117 675 C88 675 40 619 40 522 L40 469 C40 462 43 459 50 459 L113 459 C120 459 123 462 123 469 L123 523 C123 530 119 533 113 533 L101 533 C92 533 91 537 91 549 C91 618 132 642 132 650 C132 651 132 652 131 654 L131 654 Z " />
<glyph glyph-name="quoteright" unicode="&#x2019;" horiz-adv-x="164" d="M125 572 L125 624 C125 631 122 634 115 634 L52 634 C45 634 42 631 42 624 L42 570 C42 563 45 560 52 560 L64 560 C73 560 75 554 75 537 C75 509 63 483 38 455 C35 452 34 450 34 447 C34 445 34 444 35 442 L43 428 C45 424 48 422 50 422 C75 422 125 473 125 572 L125 572 Z " />
<glyph glyph-name="quotesinglbase" unicode="&#x201a;" horiz-adv-x="164" d="M125 31 L125 83 C125 89 121 93 115 93 L52 93 C45 93 42 90 42 83 L42 29 C42 22 45 19 52 19 L64 19 C73 19 75 12 75 -5 C75 -33 63 -60 38 -88 C35 -90 33 -93 33 -95 C33 -97 34 -99 35 -101 L43 -116 C45 -120 48 -121 50 -121 C77 -121 125 -65 125 31 L125 31 Z " />
<glyph glyph-name="quotedblleft" unicode="&#x201c;" horiz-adv-x="293" d="M259 654 L251 669 C249 672 247 675 244 675 C216 675 169 618 169 522 L169 469 C169 462 172 459 179 459 L241 459 C248 459 251 462 251 469 L251 523 C251 530 247 533 241 533 L229 533 C222 533 219 538 219 548 C219 559 221 577 227 599 C231 614 260 625 260 647 C260 650 260 653 259 654 L259 654 Z M131 654 L124 669 C122 673 120 675 117 675 C88 675 40 619 40 522 L40 469 C40 462 43 459 50 459 L113 459 C120 459 123 462 123 469 L123 523 C123 530 119 533 113 533 L101 533 C92 533 91 537 91 549 C91 618 132 642 132 650 C132 651 132 652 131 654 L131 654 Z " />
<glyph glyph-name="quotedblright" unicode="&#x201d;" horiz-adv-x="293" d="M254 572 L254 624 C254 631 251 634 244 634 L181 634 C174 634 171 631 171 624 L171 570 C171 563 174 560 181 560 L193 560 C202 560 204 553 204 537 C204 486 162 456 162 449 C162 446 163 444 164 442 L173 428 C175 425 178 422 180 422 C207 422 254 476 254 572 L254 572 Z M125 572 L125 624 C125 631 122 634 115 634 L52 634 C45 634 42 631 42 624 L42 570 C42 563 45 560 52 560 L64 560 C73 560 75 554 75 537 C75 509 63 483 38 455 C35 452 34 450 34 447 C34 445 34 444 35 442 L43 428 C45 424 48 422 50 422 C75 422 125 473 125 572 L125 572 Z " />
<glyph glyph-name="quotedblbase" unicode="&#x201e;" horiz-adv-x="293" d="M254 31 L254 83 C254 89 250 93 244 93 L181 93 C174 93 171 90 171 83 L171 29 C171 22 174 19 181 19 L193 19 C201 19 203 14 203 3 C203 -60 162 -87 162 -94 C162 -96 163 -99 164 -101 L173 -115 C175 -119 177 -121 180 -121 C210 -121 254 -63 254 31 L254 31 Z M125 31 L125 83 C125 89 121 93 115 93 L52 93 C45 93 42 90 42 83 L42 29 C42 22 45 19 52 19 L64 19 C73 19 75 12 75 -5 C75 -33 63 -60 38 -88 C35 -90 33 -93 33 -95 C33 -97 34 -99 35 -101 L43 -116 C45 -120 48 -121 50 -121 C77 -121 125 -65 125 31 L125 31 Z " />
<glyph glyph-name="dagger" unicode="&#x2020;" horiz-adv-x="410" d="M401 407 L401 452 C401 458 398 462 392 462 L390 462 L231 449 L229 449 C223 449 220 452 220 458 L220 460 L233 619 L233 621 C233 627 229 630 223 630 L179 630 C173 630 169 627 169 621 L169 619 L182 460 L182 458 C182 452 179 449 173 449 L171 449 L11 462 L9 462 C3 462 0 458 0 452 L0 407 C0 401 3 397 9 397 L11 397 L170 410 L173 410 C179 410 181 407 181 402 L181 399 L168 320 L188 -215 C188 -222 191 -225 198 -225 L204 -225 C211 -225 214 -222 214 -215 L234 320 L221 399 L221 402 C221 407 223 410 229 410 L232 410 L390 397 L392 397 C398 397 401 401 401 407 L401 407 Z " />
<glyph glyph-name="daggerdbl" unicode="&#x2021;" horiz-adv-x="410" d="M401 190 L401 235 C401 241 398 245 392 245 L390 245 L239 232 L237 232 C231 232 228 235 228 241 L228 243 L234 322 L221 399 L221 402 C221 407 223 410 229 410 L232 410 L390 397 L392 397 C398 397 401 401 401 407 L401 452 C401 458 398 462 392 462 L390 462 L231 449 L229 449 C223 449 220 452 220 458 L220 460 L233 619 L233 621 C233 627 229 630 223 630 L179 630 C173 630 169 627 169 621 L169 619 L182 460 L182 458 C182 452 179 449 173 449 L171 449 L11 462 L9 462 C3 462 0 458 0 452 L0 407 C0 401 3 397 9 397 L11 397 L170 410 L173 410 C179 410 181 407 181 402 L181 399 L168 321 L174 243 L174 241 C174 235 171 232 165 232 L163 232 L11 245 L9 245 C3 245 0 241 0 235 L0 190 C0 184 2 180 9 180 L11 180 L164 193 L166 193 C172 193 175 189 175 183 L188 -215 C188 -222 191 -225 198 -225 L204 -225 C211 -225 214 -222 214 -215 L227 183 C227 189 230 193 236 193 L238 193 L390 180 L392 180 C398 180 401 184 401 190 L401 190 Z " />
<glyph glyph-name="bullet" unicode="&#x2022;" horiz-adv-x="438" d="M364 305 L364 326 C364 405 308 458 221 458 L217 458 C130 458 74 406 74 326 L74 305 C74 225 130 172 217 172 L221 172 C308 172 364 226 364 305 L364 305 Z " />
<glyph glyph-name="ellipsis" unicode="&#x2026;" horiz-adv-x="443" d="M414 86 L372 107 C370 108 368 108 367 108 C361 108 354 93 335 74 C318 58 291 47 266 47 L235 47 C176 47 128 95 128 154 L128 185 C128 243 176 291 235 291 L305 291 C312 291 315 294 315 301 L315 338 C315 345 312 348 305 348 L235 348 C175 348 128 395 128 456 L128 476 C128 535 175 582 235 582 L266 582 C311 582 332 557 360 527 C363 524 364 522 368 522 C369 522 371 522 373 523 L415 545 C419 547 421 549 421 552 C421 585 360 640 266 640 L235 640 C128 640 60 572 60 466 L60 445 C60 392 92 348 155 322 L155 318 C95 293 60 242 60 188 L60 162 C60 56 127 -10 235 -10 L266 -10 C359 -10 420 42 420 77 C420 81 418 84 414 86 L414 86 Z " />
<glyph glyph-name="perthousand" unicode="&#x2030;" horiz-adv-x="722" d="M680 85 L680 185 C680 235 645 270 590 270 C535 270 500 236 500 185 L500 85 C500 34 535 0 590 0 C645 0 680 35 680 85 L680 85 Z M223 445 L223 545 C223 596 188 630 133 630 C78 630 43 596 43 545 L43 445 C43 394 78 360 133 360 C188 360 223 394 223 445 L223 445 Z M397 616 C398 618 399 620 399 622 C399 627 395 630 388 630 L364 630 C359 628 356 626 355 624 L94 14 C93 11 92 9 92 7 C92 3 96 0 103 0 L127 0 C132 1 135 4 136 6 L397 616 Z M448 85 L448 185 C448 235 413 270 358 270 C303 270 268 236 268 185 L268 85 C268 34 303 0 358 0 C413 0 448 34 448 85 L448 85 Z M630 85 C630 64 612 45 590 45 C568 45 550 64 550 85 L550 185 C550 206 568 225 590 225 C612 225 630 206 630 185 L630 85 Z M173 445 C173 424 155 405 133 405 C111 405 93 424 93 445 L93 545 C93 566 111 585 133 585 C154 585 173 565 173 545 L173 445 Z M398 85 C398 64 380 45 358 45 C336 45 318 64 318 85 L318 185 C318 206 336 225 358 225 C379 225 398 205 398 185 L398 85 Z " />
<glyph glyph-name="guilsinglleft" unicode="&#x2039;" horiz-adv-x="325" d="M265 115 L265 157 L261 165 L116 270 C112 273 111 275 111 278 C111 281 112 283 116 286 L261 390 L265 398 L265 440 C265 447 261 451 257 451 C255 451 252 450 249 448 L60 313 L56 305 L56 250 L60 242 L249 107 C252 105 255 104 257 104 C262 104 265 108 265 115 L265 115 Z " />
<glyph glyph-name="guilsinglright" unicode="&#x203a;" horiz-adv-x="325" d="M278 250 L278 305 L274 313 L83 448 C80 450 78 451 75 451 C70 451 67 447 67 440 L67 398 L71 390 L216 286 C219 284 221 281 221 278 C221 275 219 272 216 270 L71 165 L67 157 L67 115 C67 108 70 104 75 104 C78 104 80 105 83 107 L274 242 L278 250 Z " />
<glyph glyph-name="fraction" unicode="&#x2044;" horiz-adv-x="291" d="M297 616 C298 618 299 620 299 622 C299 627 295 630 288 630 L264 630 C259 628 256 626 255 624 L-6 14 C-7 12 -8 10 -8 8 C-8 3 -4 0 3 0 L27 0 C32 1 35 4 36 6 L297 616 Z " />
<glyph glyph-name="trademark" unicode="&#x2122;" horiz-adv-x="388" d="M358 370 L358 538 C358 545 355 548 348 548 L336 548 L327 543 L280 462 C277 458 274 455 271 455 C268 455 265 458 262 462 L215 543 L206 548 L194 548 C187 548 184 545 184 538 L184 370 C184 363 187 360 194 360 L206 360 C213 360 216 363 216 370 L216 442 C216 449 219 453 224 453 C227 453 231 451 234 447 L261 406 L269 401 L273 401 L282 406 L307 447 C310 451 313 454 316 454 C322 454 326 449 326 442 L326 370 C326 363 329 360 336 360 L348 360 C355 360 358 363 358 370 L358 370 Z M146 527 L146 538 C146 545 143 548 136 548 L30 548 C23 548 20 545 20 538 L20 527 C20 520 23 517 30 517 L57 517 C64 517 67 514 67 507 L67 370 C67 363 70 360 77 360 L89 360 C96 360 99 363 99 370 L99 507 C99 514 102 517 109 517 L136 517 C143 517 146 520 146 527 L146 527 Z " />
<glyph glyph-name="minus" unicode="&#x2212;" horiz-adv-x="833" d="M709 322 L124 322 L124 274 L709 274 L709 322 Z " />
<glyph glyph-name="fi" unicode="&#xfb01;" horiz-adv-x="485" d="M425 596 C425 621 406 640 380 640 C357 640 337 620 337 596 C337 570 356 551 380 551 C404 551 425 572 425 596 L425 596 Z M415 10 L415 432 C415 439 412 442 405 442 L357 442 C350 442 347 439 347 432 L347 10 C347 3 350 0 357 0 L405 0 C412 0 415 3 415 10 L415 10 Z M248 348 L248 385 C248 392 245 395 238 395 L164 395 C157 395 154 398 154 405 L154 476 C154 500 161 521 177 542 C188 557 211 565 240 580 C245 582 248 583 248 590 L248 628 C248 636 244 638 236 638 C196 638 158 617 128 578 C101 543 87 502 87 466 L87 405 C87 398 84 395 77 395 L50 395 C43 395 40 392 40 385 L40 348 C40 341 43 338 50 338 L77 338 C84 338 87 335 87 328 L87 10 C87 3 90 0 97 0 L144 0 C151 0 154 3 154 10 L154 328 C154 335 157 338 164 338 L238 338 C245 338 248 341 248 348 L248 348 Z " />
<glyph glyph-name="fl" unicode="&#xfb02;" horiz-adv-x="488" d="M418 10 L418 619 C418 626 415 629 408 629 L260 629 C213 629 170 611 137 578 C104 545 87 503 87 456 L87 405 C87 398 84 395 77 395 L50 395 C43 395 40 392 40 385 L40 348 C40 341 43 338 50 338 L77 338 C84 338 87 335 87 328 L87 10 C87 3 90 0 97 0 L144 0 C151 0 154 3 154 10 L154 328 C154 335 157 338 164 338 L238 338 C245 338 248 341 248 348 L248 385 C248 392 245 395 238 395 L164 395 C157 395 154 398 154 405 L154 466 C154 526 200 572 260 572 L340 572 C347 572 350 569 350 562 L350 10 C350 3 353 0 360 0 L408 0 C415 0 418 3 418 10 L418 10 Z " />
</font>
</svg>
